<?xml version="1.0" encoding="UTF-8"?>
<svg version="1.1" xmlns="http://www.w3.org/2000/svg" width="120" height="102">
<path d="M0 0 C3.6607519 1.22025063 3.92339441 2.126491 5.6875 5.4375 C6.12449219 6.24058594 6.56148438 7.04367188 7.01171875 7.87109375 C8 10 8 10 8 12 C8.75925781 11.71125 9.51851563 11.4225 10.30078125 11.125 C11.29464844 10.75375 12.28851563 10.3825 13.3125 10 C14.29863281 9.62875 15.28476563 9.2575 16.30078125 8.875 C19 8 19 8 22 8 C21.855625 8.67546875 21.71125 9.3509375 21.5625 10.046875 C21.2840625 11.38492187 21.2840625 11.38492187 21 12.75 C20.814375 13.63171875 20.62875 14.5134375 20.4375 15.421875 C19.88846325 18.22143965 19.88846325 18.22143965 20 22 C22.21085038 23.73699873 22.21085038 23.73699873 25 25.125 C26.69440524 26.03338948 28.36968482 26.98105301 30 28 C30 28.66 30 29.32 30 30 C26.37 31.98 22.74 33.96 19 36 C19.515625 37.753125 20.03125 39.50625 20.5625 41.3125 C22.125 46.625 22.125 46.625 21 50 C19.02 49.505 19.02 49.505 17 49 C17.0825 50.03125 17.165 51.0625 17.25 52.125 C16.91135377 57.3740166 14.73474004 59.99837688 11.375 63.875 C10 65 10 65 8 65 C8 65.66 8 66.32 8 67 C0.9208655 67.2712518 -6.1587667 67.50066074 -13.24023438 67.7019043 C-15.64581521 67.77509936 -18.05113142 67.8576433 -20.45605469 67.94995117 C-23.92614687 68.08148118 -27.3958213 68.1786338 -30.8671875 68.26953125 C-31.93113739 68.31721146 -32.99508728 68.36489166 -34.09127808 68.41401672 C-42.00327359 68.57219728 -48.62602177 66.91744471 -54.65182495 61.52058411 C-57.20860418 58.63683555 -58.92232182 55.68206712 -60 52 C-60.309375 50.948125 -60.61875 49.89625 -60.9375 48.8125 C-61.03881081 42.63254033 -58.37560546 37.81074111 -54.421875 33.1328125 C-50.68450175 29.62247595 -47.13137059 28.28649409 -42.26171875 26.9140625 C-39.58319189 25.83154906 -37.97405561 24.41069347 -35.875 22.4375 C-31.20047746 18.05859944 -26.89621226 16.93065652 -20.5625 16.875 C-19.386875 16.91625 -18.21125 16.9575 -17 17 C-17.99 14.36 -18.98 11.72 -20 9 C-16.14507389 7.71502463 -14.59653164 8.5947791 -10.8125 9.9375 C-9.72582031 10.31777344 -8.63914063 10.69804687 -7.51953125 11.08984375 C-6.68808594 11.39019531 -5.85664062 11.69054688 -5 12 C-4.70351562 11.07960938 -4.40703125 10.15921875 -4.1015625 9.2109375 C-2.9884035 5.96619744 -1.58987983 3.03522512 0 0 Z " fill="#E4E1DD" transform="translate(77,16)"/>
<path d="M0 0 C3.6607519 1.22025063 3.92339441 2.126491 5.6875 5.4375 C6.34298828 6.64212891 6.34298828 6.64212891 7.01171875 7.87109375 C8 10 8 10 8 12 C8.75925781 11.71125 9.51851562 11.4225 10.30078125 11.125 C11.29464844 10.75375 12.28851563 10.3825 13.3125 10 C14.79169922 9.443125 14.79169922 9.443125 16.30078125 8.875 C19 8 19 8 22 8 C21.855625 8.67546875 21.71125 9.3509375 21.5625 10.046875 C21.2840625 11.38492187 21.2840625 11.38492187 21 12.75 C20.814375 13.63171875 20.62875 14.5134375 20.4375 15.421875 C19.88846325 18.22143965 19.88846325 18.22143965 20 22 C22.21085038 23.73699873 22.21085038 23.73699873 25 25.125 C26.69440524 26.03338948 28.36968482 26.98105301 30 28 C30 28.66 30 29.32 30 30 C26.37 31.98 22.74 33.96 19 36 C19.515625 37.753125 20.03125 39.50625 20.5625 41.3125 C22.125 46.625 22.125 46.625 21 50 C15.72724154 47.89089662 14.36571338 46.03999807 12 41 C9.30005478 38.37302627 7.53487926 37.13906861 3.875 36.1875 C1 35 1 35 -0.8125 31.5625 C-1.54166667 29.375 -2.27083333 27.1875 -3 25 C-5.07966807 23.73917215 -7.21015879 22.9173309 -9.47265625 22.02734375 C-16.36209215 19.12816936 -16.36209215 19.12816936 -18.31640625 15.671875 C-19.0397627 13.4493885 -19.60868639 11.30273012 -20 9 C-16.14507389 7.71502463 -14.59653164 8.5947791 -10.8125 9.9375 C-9.72582031 10.31777344 -8.63914062 10.69804687 -7.51953125 11.08984375 C-6.68808594 11.39019531 -5.85664062 11.69054688 -5 12 C-4.70351562 11.07960938 -4.40703125 10.15921875 -4.1015625 9.2109375 C-2.9884035 5.96619744 -1.58987983 3.03522512 0 0 Z " fill="#FAB43F" transform="translate(77,16)"/>
<path d="M0 0 C3.46601488 2.78971929 4.23777414 5.30499096 4.875 9.5625 C5.2481868 13.03554487 4.76508768 14.98293152 3 18 C2.34 18 1.68 18 1 18 C0.67 18.66 0.34 19.32 0 20 C-7.3245889 17.95872113 -7.3245889 17.95872113 -9.1640625 15.34765625 C-9.9375 13.5 -9.9375 13.5 -11 10 C-11.65391779 6.8891846 -11.65391779 6.8891846 -14 5.9375 C-14.66 5.628125 -15.32 5.31875 -16 5 C-16.33 4.34 -16.66 3.68 -17 3 C-11.55417779 -2.82139615 -7.27193656 -2.37232029 0 0 Z " fill="#FEBD53" transform="translate(86,34)"/>
<path d="M0 0 C4.75207471 -0.43200679 7.78210698 1.01510917 12 3 C11.70703125 5.01822917 11.4140625 7.03645833 11.12109375 9.0546875 C10.8315703 11.08140667 10.8315703 11.08140667 12 13 C9.6875 12.9375 9.6875 12.9375 7 12 C5.29995206 8.72133612 4.1651105 5.49533149 3 2 C2.01 1.67 1.02 1.34 0 1 C0 0.67 0 0.34 0 0 Z " fill="#FCC56A" transform="translate(71,39)"/>
<path d="M0 0 C2.29633824 3.44450737 2.54016485 5.93812283 3 10 C1.02 9.34 -0.96 8.68 -3 8 C-2.34 7.34 -1.68 6.68 -1 6 C-0.60235737 4.01178687 -0.26224651 2.01055661 0 0 Z " fill="#F0B349" transform="translate(96,56)"/>
</svg>
