<?xml version="1.0" encoding="UTF-8"?>
<svg version="1.1" xmlns="http://www.w3.org/2000/svg" width="120" height="101">
<path d="M0 0 C0.66 0 1.32 0 2 0 C5.3 6.27 8.6 12.54 12 19 C13.670625 18.54625 15.34125 18.0925 17.0625 17.625 C18.06667969 17.35300781 19.07085937 17.08101562 20.10546875 16.80078125 C22.37589703 16.17266007 24.62436596 15.50615439 26.875 14.8125 C30 14 30 14 35 14 C33.02 21.26 31.04 28.52 29 36 C35.27 39.3 41.54 42.6 48 46 C48 46.99 48 47.98 48 49 C38.595 53.95 38.595 53.95 29 59 C30.98 66.26 32.96 73.52 35 81 C28.40880317 81 26.61465563 80.51691459 21 78 C18.03 77.34 15.06 76.68 12 76 C8.7 82.27 5.4 88.54 2 95 C-1.48846099 93.83717967 -1.64041683 93.36890261 -3.26171875 90.25390625 C-3.65810547 89.49916016 -4.05449219 88.74441406 -4.46289062 87.96679688 C-4.86701172 87.17337891 -5.27113281 86.37996094 -5.6875 85.5625 C-6.10322266 84.77294922 -6.51894531 83.98339844 -6.94726562 83.16992188 C-10 77.29002463 -10 77.29002463 -10 75 C-10.55461914 75.18175781 -11.10923828 75.36351563 -11.68066406 75.55078125 C-14.20184503 76.37324932 -16.72584661 77.18670239 -19.25 78 C-20.12269531 78.28617187 -20.99539062 78.57234375 -21.89453125 78.8671875 C-23.16103516 79.27324219 -23.16103516 79.27324219 -24.453125 79.6875 C-25.22817383 79.93886719 -26.00322266 80.19023438 -26.80175781 80.44921875 C-29 81 -29 81 -33 81 C-31.80398501 73.00558401 -29.73311633 65.602309 -27 58 C-27.60328125 57.81824219 -28.2065625 57.63648438 -28.828125 57.44921875 C-33.14248622 56.09228256 -36.44594893 54.84324085 -40 52 C-42.30076924 50.89985052 -44.63325752 49.95579985 -47 49 C-45.83717967 45.51153901 -45.36890261 45.35958317 -42.25390625 43.73828125 C-41.49916016 43.34189453 -40.74441406 42.94550781 -39.96679688 42.53710938 C-38.77666992 41.93092773 -38.77666992 41.93092773 -37.5625 41.3125 C-36.77294922 40.89677734 -35.98339844 40.48105469 -35.16992188 40.05273438 C-29.29002463 37 -29.29002463 37 -27 37 C-27 35.68 -27 34.36 -27 33 C-27.66 32.67 -28.32 32.34 -29 32 C-29.81640625 29.77734375 -29.81640625 29.77734375 -30.5625 26.9375 C-30.81128906 26.01839844 -31.06007813 25.09929688 -31.31640625 24.15234375 C-32.12153227 20.43956261 -32.57337906 16.77457959 -33 13 C-29.54075017 13.97594854 -26.08276451 14.95630319 -22.625 15.9375 C-21.64015625 16.21529297 -20.6553125 16.49308594 -19.640625 16.77929688 C-18.69960938 17.04677734 -17.75859375 17.31425781 -16.7890625 17.58984375 C-15.91975098 17.83597412 -15.05043945 18.08210449 -14.15478516 18.33569336 C-12 19 -12 19 -10 20 C-9.74347656 19.15050781 -9.48695312 18.30101563 -9.22265625 17.42578125 C-7.92406446 13.78723492 -6.29167243 10.57455819 -4.4375 7.1875 C-3.81746094 6.04667969 -3.19742188 4.90585938 -2.55859375 3.73046875 C-1 1 -1 1 0 0 Z " fill="#FEB845" transform="translate(59,3)"/>
<path d="M0 0 C5.28 1.65 10.56 3.3 16 5 C14.9623523 9.15059081 14.32389431 9.94943009 11.4375 12.8125 C8.91048894 15.56126917 7.51627388 17.20175387 7.5625 21 C7.706875 21.99 7.85125 22.98 8 24 C7.195625 24.2475 6.39125 24.495 5.5625 24.75 C2.92559077 25.70871054 2.92559077 25.70871054 2.1875 27.6875 C1.58253523 34.95222509 1.58253523 34.95222509 3 42 C3.845625 42.433125 4.69125 42.86625 5.5625 43.3125 C6.366875 43.869375 7.17125 44.42625 8 45 C8.03227708 47.00117904 8.05430567 49.00635033 7.9296875 51.00390625 C8.04596345 54.30485128 9.67669338 55.80227752 12 58 C12.9075 58.53625 13.815 59.0725 14.75 59.625 C15.4925 60.07875 16.235 60.5325 17 61 C17 61.99 17 62.98 17 64 C14.91891315 64.67364661 12.8350329 65.33866798 10.75 66 C9.58984375 66.37125 8.4296875 66.7425 7.234375 67.125 C4 68 4 68 0 68 C1.19601499 60.00558401 3.26688367 52.602309 6 45 C5.39671875 44.81824219 4.7934375 44.63648438 4.171875 44.44921875 C-0.14248622 43.09228256 -3.44594893 41.84324085 -7 39 C-9.30076924 37.89985052 -11.63325752 36.95579985 -14 36 C-12.83717967 32.51153901 -12.36890261 32.35958317 -9.25390625 30.73828125 C-8.49916016 30.34189453 -7.74441406 29.94550781 -6.96679688 29.53710938 C-5.77666992 28.93092773 -5.77666992 28.93092773 -4.5625 28.3125 C-3.77294922 27.89677734 -2.98339844 27.48105469 -2.16992188 27.05273438 C3.70997537 24 3.70997537 24 6 24 C6 22.68 6 21.36 6 20 C5.34 19.67 4.68 19.34 4 19 C3.18359375 16.77734375 3.18359375 16.77734375 2.4375 13.9375 C2.18871094 13.01839844 1.93992187 12.09929688 1.68359375 11.15234375 C0.88684005 7.47817097 0.46631719 3.73053755 0 0 Z " fill="#FBAF33" transform="translate(26,16)"/>
<path d="M0 0 C0 0.66 0 1.32 0 2 C0.66 2 1.32 2 2 2 C3.73999458 5.47998917 3.43947588 9.19558194 3 13 C1.625 16.0625 1.625 16.0625 -1 18 C-4.54617444 18.89868804 -7.47000559 19.00460533 -11 18 C-13.59256505 15.64729825 -15.32125439 13.05722777 -17 10 C-14.06773244 1.77240219 -14.06773244 1.77240219 -10.0625 -1.125 C-6.0499241 -2.27145026 -3.67638382 -1.83819191 0 0 Z " fill="#FFC363" transform="translate(66,42)"/>
<path d="M0 0 C3 3 3 3 4.296875 4.5859375 C6.58234382 6.48350564 8.00105748 6.36990414 10.9375 6.3125 C11.79214844 6.30863281 12.64679687 6.30476563 13.52734375 6.30078125 C17.29203078 5.84283354 19.34300024 4.79778542 21.75 1.875 C22.1625 1.25625 22.575 0.6375 23 0 C24.32 0.33 25.64 0.66 27 1 C27 1.66 27 2.32 27 3 C25.68 3 24.36 3 23 3 C19.7 9.27 16.4 15.54 13 22 C9.51153901 20.83717967 9.35958317 20.36890261 7.73828125 17.25390625 C7.14370117 16.12178711 7.14370117 16.12178711 6.53710938 14.96679688 C6.13298828 14.17337891 5.72886719 13.37996094 5.3125 12.5625 C4.89677734 11.77294922 4.48105469 10.98339844 4.05273438 10.16992188 C1 4.29002463 1 4.29002463 1 2 C-0.65 2.33 -2.3 2.66 -4 3 C-3 1 -3 1 0 0 Z " fill="#FAAF35" transform="translate(48,76)"/>
<path d="M0 0 C-0.18699463 0.65597168 -0.37398926 1.31194336 -0.56665039 1.98779297 C-1.40605417 4.94814101 -2.23440107 7.91147078 -3.0625 10.875 C-3.35705078 11.90753906 -3.65160156 12.94007812 -3.95507812 14.00390625 C-4.22900391 14.99003906 -4.50292969 15.97617187 -4.78515625 16.9921875 C-5.17006226 18.35899658 -5.17006226 18.35899658 -5.56274414 19.75341797 C-6.24179138 22.02462865 -6.24179138 22.02462865 -5 24 C-5.99 23.67 -6.98 23.34 -8 23 C-7.938125 21.948125 -7.87625 20.89625 -7.8125 19.8125 C-8.0704745 14.56701859 -9.70673509 12.40411619 -13.1875 8.625 C-17.2103638 6.30067869 -19.51328465 7.08744773 -24 8 C-24.66 6.02 -25.32 4.04 -26 2 C-25.01 2.99 -24.02 3.98 -23 5 C-21.31234761 4.5422281 -19.62488648 4.0837511 -17.9375 3.625 C-16.93332031 3.35300781 -15.92914063 3.08101562 -14.89453125 2.80078125 C-12.62410297 2.17266007 -10.37563404 1.50615439 -8.125 0.8125 C-5.2215313 0.05759814 -2.96915765 -0.06542212 0 0 Z " fill="#FAAF35" transform="translate(94,17)"/>
<path d="M0 0 C0.66 0 1.32 0 2 0 C3.0384211 1.71866217 4.05514635 3.45044598 5.0625 5.1875 C5.63097656 6.15042969 6.19945313 7.11335937 6.78515625 8.10546875 C8.13815174 11.32916541 8.04769518 12.72520421 7 16 C5.78763672 15.89558594 5.78763672 15.89558594 4.55078125 15.7890625 C-1.48433998 15.24569315 -1.48433998 15.24569315 -6.91015625 17.3359375 C-8.43361061 19.14330371 -8.43361061 19.14330371 -10 22 C-11.32 21.34 -12.64 20.68 -14 20 C-12.68 20 -11.36 20 -10 20 C-9.74347656 19.15050781 -9.48695312 18.30101563 -9.22265625 17.42578125 C-7.92406446 13.78723492 -6.29167243 10.57455819 -4.4375 7.1875 C-3.50744141 5.47626953 -3.50744141 5.47626953 -2.55859375 3.73046875 C-1 1 -1 1 0 0 Z " fill="#FBAF32" transform="translate(59,3)"/>
<path d="M0 0 C4.9723422 1.49170266 9.41845739 3.60457417 14 6 C14 6.99 14 7.98 14 9 C11.54429825 10.33838733 9.08570084 11.67086232 6.625 13 C5.92632812 13.3815625 5.22765625 13.763125 4.5078125 14.15625 C-0.7734375 17 -0.7734375 17 -3 17 C-2.8453125 16.29359375 -2.690625 15.5871875 -2.53125 14.859375 C-1.81996387 11.03098198 -1.57168669 7.20752933 -1.28125 3.328125 C-1 1 -1 1 0 0 Z " fill="#FAAF34" transform="translate(93,43)"/>
<path d="M0 0 C0.99 0.33 1.98 0.66 3 1 C3.73046875 2.84765625 3.73046875 2.84765625 4.1875 5.0625 C4.34605469 5.79597656 4.50460938 6.52945313 4.66796875 7.28515625 C4.77753906 7.85105469 4.88710937 8.41695312 5 9 C-1.4 9.36923077 -1.4 9.36923077 -4.4375 7.5 C-4.953125 7.005 -5.46875 6.51 -6 6 C-5.195625 5.38125 -4.39125 4.7625 -3.5625 4.125 C-0.96125481 2.25835959 -0.96125481 2.25835959 0 0 Z " fill="#F3B03D" transform="translate(89,75)"/>
<path d="M0 0 C1.60080151 4.00200378 0.29279692 7.04556236 -1 11 C0.98 11 2.96 11 5 11 C1.91190305 12.76462683 0.76687864 13 -3 13 C-2.69128878 11.20767663 -2.37790936 9.41615679 -2.0625 7.625 C-1.88847656 6.62726563 -1.71445312 5.62953125 -1.53515625 4.6015625 C-1 2 -1 2 0 0 Z " fill="#F3B03E" transform="translate(29,71)"/>
<path d="M0 0 C0 2.31 0 4.62 0 7 C-2.31 6.01 -4.62 5.02 -7 4 C-1.7826087 0 -1.7826087 0 0 0 Z " fill="#FEAC25" transform="translate(21,47)"/>
<path d="M0 0 C1.9451 2.91765 2.45276317 4.62537285 3 8 C0.69 7.34 -1.62 6.68 -4 6 C-2.68 4.02 -1.36 2.04 0 0 Z " fill="#FEAC25" transform="translate(89,75)"/>
<path d="M0 0 C-0.60183749 2.02045442 -1.27306096 4.02111039 -2 6 C-2.99 6.495 -2.99 6.495 -4 7 C-4.66 5.02 -5.32 3.04 -6 1 C-3.92446352 0.4465236 -2.15634036 0 0 0 Z " fill="#FEAC25" transform="translate(63,89)"/>
<path d="M0 0 C2 0 2 0 3.625 1.375 C5 3 5 3 5 5 C3.02 5.33 1.04 5.66 -1 6 C-0.67 4.02 -0.34 2.04 0 0 Z " fill="#FEAC25" transform="translate(29,76)"/>
<path d="M0 0 C0.33 0.66 0.66 1.32 1 2 C0.0625 4.625 0.0625 4.625 -1 7 C-3 5.625 -3 5.625 -5 4 C-5 3.34 -5 2.68 -5 2 C-3.35 1.34 -1.7 0.68 0 0 Z " fill="#FEAC25" transform="translate(91,18)"/>
<path d="M0 0 C1.98 0.99 3.96 1.98 6 3 C4.35 4.32 2.7 5.64 1 7 C0.34 6.67 -0.32 6.34 -1 6 C-0.67 4.02 -0.34 2.04 0 0 Z " fill="#FEAC25" transform="translate(99,47)"/>
</svg>
