<?xml version="1.0" encoding="UTF-8"?>
<svg version="1.1" xmlns="http://www.w3.org/2000/svg" width="120" height="104">
<path d="M0 0 C0.66 0 1.32 0 2 0 C4.31 5.28 6.62 10.56 9 16 C12.49891221 16 15.21946233 13.38779969 18.0625 11.5 C24.88006757 7 24.88006757 7 26 7 C26.26532622 13.89848166 25.23510365 20.20692992 24 27 C30.27 27 36.54 27 43 27 C41 31 41 31 39.3125 33.625 C38.879375 34.40875 38.44625 35.1925 38 36 C38.33 36.66 38.66 37.32 39 38 C39.05094989 39.62473543 39.09124248 41.24981646 39.125 42.875 C39.38782858 46.66091216 39.38782858 46.66091216 41.62109375 49.546875 C43.75830873 50.78711734 43.75830873 50.78711734 47 52 C47 52.66 47 53.32 47 54 C44.36 54.66 41.72 55.32 39 56 C39.11397544 58.43847451 39.24070974 60.87513174 39.375 63.3125 C39.4059375 64.00279297 39.436875 64.69308594 39.46875 65.40429688 C39.68124919 69.06990789 39.91933861 70.87900792 42 74 C42.67383955 77.72385013 42.76333676 81.38472488 41.125 84.8515625 C38.99198875 87.70025516 36.82826882 89.07950518 33.625 90.5625 C28.20089693 91.21713313 24.93187374 89.42348591 20.625 86.25 C18.41465394 83.18952084 18.20007227 80.73468239 18 77 C18.4375 74.5625 18.4375 74.5625 19 73 C18.01 72.505 18.01 72.505 17 72 C16.90912109 73.17755859 16.90912109 73.17755859 16.81640625 74.37890625 C16.37179786 79.95361148 15.87875357 85.47640616 15 91 C14.01 91 13.02 91 12 91 C9.84375 88.6640625 9.84375 88.6640625 7.5 85.625 C4.19007337 81.34801576 4.19007337 81.34801576 0 78 C-0.77085938 78.9384375 -1.54171875 79.876875 -2.3359375 80.84375 C-3.34865021 82.06275604 -4.36168788 83.28149218 -5.375 84.5 C-6.13683594 85.43005859 -6.13683594 85.43005859 -6.9140625 86.37890625 C-8.23207606 87.95705407 -9.61212632 89.48292487 -11 91 C-11.66 91 -12.32 91 -13 91 C-14.95021536 84.53991163 -15.22262303 78.7281627 -15 72 C-16.02480469 72.3609375 -17.04960938 72.721875 -18.10546875 73.09375 C-19.46600752 73.5629013 -20.82669241 74.03162901 -22.1875 74.5 C-23.19780273 74.85771484 -23.19780273 74.85771484 -24.22851562 75.22265625 C-27.93204467 76.48727592 -31.07940536 77.30451221 -35 77 C-34.71125 76.319375 -34.4225 75.63875 -34.125 74.9375 C-32.87402645 71.67106907 -31.92552045 68.37153877 -31 65 C-30.34 65 -29.68 65 -29 65 C-28.34 63.02 -27.68 61.04 -27 59 C-28.20398438 58.73445313 -29.40796875 58.46890625 -30.6484375 58.1953125 C-32.2240451 57.83892507 -33.79956127 57.48213322 -35.375 57.125 C-36.1690625 56.95097656 -36.963125 56.77695313 -37.78125 56.59765625 C-38.54179688 56.42363281 -39.30234375 56.24960938 -40.0859375 56.0703125 C-40.7876709 55.91320801 -41.4894043 55.75610352 -42.21240234 55.59423828 C-44 55 -44 55 -46 53 C-40.70460564 49.27438657 -35.40931904 45.55876253 -30 42 C-30.99 41.34 -31.98 40.68 -33 40 C-34 38.33333333 -35 36.66666667 -36 35 C-37.55700533 33.111632 -39.16235169 31.27814652 -40.79296875 29.453125 C-42 28 -42 28 -42 27 C-35.4 27 -28.8 27 -22 27 C-23.02286621 21.91261138 -23.02286621 21.91261138 -24.06469727 16.82910156 C-24.7723716 13.18753693 -25.07664805 10.53608369 -24 7 C-23.02417969 7.63808594 -22.04835938 8.27617187 -21.04296875 8.93359375 C-19.75792538 9.76840295 -18.4727629 10.60302882 -17.1875 11.4375 C-16.54490234 11.85837891 -15.90230469 12.27925781 -15.24023438 12.71289062 C-12.51609896 14.47722704 -10.09247829 15.9691739 -7 17 C-6.82984375 16.443125 -6.6596875 15.88625 -6.484375 15.3125 C-4.76684063 9.90409391 -2.64657745 5.01937104 0 0 Z " fill="#FE6402" transform="translate(56,8)"/>
<path d="M0 0 C0.26532622 6.89848166 -0.76489635 13.20692992 -2 20 C4.27 20 10.54 20 17 20 C15 24 15 24 13.3125 26.625 C12.879375 27.40875 12.44625 28.1925 12 29 C12.495 29.99 12.495 29.99 13 31 C13.05094989 32.62473543 13.09124248 34.24981646 13.125 35.875 C13.38782858 39.66091216 13.38782858 39.66091216 15.62109375 42.546875 C17.75830873 43.78711734 17.75830873 43.78711734 21 45 C21 45.66 21 46.32 21 47 C18.36 47.66 15.72 48.32 13 49 C13.11397544 51.43847451 13.24070974 53.87513174 13.375 56.3125 C13.4059375 57.00279297 13.436875 57.69308594 13.46875 58.40429688 C13.68124919 62.06990789 13.91933861 63.87900792 16 67 C16.67383955 70.72385013 16.76333676 74.38472488 15.125 77.8515625 C12.99198875 80.70025516 10.82826882 82.07950518 7.625 83.5625 C2.20089693 84.21713313 -1.06812626 82.42348591 -5.375 79.25 C-7.58534606 76.18952084 -7.79992773 73.73468239 -8 70 C-7.5625 67.5625 -7.5625 67.5625 -7 66 C-7.99 65.505 -7.99 65.505 -9 65 C-9.09087891 66.17755859 -9.09087891 66.17755859 -9.18359375 67.37890625 C-9.62820214 72.95361148 -10.12124643 78.47640616 -11 84 C-11.99 84 -12.98 84 -14 84 C-16.15625 81.6640625 -16.15625 81.6640625 -18.5 78.625 C-21.80992663 74.34801576 -21.80992663 74.34801576 -26 71 C-26.77085938 71.9384375 -27.54171875 72.876875 -28.3359375 73.84375 C-29.34865021 75.06275604 -30.36168788 76.28149218 -31.375 77.5 C-32.13683594 78.43005859 -32.13683594 78.43005859 -32.9140625 79.37890625 C-34.23207606 80.95705407 -35.61212632 82.48292487 -37 84 C-37.66 84 -38.32 84 -39 84 C-40.95021536 77.53991163 -41.22262303 71.7281627 -41 65 C-43.475 65.495 -43.475 65.495 -46 66 C-45.505 65.01 -45.505 65.01 -45 64 C-43.35 64 -41.7 64 -40 64 C-39.01 68.95 -38.02 73.9 -37 79 C-36.505 78.505 -36.505 78.505 -36 78 C-35.34 78 -34.68 78 -34 78 C-33.34 76.68 -32.68 75.36 -32 74 C-31.34 74 -30.68 74 -30 74 C-29.7525 73.360625 -29.505 72.72125 -29.25 72.0625 C-28 70 -28 70 -26.1875 68.9375 C-24 69 -24 69 -21.5625 71.125 C-20.716875 72.07375 -19.87125 73.0225 -19 74 C-18.071875 74.928125 -17.14375 75.85625 -16.1875 76.8125 C-15.465625 77.534375 -14.74375 78.25625 -14 79 C-12.42922093 73.97350697 -11.55145271 69.23880078 -11 64 C-8.36 64 -5.72 64 -3 64 C-3.01571045 62.98574951 -3.0314209 61.97149902 -3.04760742 60.92651367 C-3.10190319 57.16389913 -3.13634851 53.40131922 -3.16479492 49.63842773 C-3.17988243 48.00978777 -3.20035506 46.38118844 -3.22631836 44.75268555 C-3.26270449 42.41184465 -3.2797262 40.07154081 -3.29296875 37.73046875 C-3.30845261 37.00224411 -3.32393646 36.27401947 -3.33988953 35.52372742 C-3.34156588 30.48948427 -3.34156588 30.48948427 -1.63232422 28.04003906 C1.25022138 26.20341862 4.39451095 26.57721342 7.72265625 26.50390625 C8.47417969 26.33761719 9.22570312 26.17132813 10 26 C10.66 24.68 11.32 23.36 12 22 C6.72 22 1.44 22 -4 22 C-4.09063407 16.19941973 -3.83485204 10.73960775 -3 5 C-4.32 4.67 -5.64 4.34 -7 4 C-1.125 0 -1.125 0 0 0 Z " fill="#E59068" transform="translate(82,15)"/>
<path d="M0 0 C0.26532622 6.89848166 -0.76489635 13.20692992 -2 20 C4.27 20 10.54 20 17 20 C15 24 15 24 13.3125 26.625 C12.879375 27.40875 12.44625 28.1925 12 29 C12.33 29.66 12.66 30.32 13 31 C13.05094989 32.62473543 13.09124248 34.24981646 13.125 35.875 C13.38782858 39.66091216 13.38782858 39.66091216 15.62109375 42.546875 C17.75830873 43.78711734 17.75830873 43.78711734 21 45 C21 45.66 21 46.32 21 47 C18.36 47.66 15.72 48.32 13 49 C13.11397544 51.43847451 13.24070974 53.87513174 13.375 56.3125 C13.4059375 57.00279297 13.436875 57.69308594 13.46875 58.40429688 C13.68124919 62.06990789 13.91933861 63.87900792 16 67 C16.67383955 70.72385013 16.76333676 74.38472488 15.125 77.8515625 C12.99198875 80.70025516 10.82826882 82.07950518 7.625 83.5625 C2.20089693 84.21713313 -1.06812626 82.42348591 -5.375 79.25 C-8.12946593 75.4361241 -8.24134214 71.62044009 -7.5625 67.0625 C-7.376875 66.381875 -7.19125 65.70125 -7 65 C-5.68 65 -4.36 65 -3 65 C-3.03480469 65.67546875 -3.06960937 66.3509375 -3.10546875 67.046875 C-3.14607422 68.38492188 -3.14607422 68.38492188 -3.1875 69.75 C-3.22230469 70.63171875 -3.25710937 71.5134375 -3.29296875 72.421875 C-2.94043625 75.52416102 -2.2265193 76.82851826 0 79 C1.94056541 79.55438371 1.94056541 79.55438371 4 79.375 C4.680625 79.36210938 5.36125 79.34921875 6.0625 79.3359375 C8.31939935 79.07913353 8.31939935 79.07913353 11 77 C11.57993699 74.80545319 11.57993699 74.80545319 11.6875 72.375 C11.75324219 71.55773437 11.81898437 70.74046875 11.88671875 69.8984375 C11.92410156 69.27195312 11.96148437 68.64546875 12 68 C10.68 67.34 9.36 66.68 8 66 C8 54.78 8 43.56 8 32 C5.69 31.67 3.38 31.34 1 31 C1 30.67 1 30.34 1 30 C2.98 29.67 4.96 29.34 7 29 C4.69 28.67 2.38 28.34 0 28 C0 27.67 0 27.34 0 27 C0.69867188 26.97421875 1.39734375 26.9484375 2.1171875 26.921875 C3.02726562 26.86515625 3.93734375 26.8084375 4.875 26.75 C5.77992187 26.70359375 6.68484375 26.6571875 7.6171875 26.609375 C8.40351562 26.40828125 9.18984375 26.2071875 10 26 C10.66 24.68 11.32 23.36 12 22 C6.72 22 1.44 22 -4 22 C-4.09063407 16.19941973 -3.83485204 10.73960775 -3 5 C-4.32 4.67 -5.64 4.34 -7 4 C-1.125 0 -1.125 0 0 0 Z " fill="#E5946D" transform="translate(82,15)"/>
<path d="M0 0 C2.31 0 4.62 0 7 0 C7.33 11.55 7.66 23.1 8 35 C8.66 35.33 9.32 35.66 10 36 C10.35915493 42.34507042 10.35915493 42.34507042 8.9375 44.9375 C5.84506242 46.63335287 3.44485259 46.43060657 0 46 C-2.70029608 43.73523555 -2.96213296 42.37867037 -3.3125 38.875 C-3 36 -3 36 -1 34 C-0.75470419 31.42420615 -0.62658207 28.94770993 -0.5859375 26.3671875 C-0.56657135 25.61535187 -0.5472052 24.86351624 -0.5272522 24.08889771 C-0.46740853 21.68438101 -0.42105274 19.27981656 -0.375 16.875 C-0.33682454 15.24607272 -0.29777307 13.61716572 -0.2578125 11.98828125 C-0.16170334 7.99235194 -0.07769059 3.99632813 0 0 Z " fill="#FD4205" transform="translate(83,47)"/>
<path d="M0 0 C0.66 0 1.32 0 2 0 C4.31 5.28 6.62 10.56 9 16 C11.32357511 16.18490007 11.32357511 16.18490007 14 14 C17 12 17 12 19 12 C19 12.66 19 13.32 19 14 C18.01 14 17.02 14 16 14 C16 14.66 16 15.32 16 16 C11.92978208 19.05266344 11.92978208 19.05266344 9 18.88671875 C6.13036111 17.61443744 5.56607088 15.92774355 4.25 13.125 C3.82203125 12.24070312 3.3940625 11.35640625 2.953125 10.4453125 C2 8 2 8 2 5 C1.34 5 0.68 5 0 5 C-0.2475 5.639375 -0.495 6.27875 -0.75 6.9375 C-2.40811572 10.99988351 -4.2035584 14.99724906 -6 19 C-9.71245907 18.42177629 -12.44908308 17.39136744 -15.6875 15.5 C-16.45449219 15.0565625 -17.22148438 14.613125 -18.01171875 14.15625 C-18.66785156 13.7746875 -19.32398437 13.393125 -20 13 C-20.66 12.67 -21.32 12.34 -22 12 C-21.505 19.92 -21.505 19.92 -21 28 C-26.28 28.33 -31.56 28.66 -37 29 C-35.6078125 30.85625 -35.6078125 30.85625 -34.1875 32.75 C-33.125 34.16666667 -32.0625 35.58333333 -31 37 C-30.43925781 37.70511719 -29.87851562 38.41023438 -29.30078125 39.13671875 C-28 41 -28 41 -28 43.0625 C-29.41966878 45.81310827 -31.26316962 46.66496079 -34 48 C-34.66 48 -35.32 48 -36 48 C-36.309375 48.61875 -36.61875 49.2375 -36.9375 49.875 C-37.625 51.25 -38.3125 52.625 -39 54 C-36.69 54.33 -34.38 54.66 -32 55 C-32 55.66 -32 56.32 -32 57 C-31.01 57.33 -30.02 57.66 -29 58 C-34.9129304 57.35729017 -40.34244531 55.80996216 -46 54 C-42.8980055 50.65707389 -39.56424638 48.23755199 -35.75 45.75 C-34.67234375 45.04359375 -33.5946875 44.3371875 -32.484375 43.609375 C-31.66453125 43.07828125 -30.8446875 42.5471875 -30 42 C-30.99 41.34 -31.98 40.68 -33 40 C-34 38.33333333 -35 36.66666667 -36 35 C-37.55700533 33.111632 -39.16235169 31.27814652 -40.79296875 29.453125 C-42 28 -42 28 -42 27 C-35.4 27 -28.8 27 -22 27 C-23.02286621 21.91261138 -23.02286621 21.91261138 -24.06469727 16.82910156 C-24.7723716 13.18753693 -25.07664805 10.53608369 -24 7 C-23.02417969 7.63808594 -22.04835938 8.27617187 -21.04296875 8.93359375 C-19.75792538 9.76840295 -18.4727629 10.60302882 -17.1875 11.4375 C-16.54490234 11.85837891 -15.90230469 12.27925781 -15.24023438 12.71289062 C-12.51609896 14.47722704 -10.09247829 15.9691739 -7 17 C-6.82984375 16.443125 -6.6596875 15.88625 -6.484375 15.3125 C-4.76684063 9.90409391 -2.64657745 5.01937104 0 0 Z " fill="#F6A643" transform="translate(56,8)"/>
<path d="M0 0 C0.99 0 1.98 0 3 0 C3.04898438 1.04800781 3.09796875 2.09601563 3.1484375 3.17578125 C3.22348143 4.55471354 3.29902857 5.9336185 3.375 7.3125 C3.4059375 8.00279297 3.436875 8.69308594 3.46875 9.40429688 C3.68124919 13.06990789 3.91933861 14.87900792 6 18 C6.67383955 21.72385013 6.76333676 25.38472488 5.125 28.8515625 C2.99198875 31.70025516 0.82826882 33.07950518 -2.375 34.5625 C-7.79910307 35.21713313 -11.06812626 33.42348591 -15.375 30.25 C-18.12946593 26.4361241 -18.24134214 22.62044009 -17.5625 18.0625 C-17.376875 17.381875 -17.19125 16.70125 -17 16 C-15.68 16 -14.36 16 -13 16 C-13.03480469 16.67546875 -13.06960937 17.3509375 -13.10546875 18.046875 C-13.13253906 18.93890625 -13.15960938 19.8309375 -13.1875 20.75 C-13.23970703 22.07257813 -13.23970703 22.07257813 -13.29296875 23.421875 C-12.94043625 26.52416102 -12.2265193 27.82851826 -10 30 C-8.05943459 30.55438371 -8.05943459 30.55438371 -6 30.375 C-5.319375 30.36210938 -4.63875 30.34921875 -3.9375 30.3359375 C-1.68060065 30.07913353 -1.68060065 30.07913353 1 28 C1.65602521 25.91297873 1.65602521 25.91297873 1.8125 23.5625 C1.90144531 22.78003906 1.99039063 21.99757813 2.08203125 21.19140625 C2.18025869 18.70360157 2.18025869 18.70360157 0 16 C-0.14245897 13.23344676 -0.18769445 10.57346694 -0.125 7.8125 C-0.11597656 7.06291016 -0.10695313 6.31332031 -0.09765625 5.54101562 C-0.07412578 3.69387346 -0.03825561 1.84689588 0 0 Z " fill="#E5B7A0" transform="translate(92,64)"/>
<path d="M0 0 C1.65 0 3.3 0 5 0 C5.99 4.95 6.98 9.9 8 15 C8.33 14.67 8.66 14.34 9 14 C9.66 14 10.32 14 11 14 C11.66 12.68 12.32 11.36 13 10 C13.66 10 14.32 10 15 10 C15.2475 9.360625 15.495 8.72125 15.75 8.0625 C17 6 17 6 18.8125 4.9375 C21 5 21 5 23.4375 7.125 C24.283125 8.07375 25.12875 9.0225 26 10 C26.928125 10.928125 27.85625 11.85625 28.8125 12.8125 C29.8953125 13.8953125 29.8953125 13.8953125 31 15 C32.57077907 9.97350697 33.44854729 5.23880078 34 0 C36.31 0 38.62 0 41 0 C41 0.33 41 0.66 41 1 C39.35 1 37.7 1 36 1 C35.90912109 2.17755859 35.90912109 2.17755859 35.81640625 3.37890625 C35.37179786 8.95361148 34.87875357 14.47640616 34 20 C33.01 20 32.02 20 31 20 C28.84375 17.6640625 28.84375 17.6640625 26.5 14.625 C23.19007337 10.34801576 23.19007337 10.34801576 19 7 C17.84371094 8.40765625 17.84371094 8.40765625 16.6640625 9.84375 C15.65134979 11.06275604 14.63831212 12.28149218 13.625 13.5 C13.11710937 14.12003906 12.60921875 14.74007812 12.0859375 15.37890625 C10.76792394 16.95705407 9.38787368 18.48292487 8 20 C7.34 20 6.68 20 6 20 C4.04978464 13.53991163 3.77737697 7.7281627 4 1 C2.35 1.33 0.7 1.66 -1 2 C-0.67 1.34 -0.34 0.68 0 0 Z " fill="#F6A440" transform="translate(37,79)"/>
<path d="M0 0 C0.26532622 6.89848166 -0.76489635 13.20692992 -2 20 C4.27 20 10.54 20 17 20 C14.00444444 25.99111111 14.00444444 25.99111111 12 28 C9.08203125 28.390625 9.08203125 28.390625 5.8125 28.25 C4.72582031 28.21390625 3.63914062 28.1778125 2.51953125 28.140625 C1.68808594 28.09421875 0.85664062 28.0478125 0 28 C0 27.67 0 27.34 0 27 C0.69867188 26.97421875 1.39734375 26.9484375 2.1171875 26.921875 C3.02726562 26.86515625 3.93734375 26.8084375 4.875 26.75 C5.77992187 26.70359375 6.68484375 26.6571875 7.6171875 26.609375 C8.40351562 26.40828125 9.18984375 26.2071875 10 26 C10.66 24.68 11.32 23.36 12 22 C6.72 22 1.44 22 -4 22 C-4.09063407 16.19941973 -3.83485204 10.73960775 -3 5 C-4.32 4.67 -5.64 4.34 -7 4 C-1.125 0 -1.125 0 0 0 Z " fill="#FB8D1A" transform="translate(82,15)"/>
<path d="M0 0 C2.31 0 4.62 0 7 0 C7 11.22 7 22.44 7 34 C6.67 34 6.34 34 6 34 C6 26.74 6 19.48 6 12 C4.35 11.67 2.7 11.34 1 11 C1 14.3 1 17.6 1 21 C0.67 21 0.34 21 0 21 C0 14.07 0 7.14 0 0 Z " fill="#F67D2B" transform="translate(83,47)"/>
<path d="M0 0 C0.33 0 0.66 0 1 0 C1.125 2.375 1.125 2.375 1 5 C0.34 5.66 -0.32 6.32 -1 7 C-1.34490322 11.05261287 -1.30163882 12.54754176 1 16 C4.56769552 16.73606499 4.56769552 16.73606499 8 17 C8.33 16.01 8.66 15.02 9 14 C9.66 14 10.32 14 11 14 C11 11.69 11 9.38 11 7 C10.01 6.67 9.02 6.34 8 6 C8.66 5.67 9.32 5.34 10 5 C10.99 5.66 11.98 6.32 13 7 C12.65912117 15.12996005 12.65912117 15.12996005 10.4375 18.0625 C6.88482286 19.42891429 3.74375897 19.80552191 0 19 C-3.2061087 16.35496033 -3.89274714 14.72395682 -4.5 10.625 C-3.88336583 6.15440225 -2.45142561 3.75374547 0 0 Z " fill="#E78365" transform="translate(82,76)"/>
<path d="M0 0 C1.65 0.33 3.3 0.66 5 1 C5 4.63 5 8.26 5 12 C4.01 12.33 3.02 12.66 2 13 C2 12.34 2 11.68 2 11 C1.34 11 0.68 11 0 11 C0 14.96 0 18.92 0 23 C-0.33 23 -0.66 23 -1 23 C-1.10920422 15.25863399 -0.97159933 7.68604474 0 0 Z " fill="#FB6318" transform="translate(84,58)"/>
<path d="M0 0 C1.98 0.99 3.96 1.98 6 3 C5.01 3.495 5.01 3.495 4 4 C3.34 3.67 2.68 3.34 2 3 C2.144375 3.6290625 2.28875 4.258125 2.4375 4.90625 C2.623125 5.7621875 2.80875 6.618125 3 7.5 C3.185625 8.3353125 3.37125 9.170625 3.5625 10.03125 C4 13 4 13 4 21 C-2.27 21 -8.54 21 -15 21 C-15.33 21.66 -15.66 22.32 -16 23 C-16.33 22.01 -16.66 21.02 -17 20 C-10.4 20 -3.8 20 3 20 C2.01677515 14.91375604 2.01677515 14.91375604 1.02539062 9.82910156 C0.38469749 6.46461514 0 3.4380842 0 0 Z " fill="#F5AB4B" transform="translate(31,15)"/>
<path d="M0 0 C1.92990228 1.61680643 2.89974697 2.56139299 3.46875 5.05078125 C3.52458156 9.09159072 3.41170914 12.12222307 0.9375 15.4375 C-2.383675 18.33469522 -4.65528672 19.35633877 -9 20 C-9.99 19.34 -10.98 18.68 -12 18 C-11.113125 17.938125 -10.22625 17.87625 -9.3125 17.8125 C-5.22322009 16.80946908 -3.7407603 15.12142145 -1 12 C-0.34 11.34 0.32 10.68 1 10 C1.02253443 7.55036823 1.02253443 7.55036823 0.625 4.875 C0.51414062 3.96492188 0.40328125 3.05484375 0.2890625 2.1171875 C0.19367188 1.41851562 0.09828125 0.71984375 0 0 Z " fill="#E5C0A6" transform="translate(95,79)"/>
<path d="M0 0 C3.40312738 1.05875074 6.01353231 2.00902154 9 4 C9 4.66 9 5.32 9 6 C6.04335481 7.4783226 3.25770263 7.06032783 0 7 C0 4.69 0 2.38 0 0 Z " fill="#F4AC4F" transform="translate(94,56)"/>
<path d="M0 0 C5.95324421 1.39331247 10.75741484 3.88535757 16 7 C16 6.34 16 5.68 16 5 C16.66 5 17.32 5 18 5 C17.67 6.32 17.34 7.64 17 9 C13.28754093 8.42177629 10.55091692 7.39136744 7.3125 5.5 C6.16201172 4.83484375 6.16201172 4.83484375 4.98828125 4.15625 C4.33214844 3.7746875 3.67601562 3.393125 3 3 C2.34 2.67 1.68 2.34 1 2 C0.67 3.32 0.34 4.64 0 6 C0 4.02 0 2.04 0 0 Z " fill="#F7A038" transform="translate(33,18)"/>
<path d="M0 0 C2.24606427 1.77444972 2.95081002 2.58352485 3.29296875 5.48046875 C3.25816406 6.37378906 3.22335938 7.26710938 3.1875 8.1875 C3.16042969 9.08855469 3.13335937 9.98960938 3.10546875 10.91796875 C3.07066406 11.60503906 3.03585938 12.29210938 3 13 C2.01 12.67 1.02 12.34 0 12 C-0.19401633 10.18818595 -0.38004375 8.37551468 -0.5625 6.5625 C-0.66691406 5.55316406 -0.77132812 4.54382812 -0.87890625 3.50390625 C-0.91886719 2.67761719 -0.95882812 1.85132813 -1 1 C-0.67 0.67 -0.34 0.34 0 0 Z " fill="#E5B9A2" transform="translate(92,43)"/>
<path d="M0 0 C1.66611905 -0.042721 3.33382885 -0.04063832 5 0 C6 1 6 1 6.0625 4.0625 C6.041875 5.031875 6.02125 6.00125 6 7 C3.5625 6.3125 3.5625 6.3125 1 5 C0.1875 2.375 0.1875 2.375 0 0 Z " fill="#FC8F1E" transform="translate(83,47)"/>
<path d="M0 0 C1.32 0 2.64 0 4 0 C3.67 3.3 3.34 6.6 3 10 C1.68 9.34 0.36 8.68 -1 8 C-0.67 5.36 -0.34 2.72 0 0 Z " fill="#E6B495" transform="translate(75,80)"/>
<path d="M0 0 C0.09038099 5.15171623 -0.15318867 9.91913204 -1 15 C-1.33 15 -1.66 15 -2 15 C-2.33 11.7 -2.66 8.4 -3 5 C-4.32 4.67 -5.64 4.34 -7 4 C-1.125 0 -1.125 0 0 0 Z " fill="#F4AE52" transform="translate(82,15)"/>
<path d="M0 0 C2.475 0.495 2.475 0.495 5 1 C4.75 3.375 4.75 3.375 4 6 C1.9375 7.3125 1.9375 7.3125 0 8 C0 5.36 0 2.72 0 0 Z " fill="#FE6E09" transform="translate(84,58)"/>
<path d="M0 0 C0.66 3.96 1.32 7.92 2 12 C1.01 11.67 0.02 11.34 -1 11 C-1 8.36 -1 5.72 -1 3 C-3.31 2.67 -5.62 2.34 -8 2 C-8 1.67 -8 1.34 -8 1 C-2.25 0 -2.25 0 0 0 Z " fill="#E49D77" transform="translate(91,44)"/>
<path d="M0 0 C0.33 1.32 0.66 2.64 1 4 C7.27 4 13.54 4 20 4 C19.34 5.32 18.68 6.64 18 8 C17.67 7.01 17.34 6.02 17 5 C11.39 5 5.78 5 0 5 C0 3.35 0 1.7 0 0 Z " fill="#F4AC4F" transform="translate(79,31)"/>
<path d="M0 0 C1.98 0.99 3.96 1.98 6 3 C5.01 3.495 5.01 3.495 4 4 C3.34 3.67 2.68 3.34 2 3 C2.165 3.825 2.33 4.65 2.5 5.5 C3.05896045 9.41272317 3.06807187 13.05183173 3 17 C2.67 17 2.34 17 2 17 C1.34 11.39 0.68 5.78 0 0 Z " fill="#F3B158" transform="translate(31,15)"/>
<path d="M0 0 C2.475 0.495 2.475 0.495 5 1 C5 1.99 5 2.98 5 4 C3.35 4.33 1.7 4.66 0 5 C0 3.35 0 1.7 0 0 Z " fill="#FC8A0F" transform="translate(94,58)"/>
<path d="M0 0 C1.125 3.75 1.125 3.75 0 6 C1.65 6 3.3 6 5 6 C1.77208445 8.1519437 0.71599191 8.20086443 -3 8 C-2.690625 7.236875 -2.38125 6.47375 -2.0625 5.6875 C-1.32106407 3.81210323 -0.63771783 1.91315348 0 0 Z " fill="#F3B35C" transform="translate(24,77)"/>
<path d="M0 0 C0.99 0.33 1.98 0.66 3 1 C2.01 2.485 2.01 2.485 1 4 C-1.8203125 4.29296875 -1.8203125 4.29296875 -5.125 4.1875 C-6.76855469 4.14689453 -6.76855469 4.14689453 -8.4453125 4.10546875 C-9.70988281 4.05326172 -9.70988281 4.05326172 -11 4 C-11 3.67 -11 3.34 -11 3 C-10.28972656 2.95101562 -9.57945313 2.90203125 -8.84765625 2.8515625 C-7.46900391 2.73941406 -7.46900391 2.73941406 -6.0625 2.625 C-5.14597656 2.55539063 -4.22945313 2.48578125 -3.28515625 2.4140625 C-2.15400391 2.20910156 -2.15400391 2.20910156 -1 2 C-0.67 1.34 -0.34 0.68 0 0 Z " fill="#F4973D" transform="translate(93,39)"/>
</svg>
