<?xml version="1.0" encoding="UTF-8"?>
<svg version="1.1" xmlns="http://www.w3.org/2000/svg" width="579" height="431">
<path d="M0 0 C0.91652344 0.68964844 1.83304687 1.37929688 2.77734375 2.08984375 C5.2381329 4.00463346 7.62690074 5.97788013 10 8 C10.81855469 8.68449219 11.63710938 9.36898437 12.48046875 10.07421875 C28.03353472 23.50531603 39.84534017 41.08404941 48.0625 59.8125 C48.578125 60.98167969 49.09375 62.15085937 49.625 63.35546875 C51 67 51 67 51.75 70.86328125 C52.64915608 75.02620097 53.36141918 77.63179422 56 81 C60.95203508 83.15530203 66.37491871 83.56633888 71.6875 84.23046875 C78.61070576 85.10196384 83.88165532 87.66417905 90 91 C91.09699219 91.53625 92.19398438 92.0725 93.32421875 92.625 C100.99840608 96.47546333 106.8419063 101.07349273 113 107 C114.45252216 108.23602839 115.91047657 109.46571526 117.375 110.6875 C120.59508413 113.50266337 122.7647365 116.32263102 125 120 C125.51046875 120.66 126.0209375 121.32 126.546875 122 C140.17018164 139.8429149 145.33322158 164.45432712 142.46875 186.484375 C138.64590989 212.49177142 126.93154429 234.81936544 106 251 C82.824835 267.37166739 56.58936667 270.05977623 29 271 C28.19446829 277.73910273 27.89340335 284.31932147 28.0078125 291.1015625 C28.0253169 292.99218224 28.04222631 294.88280757 28.05859375 296.7734375 C28.08957373 299.70719285 28.12524632 302.64066049 28.17138672 305.57421875 C28.21391596 308.43753568 28.23720467 311.30051492 28.2578125 314.1640625 C28.28574387 315.46593002 28.28574387 315.46593002 28.3142395 316.7940979 C28.34023868 323.02624449 27.62428485 328.97197902 23.375 333.875 C17.04166634 336.87500016 11.87746497 337.47896197 5.140625 335.5078125 C1.45872079 332.91435443 -0.46694806 330.25913466 -2 326 C-2.7249404 320.1033198 -2.74879518 314.24686365 -2.75 308.3125 C-2.77170319 305.92104945 -2.80025029 303.52980602 -2.83233643 301.13847351 C-2.84992755 299.6582481 -2.86036009 298.17791447 -2.86248779 296.69758606 C-2.88332263 293.00582394 -3.12187734 289.59061387 -4 286 C-4.391875 287.051875 -4.78375 288.10375 -5.1875 289.1875 C-7.02657921 293.50495738 -9.73600645 296.86800323 -14 299 C-18.87695917 299.40837661 -23.44274485 299.64885631 -28 297.75 C-31.06381504 295.06916184 -32.70917463 292.87247612 -34 289 C-34.33 283.06 -34.66 277.12 -35 271 C-56.78 270.505 -56.78 270.505 -79 270 C-78.96519531 273.97289062 -78.93039062 277.94578125 -78.89453125 282.0390625 C-78.87112781 285.89143149 -78.85291563 289.74379253 -78.83520508 293.59619141 C-78.82182449 296.27149721 -78.79966615 298.94632149 -78.77368164 301.62158203 C-78.73724916 305.46913751 -78.72026172 309.31636586 -78.70703125 313.1640625 C-78.69154739 314.35802643 -78.67606354 315.55199036 -78.66011047 316.78213501 C-78.65801103 327.16580502 -78.65801103 327.16580502 -82 332 C-86.03435209 335.8952365 -90.41254143 337 -95.9375 337 C-100.69904551 336.24144285 -103.89579677 333.58241832 -107 330 C-109.23066572 326.48882305 -109.23267319 323.59405139 -109.1953125 319.484375 C-109.18564453 317.60878906 -109.18564453 317.60878906 -109.17578125 315.6953125 C-109.15064453 313.74238281 -109.15064453 313.74238281 -109.125 311.75 C-109.11597656 310.43257813 -109.10695313 309.11515625 -109.09765625 307.7578125 C-109.07408533 304.50502538 -109.04118022 301.25260411 -109 298 C-109.66 298.33 -110.32 298.66 -111 299 C-116.55879415 299.50761444 -121.43348556 299.71455045 -126.5625 297.375 C-129 295 -129 295 -132 289 C-132 282.73 -132 276.46 -132 270 C-149.82 270 -167.64 270 -186 270 C-185.96519531 273.97289062 -185.93039063 277.94578125 -185.89453125 282.0390625 C-185.87112781 285.89143149 -185.85291563 289.74379253 -185.83520508 293.59619141 C-185.82182449 296.27149721 -185.79966615 298.94632149 -185.77368164 301.62158203 C-185.73724916 305.46913751 -185.72026172 309.31636586 -185.70703125 313.1640625 C-185.69154739 314.35802643 -185.67606354 315.55199036 -185.66011047 316.78213501 C-185.65800554 327.19293124 -185.65800554 327.19293124 -189 332 C-193.63846695 336.20361068 -198.24673461 336.34894899 -204.26953125 336.27734375 C-208.15279894 335.88290597 -210.18716195 334.67219615 -213 332 C-217.10928644 326.14814091 -216.38021453 319.79610685 -216.29296875 312.9453125 C-216.28872391 311.68862762 -216.28447906 310.43194275 -216.28010559 309.13717651 C-216.26619122 305.81284265 -216.23928624 302.4891377 -216.20599365 299.16497803 C-216.17518246 295.76629034 -216.16157678 292.36753741 -216.14648438 288.96875 C-216.11345021 282.31232749 -216.06327623 275.65620002 -216 269 C-217.33063728 268.8009758 -217.33063728 268.8009758 -218.68815613 268.59793091 C-220.43809624 268.33313431 -220.43809624 268.33313431 -222.22338867 268.06298828 C-223.95621346 267.80208908 -223.95621346 267.80208908 -225.7240448 267.53591919 C-229.67584544 266.88943727 -233.47867129 266.01949856 -237.3125 264.875 C-238.37343872 264.55958252 -238.37343872 264.55958252 -239.45581055 264.23779297 C-247.43137143 261.73353941 -254.69089721 258.00677387 -262 254 C-263.69382812 253.09701172 -263.69382812 253.09701172 -265.421875 252.17578125 C-270.77741775 249.2115816 -275.23491221 246.24483139 -279.375 241.7265625 C-281.06100687 239.9351802 -282.8473871 238.43238072 -284.75 236.875 C-305.71645355 218.49400508 -316.67330848 192.41493078 -319 165 C-320.75558992 136.67139402 -315.35033373 109.02093061 -298 86 C-297.05253906 84.7315625 -297.05253906 84.7315625 -296.0859375 83.4375 C-275.24682013 56.76342977 -247.01176399 42.64679634 -213.76831055 38.41723633 C-208.31649319 37.7441214 -208.31649319 37.7441214 -203.5625 35.22265625 C-203.046875 34.48917969 -202.53125 33.75570312 -202 33 C-201.38382812 32.16726562 -200.76765625 31.33453125 -200.1328125 30.4765625 C-199.47023438 29.53554687 -198.80765625 28.59453125 -198.125 27.625 C-189.44778892 15.95564717 -178.96569172 6.22544307 -167 -2 C-165.52466797 -3.08667969 -165.52466797 -3.08667969 -164.01953125 -4.1953125 C-146.52543872 -16.42626148 -125.11480016 -23.1995164 -104.0625 -25.6875 C-103.00474365 -25.8127002 -101.9469873 -25.93790039 -100.85717773 -26.06689453 C-65.77717476 -30.03882739 -28.34189755 -21.53132892 0 0 Z " fill="#E5E1DE" transform="translate(375,60)"/>
<path d="M0 0 C0.66 0.33 1.32 0.66 2 1 C-19.30050537 14.48741016 -43.37770873 16.16089181 -68 17 C-68.80553171 23.73910273 -69.10659665 30.31932147 -68.9921875 37.1015625 C-68.9746831 38.99218224 -68.95777369 40.88280757 -68.94140625 42.7734375 C-68.91042627 45.70719285 -68.87475368 48.64066049 -68.82861328 51.57421875 C-68.78608404 54.43753568 -68.76279533 57.30051492 -68.7421875 60.1640625 C-68.71425613 61.46593002 -68.71425613 61.46593002 -68.6857605 62.7940979 C-68.65976132 69.02624449 -69.37571515 74.97197902 -73.625 79.875 C-79.95833366 82.87500016 -85.12253503 83.47896197 -91.859375 81.5078125 C-95.54127921 78.91435443 -97.46694806 76.25913466 -99 72 C-99.7249404 66.1033198 -99.74879518 60.24686365 -99.75 54.3125 C-99.77170319 51.92104945 -99.80025029 49.52980602 -99.83233643 47.13847351 C-99.84992755 45.6582481 -99.86036009 44.17791447 -99.86248779 42.69758606 C-99.88332263 39.00582394 -100.12187734 35.59061387 -101 32 C-101.391875 33.051875 -101.78375 34.10375 -102.1875 35.1875 C-104.02657921 39.50495738 -106.73600645 42.86800323 -111 45 C-115.87695917 45.40837661 -120.44274485 45.64885631 -125 43.75 C-128.06381504 41.06916184 -129.70917463 38.87247612 -131 35 C-131.33 29.06 -131.66 23.12 -132 17 C-153.78 16.505 -153.78 16.505 -176 16 C-175.96519531 19.97289062 -175.93039062 23.94578125 -175.89453125 28.0390625 C-175.87112781 31.89143149 -175.85291563 35.74379253 -175.83520508 39.59619141 C-175.82182449 42.27149721 -175.79966615 44.94632149 -175.77368164 47.62158203 C-175.73724916 51.46913751 -175.72026172 55.31636586 -175.70703125 59.1640625 C-175.69154739 60.35802643 -175.67606354 61.55199036 -175.66011047 62.78213501 C-175.65801103 73.16580502 -175.65801103 73.16580502 -179 78 C-183.03435209 81.8952365 -187.41254143 83 -192.9375 83 C-197.69904551 82.24144285 -200.89579677 79.58241832 -204 76 C-206.23066572 72.48882305 -206.23267319 69.59405139 -206.1953125 65.484375 C-206.18886719 64.23398437 -206.18242187 62.98359375 -206.17578125 61.6953125 C-206.15064453 59.74238281 -206.15064453 59.74238281 -206.125 57.75 C-206.11597656 56.43257813 -206.10695313 55.11515625 -206.09765625 53.7578125 C-206.07408533 50.50502538 -206.04118022 47.25260411 -206 44 C-206.99 44.495 -206.99 44.495 -208 45 C-213.55879415 45.50761444 -218.43348556 45.71455045 -223.5625 43.375 C-226 41 -226 41 -229 35 C-229 28.73 -229 22.46 -229 16 C-246.82 16 -264.64 16 -283 16 C-282.96519531 19.97289062 -282.93039062 23.94578125 -282.89453125 28.0390625 C-282.87112781 31.89143149 -282.85291563 35.74379253 -282.83520508 39.59619141 C-282.82182449 42.27149721 -282.79966615 44.94632149 -282.77368164 47.62158203 C-282.73724916 51.46913751 -282.72026172 55.31636586 -282.70703125 59.1640625 C-282.69154739 60.35802643 -282.67606354 61.55199036 -282.66011047 62.78213501 C-282.65800554 73.19293124 -282.65800554 73.19293124 -286 78 C-290.63846695 82.20361068 -295.24673461 82.34894899 -301.26953125 82.27734375 C-305.15279894 81.88290597 -307.18716195 80.67219615 -310 78 C-314.10928644 72.14814091 -313.38021453 65.79610685 -313.29296875 58.9453125 C-313.28872391 57.68862762 -313.28447906 56.43194275 -313.28010559 55.13717651 C-313.26619122 51.81284265 -313.23928624 48.4891377 -313.20599365 45.16497803 C-313.17518246 41.76629034 -313.16157678 38.36753741 -313.14648438 34.96875 C-313.1134501 28.31230511 -313.06168456 21.65623856 -313 15 C-318.94 14.01 -318.94 14.01 -325 13 C-325 12.67 -325 12.34 -325 12 C-324.43515616 12.07068632 -323.87031233 12.14137264 -323.28835201 12.21420097 C-313.6178867 13.26593342 -303.95587682 13.14053585 -294.24243164 13.12939453 C-292.24951648 13.13075186 -290.25660157 13.13253365 -288.26368713 13.13470459 C-282.8596495 13.13925396 -277.45563103 13.13749576 -272.05159307 13.1343255 C-266.32748063 13.13177184 -260.60336971 13.13414932 -254.8792572 13.13571167 C-245.21613273 13.13753184 -235.55301589 13.13513854 -225.88989258 13.13037109 C-216.09268695 13.12559172 -206.29549659 13.12550064 -196.49829102 13.13037109 C-131.30787571 13.20691073 -131.30787571 13.20691073 -66.12109375 12.6171875 C-64.93403399 12.60204227 -63.74697422 12.58689705 -62.52394295 12.57129288 C-42.68919442 12.30432723 -22.27013651 12.02167119 -4.49194336 2.24926758 C-3.02139364 1.44828821 -1.5130443 0.71748265 0 0 Z " fill="#80A6D6" transform="translate(472,314)"/>
<path d="M0 0 C18.15 0 36.3 0 55 0 C55 0.33 55 0.66 55 1 C44.605 1.495 44.605 1.495 34 2 C33.31513611 8.84863889 32.89270096 15.27768339 33.0078125 22.1015625 C33.0253169 23.99218224 33.04222631 25.88280757 33.05859375 27.7734375 C33.08957373 30.70719285 33.12524632 33.64066049 33.17138672 36.57421875 C33.21391596 39.43753568 33.23720467 42.30051492 33.2578125 45.1640625 C33.27643341 46.03197418 33.29505432 46.89988586 33.3142395 47.7940979 C33.34023868 54.02624449 32.62428485 59.97197902 28.375 64.875 C22.04166634 67.87500016 16.87746497 68.47896197 10.140625 66.5078125 C6.45872079 63.91435443 4.53305194 61.25913466 3 57 C2.2750596 51.1033198 2.25120482 45.24686365 2.25 39.3125 C2.22829681 36.92104945 2.19974971 34.52980602 2.16766357 32.13847351 C2.15007245 30.6582481 2.13963991 29.17791447 2.13751221 27.69758606 C2.11667737 24.00582394 1.87812266 20.59061387 1 17 C0.67 17 0.34 17 0 17 C0 11.39 0 5.78 0 0 Z " fill="#83A9DB" transform="translate(370,329)"/>
<path d="M0 0 C0.66 0.33 1.32 0.66 2 1 C-8.7705401 7.81987068 -19.52521713 11.5369894 -32 14 C-32.94738037 14.19110352 -33.89476074 14.38220703 -34.87084961 14.57910156 C-48.30317189 16.82671795 -61.87981308 15.9762219 -75.4375 15.625 C-78.01885641 15.56664595 -80.60023687 15.50934551 -83.18164062 15.453125 C-89.45475607 15.3142338 -95.7274494 15.16232287 -102 15 C-101.97381592 15.59949463 -101.94763184 16.19898926 -101.9206543 16.81665039 C-101.81593781 19.56499425 -101.75144378 22.31291739 -101.6875 25.0625 C-101.6246582 26.47692383 -101.6246582 26.47692383 -101.56054688 27.91992188 C-101.44306832 34.66319077 -102.47564198 37.95214852 -107 43 C-111.36732894 46.13928793 -116.85559315 45.4968595 -122 45 C-125.78986889 43.42088796 -127.83327915 41.46675336 -130 38 C-132.4267033 30.71989011 -131 22.67390962 -131 15 C-155.42 15 -179.84 15 -205 15 C-205 23.58 -205 32.16 -205 41 C-209.89024004 43.93414402 -212.55185027 44.75995802 -218 44 C-224.26495111 41.95184291 -224.37726423 40.3397876 -228 34 C-228 27.73 -228 21.46 -228 15 C-255.06 15 -282.12 15 -310 15 C-310 14.67 -310 14.34 -310 14 C-308.47499689 13.99365209 -308.47499689 13.99365209 -306.91918564 13.98717594 C-281.86251498 13.88270286 -256.80586618 13.77382583 -231.74923325 13.66066074 C-219.63068135 13.60602475 -207.51212659 13.55270523 -195.39355469 13.50268555 C-132.6796739 13.28994643 -132.6796739 13.28994643 -69.96924591 12.64414787 C-67.51275635 12.60872747 -65.05622706 12.57593529 -62.59966278 12.54614449 C-32.51786943 12.16805089 -32.51786943 12.16805089 -4.49194336 2.24926758 C-3.02139364 1.44828821 -1.5130443 0.71748265 0 0 Z " fill="#94AACC" transform="translate(472,314)"/>
<path d="M0 0 C9.24 0 18.48 0 28 0 C28.08395085 7.59988354 28.16407759 15.1980821 28.20700073 22.79802704 C28.22809856 26.33731481 28.25627749 29.87621763 28.30175781 33.4152832 C28.35364825 37.47871567 28.37296666 41.54174228 28.390625 45.60546875 C28.41127014 46.8702153 28.43191528 48.13496185 28.45318604 49.43803406 C28.45348816 50.61888077 28.45379028 51.79972748 28.45410156 53.01635742 C28.46298401 54.05338303 28.47186646 55.09040863 28.48101807 56.15885925 C27.87321085 59.7488821 26.49933103 61.40134912 24 64 C18.92589666 66.71386402 13.61710684 66.68360684 8 66 C4.08924075 64.01031547 2.42310902 62.63466354 0 59 C-0.24050903 56.39936829 -0.24050903 56.39936829 -0.22705078 53.2434082 C-0.22689972 52.06241043 -0.22674866 50.88141266 -0.22659302 49.66462708 C-0.21627045 48.38955795 -0.20594788 47.11448883 -0.1953125 45.80078125 C-0.1924826 44.49545944 -0.18965271 43.19013763 -0.18673706 41.84526062 C-0.17910747 38.37804485 -0.15946493 34.91099712 -0.1373291 31.44384766 C-0.11685606 27.90464594 -0.10762262 24.36541621 -0.09765625 20.82617188 C-0.07727995 13.88396626 -0.03813244 6.94222186 0 0 Z " fill="#85ABDC" transform="translate(160,330)"/>
<path d="M0 0 C8.58 0 17.16 0 26 0 C26.061875 2.825625 26.12375 5.65125 26.1875 8.5625 C26.21481201 9.43849854 26.24212402 10.31449707 26.27026367 11.21704102 C26.32668639 16.58933358 25.5321067 20.24233705 23 25 C19.80056809 28.09944967 16.78725439 28.23093903 12.5 28.375 C7.13843363 28.21645906 4.3068923 27.16131172 0.390625 23.4921875 C-1.78535023 19.5925465 -1.35468036 15.75849001 -1.25 11.375 C-1.24226563 10.06789063 -1.24226563 10.06789063 -1.234375 8.734375 C-1.15481151 2.30962302 -1.15481151 2.30962302 0 0 Z " fill="#9EC4F5" transform="translate(343,331)"/>
<path d="M0 0 C0.90231191 5.41387145 1.22228406 10.82950529 1.375 16.3125 C1.41302734 17.01826172 1.45105469 17.72402344 1.49023438 18.45117188 C1.5234375 20.48828125 1.5234375 20.48828125 1 24 C-2.45451144 26.96862818 -5.45861168 27.49170849 -10.01171875 27.27734375 C-14.85162599 26.60222899 -17.34149588 24.81446562 -20.375 21.0625 C-22.92570358 16.07800009 -22.63774566 10.44308502 -22 5 C-20.9765625 2.1328125 -20.9765625 2.1328125 -20 0 C-13.12631267 -0.74464946 -6.83079148 -1.18225237 0 0 Z " fill="#A2C8F8" transform="translate(266,331)"/>
<path d="M0 0 C2.29018595 3.43527893 3.10869109 6.73807832 4.0625 10.6875 C4.32256836 11.71133789 4.32256836 11.71133789 4.58789062 12.75585938 C9.16612953 31.33193216 7.36754232 51.0263699 1 69 C-0.35864199 65.18060083 0.31924705 62.07696987 0.9375 58.125 C2.11064705 49.56024707 2.23135973 41.00505556 2.25 32.375 C2.25894287 31.07062988 2.26788574 29.76625977 2.27709961 28.42236328 C2.25808145 22.16741288 1.97567427 16.91924457 0 11 C-0.1953125 7.91015625 -0.1953125 7.91015625 -0.125 5.0625 C-0.10695313 4.10472656 -0.08890625 3.14695313 -0.0703125 2.16015625 C-0.04710937 1.44730469 -0.02390625 0.73445312 0 0 Z " fill="#AABDD1" transform="translate(511,201)"/>
<path d="M0 0 C1.32 0.33 2.64 0.66 4 1 C-0.74521807 18.02695896 -14.03111398 34.06058203 -28.73828125 43.81640625 C-31 45 -31 45 -33 45 C-33 44.34 -33 43.68 -33 43 C-31.02 42.505 -31.02 42.505 -29 42 C-29 41.34 -29 40.68 -29 40 C-28.360625 39.7525 -27.72125 39.505 -27.0625 39.25 C-24.81258459 38.18437567 -24.81258459 38.18437567 -24.25 35.875 C-24.1675 35.25625 -24.085 34.6375 -24 34 C-23.34 34 -22.68 34 -22 34 C-21.7525 33.38125 -21.505 32.7625 -21.25 32.125 C-20 30 -20 30 -17.9375 29.0625 C-17.298125 28.711875 -16.65875 28.36125 -16 28 C-15.18828772 25.44480079 -15.18828772 25.44480079 -15 23 C-14.38125 22.95875 -13.7625 22.9175 -13.125 22.875 C-12.073125 22.441875 -12.073125 22.441875 -11 22 C-9.75 19.08333333 -9.75 19.08333333 -9 16 C-8.67 15.34 -8.34 14.68 -8 14 C-7.01 14 -6.02 14 -5 14 C-5 12.68 -5 11.36 -5 10 C-3.68 9.67 -2.36 9.34 -1 9 C-0.67 7.68 -0.34 6.36 0 5 C-0.66 4.67 -1.32 4.34 -2 4 C-1.34 4 -0.68 4 0 4 C0 2.68 0 1.36 0 0 Z " fill="#D0D7E2" transform="translate(507,269)"/>
<path d="M0 0 C-3.72648883 1.34117593 -6.33965806 0.63159828 -10.125 -0.3125 C-32.30101989 -5.31702623 -53.67882631 -4.67521916 -76 -1 C-76.76103027 -0.8772168 -77.52206055 -0.75443359 -78.30615234 -0.62792969 C-85.90501308 0.62902472 -92.29669648 2.18831761 -99 6 C-99.66 6 -100.32 6 -101 6 C-101 5.34 -101 4.68 -101 4 C-69.7887291 -10.0008006 -32.41928812 -10.38471506 0 0 Z " fill="#97AFC3" transform="translate(336,40)"/>
<path d="M0 0 C0.99 0.495 0.99 0.495 2 1 C-3.82440113 4.6879917 -9.40026028 7.95896938 -16 10 C-16.81984375 10.26683594 -17.6396875 10.53367187 -18.484375 10.80859375 C-30.32715499 14.38538713 -42.56170882 14.14678489 -54.83203125 14.09765625 C-56.20350594 14.09578488 -57.57498131 14.09436439 -58.94645691 14.09336853 C-62.50881892 14.08959985 -66.07113838 14.07981981 -69.63348389 14.06866455 C-73.28755112 14.058327 -76.9416254 14.05384481 -80.59570312 14.04882812 C-87.73048587 14.03819082 -94.86524012 14.02118479 -102 14 C-102 13.67 -102 13.34 -102 13 C-100.9224369 12.98786972 -100.9224369 12.98786972 -99.82310486 12.97549438 C-92.98463595 12.89688548 -86.14632887 12.80940795 -79.30809689 12.71247292 C-75.7942222 12.66296143 -72.28037125 12.61663615 -68.76635742 12.578125 C-64.70734537 12.53349063 -60.64865832 12.4740406 -56.58984375 12.4140625 C-55.35483627 12.40251129 -54.1198288 12.39096008 -52.84739685 12.37905884 C-36.18488238 12.10318546 -19.27180222 10.37353222 -4.49194336 2.24926758 C-3.02139364 1.44828821 -1.5130443 0.71748265 0 0 Z " fill="#C1CBDE" transform="translate(472,314)"/>
<path d="M0 0 C4.67091543 4.60120028 8.69119457 8.78398538 11 15 C11.99 15.66 12.98 16.32 14 17 C14 17.99 14 18.98 14 20 C14.99 20.33 15.98 20.66 17 21 C17.515625 21.825 18.03125 22.65 18.5625 23.5 C23.4377811 31.2629476 31.96838456 38.03621823 40.6875 40.875 C43.97783721 42.47570459 45.18359594 44.90538568 47 48 C27.28836181 40.54248857 10.54532048 21.92733703 0.7421875 3.70703125 C0 2 0 2 0 0 Z " fill="#7B99BB" transform="translate(69,267)"/>
<path d="M0 0 C24.42 0 48.84 0 74 0 C73.67 0.66 73.34 1.32 73 2 C51.22 1.505 51.22 1.505 29 1 C29 2.65 29 4.3 29 6 C28.67 4.68 28.34 3.36 28 2 C23.85418113 1.97113249 19.70838784 1.95324673 15.5625 1.9375 C14.37849609 1.92912109 13.19449219 1.92074219 11.97460938 1.91210938 C10.84990234 1.90888672 9.72519531 1.90566406 8.56640625 1.90234375 C7.52427979 1.89710693 6.48215332 1.89187012 5.40844727 1.88647461 C3.04871253 1.72694444 3.04871253 1.72694444 2 3 C1.63239269 5.32817964 1.29758419 7.6618385 1 10 C0.67 10 0.34 10 0 10 C0 6.7 0 3.4 0 0 Z " fill="#6C87B0" transform="translate(267,329)"/>
<path d="M0 0 C3.3 0.33 6.6 0.66 10 1 C10 1.66 10 2.32 10 3 C12.1875 3.4375 12.1875 3.4375 14.375 3.875 C15.28507813 4.05804688 16.19515625 4.24109375 17.1328125 4.4296875 C18.98018098 4.79714772 20.82906436 5.15711132 22.6796875 5.5078125 C27.25714519 6.38434695 31.61178039 7.38328751 36 9 C36 9.66 36 10.32 36 11 C30.83384423 12.30164488 26.90411183 11.50159608 21.9375 9.9375 C21.19959229 9.71360596 20.46168457 9.48971191 19.70141602 9.2590332 C12.83990296 7.10061267 6.41947327 4.24881169 0 1 C0 0.67 0 0.34 0 0 Z " fill="#A9BCD1" transform="translate(116,315)"/>
<path d="M0 0 C0.495 0.99 0.495 0.99 1 2 C-4.86537864 3.85846829 -10.67311009 5.14634268 -16.76000977 5.97949219 C-27.89569502 7.50710706 -37.45949258 10.76377656 -47.7578125 15.18359375 C-50 16 -50 16 -53 16 C-53 16.66 -53 17.32 -53 18 C-55.90548882 20.04169485 -57.40142046 21 -61 21 C-61 21.66 -61 22.32 -61 23 C-62.65 23.33 -64.3 23.66 -66 24 C-50.78060543 7.87239563 -25.00660706 4.25251221 -4.08105469 1.36962891 C-1.94814574 1.09236679 -1.94814574 1.09236679 0 0 Z " fill="#8DAAC0" transform="translate(171,96)"/>
<path d="M0 0 C18.15 0 36.3 0 55 0 C55 0.33 55 0.66 55 1 C44.605 1.495 44.605 1.495 34 2 C33.67 3.65 33.34 5.3 33 7 C32.34 7 31.68 7 31 7 C30.67 5.35 30.34 3.7 30 2 C28.58460938 2.01740234 28.58460938 2.01740234 27.140625 2.03515625 C19.03074116 2.09215343 11.07707803 1.84230236 3 1 C1.5192152 3.9615696 1.64685963 6.83506295 1.4375 10.125 C1.35371094 11.40632813 1.26992188 12.68765625 1.18359375 14.0078125 C1.12300781 14.99523437 1.06242187 15.98265625 1 17 C0.67 17 0.34 17 0 17 C0 11.39 0 5.78 0 0 Z " fill="#6984AE" transform="translate(370,329)"/>
<path d="M0 0 C0.33 0 0.66 0 1 0 C1.48066535 1.89545392 1.95946743 3.79138039 2.4375 5.6875 C2.83775391 7.27111328 2.83775391 7.27111328 3.24609375 8.88671875 C3.89897932 11.5828317 4.47941193 14.2757576 5 17 C5.66 17 6.32 17 7 17 C7.12375 17.804375 7.2475 18.60875 7.375 19.4375 C7.58125 20.283125 7.7875 21.12875 8 22 C8.66 22.33 9.32 22.66 10 23 C10.4140625 25.72265625 10.4140625 25.72265625 10.625 29.0625 C10.69976562 30.16722656 10.77453125 31.27195312 10.8515625 32.41015625 C10.90054688 33.26480469 10.94953125 34.11945313 11 35 C3.08805413 26.04435064 -0.50550393 11.87934241 0 0 Z " fill="#A0BBCE" transform="translate(58,232)"/>
<path d="M0 0 C0.66 0.33 1.32 0.66 2 1 C1 3 1 3 -1.125 4.1875 C-4.30516689 6.19238782 -6.57932825 8.48748678 -9.17578125 11.1796875 C-10.89575836 12.89598158 -12.67404446 14.41172797 -14.5625 15.9375 C-22.46353391 22.6472472 -27.51742038 32.32534069 -33 41 C-33.33 40.34 -33.66 39.68 -34 39 C-31.16508514 31.81201915 -25.9255704 25.83142243 -21 20 C-20.11441406 18.92878906 -20.11441406 18.92878906 -19.2109375 17.8359375 C-15.18280246 13.07207004 -10.79014705 8.98695068 -6 5 C-5.39285156 4.48953125 -4.78570312 3.9790625 -4.16015625 3.453125 C-2.7786116 2.29587819 -1.39016057 1.14688247 0 0 Z " fill="#8AA9C0" transform="translate(103,120)"/>
<path d="M0 0 C7.59 0 15.18 0 23 0 C23 3.63 23 7.26 23 11 C22.67 11 22.34 11 22 11 C22 8.36 22 5.72 22 3 C15.4 3.33 8.8 3.66 2 4 C1.34 5.32 0.68 6.64 0 8 C0 5.36 0 2.72 0 0 Z " fill="#9FB9DF" transform="translate(244,328)"/>
<path d="M0 0 C0 0.33 0 0.66 0 1 C-0.8818396 1.11275269 -0.8818396 1.11275269 -1.78149414 1.2277832 C-24.18444829 3.38141696 -24.18444829 3.38141696 -45 11 C-45.66 11 -46.32 11 -47 11 C-47 10.34 -47 9.68 -47 9 C-31.50836307 2.05073733 -16.96389884 -0.34620202 0 0 Z " fill="#A4BBCD" transform="translate(282,35)"/>
<path d="M0 0 C1.32 0.33 2.64 0.66 4 1 C3.34 1 2.68 1 2 1 C2 1.66 2 2.32 2 3 C-11.10792237 10.26845762 -24.66214304 16.11548051 -40 15 C-40 14.67 -40 14.34 -40 14 C-39.33355469 13.89042969 -38.66710937 13.78085937 -37.98046875 13.66796875 C-32.09547945 12.65558598 -26.394786 11.3677546 -20.65625 9.71875 C-17.36229233 8.82744381 -14.04212678 8.19936685 -10.6796875 7.625 C-10.12539063 7.41875 -9.57109375 7.2125 -9 7 C-8.67 6.01 -8.34 5.02 -8 4 C-6.35 4 -4.7 4 -3 4 C-3 3.34 -3 2.68 -3 2 C-2.01 2 -1.02 2 0 2 C0 1.34 0 0.68 0 0 Z " fill="#CDD4E2" transform="translate(472,311)"/>
<path d="M0 0 C9.71465741 8.85748176 16.31635042 21.51652086 20 34 C17.44518997 31.53106594 15.63100961 29.18435209 14 26 C14 24.68 14 23.36 14 22 C13.01 21.67 12.02 21.34 11 21 C9.04457812 18.01540871 9 16.73585209 9 13 C8.34 13 7.68 13 7 13 C7 12.34 7 11.68 7 11 C6.34 11 5.68 11 5 11 C3.15172566 7.3874638 1.44950455 3.7910119 0 0 Z " fill="#95BED1" transform="translate(403,88)"/>
<path d="M0 0 C2 3 2 3 2.49609375 5.55859375 C3.73420923 8.13715356 3.73420923 8.13715356 5.98095703 8.71142578 C8.66758889 9.26265125 11.34584544 9.68606254 14.0625 10.0625 C21.30767103 11.12661858 27.44674774 12.66227482 34 16 C30.28713069 17.2376231 28.86486797 16.21697814 25.3671875 14.81005859 C21.03392078 13.32720185 16.52781379 12.88394133 12 12.3125 C11.03449219 12.18294922 10.06898438 12.05339844 9.07421875 11.91992188 C6.71712169 11.60486435 4.35925041 11.29842471 2 11 C0.80712589 7.12315913 0 4.08378077 0 0 Z " fill="#95B4C8" transform="translate(427,133)"/>
<path d="M0 0 C0.66 0.33 1.32 0.66 2 1 C-8.03098919 7.35158947 -19.77487254 13.46257239 -32 13 C-31.67 12.34 -31.34 11.68 -31 11 C-28.4373474 10.3646067 -25.90063274 9.82019044 -23.3125 9.3125 C-15.6895794 7.70541849 -9.44702914 5.07211152 -2.66015625 1.29296875 C-1.78230469 0.86628906 -0.90445312 0.43960937 0 0 Z " fill="#8EABC5" transform="translate(472,314)"/>
<path d="M0 0 C0.66 0 1.32 0 2 0 C0.56617008 4.47354937 -1.89654027 7.50826682 -5.0625 10.875 C-5.55057129 11.3994873 -6.03864258 11.92397461 -6.54150391 12.46435547 C-11.98019575 18.19664824 -17.49249933 23.25335341 -25 26 C-25 25.34 -25 24.68 -25 24 C-23.68 23.67 -22.36 23.34 -21 23 C-21 22.34 -21 21.68 -21 21 C-19.00715862 19.6559907 -17.00580329 18.32458708 -15 17 C-14.0925 16.0925 -13.185 15.185 -12.25 14.25 C-11.5075 13.5075 -10.765 12.765 -10 12 C-9.34 12 -8.68 12 -8 12 C-7.34 10.68 -6.68 9.36 -6 8 C-5.34 8 -4.68 8 -4 8 C-3.566875 7.13375 -3.566875 7.13375 -3.125 6.25 C-2.08333333 4.16666667 -1.04166667 2.08333333 0 0 Z " fill="#7EAABF" transform="translate(499,288)"/>
<path d="M0 0 C-1 3 -1 3 -3.6875 4.53515625 C-5.3271875 5.29119141 -5.3271875 5.29119141 -7 6.0625 C-11.25701594 7.71765951 -11.25701594 7.71765951 -14 11 C-16.47068989 12.34161117 -19.00575376 13.4983024 -21.5546875 14.68359375 C-23.83756961 15.91255744 -25.30019717 17.06942924 -27 19 C-27.66 18.67 -28.32 18.34 -29 18 C-24.40926422 13.74517172 -19.51071789 10.21213717 -14.3125 6.75 C-13.33204712 6.09572021 -13.33204712 6.09572021 -12.33178711 5.42822266 C-4.09662693 0 -4.09662693 0 0 0 Z " fill="#8EAEC3" transform="translate(227,48)"/>
<path d="M0 0 C1.12377697 3.30435084 0.89554742 5.0506862 -0.4375 8.25 C-0.72496094 8.95640625 -1.01242188 9.6628125 -1.30859375 10.390625 C-1.53675781 10.92171875 -1.76492187 11.4528125 -2 12 C-2.66 12 -3.32 12 -4 12 C-4.33 14.64 -4.66 17.28 -5 20 C-5.66 20 -6.32 20 -7 20 C-7.33 22.64 -7.66 25.28 -8 28 C-8.33 28 -8.66 28 -9 28 C-8.32542004 17.71265563 -4.78122635 9.05017845 0 0 Z " fill="#8DB1C8" transform="translate(68,161)"/>
<path d="M0 0 C-0.47308594 0.29132813 -0.94617188 0.58265625 -1.43359375 0.8828125 C-5.99987955 3.71337563 -10.48261607 6.64192714 -14.921875 9.66796875 C-16.89612013 10.93341535 -18.88368045 11.99427157 -21 13 C-20.67 11.68 -20.34 10.36 -20 9 C-19.360625 8.896875 -18.72125 8.79375 -18.0625 8.6875 C-17.0415625 8.3471875 -17.0415625 8.3471875 -16 8 C-15.67 7.01 -15.34 6.02 -15 5 C-13.35 4.67 -11.7 4.34 -10 4 C-10 3.34 -10 2.68 -10 2 C-4.10714286 -1.34821429 -4.10714286 -1.34821429 0 0 Z " fill="#DBE2E6" transform="translate(120,115)"/>
<path d="M0 0 C4.67091543 4.60120028 8.69119457 8.78398538 11 15 C11.99 15.66 12.98 16.32 14 17 C14 17.66 14 18.32 14 19 C11.10149112 18.66237149 10.14002964 18.15990481 8.18359375 15.92578125 C0 3.67785235 0 3.67785235 0 0 Z " fill="#8EAEC7" transform="translate(69,267)"/>
<path d="M0 0 C0.66 0.33 1.32 0.66 2 1 C1.09636719 1.88042969 0.19273437 2.76085937 -0.73828125 3.66796875 C-1.92995407 4.84087506 -3.12134553 6.01406728 -4.3125 7.1875 C-4.90740234 7.76564453 -5.50230469 8.34378906 -6.11523438 8.93945312 C-9.32211024 12.11049798 -11.74885394 15.0604944 -14 19 C-16.6875 20.8125 -16.6875 20.8125 -19 22 C-14.99800611 13.26487873 -6.74064815 6.6185841 0 0 Z " fill="#90ADC3" transform="translate(196,67)"/>
<path d="M0 0 C1.32 0.33 2.64 0.66 4 1 C2.14086809 7.89835786 -0.79515783 13.24385683 -5 19 C-5.33 18.01 -5.66 17.02 -6 16 C-5.0390625 14.31640625 -5.0390625 14.31640625 -3.625 12.5625 C-1.6188504 10.05761489 -0.5989199 8.16870413 0 5 C-0.66 4.67 -1.32 4.34 -2 4 C-1.34 4 -0.68 4 0 4 C0 2.68 0 1.36 0 0 Z " fill="#7DABC5" transform="translate(507,269)"/>
<path d="M0 0 C2.22950991 2.22950991 2.43601702 3.13048055 3.0703125 6.1328125 C3.33134766 7.34130859 3.33134766 7.34130859 3.59765625 8.57421875 C3.77167969 9.41597656 3.94570313 10.25773438 4.125 11.125 C4.30675781 11.97449219 4.48851562 12.82398438 4.67578125 13.69921875 C5.12385016 15.79806785 5.56279337 17.89886134 6 20 C5.34 19.67 4.68 19.34 4 19 C4 18.34 4 17.68 4 17 C3.34 17 2.68 17 2 17 C-0.29612756 5.47835991 -0.29612756 5.47835991 0 0 Z " fill="#CFD4E1" transform="translate(423,122)"/>
<path d="M0 0 C-13.10679612 6 -13.10679612 6 -17 6 C-17.33 6.66 -17.66 7.32 -18 8 C-18.66 7.67 -19.32 7.34 -20 7 C-20 6.34 -20 5.68 -20 5 C-17.42138975 3.96555751 -14.83825365 2.94727716 -12.25 1.9375 C-11.15558594 1.49567383 -11.15558594 1.49567383 -10.0390625 1.04492188 C-8.97558594 0.6340332 -8.97558594 0.6340332 -7.890625 0.21484375 C-7.24125977 -0.04176025 -6.59189453 -0.29836426 -5.92285156 -0.56274414 C-3.63367214 -1.08330284 -2.20743336 -0.72364304 0 0 Z " fill="#D9E0E6" transform="translate(146,104)"/>
<path d="M0 0 C2.45332633 2.45332633 2.35363688 3.48798628 2.625 6.875 C2.69976562 7.73867188 2.77453125 8.60234375 2.8515625 9.4921875 C2.97977071 11.65823154 3 13.83016495 3 16 C2.01 16 1.02 16 0 16 C0 10.72 0 5.44 0 0 Z " fill="#5788B8" transform="translate(372,334)"/>
<path d="M0 0 C0.515625 0.268125 1.03125 0.53625 1.5625 0.8125 C4.1312824 2.11929771 4.1312824 2.11929771 7.5 3.25 C11.72833942 5.36416971 12.75652804 6.96175048 15 11 C9.89900903 9.24653435 3.52889062 6.67194133 0.76171875 1.8359375 C0.51035156 1.23007812 0.25898437 0.62421875 0 0 Z " fill="#8EAEC5" transform="translate(101,304)"/>
<path d="M0 0 C4.63720719 3.27530896 8.68542782 6.30435607 12 11 C11.67 11.66 11.34 12.32 11 13 C9.125 12.875 9.125 12.875 7 12 C6.33333333 10 5.66666667 8 5 6 C2.46557594 3.77183014 2.46557594 3.77183014 0 2 C0 1.34 0 0.68 0 0 Z " fill="#8CAABF" transform="translate(485,165)"/>
<path d="M0 0 C0.33 0 0.66 0 1 0 C0.56615452 7.03128878 -0.74321997 13.329015 -3 20 C-4.2089973 16.43302924 -3.82655093 13.67799095 -3.1875 10 C-3.01605469 8.96875 -2.84460938 7.9375 -2.66796875 6.875 C-2.06537726 4.28138985 -1.31059863 2.30046004 0 0 Z " fill="#8FB0C8" transform="translate(515,250)"/>
<path d="M0 0 C0.33 0.66 0.66 1.32 1 2 C0.3125 4.0625 0.3125 4.0625 -1 6 C-1.66 6.144375 -2.32 6.28875 -3 6.4375 C-3.66 6.623125 -4.32 6.80875 -5 7 C-6.29660434 9.49034386 -6.29660434 9.49034386 -7 12 C-7.99 12 -8.98 12 -10 12 C-8.89847594 10.56047403 -7.7936696 9.12345929 -6.6875 7.6875 C-6.07261719 6.88699219 -5.45773438 6.08648437 -4.82421875 5.26171875 C-3.30083693 3.37298626 -1.75565593 1.66922364 0 0 Z " fill="#D0D7E0" transform="translate(90,133)"/>
<path d="M0 0 C5.78898419 -0.20674944 10.42932723 0.40837921 16 2 C16 2.33 16 2.66 16 3 C10.10304872 4.70701221 5.58011183 2.95193635 0 1 C0 0.67 0 0.34 0 0 Z " fill="#93AFCB" transform="translate(136,323)"/>
<path d="M0 0 C0.33 0 0.66 0 1 0 C1.53293835 1.74635165 2.05090663 3.49727652 2.5625 5.25 C2.85253906 6.22453125 3.14257812 7.1990625 3.44140625 8.203125 C3.99249836 10.96243932 3.93789609 12.3912824 3 15 C0.74315457 9.63999211 -0.36263859 5.8022175 0 0 Z " fill="#CAD4DF" transform="translate(511,205)"/>
<path d="M0 0 C-9.22551253 4.59225513 -9.22551253 4.59225513 -15 4 C-10.61904007 0.14475527 -5.67184693 -1.74135651 0 0 Z " fill="#98AFC4" transform="translate(134,107)"/>
<path d="M0 0 C-1.6188996 1.03048037 -3.24532489 2.04914678 -4.875 3.0625 C-5.77992188 3.63097656 -6.68484375 4.19945312 -7.6171875 4.78515625 C-8.40351563 5.18605469 -9.18984375 5.58695312 -10 6 C-10.66 5.67 -11.32 5.34 -12 5 C-3.89473684 -1.94736842 -3.89473684 -1.94736842 0 0 Z " fill="#7EA0BF" transform="translate(474,315)"/>
<path d="M0 0 C2.67901932 2.31881505 3.66204403 4.31814468 4.6875 7.6875 C4.93886719 8.49574219 5.19023437 9.30398437 5.44921875 10.13671875 C5.63097656 10.75160156 5.81273437 11.36648437 6 12 C3.44518997 9.53106594 1.63100961 7.18435209 0 4 C0 2.68 0 1.36 0 0 Z " fill="#97AFC2" transform="translate(417,110)"/>
<path d="M0 0 C0.66 0.33 1.32 0.66 2 1 C-1.63 2.98 -5.26 4.96 -9 7 C-9 6.01 -9 5.02 -9 4 C-7.54618103 3.30300448 -6.08677047 2.61766134 -4.625 1.9375 C-3.40683594 1.36322266 -3.40683594 1.36322266 -2.1640625 0.77734375 C-1.44992188 0.52082031 -0.73578125 0.26429687 0 0 Z " fill="#CCD7DE" transform="translate(248,40)"/>
<path d="M0 0 C0.33 0 0.66 0 1 0 C1.04898437 0.91523438 1.09796875 1.83046875 1.1484375 2.7734375 C1.22320312 3.96195312 1.29796875 5.15046875 1.375 6.375 C1.44460938 7.55835938 1.51421875 8.74171875 1.5859375 9.9609375 C1.70217346 13.10562319 1.70217346 13.10562319 4 15 C2.68 15 1.36 15 0 15 C0 10.05 0 5.1 0 0 Z " fill="#97BDEE" transform="translate(374,371)"/>
<path d="M0 0 C2.62400522 2.37409996 4.44568209 4.81364829 6 8 C5.6875 10.3125 5.6875 10.3125 5 12 C4.34 10.02 3.68 8.04 3 6 C2.34 6 1.68 6 1 6 C0.67 4.02 0.34 2.04 0 0 Z " fill="#D2DAE1" transform="translate(417,114)"/>
<path d="M0 0 C-0.33 0.99 -0.66 1.98 -1 3 C-4.0625 4.1875 -4.0625 4.1875 -7 5 C-7 4.01 -7 3.02 -7 2 C-4.35261084 0.5393715 -3.10551666 0 0 0 Z " fill="#90C2CE" transform="translate(227,48)"/>
<path d="M0 0 C0.66 1.32 1.32 2.64 2 4 C-1.47823115 5.15941038 -3.45895578 4.70820884 -7 4 C-4.68143083 2.45428722 -2.49361571 1.20381448 0 0 Z " fill="#B8C8D9" transform="translate(234,44)"/>
<path d="M0 0 C1.32 0.33 2.64 0.66 4 1 C3.34 2.98 2.68 4.96 2 7 C1.34 7 0.68 7 0 7 C0 6.34 0 5.68 0 5 C-0.66 4.67 -1.32 4.34 -2 4 C-1.34 4 -0.68 4 0 4 C0 2.68 0 1.36 0 0 Z " fill="#B4C2D1" transform="translate(507,269)"/>
<path d="M0 0 C2.3129482 2.3129482 2.49580975 3.47904875 3.125 6.625 C3.29257812 7.44226563 3.46015625 8.25953125 3.6328125 9.1015625 C3.81457031 10.04128906 3.81457031 10.04128906 4 11 C2.29159719 9.36587557 1.06546953 8.13093906 0 6 C-0.039992 4.00039988 -0.04346799 1.99952758 0 0 Z " fill="#A9BDCE" transform="translate(423,122)"/>
<path d="M0 0 C1.99097846 2.98646769 2.94124926 5.59687262 4 9 C2.68 8.67 1.36 8.34 0 8 C0 5.36 0 2.72 0 0 Z " fill="#AAB8CC" transform="translate(507,192)"/>
<path d="M0 0 C3.34373475 0.55728913 6.03312999 1.35173889 9 3 C9 3.66 9 4.32 9 5 C3.46153846 4.50769231 3.46153846 4.50769231 1.125 1.9375 C0.75375 1.298125 0.3825 0.65875 0 0 Z " fill="#D9DEE3" transform="translate(465,154)"/>
<path d="M0 0 C0 3 0 3 -1.3125 4.38671875 C-2.875 5.59114583 -4.4375 6.79557292 -6 8 C-6 7.01 -6 6.02 -6 5 C-5.34 5 -4.68 5 -4 5 C-3.71125 4.360625 -3.4225 3.72125 -3.125 3.0625 C-2 1 -2 1 0 0 Z " fill="#E2E6E7" transform="translate(186,81)"/>
<path d="M0 0 C2.375 0.6875 2.375 0.6875 5 2 C6.3125 4.625 6.3125 4.625 7 7 C3.17053157 5.54744301 1.87949705 3.57104439 0 0 Z " fill="#82A7BF" transform="translate(81,286)"/>
<path d="M0 0 C1.07310858 3.27185553 0.89263102 5.42947592 0.0625 8.75 C-0.22947266 9.94882812 -0.22947266 9.94882812 -0.52734375 11.171875 C-0.68332031 11.77515625 -0.83929688 12.3784375 -1 13 C-2.53690745 10.58959839 -3.09752136 9.49917715 -2.5390625 6.640625 C-2.23742187 5.85171875 -1.93578125 5.0628125 -1.625 4.25 C-1.32851563 3.45078125 -1.03203125 2.6515625 -0.7265625 1.828125 C-0.48679687 1.22484375 -0.24703125 0.6215625 0 0 Z " fill="#C9D3E0" transform="translate(512,257)"/>
<path d="M0 0 C2.4375 0.75 2.4375 0.75 5 2 C5.8125 4.125 5.8125 4.125 6 6 C4.35 5.67 2.7 5.34 1 5 C0.67 3.35 0.34 1.7 0 0 Z " fill="#ADC7D3" transform="translate(491,172)"/>
</svg>
