<?xml version="1.0" encoding="UTF-8"?>
<svg version="1.1" xmlns="http://www.w3.org/2000/svg" width="308" height="184">
<path d="M0 0 C8.60896264 6.614203 17.00594144 15.35399476 19.25 26.33203125 C19.353125 27.20214844 19.45625 28.07226562 19.5625 28.96875 C20.16835937 29.04351562 20.77421875 29.11828125 21.3984375 29.1953125 C31.18831155 30.73156966 38.90272217 35.05649501 45.08984375 42.8671875 C51.21903247 51.61388121 51.80346941 60.52703098 50.5625 70.96875 C49.71727223 74.39239732 48.48813109 77.02931314 46.5625 79.96875 C46.13839844 80.66226563 45.71429688 81.35578125 45.27734375 82.0703125 C39.67025149 90.41066701 32.26560577 94.38605605 22.58203125 96.51171875 C18.21376075 97.17289294 13.96599834 97.23179083 9.5625 96.96875 C9.27761719 97.58492188 8.99273437 98.20109375 8.69921875 98.8359375 C6.63315194 102.71247522 3.68200698 104.54913308 -0.36791992 106.06713867 C-5.61514947 107.47346899 -10.96792567 107.27403511 -16.36328125 107.26953125 C-18.07743477 107.27595894 -18.07743477 107.27595894 -19.82621765 107.28251648 C-22.23757263 107.28824426 -24.64894488 107.28877152 -27.06030273 107.28442383 C-30.72735465 107.28126948 -34.39359486 107.30472429 -38.06054688 107.33007812 C-40.41145732 107.33235199 -42.76236992 107.33305421 -45.11328125 107.33203125 C-46.19901932 107.341241 -47.28475739 107.35045074 -48.40339661 107.35993958 C-56.35486645 107.31221324 -63.70240327 106.45881449 -70.4375 101.96875 C-72.51877853 101.66953725 -72.51877853 101.66953725 -74.82617188 101.71337891 C-75.71139526 101.70641998 -76.59661865 101.69946106 -77.50866699 101.69229126 C-78.46486938 101.69328827 -79.42107178 101.69428528 -80.40625 101.6953125 C-82.44271364 101.67500417 -84.47917192 101.65415306 -86.515625 101.6328125 C-89.71684266 101.6103238 -92.91784792 101.59378619 -96.11914062 101.58789062 C-99.21523289 101.5782814 -102.31037424 101.54438263 -105.40625 101.5078125 C-106.81626282 101.51538071 -106.81626282 101.51538071 -108.25476074 101.52310181 C-117.31071061 101.39117528 -126.20817331 99.10336632 -132.9375 92.74609375 C-139.58945071 84.86422507 -141.15390844 77.04060983 -140.4375 66.96875 C-139.19142885 59.4512438 -133.9650638 53.90157592 -128.4375 48.96875 C-124.33072519 46.42254961 -120.53039615 45.11693931 -115.75 44.46875 C-110.89196626 42.26888566 -109.96819617 38.6588785 -107.8203125 33.94140625 C-103.98323165 25.69276635 -96.70041176 20.13149873 -88.3671875 16.70703125 C-84.16879296 15.29178297 -80.12213173 14.08478928 -75.75 13.34375 C-71.17038187 11.44277644 -68.9286398 8.23412335 -65.75 4.5078125 C-49.22140162 -13.64014181 -19.13898253 -13.1302322 0 0 Z " fill="#E3DFDD" transform="translate(201.4375,51.03125)"/>
<path d="M0 0 C0 0.66 0 1.32 0 2 C-0.7734375 1.855625 -1.546875 1.71125 -2.34375 1.5625 C-14.42306688 -0.6049571 -14.42306688 -0.6049571 -26.140625 2.24609375 C-28.07059241 3.02862255 -29.97182566 3.53782753 -32 4 C-32 4.66 -32 5.32 -32 6 C-35.22219752 9.81276105 -38.48359152 12.17205233 -43.4375 12.9375 C-49.92959551 14.02506472 -53.92040451 18.36584571 -57.875 23.375 C-59.48556615 27.13298768 -60.25751163 30.99056282 -61 35 C-61.33 35 -61.66 35 -62 35 C-62.65473402 27.14319174 -61.1503915 21.76014469 -56.0625 15.6875 C-51.63885463 12.06815378 -47.52775846 10.43312256 -42 9 C-38.20036361 7.73345454 -36.71162349 6.31088537 -34.8125 2.8125 C-34.544375 2.214375 -34.27625 1.61625 -34 1 C-33.34 1 -32.68 1 -32 1 C-31.55011719 0.52949219 -31.10023438 0.05898437 -30.63671875 -0.42578125 C-23.19590522 -7.5824587 -8.15663378 -4.07831689 0 0 Z " fill="#D4D0CC" transform="translate(184,100)"/>
<path d="M0 0 C3.86648272 1.04097612 7.49461443 2.03698408 11 4 C11 4.66 11 5.32 11 6 C11.63004944 6.00808685 12.26009888 6.01617371 12.90924072 6.02450562 C19.46297496 6.11051941 26.01640563 6.21002185 32.56982422 6.31738281 C35.01606145 6.35568134 37.46235516 6.39053264 39.90869141 6.421875 C43.42370806 6.46750605 46.93833555 6.52550457 50.453125 6.5859375 C52.0955014 6.60326431 52.0955014 6.60326431 53.77105713 6.62094116 C54.79181335 6.64081085 55.81256958 6.66068054 56.86425781 6.68115234 C58.20994843 6.70113785 58.20994843 6.70113785 59.58282471 6.7215271 C62.19500908 7.0224662 63.81833638 7.53733802 66 9 C66.495 10.485 66.495 10.485 67 12 C66.38463379 11.67563965 65.76926758 11.3512793 65.13525391 11.01708984 C60.68808065 9.57440772 56.48289217 9.72166435 51.8359375 9.7265625 C49.80598419 9.7062611 47.77603632 9.6854101 45.74609375 9.6640625 C42.56684785 9.64155283 39.38781779 9.62502372 36.20849609 9.61914062 C9.41341084 9.53565384 9.41341084 9.53565384 1.8125 2.25 C1.214375 1.5075 0.61625 0.765 0 0 Z " fill="#99AAC4" transform="translate(69,143)"/>
<path d="M0 0 C0.66 0.33 1.32 0.66 2 1 C1.67 1.66 1.34 2.32 1 3 C1.99 3.33 2.98 3.66 4 4 C0.77985524 8.23219026 -1.01964658 10.06319589 -6 12 C-6.88693303 14.04105639 -6.88693303 14.04105639 -7 16 C-7.99 16 -8.98 16 -10 16 C-10 20.95 -10 25.9 -10 31 C-9.34 31 -8.68 31 -8 31 C-8 32.98 -8 34.96 -8 37 C-12.74050025 31.22895622 -12.51436902 25.23142322 -12 18 C-10.73067286 10.3421912 -5.24199742 5.36288206 0 0 Z " fill="#EBEAE3" transform="translate(73,100)"/>
<path d="M0 0 C0.66 0 1.32 0 2 0 C2.66 1.32 3.32 2.64 4 4 C1.76704317 7.54193152 0.43831145 9.55957031 -3.640625 10.80859375 C-6.42232119 11.28832478 -9.19912038 11.65354246 -12 12 C-12.72574219 12.18820313 -13.45148438 12.37640625 -14.19921875 12.5703125 C-16.41856637 13.09987484 -17.85378632 12.6898544 -20 12 C-14.98351161 6.47570757 -7.04857548 5.38687249 0 4 C0 2.68 0 1.36 0 0 Z " fill="#EAEAE5" transform="translate(92,91)"/>
<path d="M0 0 C0.66 0.33 1.32 0.66 2 1 C1.835 1.5775 1.67 2.155 1.5 2.75 C0.85537969 5.26664369 0.85537969 5.26664369 1 9 C0.01 9 -0.98 9 -2 9 C-2.33 9.99 -2.66 10.98 -3 12 C-5.0625 12.6875 -5.0625 12.6875 -7 13 C-7.103125 13.94875 -7.20625 14.8975 -7.3125 15.875 C-8 19 -8 19 -11 21 C-15.64361958 22.29412349 -20.22943132 23.2844147 -25 24 C-22.24055214 21.36052813 -20.34700695 20.92475484 -16.6875 20.625 C-13.07175116 19.94816032 -12.18916179 19.27001623 -10.03515625 16.1953125 C-8.84142001 13.89142767 -7.6876863 11.56638864 -6.57421875 9.22265625 C-4.77910896 5.5478037 -2.7845337 2.95329332 0 0 Z " fill="#A6B0C3" transform="translate(100,76)"/>
<path d="M0 0 C0.66 0.66 1.32 1.32 2 2 C1.21625 2.2475 0.4325 2.495 -0.375 2.75 C-3.41464865 4.19745174 -3.69906137 5.02642598 -5 8 C-5.99 8.66 -6.98 9.32 -8 10 C-8.33 10.99 -8.66 11.98 -9 13 C-9.66 13 -10.32 13 -11 13 C-11.33 13.99 -11.66 14.98 -12 16 C-12.33 15.34 -12.66 14.68 -13 14 C-13.86882812 14.20496094 -14.73765625 14.40992187 -15.6328125 14.62109375 C-17.36144531 15.02521484 -17.36144531 15.02521484 -19.125 15.4375 C-20.26195313 15.70433594 -21.39890625 15.97117187 -22.5703125 16.24609375 C-25.70461304 16.9350687 -28.83017726 17.50381194 -32 18 C-29.61844665 15.61844665 -27.8690708 15.53083979 -24.64160156 14.96020508 C-15.69807672 13.29935214 -11.59144896 10.72297896 -6.015625 3.36328125 C-4 1 -4 1 -1.859375 0.04296875 C-0.93898437 0.02169922 -0.93898437 0.02169922 0 0 Z " fill="#B0C0CE" transform="translate(142,52)"/>
<path d="M0 0 C-1.36035156 1.97558594 -1.36035156 1.97558594 -4 4 C-7.40891875 4.57919386 -10.78538509 4.46451391 -14.234375 4.390625 C-15.22753723 4.38496521 -16.22069946 4.37930542 -17.24395752 4.37347412 C-20.41313059 4.35110026 -23.5811692 4.30090106 -26.75 4.25 C-28.89972324 4.22993635 -31.04946423 4.21168534 -33.19921875 4.1953125 C-38.46653229 4.15123239 -43.73318509 4.08431033 -49 4 C-49 3.67 -49 3.34 -49 3 C-47.32043213 2.970271 -47.32043213 2.970271 -45.60693359 2.93994141 C-41.43581405 2.86362489 -37.26503153 2.7749483 -33.09423828 2.68261719 C-31.29222285 2.64443478 -29.49013399 2.60956349 -27.68798828 2.578125 C-25.09120519 2.53224037 -22.4949229 2.47428565 -19.8984375 2.4140625 C-19.0982016 2.40251129 -18.2979657 2.39096008 -17.47348022 2.37905884 C-11.39659854 2.22025293 -5.99684567 -0.35275563 0 0 Z " fill="#CCD5E0" transform="translate(208,152)"/>
<path d="M0 0 C1.33332095 2.6666419 0.67102033 4.16680303 0 7 C-0.66 7 -1.32 7 -2 7 C-2 11.95 -2 16.9 -2 22 C-1.34 22 -0.68 22 0 22 C0 23.98 0 25.96 0 28 C-4.7103241 22.26569239 -4.58493355 16.19765685 -4 9 C-2.25481799 2.25481799 -2.25481799 2.25481799 0 0 Z " fill="#99A8C1" transform="translate(65,109)"/>
<path d="M0 0 C5.94 0.99 5.94 0.99 12 2 C12 3.65 12 5.3 12 7 C8.89910366 6.98699834 5.99392117 6.84403097 3 6 C0.9375 2.9375 0.9375 2.9375 0 0 Z " fill="#EAE8E9" transform="translate(221,82)"/>
<path d="M0 0 C0.66 0.33 1.32 0.66 2 1 C0.35 3.64 -1.3 6.28 -3 9 C-1.39125 8.2884375 -1.39125 8.2884375 0.25 7.5625 C2.80839865 6.46233668 5.25835017 5.54832997 8 5 C7.3203125 6.890625 7.3203125 6.890625 6 9 C3.6171875 10.046875 3.6171875 10.046875 0.875 10.75 C-0.03507812 10.99234375 -0.94515625 11.2346875 -1.8828125 11.484375 C-2.93082031 11.73960938 -2.93082031 11.73960938 -4 12 C-4.8125 9.375 -4.8125 9.375 -5 6 C-3.57631048 3.6413502 -1.94551992 1.99297163 0 0 Z " fill="#D5D2CE" transform="translate(105,72)"/>
<path d="M0 0 C2.53936393 3.8090459 2.29495196 6.90346195 2.25 11.3125 C2.25773438 12.05951172 2.26546875 12.80652344 2.2734375 13.57617188 C2.25754136 18.10259648 1.70711751 21.73898051 0 26 C-2 24 -2 24 -2.04345703 22.00048828 C-1.94919434 21.19853027 -1.85493164 20.39657227 -1.7578125 19.5703125 C-1.61279297 18.25353516 -1.61279297 18.25353516 -1.46484375 16.91015625 C-1.35269531 15.99105469 -1.24054688 15.07195312 -1.125 14.125 C-0.91766378 12.31528756 -0.71187763 10.50539671 -0.5078125 8.6953125 C-0.41129395 7.89109863 -0.31477539 7.08688477 -0.21533203 6.25830078 C0.06328055 3.71443406 0.06328055 3.71443406 0 0 Z " fill="#A0AFCC" transform="translate(250,102)"/>
<path d="M0 0 C4.11865188 0.9860714 8.20292427 2.10146214 12 4 C12 4.66 12 5.32 12 6 C6.06 5.01 6.06 5.01 0 4 C0 3.34 0 2.68 0 2 C-3.63 2 -7.26 2 -11 2 C-7.23368682 -0.51087546 -4.35530081 -0.49608116 0 0 Z " fill="#D4D1CE" transform="translate(172,96)"/>
<path d="M0 0 C5.40489519 1.52012677 8.98492628 5.27385218 13 9 C12.67 9.66 12.34 10.32 12 11 C11.29875 10.154375 10.5975 9.30875 9.875 8.4375 C7.21197263 5.60049631 7.21197263 5.60049631 3.75 6.25 C2.38875 6.62125 2.38875 6.62125 1 7 C0 6 0 6 -0.0625 2.9375 C-0.041875 1.968125 -0.02125 0.99875 0 0 Z " fill="#B2BDCB" transform="translate(233,84)"/>
<path d="M0 0 C2.5654594 2.5654594 2.54046087 4.47686668 3 8 C3.69867188 8.12117188 4.39734375 8.24234375 5.1171875 8.3671875 C6.02726563 8.53476563 6.93734375 8.70234375 7.875 8.875 C8.77992188 9.03742188 9.68484375 9.19984375 10.6171875 9.3671875 C13 10 13 10 15 12 C12.68613705 11.71935082 10.37390992 11.42518311 8.0625 11.125 C6.77472656 10.96257812 5.48695313 10.80015625 4.16015625 10.6328125 C3.11730469 10.42398438 2.07445312 10.21515625 1 10 C-0.60725635 6.78548731 -0.05748185 3.56387464 0 0 Z " fill="#9CAFC9" transform="translate(218,72)"/>
<path d="M0 0 C0.66 0.99 1.32 1.98 2 3 C4.31104818 4.05047644 6.64583651 5.05007438 9 6 C9.99 6.66 10.98 7.32 12 8 C12 8.66 12 9.32 12 10 C8 8.66666667 4 7.33333333 0 6 C-0.38218767 4.34385343 -0.71395102 2.67542976 -1 1 C-0.67 0.67 -0.34 0.34 0 0 Z " fill="#D3CFCB" transform="translate(196,114)"/>
<path d="M0 0 C0.99 1.32 1.98 2.64 3 4 C0.22719294 7.08089673 -2.06326356 8.68775452 -6 10 C-5.38003922 8.70590711 -4.75383647 7.41480327 -4.125 6.125 C-3.77695313 5.40570313 -3.42890625 4.68640625 -3.0703125 3.9453125 C-2 2 -2 2 0 0 Z " fill="#EDE9E2" transform="translate(142,54)"/>
<path d="M0 0 C3.86648272 1.04097612 7.49461443 2.03698408 11 4 C11 4.66 11 5.32 11 6 C12.32 6.66 13.64 7.32 15 8 C8.92838975 7.68863537 4.66140596 4.64625533 0 1 C0 0.67 0 0.34 0 0 Z " fill="#A1B1C8" transform="translate(69,143)"/>
<path d="M0 0 C-7.0547046 6.03938731 -7.0547046 6.03938731 -11 5.875 C-11.66 5.58625 -12.32 5.2975 -13 5 C-9.35915152 0.79902099 -5.5729332 -1.8576444 0 0 Z " fill="#E6EAEC" transform="translate(157,47)"/>
<path d="M0 0 C1.67542976 0.28604898 3.34385343 0.61781233 5 1 C-0.75263111 4.83508741 -7.31800851 4.11884965 -14 4 C-14 3.67 -14 3.34 -14 3 C-12.60974609 2.80083984 -12.60974609 2.80083984 -11.19140625 2.59765625 C-9.99386719 2.42105469 -8.79632813 2.24445313 -7.5625 2.0625 C-6.36753906 1.88847656 -5.17257813 1.71445313 -3.94140625 1.53515625 C-1.12044324 1.31014787 -1.12044324 1.31014787 0 0 Z " fill="#91A4BD" transform="translate(225,144)"/>
<path d="M0 0 C1.32 0 2.64 0 4 0 C2.5140084 4.59306496 0.14985318 7.43569245 -3 11 C-3.66 10.67 -4.32 10.34 -5 10 C-4.34 9.34 -3.68 8.68 -3 8 C-2.11221308 6.03511169 -2.11221308 6.03511169 -1.375 3.875 C-1.11460937 3.15054688 -0.85421875 2.42609375 -0.5859375 1.6796875 C-0.29589844 0.84824219 -0.29589844 0.84824219 0 0 Z " fill="#A2AFCD" transform="translate(245,128)"/>
<path d="M0 0 C1.32 0.33 2.64 0.66 4 1 C0.82679218 4.53586014 -1.16743695 6.58578031 -6 7 C-5.34 5.68 -4.68 4.36 -4 3 C-3.01 3.33 -2.02 3.66 -1 4 C-0.67 2.68 -0.34 1.36 0 0 Z " fill="#B1BDD1" transform="translate(236,138)"/>
<path d="M0 0 C0.66 0.33 1.32 0.66 2 1 C-0.51407619 5.28324091 -2.12314139 7.64531705 -7 9 C-5.44499019 5.18315774 -2.96404505 2.80804268 0 0 Z " fill="#AEB9CB" transform="translate(73,100)"/>
<path d="M0 0 C-1.28813342 0.83878455 -2.58063256 1.67086783 -3.875 2.5 C-4.59429687 2.9640625 -5.31359375 3.428125 -6.0546875 3.90625 C-8 5 -8 5 -10 5 C-10 4.01 -10 3.02 -10 2 C-8.71211992 1.46987262 -7.41953322 0.9511671 -6.125 0.4375 C-5.40570313 0.14746094 -4.68640625 -0.14257812 -3.9453125 -0.44140625 C-2 -1 -2 -1 0 0 Z " fill="#C5C2BE" transform="translate(160,100)"/>
<path d="M0 0 C-0.99 1.485 -0.99 1.485 -2 3 C-2 2.34 -2 1.68 -2 1 C-3.97536745 1.34786708 -3.97536745 1.34786708 -6 2 C-6.33 2.66 -6.66 3.32 -7 4 C-8.65 4 -10.3 4 -12 4 C-12 3.34 -12 2.68 -12 2 C-7.8794254 0.00214565 -4.54805635 -0.17835515 0 0 Z " fill="#E4EBE7" transform="translate(126,67)"/>
<path d="M0 0 C0.66 0.33 1.32 0.66 2 1 C1.34 1.928125 0.68 2.85625 0 3.8125 C-2.26574554 6.79636556 -2.26574554 6.79636556 -2 10 C-2.99 9.67 -3.98 9.34 -5 9 C-4.42647107 5.12867972 -2.51295648 2.91827204 0 0 Z " fill="#C1C9D3" transform="translate(105,72)"/>
<path d="M0 0 C2.97 0 5.94 0 9 0 C9.33 0.99 9.66 1.98 10 3 C2.25 2.25 2.25 2.25 0 0 Z " fill="#D2CFCA" transform="translate(122,80)"/>
<path d="M0 0 C6.57142857 5 6.57142857 5 8 10 C6.68 10 5.36 10 4 10 C3.896875 9.236875 3.79375 8.47375 3.6875 7.6875 C2.94399108 4.78105605 2.15141968 3.96433971 0 2 C0 1.34 0 0.68 0 0 Z " fill="#A2B3C5" transform="translate(207,57)"/>
<path d="M0 0 C-0.33 1.32 -0.66 2.64 -1 4 C-3.97 3.505 -3.97 3.505 -7 3 C-4.49955934 -0.00052879 -4.2621484 0 0 0 Z " fill="#EEEBDF" transform="translate(233,85)"/>
<path d="M0 0 C1.32 0.33 2.64 0.66 4 1 C4.33 2.98 4.66 4.96 5 7 C3.29115995 5.37660195 1.62553283 3.70680947 0 2 C0 1.34 0 0.68 0 0 Z " fill="#D6D2CF" transform="translate(208,124)"/>
</svg>
