<?xml version="1.0" encoding="UTF-8"?>
<svg version="1.1" xmlns="http://www.w3.org/2000/svg" width="372" height="266">
<path d="M0 0 C0.66 0 1.32 0 2 0 C4.28393108 4.2330172 6.56244505 8.46888671 8.8359375 12.70751953 C9.61048702 14.14972814 10.38652377 15.59113904 11.1640625 17.03173828 C12.27994335 19.09981848 13.39048444 21.17068697 14.5 23.2421875 C15.0249707 24.21102371 15.0249707 24.21102371 15.56054688 25.19943237 C18 29.77225659 18 29.77225659 18 32 C19.62600553 31.49187327 21.25199698 30.98370148 22.87792969 30.4753418 C24.30543319 30.02945224 25.73317204 29.58431553 27.16113281 29.13989258 C30.94134912 27.96219707 34.71684974 26.77242324 38.484375 25.5546875 C39.55751953 25.21087036 39.55751953 25.21087036 40.65234375 24.86010742 C42.02622873 24.41957517 43.39869512 23.9745881 44.76953125 23.5246582 C48.06462526 22.47379724 50.49127134 22 54 22 C52.39585977 29.82651576 50.17610091 37.41520176 47.875 45.0625 C47.50246094 46.30966797 47.12992188 47.55683594 46.74609375 48.84179688 C45.83352827 51.89538138 44.9180976 54.94807515 44 58 C44.88155762 58.27328125 45.76311523 58.5465625 46.67138672 58.828125 C49.75315611 59.91309589 52.40674524 61.169084 55.2578125 62.75 C56.21300781 63.2759375 57.16820312 63.801875 58.15234375 64.34375 C59.62380859 65.16359375 59.62380859 65.16359375 61.125 66 C63.08565005 67.08385348 65.04657672 68.16720677 67.0078125 69.25 C67.87035645 69.72953125 68.73290039 70.2090625 69.62158203 70.703125 C71.72689337 71.85108372 73.8474336 72.94395354 76 74 C76 74.66 76 75.32 76 76 C72.08868356 78.12364522 68.17424525 80.24138399 64.25683594 82.35375977 C62.92523741 83.07285537 61.59449803 83.7935443 60.26464844 84.51586914 C58.35055806 85.55517158 56.43342867 86.58866304 54.515625 87.62109375 C52.78747559 88.55586548 52.78747559 88.55586548 51.02441406 89.50952148 C48.60625557 90.70122778 46.62882597 91.52331375 44 92 C44.30292969 92.98395752 44.60585938 93.96791504 44.91796875 94.98168945 C46.04035564 98.63128173 47.15723772 102.28253912 48.27246094 105.93432617 C48.75598467 107.51486467 49.2410018 109.0949471 49.72753906 110.67456055 C50.42645726 112.94461834 51.11999545 115.21625992 51.8125 117.48828125 C52.03123779 118.19463211 52.24997559 118.90098297 52.4753418 119.6287384 C53.35533579 122.53172262 54 124.94741921 54 128 C49.65514916 127.39172088 45.32607587 126.72918276 41 126 C41.04640625 127.02738281 41.0928125 128.05476562 41.140625 129.11328125 C41.56304488 142.3849751 39.25673536 151.97840727 30 162 C20.51814674 171.81729618 8.74389345 174.90411086 -4.60752869 175.25396729 C-6.55073678 175.26562464 -8.49402926 175.26678637 -10.43725586 175.25878906 C-11.51052628 175.2622937 -12.58379669 175.26579834 -13.68959045 175.26940918 C-17.19807622 175.27813121 -20.70635633 175.27241076 -24.21484375 175.265625 C-26.67761778 175.26697448 -29.14039155 175.26891737 -31.60316467 175.27142334 C-36.7497106 175.2743618 -41.89618682 175.27011853 -47.04272461 175.26074219 C-53.61023231 175.24935456 -60.17757639 175.25591104 -66.74507809 175.26788712 C-71.82655551 175.27514541 -76.90799472 175.2727995 -81.98947334 175.26763153 C-84.40976544 175.26630569 -86.83006112 175.26790503 -89.25034904 175.27259064 C-111.23582352 175.30581821 -130.47922498 175.12618874 -147.15625 158.90234375 C-156.34887838 149.17805216 -160.88047046 137.33280012 -161.375 123.9375 C-160.83663808 110.05224881 -155.04430144 97.22163428 -145.4765625 87.25390625 C-136.64975652 79.22067746 -126.39914126 74.82106233 -114.625 73.25 C-110.77318317 72.54800486 -109.29017488 71.65525261 -107.0625 68.4375 C-106.60230469 67.72722656 -106.14210937 67.01695313 -105.66796875 66.28515625 C-97.38630007 54.93907621 -83.3051092 48.91797812 -70 46 C-68.989375 45.773125 -67.97875 45.54625 -66.9375 45.3125 C-60.2085816 44.59665762 -53.65736821 44.84219683 -47 46 C-48.43066697 37.8301386 -50.64137417 29.94605012 -53 22 C-45.5215049 22.58166073 -38.74399549 24.78016424 -31.625 27.0625 C-29.28461401 27.8057822 -26.94350418 28.54679037 -24.6015625 29.28515625 C-23.57369629 29.61394775 -22.54583008 29.94273926 -21.48681641 30.28149414 C-19.11118738 31.09252418 -19.11118738 31.09252418 -17 31 C-16.52054932 30.09644775 -16.04109863 29.19289551 -15.54711914 28.26196289 C-13.77290868 24.9195166 -11.99631807 21.57834045 -10.21899414 18.23754883 C-9.44913471 16.78965403 -8.67992689 15.34141257 -7.91137695 13.89282227 C-6.80850379 11.81435787 -5.70331644 9.73713909 -4.59765625 7.66015625 C-4.08042747 6.68357811 -4.08042747 6.68357811 -3.55274963 5.68727112 C-1.11387171 1.11387171 -1.11387171 1.11387171 0 0 Z " fill="#E5E1DE" transform="translate(222,46)"/>
<path d="M0 0 C0.66 0 1.32 0 2 0 C4.28393108 4.2330172 6.56244505 8.46888671 8.8359375 12.70751953 C9.61048702 14.14972814 10.38652377 15.59113904 11.1640625 17.03173828 C12.27994335 19.09981848 13.39048444 21.17068697 14.5 23.2421875 C14.84998047 23.88807831 15.19996094 24.53396912 15.56054688 25.19943237 C18 29.77225659 18 29.77225659 18 32 C19.62600553 31.49187327 21.25199698 30.98370148 22.87792969 30.4753418 C24.30543319 30.02945224 25.73317204 29.58431553 27.16113281 29.13989258 C30.94134912 27.96219707 34.71684974 26.77242324 38.484375 25.5546875 C39.19980469 25.32547607 39.91523438 25.09626465 40.65234375 24.86010742 C42.02622873 24.41957517 43.39869512 23.9745881 44.76953125 23.5246582 C48.06462526 22.47379724 50.49127134 22 54 22 C52.39585977 29.82651576 50.17610091 37.41520176 47.875 45.0625 C47.50246094 46.30966797 47.12992187 47.55683594 46.74609375 48.84179688 C45.83352827 51.89538138 44.9180976 54.94807515 44 58 C44.88155762 58.27328125 45.76311523 58.5465625 46.67138672 58.828125 C49.75315611 59.91309589 52.40674524 61.169084 55.2578125 62.75 C56.21300781 63.2759375 57.16820312 63.801875 58.15234375 64.34375 C59.62380859 65.16359375 59.62380859 65.16359375 61.125 66 C63.08565005 67.08385348 65.04657672 68.16720677 67.0078125 69.25 C67.87035645 69.72953125 68.73290039 70.2090625 69.62158203 70.703125 C71.72689337 71.85108372 73.8474336 72.94395354 76 74 C76 74.66 76 75.32 76 76 C72.08868356 78.12364522 68.17424525 80.24138399 64.25683594 82.35375977 C62.92523741 83.07285537 61.59449803 83.7935443 60.26464844 84.51586914 C58.35055806 85.55517158 56.43342867 86.58866304 54.515625 87.62109375 C52.78747559 88.55586548 52.78747559 88.55586548 51.02441406 89.50952148 C48.60625557 90.70122778 46.62882597 91.52331375 44 92 C44.45439453 93.47593628 44.45439453 93.47593628 44.91796875 94.98168945 C46.04035564 98.63128173 47.15723772 102.28253912 48.27246094 105.93432617 C48.75598467 107.51486467 49.2410018 109.0949471 49.72753906 110.67456055 C50.42645726 112.94461834 51.11999545 115.21625992 51.8125 117.48828125 C52.03123779 118.19463211 52.24997559 118.90098297 52.4753418 119.6287384 C53.35533579 122.53172262 54 124.94741921 54 128 C48.91542644 127.41105326 44.42975277 126.29637712 39.5625 124.625 C38.90507812 124.40239502 38.24765625 124.17979004 37.5703125 123.95043945 C34.1707988 122.79048162 30.82393452 121.54699572 27.5 120.1875 C23.76467523 118.92015767 20.91204818 118.9115132 17 119 C16.64603149 119.77694214 16.64603149 119.77694214 16.28491211 120.56958008 C11.75378886 130.46295337 7.25142056 140.05504133 1 149 C-3.16295701 144.34380163 -5.78924173 139.01228948 -8.625 133.5 C-9.11484375 132.56285156 -9.6046875 131.62570313 -10.109375 130.66015625 C-12.27259403 126.49329993 -14.3085887 122.38420056 -16 118 C-16.639375 118.28875 -17.27875 118.5775 -17.9375 118.875 C-20.37484289 119.77035045 -22.51785903 120.35912918 -25.0390625 120.875 C-30.26358614 122.00917752 -35.3336047 123.54351132 -40.4375 125.125 C-42.2062586 125.67177656 -43.97575568 126.21617176 -45.74609375 126.7578125 C-46.51622803 126.9964502 -47.2863623 127.23508789 -48.07983398 127.48095703 C-50 128 -50 128 -52 128 C-51.44417092 125.66489683 -50.88196937 123.33179334 -50.3125 121 C-50.13823486 120.28610107 -49.96396973 119.57220215 -49.78442383 118.83666992 C-48.30017204 112.90031235 -46.51413435 107.09204287 -44.48754883 101.31835938 C-43.59123853 98.63462148 -43.00853798 96.11601612 -42.80078125 93.29296875 C-44.54154329 89.964541 -46.95492293 89.42006157 -50.36669922 88.07617188 C-54.96728908 86.1960124 -59.22985077 83.67221476 -63.5625 81.25 C-64.47580078 80.74339844 -65.38910156 80.23679687 -66.33007812 79.71484375 C-68.55527904 78.47991549 -70.77851535 77.2415969 -73 76 C-73 75.34 -73 74.68 -73 74 C-68.36160244 71.38108042 -63.72009344 68.76784958 -59.07373047 66.16308594 C-57.25769237 65.14453102 -55.44317264 64.12326988 -53.62890625 63.1015625 C-52.67886719 62.57304688 -51.72882813 62.04453125 -50.75 61.5 C-49.91984375 61.0359375 -49.0896875 60.571875 -48.234375 60.09375 C-46 59 -46 59 -42 58 C-42.99 52.555 -42.99 52.555 -44 47 C-44.66 47 -45.32 47 -46 47 C-49.465 34.625 -49.465 34.625 -53 22 C-47.6146618 22.67316727 -43.59197873 23.25633446 -38.6015625 24.84765625 C-37.46332031 25.20537109 -36.32507813 25.56308594 -35.15234375 25.93164062 C-33.40630859 26.49141602 -33.40630859 26.49141602 -31.625 27.0625 C-29.28461401 27.8057822 -26.94350418 28.54679037 -24.6015625 29.28515625 C-23.57369629 29.61394775 -22.54583008 29.94273926 -21.48681641 30.28149414 C-19.11118738 31.09252418 -19.11118738 31.09252418 -17 31 C-16.52054932 30.09644775 -16.04109863 29.19289551 -15.54711914 28.26196289 C-13.77290868 24.9195166 -11.99631807 21.57834045 -10.21899414 18.23754883 C-9.44913471 16.78965403 -8.67992689 15.34141257 -7.91137695 13.89282227 C-6.80850379 11.81435787 -5.70331644 9.73713909 -4.59765625 7.66015625 C-4.25283707 7.00910416 -3.90801788 6.35805206 -3.55274963 5.68727112 C-1.11387171 1.11387171 -1.11387171 1.11387171 0 0 Z " fill="#FDB747" transform="translate(222,46)"/>
<path d="M0 0 C-0.28127421 1.48117801 -0.57533732 2.95993249 -0.875 4.4375 C-1.11863281 5.67306641 -1.11863281 5.67306641 -1.3671875 6.93359375 C-1.57601563 7.61550781 -1.78484375 8.29742187 -2 9 C-2.99 9.495 -2.99 9.495 -4 10 C-4.65213292 12.02463255 -4.65213292 12.02463255 -5 14 C-7.97 13.505 -7.97 13.505 -11 13 C-11 12.34 -11 11.68 -11 11 C-11.66 10.67 -12.32 10.34 -13 10 C-13.33 10.66 -13.66 11.32 -14 12 C-20.75 10.375 -20.75 10.375 -23 7 C-22.319375 6.731875 -21.63875 6.46375 -20.9375 6.1875 C-18.81726704 5.33038455 -16.71482023 4.42880899 -14.625 3.5 C-9.66461695 1.4474277 -5.39000856 0 0 0 Z " fill="#FCAD2A" transform="translate(276,68)"/>
<path d="M0 0 C3.73487777 0.4979837 5.81237635 0.87491756 9 3 C11.58958113 3.79011181 14.19618819 4.45555498 16.8203125 5.12109375 C17.53960937 5.41113281 18.25890625 5.70117188 19 6 C19.33 6.99 19.66 7.98 20 9 C14.64993984 12.28767869 10.31631828 14.59683075 4 15 C4 11 4 11 5 9 C4.34 9 3.68 9 3 9 C3.33 8.01 3.66 7.02 4 6 C3.67 5.34 3.34 4.68 3 4 C2.01 3.67 1.02 3.34 0 3 C0 2.01 0 1.02 0 0 Z " fill="#FAAC2C" transform="translate(278,113)"/>
<path d="M0 0 C0 0.99 0 1.98 0 3 C-1.8253125 3.2165625 -1.8253125 3.2165625 -3.6875 3.4375 C-6.82907377 3.82950657 -9.90083576 4.34754437 -13 5 C-14.99897128 5.33944795 -16.99875639 5.67421616 -19 6 C-19 6.66 -19 7.32 -19 8 C-20.65 8.33 -22.3 8.66 -24 9 C-24.33 10.98 -24.66 12.96 -25 15 C-27.64 15.33 -30.28 15.66 -33 16 C-33.33 16.99 -33.66 17.98 -34 19 C-34.721875 19.495 -35.44375 19.99 -36.1875 20.5 C-40.394878 24.23989156 -42.49883436 29.01485886 -45 34 C-45.66 34 -46.32 34 -47 34 C-44.1222295 22.77669506 -35.69378702 13.99069086 -25.93359375 8.171875 C-17.53724602 3.84234401 -9.22014292 1.74384997 0 0 Z " fill="#DDE6EF" transform="translate(112,118)"/>
<path d="M0 0 C0.33 2.64 0.66 5.28 1 8 C-1.64 9.98 -4.28 11.96 -7 14 C-7.99 12.68 -8.98 11.36 -10 10 C-9.19322513 5.50511145 -4.91624361 0 0 0 Z " fill="#EDEBE2" transform="translate(127,106)"/>
<path d="M0 0 C6.30367803 0.58367389 11.98660063 2.04071619 18 4 C18 4.33 18 4.66 18 5 C15.03 5 12.06 5 9 5 C9 4.34 9 3.68 9 3 C8.01 3.495 8.01 3.495 7 4 C6.38567131 6.31850007 6.38567131 6.31850007 6 9 C5.66666667 10.66666667 5.33333333 12.33333333 5 14 C2.99006295 10.98509443 2.27376659 8.7850073 1.375 5.3125 C1.11460937 4.31863281 0.85421875 3.32476562 0.5859375 2.30078125 C0.39257812 1.54152344 0.19921875 0.78226562 0 0 Z " fill="#EAAB41" transform="translate(169,68)"/>
<path d="M0 0 C3.5625 0.1875 3.5625 0.1875 5.5625 2.1875 C3.2525 1.8575 0.9425 1.5275 -1.4375 1.1875 C-1.705625 2.05375 -1.97375 2.92 -2.25 3.8125 C-3.40922948 7.10715221 -4.87795895 10.06841789 -6.4375 13.1875 C-6.6540625 14.30125 -6.6540625 14.30125 -6.875 15.4375 C-7.4375 17.1875 -7.4375 17.1875 -9.5 18.4375 C-10.139375 18.685 -10.77875 18.9325 -11.4375 19.1875 C-11.4375 20.1775 -11.4375 21.1675 -11.4375 22.1875 C-12.4275 22.5175 -13.4175 22.8475 -14.4375 23.1875 C-12.64511419 18.49539055 -10.51502139 13.97786738 -8.375 9.4375 C-8.01083984 8.65761719 -7.64667969 7.87773437 -7.27148438 7.07421875 C-6.74844727 5.96240234 -6.74844727 5.96240234 -6.21484375 4.828125 C-5.89765381 4.15297852 -5.58046387 3.47783203 -5.25366211 2.78222656 C-3.75657859 -0.14297522 -3.66578451 0.19995188 0 0 Z " fill="#EEDDC5" transform="translate(242.4375,163.8125)"/>
<path d="M0 0 C1 3 1 3 0.03125 5.234375 C-4.07773542 11.98485105 -8.37930949 17.58620633 -15 22 C-15.99 21.67 -16.98 21.34 -18 21 C-16.2434665 19.05856824 -14.74446846 17.85665304 -12.4375 16.5625 C-9.76119758 14.84692152 -9.2398161 13.83386537 -8 11 C-7.525625 10.566875 -7.05125 10.13375 -6.5625 9.6875 C-4.2393064 7.17845091 -3.32997119 4.12254106 -2 1 C-1.34 0.67 -0.68 0.34 0 0 Z " fill="#D4DFEC" transform="translate(260,192)"/>
<path d="M0 0 C8.57142857 -0.14285714 8.57142857 -0.14285714 12 1 C12 1.99 12 2.98 12 4 C13.65 4 15.3 4 17 4 C16.67 4.99 16.34 5.98 16 7 C15.401875 6.814375 14.80375 6.62875 14.1875 6.4375 C11.83591238 5.77906313 11.83591238 5.77906313 9 7 C8.67 6.34 8.34 5.68 8 5 C7.34 5.66 6.68 6.32 6 7 C4.68 6.34 3.36 5.68 2 5 C2.33 4.01 2.66 3.02 3 2 C2.01 1.34 1.02 0.68 0 0 Z " fill="#F8AE3B" transform="translate(182,73)"/>
<path d="M0 0 C-0.33 1.32 -0.66 2.64 -1 4 C-1.33 3.01 -1.66 2.02 -2 1 C-2.33 1.99 -2.66 2.98 -3 4 C-3.66 4 -4.32 4 -5 4 C-5.33 3.34 -5.66 2.68 -6 2 C-6.61488281 2 -7.22976562 2 -7.86328125 2 C-18.375 2 -18.375 2 -22 1 C-22.33 1.66 -22.66 2.32 -23 3 C-23 2.01 -23 1.02 -23 0 C-15.32557751 -1.61566789 -7.68618813 -1.33672837 0 0 Z " fill="#E7EAEB" transform="translate(175,92)"/>
<path d="M0 0 C-0.66 2.97 -1.32 5.94 -2 9 C-2.33 9 -2.66 9 -3 9 C-3.33 7.02 -3.66 5.04 -4 3 C-6.44480079 3.18828772 -6.44480079 3.18828772 -9 4 C-10.36020151 5.96758273 -10.36020151 5.96758273 -11 8 C-11.66 7.34 -12.32 6.68 -13 6 C-14.31747324 5.30251417 -15.64914193 4.63040043 -17 4 C-14.91891315 3.32635339 -12.8350329 2.66133202 -10.75 2 C-9.58984375 1.62875 -8.4296875 1.2575 -7.234375 0.875 C-4 0 -4 0 0 0 Z " fill="#F0AD45" transform="translate(276,68)"/>
<path d="M0 0 C0.66 0.33 1.32 0.66 2 1 C0.625 2.5 0.625 2.5 -1 4 C-1.66 4 -2.32 4 -3 4 C-3 4.66 -3 5.32 -3 6 C-4.98 6.66 -6.96 7.32 -9 8 C-9 8.66 -9 9.32 -9 10 C-8.34 10.33 -7.68 10.66 -7 11 C-7 11.66 -7 12.32 -7 13 C-9.9375 12.1875 -9.9375 12.1875 -13 11 C-13.33 10.01 -13.66 9.02 -14 8 C-11.7136988 6.63597957 -9.42178251 5.28365726 -7.125 3.9375 C-6.47402344 3.54755859 -5.82304687 3.15761719 -5.15234375 2.75585938 C-3.46934275 1.77555467 -1.73703801 0.88101568 0 0 Z " fill="#F1B350" transform="translate(163,112)"/>
<path d="M0 0 C0.99 0 1.98 0 3 0 C4.42258812 3.82320557 5.24042276 6.91281305 5 11 C4.34 11 3.68 11 3 11 C3 9.68 3 8.36 3 7 C0.69 7 -1.62 7 -4 7 C-2.68 4.69 -1.36 2.38 0 0 Z " fill="#F5E4CB" transform="translate(175,93)"/>
<path d="M0 0 C0.66 0.33 1.32 0.66 2 1 C1.34 3.64 0.68 6.28 0 9 C-1.32 9 -2.64 9 -4 9 C-4 8.34 -4 7.68 -4 7 C-4.99 6.67 -5.98 6.34 -7 6 C-7 5.01 -7 4.02 -7 3 C-3.535 2.505 -3.535 2.505 0 2 C0 1.34 0 0.68 0 0 Z " fill="#FCAC28" transform="translate(160,116)"/>
<path d="M0 0 C-1.11710981 3.35132942 -1.52941497 3.56552691 -4.375 5.3125 C-7.92953992 7.70637382 -9.25007728 10.06267388 -11 14 C-11.99 14.66 -12.98 15.32 -14 16 C-14 10.23156892 -10.91186231 7.96055769 -7 4 C-2.5 0 -2.5 0 0 0 Z " fill="#DFE7EE" transform="translate(128,103)"/>
<path d="M0 0 C1.32 0 2.64 0 4 0 C4.33 1.32 4.66 2.64 5 4 C1.77208445 6.1519437 0.71599191 6.20086443 -3 6 C-3 5.34 -3 4.68 -3 4 C-4.65 3.67 -6.3 3.34 -8 3 C-8 2.67 -8 2.34 -8 2 C-6.865625 1.855625 -5.73125 1.71125 -4.5625 1.5625 C-1.19222799 1.38828522 -1.19222799 1.38828522 0 0 Z " fill="#ECDED0" transform="translate(202,164)"/>
<path d="M0 0 C0.99 0.495 0.99 0.495 2 1 C1.01 1.495 1.01 1.495 0 2 C0 1.34 0 0.68 0 0 Z M-1 2 C-0.34 2.66 0.32 3.32 1 4 C-0.54362069 7.08724139 -1.37505652 8.71039204 -4.5625 10.1875 C-5.366875 10.455625 -6.17125 10.72375 -7 11 C-7.66 11.66 -8.32 12.32 -9 13 C-8.49268371 8.60325886 -5.88085945 6.16191891 -3 3 C-2.34 2.67 -1.68 2.34 -1 2 Z " fill="#EFEBE1" transform="translate(79,134)"/>
<path d="M0 0 C4.62675657 1.3922459 8.64686231 3.29520984 12.875 5.625 C14.02742187 6.25664062 15.17984375 6.88828125 16.3671875 7.5390625 C17.67042969 8.26222656 17.67042969 8.26222656 19 9 C15.28272326 10.13583456 13.52948291 9.66670026 10 8 C10 7.34 10 6.68 10 6 C9.01 6 8.02 6 7 6 C7 5.34 7 4.68 7 4 C4.69 3.34 2.38 2.68 0 2 C0 1.34 0 0.68 0 0 Z " fill="#F0DCBC" transform="translate(150,123)"/>
<path d="M0 0 C1.53445094 3.06890187 0.54984289 5.70094266 0 9 C0.66 9 1.32 9 2 9 C1.67 9.99 1.34 10.98 1 12 C0.34 12 -0.32 12 -1 12 C-1 11.01 -1 10.02 -1 9 C-1.66 9 -2.32 9 -3 9 C-3.66 7.02 -4.32 5.04 -5 3 C-3.35 2.01 -1.7 1.02 0 0 Z " fill="#FDB134" transform="translate(216,167)"/>
<path d="M0 0 C0.66 0 1.32 0 2 0 C1.71788123 1.6266848 1.42397625 3.25132896 1.125 4.875 C0.96257812 5.77992188 0.80015625 6.68484375 0.6328125 7.6171875 C0 10 0 10 -2 12 C-2.33 11.34 -2.66 10.68 -3 10 C-5.02463255 9.34786708 -5.02463255 9.34786708 -7 9 C-3.25 5.125 -3.25 5.125 -1 4 C-0.34786708 1.97536745 -0.34786708 1.97536745 0 0 Z " fill="#EEDEC6" transform="translate(171,162)"/>
<path d="M0 0 C-0.61875 0.2475 -1.2375 0.495 -1.875 0.75 C-4.35068687 2.20628639 -4.95125002 3.37812506 -6 6 C-6.78375 5.814375 -7.5675 5.62875 -8.375 5.4375 C-10.97089775 4.74037734 -10.97089775 4.74037734 -13 6 C-13 4.68 -13 3.36 -13 2 C-11.21089097 1.47044766 -9.41860852 0.9516063 -7.625 0.4375 C-6.62726563 0.14746094 -5.62953125 -0.14257812 -4.6015625 -0.44140625 C-2 -1 -2 -1 0 0 Z " fill="#F2B453" transform="translate(258,74)"/>
<path d="M0 0 C5.75 1.75 5.75 1.75 8 4 C7.69690596 8.09176955 7.12300942 11.46165096 5 15 C4.875 8.375 4.875 8.375 6 5 C5.34 5 4.68 5 4 5 C4 4.34 4 3.68 4 3 C3.01 3 2.02 3 1 3 C0.67 2.01 0.34 1.02 0 0 Z " fill="#F3D8B3" transform="translate(172,134)"/>
<path d="M0 0 C3.9101173 1.48314794 4.94331612 3.46250372 7 7 C8.62836738 8.7041054 10.28769752 10.38025441 12 12 C9 12 9 12 6.73828125 9.8828125 C5.93777344 8.97273437 5.13726562 8.06265625 4.3125 7.125 C3.50425781 6.22007812 2.69601563 5.31515625 1.86328125 4.3828125 C0 2 0 2 0 0 Z " fill="#D0DAEB" transform="translate(69,196)"/>
<path d="M0 0 C2.76223278 2.76223278 2.57856291 5.20706617 3 9 C-3.625 8.25 -3.625 8.25 -7 6 C-4.69 6 -2.38 6 0 6 C0 4.02 0 2.04 0 0 Z " fill="#E3AB4E" transform="translate(273,165)"/>
<path d="M0 0 C0 0.66 0 1.32 0 2 C-1.03125 2.433125 -2.0625 2.86625 -3.125 3.3125 C-5.59569034 4.35779207 -7.87715435 5.47231388 -10.25 6.75 C-13 8 -13 8 -16 7 C-5.23282443 0 -5.23282443 0 0 0 Z " fill="#D8E3ED" transform="translate(144,95)"/>
<path d="M0 0 C0.33 1.32 0.66 2.64 1 4 C1.556875 3.67 2.11375 3.34 2.6875 3 C5.30284522 1.8690399 7.1806646 1.84337026 10 2 C9 4 9 4 6.49609375 4.8515625 C4.98208984 5.23441406 4.98208984 5.23441406 3.4375 5.625 C2.42558594 5.88539063 1.41367188 6.14578125 0.37109375 6.4140625 C-0.41136719 6.60742188 -1.19382813 6.80078125 -2 7 C-1.34 4.69 -0.68 2.38 0 0 Z " fill="#EDB14F" transform="translate(172,167)"/>
<path d="M0 0 C0.66 0 1.32 0 2 0 C3.6875 2.375 3.6875 2.375 5 5 C4.67 5.66 4.34 6.32 4 7 C3.401875 6.814375 2.80375 6.62875 2.1875 6.4375 C-0.16408762 5.77906313 -0.16408762 5.77906313 -3 7 C-1.125 1.125 -1.125 1.125 0 0 Z " fill="#E3AA4B" transform="translate(222,46)"/>
<path d="M0 0 C2.31 0.66 4.62 1.32 7 2 C6.01 3.485 6.01 3.485 5 5 C4.34 5 3.68 5 3 5 C1.33034549 5.31802943 -0.33678518 5.64984951 -2 6 C-2 4.68 -2 3.36 -2 2 C-1.34 2 -0.68 2 0 2 C0 1.34 0 0.68 0 0 Z " fill="#FBAE24" transform="translate(221,51)"/>
<path d="M0 0 C4.85963179 0.60745397 8.7405518 2.72758967 13 5 C13 5.66 13 6.32 13 7 C7.92990529 6.52467862 4.02506742 3.95637706 0 1 C0 0.67 0 0.34 0 0 Z " fill="#D3DCE9" transform="translate(82,210)"/>
<path d="M0 0 C1 3 1 3 0.22265625 4.82421875 C-0.8515625 6.54947917 -1.92578125 8.27473958 -3 10 C-3.66 9.34 -4.32 8.68 -5 8 C-4.625 5.375 -4.625 5.375 -4 3 C-3.34 3 -2.68 3 -2 3 C-1.34 2.01 -0.68 1.02 0 0 Z " fill="#F3AC3B" transform="translate(226,185)"/>
<path d="M0 0 C3.465 1.485 3.465 1.485 7 3 C7 3.66 7 4.32 7 5 C4.6875 6.6875 4.6875 6.6875 2 8 C1.01 7.67 0.02 7.34 -1 7 C-0.34 7 0.32 7 1 7 C1.33 5.35 1.66 3.7 2 2 C1.34 2 0.68 2 0 2 C0 1.34 0 0.68 0 0 Z " fill="#E3B25B" transform="translate(291,117)"/>
<path d="M0 0 C1.66611905 -0.042721 3.33382885 -0.04063832 5 0 C6 1 6 1 6.0625 3.5625 C6.041875 4.366875 6.02125 5.17125 6 6 C4.68 6 3.36 6 2 6 C2 5.34 2 4.68 2 4 C1.34 4 0.68 4 0 4 C0 2.68 0 1.36 0 0 Z " fill="#FCAD2A" transform="translate(224,58)"/>
<path d="M0 0 C4.455 0.99 4.455 0.99 9 2 C9.33 3.65 9.66 5.3 10 7 C8.02 6.34 6.04 5.68 4 5 C4.33 4.01 4.66 3.02 5 2 C3.35 1.67 1.7 1.34 0 1 C0 0.67 0 0.34 0 0 Z " fill="#F2E2C7" transform="translate(252,167)"/>
<path d="M0 0 C-0.66 2.97 -1.32 5.94 -2 9 C-2.33 9 -2.66 9 -3 9 C-3 6.69 -3 4.38 -3 2 C-4.32 1.67 -5.64 1.34 -7 1 C-4 0 -4 0 0 0 Z " fill="#DEAC56" transform="translate(276,68)"/>
<path d="M0 0 C1.41805831 0.28482368 2.83440379 0.57818144 4.25 0.875 C5.03890625 1.03742188 5.8278125 1.19984375 6.640625 1.3671875 C9 2 9 2 13 4 C10.03 4 7.06 4 4 4 C4 3.34 4 2.68 4 2 C2.68 2 1.36 2 0 2 C0 1.34 0 0.68 0 0 Z " fill="#E6AE54" transform="translate(174,69)"/>
<path d="M0 0 C2.64 0 5.28 0 8 0 C8.33 0.99 8.66 1.98 9 3 C5.625 3.1875 5.625 3.1875 2 3 C1.34 2.01 0.68 1.02 0 0 Z " fill="#FBAC24" transform="translate(264,168)"/>
<path d="M0 0 C0.66 0.33 1.32 0.66 2 1 C0.625 3.5 0.625 3.5 -1 6 C-1.66 6 -2.32 6 -3 6 C-3 5.34 -3 4.68 -3 4 C-3.99 3.67 -4.98 3.34 -6 3 C-4.03533587 1.93224776 -2.03144641 0.93446535 0 0 Z " fill="#EEEBE7" transform="translate(144,96)"/>
<path d="M0 0 C3.375 -0.125 3.375 -0.125 7 0 C7.66 0.66 8.32 1.32 9 2 C6.69 1.67 4.38 1.34 2 1 C1.71125 1.639375 1.4225 2.27875 1.125 2.9375 C0 5 0 5 -2 6 C-1.34 4.02 -0.68 2.04 0 0 Z " fill="#F2D6AC" transform="translate(239,164)"/>
<path d="M0 0 C2 2 2 2 2.25 5.5 C2 9 2 9 0 11 C-2.125 10.625 -2.125 10.625 -4 10 C-3.34 9.34 -2.68 8.68 -2 8 C-1.01 8 -0.02 8 1 8 C0.67 5.36 0.34 2.72 0 0 Z " fill="#EEBE67" transform="translate(179,96)"/>
<path d="M0 0 C0.33 0.99 0.66 1.98 1 3 C2.65 3 4.3 3 6 3 C5.67 3.99 5.34 4.98 5 6 C4.401875 5.814375 3.80375 5.62875 3.1875 5.4375 C0.83591238 4.77906313 0.83591238 4.77906313 -2 6 C-1.49396008 3.83125748 -1.00016187 2.00032373 0 0 Z " fill="#FCB530" transform="translate(193,74)"/>
<path d="M0 0 C0.33 0.99 0.66 1.98 1 3 C1.66 3 2.32 3 3 3 C3 4.65 3 6.3 3 8 C2.01 8 1.02 8 0 8 C-0.66 6.35 -1.32 4.7 -2 3 C-1.34 3 -0.68 3 0 3 C0 2.01 0 1.02 0 0 Z " fill="#FAB43B" transform="translate(234,69)"/>
<path d="M0 0 C0.66 0.66 1.32 1.32 2 2 C0 5 0 5 -2.625 5.6875 C-3.800625 5.8421875 -3.800625 5.8421875 -5 6 C-3.63016497 2.83884224 -3.0109362 2.0072908 0 0 Z " fill="#EEECE7" transform="translate(86,128)"/>
<path d="M0 0 C1.65 0.33 3.3 0.66 5 1 C5 1.99 5 2.98 5 4 C3.35 4 1.7 4 0 4 C0 2.68 0 1.36 0 0 Z " fill="#FBAC3A" transform="translate(273,129)"/>
<path d="M0 0 C3.0916909 2.52956528 3.90931332 5.22454612 5 9 C4.34 9 3.68 9 3 9 C0.56839395 5.63316085 0 4.26649636 0 0 Z " fill="#F5D6B2" transform="translate(210,173)"/>
<path d="M0 0 C2.31 0 4.62 0 7 0 C7 0.66 7 1.32 7 2 C6.21625 2.103125 5.4325 2.20625 4.625 2.3125 C1.66954819 2.77595022 1.66954819 2.77595022 0 6 C0 4.02 0 2.04 0 0 Z " fill="#F4B854" transform="translate(237,162)"/>
<path d="M0 0 C2.97 0.33 5.94 0.66 9 1 C9 1.33 9 1.66 9 2 C6.03 2.66 3.06 3.32 0 4 C0 2.68 0 1.36 0 0 Z " fill="#FAAC23" transform="translate(173,167)"/>
<path d="M0 0 C-1.04874998 2.62187494 -1.64931313 3.79371361 -4.125 5.25 C-4.74375 5.4975 -5.3625 5.745 -6 6 C-5.625 3.5625 -5.625 3.5625 -5 1 C-3 0 -3 0 0 0 Z " fill="#EEDDCF" transform="translate(178,102)"/>
</svg>
