<?xml version="1.0" encoding="UTF-8"?>
<svg version="1.1" xmlns="http://www.w3.org/2000/svg" width="120" height="99">
<path d="M0 0 C6.68257621 4.72235386 11.06651495 10.82454484 13.65625 18.59375 C15.58989887 19.47410265 15.58989887 19.47410265 17.90625 20.03125 C23.49602347 21.75867603 26.45154879 23.92055388 29.90625 28.71875 C32.53628523 33.73191919 33.32655364 39.24223178 32.21484375 44.80078125 C30.31207916 50.48732913 27.14372987 54.7113328 22.34375 58.34375 C18.83820662 59.97423529 15.43172796 60.76186503 11.65625 61.59375 C11.90632813 62.30789062 12.15640625 63.02203125 12.4140625 63.7578125 C12.65625 66.59375 12.65625 66.59375 10.9609375 69.3046875 C10.15914063 70.18382813 9.35734375 71.06296875 8.53125 71.96875 C7.74492188 72.86335938 6.95859375 73.75796875 6.1484375 74.6796875 C3.65625 76.59375 3.65625 76.59375 0.8515625 76.3828125 C-0.23511719 75.99222656 -0.23511719 75.99222656 -1.34375 75.59375 C-2.08984375 73.921875 -2.08984375 73.921875 -2.34375 71.59375 C-0.69140625 69.015625 -0.69140625 69.015625 1.59375 66.34375 C2.34527344 65.45171875 3.09679687 64.5596875 3.87109375 63.640625 C4.46019531 62.96515625 5.04929687 62.2896875 5.65625 61.59375 C2.73981325 62.90707141 1.44559406 63.82601168 -0.78125 66.28125 C-1.626875 67.044375 -2.4725 67.8075 -3.34375 68.59375 C-6.15625 68.40625 -6.15625 68.40625 -8.34375 67.59375 C-9.46875 63.84375 -9.46875 63.84375 -8.34375 61.59375 C-9.33375 61.59375 -10.32375 61.59375 -11.34375 61.59375 C-11.09367187 62.30789062 -10.84359375 63.02203125 -10.5859375 63.7578125 C-10.34375 66.59375 -10.34375 66.59375 -12.0390625 69.3046875 C-12.84085938 70.18382813 -13.64265625 71.06296875 -14.46875 71.96875 C-15.25507812 72.86335938 -16.04140625 73.75796875 -16.8515625 74.6796875 C-19.34375 76.59375 -19.34375 76.59375 -22.1484375 76.3828125 C-22.87289062 76.12242188 -23.59734375 75.86203125 -24.34375 75.59375 C-25.02734375 73.859375 -25.02734375 73.859375 -25.34375 71.59375 C-24.12890625 69.453125 -24.12890625 69.453125 -22.40625 67.34375 C-21.84035156 66.63734375 -21.27445313 65.9309375 -20.69140625 65.203125 C-20.02431641 64.40648438 -20.02431641 64.40648438 -19.34375 63.59375 C-20.065625 64.439375 -20.7875 65.285 -21.53125 66.15625 C-24.34375 68.59375 -24.34375 68.59375 -27.15625 68.40625 C-28.2390625 68.0040625 -28.2390625 68.0040625 -29.34375 67.59375 C-29.72593767 65.93760343 -30.05770102 64.26917976 -30.34375 62.59375 C-30.01375 62.26375 -29.68375 61.93375 -29.34375 61.59375 C-30.99375 61.59375 -32.64375 61.59375 -34.34375 61.59375 C-34.09496094 62.30789062 -33.84617188 63.02203125 -33.58984375 63.7578125 C-33.34375 66.59375 -33.34375 66.59375 -35.00390625 69.3046875 C-35.79667969 70.18382813 -36.58945312 71.06296875 -37.40625 71.96875 C-38.18097656 72.86335938 -38.95570312 73.75796875 -39.75390625 74.6796875 C-42.34375 76.59375 -42.34375 76.59375 -45.65234375 76.3828125 C-46.54050781 76.12242188 -47.42867187 75.86203125 -48.34375 75.59375 C-48.72367882 72.25156368 -48.57911171 70.92420204 -46.59375 68.13671875 C-45.85125 67.35941406 -45.10875 66.58210938 -44.34375 65.78125 C-43.60125 64.99105469 -42.85875 64.20085937 -42.09375 63.38671875 C-41.51625 62.79503906 -40.93875 62.20335938 -40.34375 61.59375 C-41.06820312 61.48417969 -41.79265625 61.37460938 -42.5390625 61.26171875 C-50.88558178 59.89288959 -58.47849759 57.87444696 -63.73046875 50.69921875 C-68.2165607 43.77084179 -69.15917817 37.84856397 -68.34375 29.59375 C-66.19879205 22.35868458 -62.63805258 16.7789505 -56.09375 12.90625 C-53.08887294 11.30496683 -50.43219821 10.28853186 -47.09375 9.65625 C-43.09874553 8.52433207 -42.06647895 7.45942497 -39.6796875 4.18359375 C-30.21395696 -7.08117915 -11.81095899 -7.08657539 0 0 Z M-18.34375 60.59375 C-18.01375 61.25375 -17.68375 61.91375 -17.34375 62.59375 C-16.68375 61.93375 -16.02375 61.27375 -15.34375 60.59375 C-16.33375 60.59375 -17.32375 60.59375 -18.34375 60.59375 Z " fill="#464852" transform="translate(75.34375,14.40625)"/>
<path d="M0 0 C5.44285519 3.81192872 5.44285519 3.81192872 6.421875 6.796875 C6.5146875 7.39371094 6.6075 7.99054687 6.703125 8.60546875 C4.62294012 7.60511018 2.65904449 6.57677729 0.72265625 5.31640625 C-7.09580052 0.58381826 -15.42086304 0.32095826 -24.296875 1.60546875 C-30.28756303 3.26700818 -33.97366537 5.95669666 -37.796875 10.79296875 C-41.09322697 14.95800641 -43.68048551 15.39616967 -48.80078125 16.06640625 C-54.439277 17.28410956 -58.24245121 21.24581702 -61.671875 25.66796875 C-64.66672539 31.08173675 -65.67580916 35.49832137 -66.296875 41.60546875 C-66.956875 41.27546875 -67.616875 40.94546875 -68.296875 40.60546875 C-68.91150853 31.47133151 -67.35532297 25.58960618 -62.609375 17.85546875 C-58.22282048 13.58746976 -53.06491484 10.80774902 -47.046875 9.66796875 C-43.05187053 8.53605082 -42.01960395 7.47114372 -39.6328125 4.1953125 C-30.2183723 -7.00842189 -11.75844636 -7.13905672 0 0 Z " fill="#5A5C5D" transform="translate(75.296875,14.39453125)"/>
<path d="M0 0 C2.625 0.9375 2.625 0.9375 5 2 C4.4674855 6.00787229 3.41108236 8.21868009 0.75 11.25 C0.16734375 11.93578125 -0.4153125 12.6215625 -1.015625 13.328125 C-3.37687291 15.31752285 -4.93253097 15.81956065 -8 16 C-8.66 15.34 -9.32 14.68 -10 14 C-9.72117501 9.89243192 -8.30233724 7.73477071 -5.5625 4.75 C-4.94503906 4.06421875 -4.32757813 3.3784375 -3.69140625 2.671875 C-2 1 -2 1 0 0 Z " fill="#7098CB" transform="translate(83,75)"/>
<path d="M0 0 C2.625 0.9375 2.625 0.9375 5 2 C4.47793232 6.31473585 3.09095939 8.61750898 0.25 11.875 C-0.42546875 12.67679688 -1.1009375 13.47859375 -1.796875 14.3046875 C-4 16 -4 16 -6.765625 15.7578125 C-7.50296875 15.50773437 -8.2403125 15.25765625 -9 15 C-9.73828125 13.32421875 -9.73828125 13.32421875 -10 11 C-8.41796875 8.45703125 -8.41796875 8.45703125 -6.1875 5.8125 C-5.45917969 4.93207031 -4.73085938 4.05164063 -3.98046875 3.14453125 C-2 1 -2 1 0 0 Z " fill="#7097CA" transform="translate(60,75)"/>
<path d="M0 0 C0.59296875 0.21914062 1.1859375 0.43828125 1.796875 0.6640625 C2.126875 1.9840625 2.456875 3.3040625 2.796875 4.6640625 C2.136875 4.6640625 1.476875 4.6640625 0.796875 4.6640625 C0.673125 5.4478125 0.549375 6.2315625 0.421875 7.0390625 C-0.203125 9.6640625 -0.203125 9.6640625 -2.203125 11.6640625 C-5.328125 11.2890625 -5.328125 11.2890625 -8.203125 10.6640625 C-8.578125 8.5390625 -8.578125 8.5390625 -8.203125 5.6640625 C-3.81917085 -0.58235584 -3.81917085 -0.58235584 0 0 Z " fill="#6F96C8" transform="translate(35.203125,79.3359375)"/>
<path d="M0 0 C0 4 0 4 -2.1875 6.8125 C-5 9 -5 9 -7.8125 8.8125 C-8.534375 8.544375 -9.25625 8.27625 -10 8 C-10.33 6.35 -10.66 4.7 -11 3 C-7.48550811 -0.37391222 -4.73940561 -0.27342725 0 0 Z " fill="#749DD2" transform="translate(56,74)"/>
<path d="M0 0 C0 4 0 4 -2.1875 6.8125 C-5 9 -5 9 -7.8125 8.8125 C-8.534375 8.544375 -9.25625 8.27625 -10 8 C-10.75 6.25 -10.75 6.25 -11 4 C-8.00042166 -0.49936751 -5.13756651 -0.39519742 0 0 Z " fill="#77A1D6" transform="translate(77,74)"/>
<path d="M0 0 C2.75 0.8125 2.75 0.8125 5 2 C4.58578031 6.83256305 2.53586014 8.82679218 -1 12 C-1 11.01 -1 10.02 -1 9 C-0.34 9 0.32 9 1 9 C-0.36983503 5.83884224 -0.9890638 5.0072908 -4 3 C-2.3125 1.375 -2.3125 1.375 0 0 Z " fill="#557195" transform="translate(37,75)"/>
<path d="M0 0 C0 1.98 0 3.96 0 6 C-2.375 6.625 -2.375 6.625 -5 7 C-5.66 6.34 -6.32 5.68 -7 5 C-6.625 2.375 -6.625 2.375 -6 0 C-3 -1 -3 -1 0 0 Z " fill="#76A0D6" transform="translate(80,84)"/>
<path d="M0 0 C3.1875 -0.3125 3.1875 -0.3125 7 0 C9.63016161 2.1727422 11.47336894 3.94673788 13 7 C11.39566191 6.52140759 9.79153584 6.04210442 8.1875 5.5625 C7.29417969 5.29566406 6.40085937 5.02882813 5.48046875 4.75390625 C3.64526945 4.19612127 1.81966274 3.60655425 0 3 C0 2.01 0 1.02 0 0 Z " fill="#595C5D" transform="translate(89,35)"/>
<path d="M0 0 C2.625 0.9375 2.625 0.9375 5 2 C4.5206753 6.31392226 3.2542015 8.16569547 0 11 C0 9.02 0 7.04 0 5 C-0.99 4.67 -1.98 4.34 -3 4 C-2.67 3.01 -2.34 2.02 -2 1 C-1.34 0.67 -0.68 0.34 0 0 Z " fill="#587599" transform="translate(60,75)"/>
<path d="M0 0 C2.6875 0.875 2.6875 0.875 5 2 C4.50168276 5.68754757 3.89932357 7.60490662 1 10 C0.566875 8.576875 0.566875 8.576875 0.125 7.125 C-0.76825109 3.94788422 -0.76825109 3.94788422 -3 2 C-2.01 1.34 -1.02 0.68 0 0 Z " fill="#58779E" transform="translate(83,75)"/>
<path d="M0 0 C0.66 0.33 1.32 0.66 2 1 C-7.26995516 11.49686099 -7.26995516 11.49686099 -11.51171875 12.73046875 C-13.6875 12.6875 -13.6875 12.6875 -17 12 C-14 10 -14 10 -11.625 9.75 C-7.78093282 8.65169509 -6.41342396 6.09413328 -4 3 C-1.6875 1.125 -1.6875 1.125 0 0 Z " fill="#4B5053" transform="translate(41,14)"/>
<path d="M0 0 C2.31 0 4.62 0 7 0 C7 1.32 7 2.64 7 4 C5 5.75 5 5.75 3 7 C2.87625 6.030625 2.7525 5.06125 2.625 4.0625 C2.41875 3.051875 2.2125 2.04125 2 1 C1.34 0.67 0.68 0.34 0 0 Z " fill="#6587B5" transform="translate(70,74)"/>
<path d="M0 0 C1.65 0.33 3.3 0.66 5 1 C4.67 3.31 4.34 5.62 4 8 C3.67 8 3.34 8 3 8 C2.67 6.35 2.34 4.7 2 3 C0.02 3.66 -1.96 4.32 -4 5 C-2.68 3.35 -1.36 1.7 0 0 Z " fill="#678DBD" transform="translate(56,79)"/>
<path d="M0 0 C1.32 0.66 2.64 1.32 4 2 C4 3.98 4 5.96 4 8 C3.01 8.495 3.01 8.495 2 9 C1.896875 8.21625 1.79375 7.4325 1.6875 6.625 C1.22404978 3.66954819 1.22404978 3.66954819 -2 2 C-1.34 1.34 -0.68 0.68 0 0 Z " fill="#6489BA" transform="translate(80,78)"/>
<path d="M0 0 C2.475 0.495 2.475 0.495 5 1 C5 2.32 5 3.64 5 5 C3.35 4.67 1.7 4.34 0 4 C0 2.68 0 1.36 0 0 Z " fill="#7EAFEE" transform="translate(52,85)"/>
<path d="M0 0 C1.32 0.33 2.64 0.66 4 1 C4.33 2.32 4.66 3.64 5 5 C4.2575 4.62875 3.515 4.2575 2.75 3.875 C0.05716353 2.70484137 0.05716353 2.70484137 -2.3125 3.875 C-3.1478125 4.431875 -3.1478125 4.431875 -4 5 C-2.68 3.35 -1.36 1.7 0 0 Z " fill="#678CBD" transform="translate(33,79)"/>
<path d="M0 0 C1.32 0.33 2.64 0.66 4 1 C4 2.32 4 3.64 4 5 C2.68 4.67 1.36 4.34 0 4 C0 2.68 0 1.36 0 0 Z " fill="#80B1F3" transform="translate(29,85)"/>
<path d="M0 0 C2.6875 0.875 2.6875 0.875 5 2 C4.67 2.99 4.34 3.98 4 5 C3.67 4.34 3.34 3.68 3 3 C2.38125 3.20625 1.7625 3.4125 1.125 3.625 C0.42375 3.74875 -0.2775 3.8725 -1 4 C-1.66 3.34 -2.32 2.68 -3 2 C-2.01 1.34 -1.02 0.68 0 0 Z " fill="#536883" transform="translate(83,75)"/>
<path d="M0 0 C2.31 0 4.62 0 7 0 C7 1.32 7 2.64 7 4 C6.01 4.495 6.01 4.495 5 5 C4.67 4.01 4.34 3.02 4 2 C1.99983534 0.79117904 1.99983534 0.79117904 0 0 Z " fill="#577398" transform="translate(49,74)"/>
<path d="M0 0 C0.99 0.33 1.98 0.66 3 1 C2.38125 1.2475 1.7625 1.495 1.125 1.75 C-1.37818306 3.22246063 -1.83045281 4.41028837 -3 7 C-3.99 7.495 -3.99 7.495 -5 8 C-3.62845496 5.04590299 -2.01136276 2.55991624 0 0 Z " fill="#484C4F" transform="translate(15,30)"/>
<path d="M0 0 C1.9375 0.75 1.9375 0.75 4 2 C4.75 4.125 4.75 4.125 5 6 C2.53199953 4.84826645 0.95216435 3.95216435 -1 2 C-0.67 1.34 -0.34 0.68 0 0 Z " fill="#52575A" transform="translate(77,17)"/>
</svg>
