<?xml version="1.0" encoding="UTF-8"?>
<svg version="1.1" xmlns="http://www.w3.org/2000/svg" width="532" height="413">
<path d="M0 0 C0.80179687 0.60199219 1.60359375 1.20398438 2.4296875 1.82421875 C23.54578051 18.03953628 36.36050356 38.38544501 45.7734375 62.890625 C46.17820312 63.91671875 46.58296875 64.9428125 47 66 C47.35384766 67.15628906 47.35384766 67.15628906 47.71484375 68.3359375 C49.48332045 70.62581919 51.33346611 70.71682815 54.10253906 71.11206055 C54.79057617 71.19883057 55.47861328 71.28560059 56.1875 71.375 C77.68256816 74.789809 95.42696983 86.91440242 108.83203125 103.92578125 C121.58048193 122.00331402 126.57771471 143.16146041 123.50390625 165.12109375 C119.31467481 187.86601702 106.98637523 206.56640045 88.23828125 219.96484375 C65.05334668 234.53583399 39.63279762 234.31968821 13.16052246 234.60089111 C9.52619835 234.64144589 5.89201833 234.69229844 2.2578125 234.7421875 C-4.82801858 234.83799005 -11.91394097 234.92268879 -19 235 C-18.51273437 235.87591797 -18.51273437 235.87591797 -18.015625 236.76953125 C-16.47461859 240.1538184 -16.73035767 243.37908874 -17 247 C-17.03351563 247.72703125 -17.06703125 248.4540625 -17.1015625 249.203125 C-17.90678362 255.78293184 -21.40830125 259.13697449 -26.42578125 263.23828125 C-31.65748485 266.81870359 -36.0447119 266.10779339 -42.0625 265.375 C-49.16723658 264.03565515 -51.89497998 261.73083678 -56.3125 256 C-59.02207281 250.85294538 -59.21701292 244.7146735 -59 239 C-58.34 237.35 -57.68 235.7 -57 234 C-77.46 234 -97.92 234 -119 234 C-118.67 234.99 -118.34 235.98 -118 237 C-117.39444593 243.05554066 -118.56210516 247.99766987 -122 253 C-125.62058414 255.99579307 -129.4631944 257.20531742 -134.125 257.375 C-137.78580092 257.02072894 -140.66528242 256.54535693 -144 255 C-145 252 -145 252 -145.4375 249.625 C-145.8940691 246.98325546 -145.8940691 246.98325546 -147.125 244.6875 C-148.36898169 240.8666991 -147.5740516 237.9658072 -147 234 C-147.88034912 234.01047363 -148.76069824 234.02094727 -149.66772461 234.03173828 C-184.20975126 234.38851675 -216.42008161 232.58217778 -244 209 C-244.75023437 208.39542969 -245.50046875 207.79085937 -246.2734375 207.16796875 C-261.0096136 194.887822 -271.71134534 176.62366056 -276 158 C-276.33451172 156.57300781 -276.33451172 156.57300781 -276.67578125 155.1171875 C-281.74594176 128.69716743 -277.07737019 100.36376527 -262.25585938 77.78710938 C-255.2711865 67.84780038 -246.86173158 59.09581274 -237 52 C-236.15308594 51.38898438 -235.30617187 50.77796875 -234.43359375 50.1484375 C-218.80063388 39.57114423 -201.2644817 34.59559352 -182.63671875 32.6875 C-178.00989574 31.48109874 -175.8591438 27.91896944 -173.1875 24.1875 C-151.35756641 -4.005627 -120.79387942 -18.92608825 -85.92578125 -23.55859375 C-56.71216294 -26.84330904 -23.13445751 -18.36660337 0 0 Z " fill="#D2DDEE" transform="translate(357,72)"/>
<path d="M0 0 C4.68166736 0.70625464 9.23235532 1.75623546 13.8125 2.9375 C15.80150505 3.44784959 17.79101488 3.95467175 19.78407907 4.44894856 C21.19832988 4.80064204 22.61067113 5.16016966 24.02031469 5.52989751 C29.78389888 6.94970294 35.19101189 7.28110315 41.11096191 7.24723816 C42.57926649 7.25085978 42.57926649 7.25085978 44.07723379 7.25455457 C47.33606362 7.26016138 50.5946948 7.25155148 53.85351562 7.24291992 C56.19801893 7.2439935 58.54252197 7.24593331 60.88702393 7.24867249 C67.23762159 7.25350972 73.58814873 7.24588066 79.93873787 7.23571944 C85.9084676 7.22781897 91.87819422 7.22855729 97.84792775 7.22899476 C109.66816206 7.22949455 121.48836923 7.22035364 133.30859375 7.20581055 C144.78385919 7.19169917 156.25910077 7.18464093 167.734375 7.18530273 C168.44235003 7.18534269 169.15032507 7.18538265 169.87975389 7.18542381 C170.58649804 7.18546417 171.29324219 7.18550452 172.02140284 7.1855461 C184.42635675 7.18620016 196.83130083 7.18106187 209.23625183 7.17275429 C214.52174455 7.1692155 219.80723382 7.1673902 225.09272766 7.16686058 C231.3044927 7.16585991 237.51623248 7.1597861 243.7279892 7.14969444 C246.01418147 7.14676143 248.30037665 7.14554568 250.58657074 7.14612198 C253.69271019 7.14660889 256.79877774 7.14099462 259.90490723 7.13371277 C261.28039789 7.13603567 261.28039789 7.13603567 262.68367624 7.1384055 C266.65893037 7.52197399 266.65893037 7.52197399 270 6 C272.01964199 5.92755947 274.04167124 5.91622812 276.0625 5.9375 C277.16722656 5.94652344 278.27195312 5.95554687 279.41015625 5.96484375 C280.26480469 5.97644531 281.11945313 5.98804688 282 6 C268.65873358 13.72708665 247.22277667 10.44089166 232.16052246 10.60089111 C228.52619835 10.64144589 224.89201833 10.69229844 221.2578125 10.7421875 C214.17198142 10.83799005 207.08605903 10.92268879 200 11 C200.32484375 11.58394531 200.6496875 12.16789062 200.984375 12.76953125 C202.52538141 16.1538184 202.26964233 19.37908874 202 23 C201.94972656 24.09054687 201.94972656 24.09054687 201.8984375 25.203125 C201.09321638 31.78293184 197.59169875 35.13697449 192.57421875 39.23828125 C187.34251515 42.81870359 182.9552881 42.10779339 176.9375 41.375 C169.83276342 40.03565515 167.10502002 37.73083678 162.6875 32 C159.97792719 26.85294538 159.78298708 20.7146735 160 15 C160.66 13.35 161.32 11.7 162 10 C141.54 10 121.08 10 100 10 C100.495 11.485 100.495 11.485 101 13 C101.60555407 19.05554066 100.43789484 23.99766987 97 29 C93.37941586 31.99579307 89.5368056 33.20531742 84.875 33.375 C81.21419908 33.02072894 78.33471758 32.54535693 75 31 C74 28 74 28 73.5625 25.625 C73.1059309 22.98325546 73.1059309 22.98325546 71.875 20.6875 C70.63101831 16.8666991 71.4259484 13.9658072 72 10 C71.11965088 10.01047363 70.23930176 10.02094727 69.33227539 10.03173828 C45.34432926 10.27950552 22.61042558 10.22874513 0 1 C0 0.67 0 0.34 0 0 Z " fill="#BAC1CD" transform="translate(138,296)"/>
<path d="M0 0 C3.29775455 3.17759345 4.48171315 6.34350451 4.9296875 10.859375 C4.83461208 14.45639499 4.36697223 17.54763143 2.9296875 20.859375 C-0.0078125 23.234375 -0.0078125 23.234375 -3.0703125 24.859375 C-3.52148438 25.54386719 -3.97265625 26.22835938 -4.4375 26.93359375 C-6.0703125 28.859375 -6.0703125 28.859375 -8.48828125 29.35546875 C-14.66771603 29.22473318 -19.57242893 28.80466977 -25.0703125 25.859375 C-28.85750559 20.23966912 -29.95742196 13.56197984 -29.0703125 6.859375 C-27.70083486 2.69139958 -26.08665877 -0.33276001 -22.6328125 -3.078125 C-14.28483432 -6.53948181 -7.19819514 -5.23052242 0 0 Z " fill="#BBC2CD" transform="translate(283.0703125,325.140625)"/>
<path d="M0 0 C5.39078498 1.99658703 5.39078498 1.99658703 7.0625 4.75 C6.94628644 8.93368811 5.0377698 12.4433453 2.75 15.875 C-0.18162488 17.75961599 -2.55180659 18 -6 18 C-9.91816268 14.82311134 -10.84492435 10.803317 -11.99609375 6.0859375 C-12 4 -12 4 -10.66015625 2.2890625 C-7.13757986 -0.44611446 -4.40622454 -0.2937483 0 0 Z " fill="#B9C0CA" transform="translate(201,328)"/>
<path d="M0 0 C0.78761719 0.26425781 1.57523437 0.52851563 2.38671875 0.80078125 C4.3125 1.6875 4.3125 1.6875 5.3125 3.6875 C5.68637586 7.65058413 5.70185825 9.98665515 3.75 13.5 C0.7649704 16.17887272 -1.80179634 16.86552423 -5.6875 17.6875 C-9.97574725 14.18919304 -11.69162495 11.26129349 -12.66796875 5.77734375 C-12.6875 3.6875 -12.6875 3.6875 -11.0625 1.1875 C-6.99049983 -1.38428958 -4.54137026 -1.58384979 0 0 Z " fill="#B9C0CA" transform="translate(367.6875,316.3125)"/>
<path d="M0 0 C1.65322266 0.01740234 1.65322266 0.01740234 3.33984375 0.03515625 C4.44457031 0.04417969 5.54929687 0.05320312 6.6875 0.0625 C7.54214844 0.07410156 8.39679688 0.08570313 9.27734375 0.09765625 C5.67450008 2.27606024 2.00152248 2.75257083 -2.10704041 3.21420288 C-2.85093551 3.2986561 -3.59483061 3.38310933 -4.36126798 3.47012174 C-14.08410979 4.46571673 -23.81138552 4.3158862 -33.57250977 4.23291016 C-35.71291696 4.22245889 -37.85332882 4.21292842 -39.9937439 4.20423889 C-45.75089849 4.17829965 -51.50790272 4.13962967 -57.26496625 4.09851503 C-63.30135547 4.05762339 -69.33780222 4.02866019 -75.37425232 3.99838257 C-86.78122781 3.93938013 -98.18811265 3.86979092 -109.59500307 3.79631174 C-122.59147846 3.71311494 -135.58801094 3.64185179 -148.58456147 3.57154584 C-175.29734365 3.42677575 -202.0100204 3.26716619 -228.72265625 3.09765625 C-228.72265625 2.76765625 -228.72265625 2.43765625 -228.72265625 2.09765625 C-227.56398828 2.09342431 -226.4053203 2.08919237 -225.21154118 2.08483219 C-197.73524176 1.98425569 -170.25896599 1.87856554 -142.78271076 1.76653931 C-139.40421293 1.75276898 -136.02571492 1.739042 -132.6472168 1.7253418 C-131.97459078 1.72261349 -131.30196477 1.71988519 -130.60895615 1.71707421 C-119.70384441 1.6729444 -108.79872225 1.63232969 -97.89359225 1.59300364 C-86.71209909 1.55260312 -75.53062474 1.50837467 -64.34915966 1.4607777 C-58.06526894 1.43415101 -51.78138216 1.40929739 -45.49746895 1.38858223 C-39.59031876 1.36905454 -33.68320579 1.34492259 -27.77608871 1.31716537 C-25.6011758 1.30777437 -23.42625469 1.30010653 -21.25132942 1.29423714 C-18.29577196 1.28601063 -15.34030568 1.27174399 -12.38478088 1.25587463 C-11.51223036 1.25489653 -10.63967983 1.25391842 -9.74068838 1.25291067 C-6.06104462 1.22727418 -3.36071716 0.12054222 0 0 Z " fill="#C3CEDF" transform="translate(410.72265625,301.90234375)"/>
<path d="M0 0 C2.125 1.3125 2.125 1.3125 3.125 4.0625 C3.125 8.04294019 2.3270197 10.00947045 0.125 13.3125 C-2.36894719 15.28140567 -4.32803302 16.16208408 -7.375 17 C-10.42700665 16.16069817 -10.92361658 15.31384181 -12.6875 12.75 C-14.8841626 8.81692792 -15.76462005 5.84956226 -14.875 1.3125 C-10.27801764 -3.14517986 -5.66946414 -1.35574143 0 0 Z " fill="#B7BEC8" transform="translate(321.875,349.6875)"/>
<path d="M0 0 C9.88925679 8.78322149 14.18412997 25.62947812 15.19091797 38.42675781 C15.63198684 47.74959948 15.28767 56.91059686 13 66 C12.67 66 12.34 66 12 66 C12.01571045 65.24605957 12.0314209 64.49211914 12.04760742 63.71533203 C12.87121794 34.677766 12.87121794 34.677766 2.7421875 8.13671875 C1.15769517 5.28392203 0.39696251 3.20577298 0 0 Z " fill="#B2BCCA" transform="translate(466,178)"/>
<path d="M0 0 C0.33 0 0.66 0 1 0 C0.97905273 1.20422607 0.95810547 2.40845215 0.93652344 3.64916992 C0.86336681 8.17606411 0.81792891 12.7029076 0.78027344 17.23022461 C0.76032849 19.17855659 0.73316243 21.12683006 0.69824219 23.07495117 C0.51819937 33.38769804 0.37337339 42.69101989 4.06054688 52.453125 C5.35842158 55.97168762 5.7079666 59.27657412 6 63 C-2.72916237 54.27083763 -2.18722453 34.98726413 -2.25 23.4375 C-2.23193368 15.4425097 -1.87936046 7.80270192 0 0 Z " fill="#B9C3CE" transform="translate(81,182)"/>
<path d="M0 0 C1.65322266 0.01740234 1.65322266 0.01740234 3.33984375 0.03515625 C4.44457031 0.04417969 5.54929687 0.05320312 6.6875 0.0625 C7.54214844 0.07410156 8.39679688 0.08570313 9.27734375 0.09765625 C-4.4409856 8.14534769 -27.08886889 4.12061287 -42.55792236 3.77142334 C-46.30603017 3.68935548 -50.05438371 3.62069809 -53.80273438 3.55078125 C-61.10967237 3.41257569 -68.41620884 3.25993079 -75.72265625 3.09765625 C-75.72265625 2.76765625 -75.72265625 2.43765625 -75.72265625 2.09765625 C-74.37295494 2.08219505 -74.37295494 2.08219505 -72.99598694 2.06642151 C-64.53444839 1.96862284 -56.07298265 1.86613405 -47.61156559 1.75831699 C-43.26100819 1.7030484 -38.91044413 1.64962226 -34.55981445 1.6003418 C-30.36469415 1.55275611 -26.16965813 1.50041567 -21.97463799 1.4447155 C-20.3706108 1.42426559 -18.76656048 1.40555696 -17.16249275 1.38858223 C-14.92342856 1.36459628 -12.68452509 1.33453431 -10.44555664 1.30297852 C-9.16870499 1.28743423 -7.89185333 1.27188995 -6.5763092 1.25587463 C-3.34035197 1.07645971 -3.19557118 0.11461877 0 0 Z " fill="#C0CADC" transform="translate(410.72265625,301.90234375)"/>
<path d="M0 0 C2 3 2 3 2.90234375 5.84765625 C3.99103154 9.22875078 5.04561896 12.02538039 7 15 C10.65258525 16.62051317 14.02705417 16.97216851 18 17 C18 17.33 18 17.66 18 18 C11.07 17.505 11.07 17.505 4 17 C0 4.5 0 4.5 0 0 Z " fill="#B1BAC5" transform="translate(399,127)"/>
<path d="M0 0 C4.40797649 3.59168455 7.13635551 8.68988968 9 14 C8.63671875 16.3125 8.63671875 16.3125 8 18 C6.84583494 15.94178919 5.70164153 13.87900528 4.5625 11.8125 C3.92441406 10.66394531 3.28632813 9.51539063 2.62890625 8.33203125 C1.21240965 5.43449743 0.42360107 3.16805872 0 0 Z " fill="#B9C2CF" transform="translate(466,178)"/>
<path d="M0 0 C6.39895163 2.90861438 11.58246742 6.53555185 17 11 C16.01 11.33 15.02 11.66 14 12 C11.9140625 10.671875 11.9140625 10.671875 9.625 8.75 C7.09192257 6.67147154 4.76508441 4.86096833 1.9375 3.1875 C1.298125 2.795625 0.65875 2.40375 0 2 C0 1.34 0 0.68 0 0 Z " fill="#B8C0CB" transform="translate(437,152)"/>
<path d="M0 0 C1.65322266 0.01740234 1.65322266 0.01740234 3.33984375 0.03515625 C4.99693359 0.04869141 4.99693359 0.04869141 6.6875 0.0625 C7.54214844 0.07410156 8.39679688 0.08570313 9.27734375 0.09765625 C2.82528005 3.47469384 -3.59624752 3.22441056 -10.72265625 3.09765625 C-10.72265625 2.76765625 -10.72265625 2.43765625 -10.72265625 2.09765625 C-9.58828125 1.95328125 -8.45390625 1.80890625 -7.28515625 1.66015625 C-3.86902144 1.12076654 -3.22831681 0.11579329 0 0 Z " fill="#B7C2D2" transform="translate(410.72265625,301.90234375)"/>
<path d="M0 0 C0 0.66 0 1.32 0 2 C-0.78375 2.0825 -1.5675 2.165 -2.375 2.25 C-3.24125 2.4975 -4.1075 2.745 -5 3 C-5.309375 3.66 -5.61875 4.32 -5.9375 5 C-6.288125 5.66 -6.63875 6.32 -7 7 C-10.125 7.75 -10.125 7.75 -13 8 C-9.81692689 4.43495812 -5.03655764 0 0 0 Z " fill="#BDC6D0" transform="translate(223,64)"/>
<path d="M0 0 C1 2 1 2 0.3125 4.5 C-1.15567038 7.29651501 -2.09303901 7.93411431 -5 9 C-3.7508258 5.54074837 -2.32472205 2.85306797 0 0 Z " fill="#C1CAD6" transform="translate(98,146)"/>
<path d="M0 0 C-0.625 1.9375 -0.625 1.9375 -2 4 C-5.125 4.75 -5.125 4.75 -8 5 C-3.16129032 0 -3.16129032 0 0 0 Z " fill="#BDC5D3" transform="translate(131,118)"/>
</svg>
