<?xml version="1.0" encoding="UTF-8"?>
<svg version="1.1" xmlns="http://www.w3.org/2000/svg" width="120" height="74">
<path d="M0 0 C5.48515436 3.82069372 9.20034479 7.93408038 12 14 C12 14.99 12 15.98 12 17 C13.19625 17.226875 14.3925 17.45375 15.625 17.6875 C21.1403418 19.0736567 24.18120392 21.80490128 27.8125 26.1875 C30.17598734 31.78523317 30.6199116 37.00975751 28.8125 42.8125 C25.65227587 48.37013554 22.51261681 52.58604699 16.19972229 54.56408691 C13.53850197 55.09145383 11.01791679 55.1736534 8.30444336 55.22460938 C7.15902573 55.24712769 6.01360809 55.269646 4.83348083 55.29284668 C-0.41263864 55.36417969 -5.65858687 55.42154961 -10.9050293 55.45996094 C-13.66478305 55.48216474 -16.42316908 55.52383049 -19.18237305 55.58300781 C-23.17517145 55.6684405 -27.16650536 55.69532949 -31.16015625 55.71875 C-32.38138687 55.75174194 -33.60261749 55.78473389 -34.8608551 55.81872559 C-43.55892782 55.79861747 -49.36139993 53.70049886 -56 48 C-59.95744011 43.37040357 -62.2158945 40.18897565 -62 34 C-62.33 33.34 -62.66 32.68 -63 32 C-62.38024152 29.65377147 -61.70812814 27.32108669 -61 25 C-60.64628502 23.33753959 -60.30404678 21.67225729 -60 20 C-59.34 20 -58.68 20 -58 20 C-57.731875 19.401875 -57.46375 18.80375 -57.1875 18.1875 C-55.09443875 14.33186085 -52.61064132 12.60256467 -48.625 10.875 C-47.82835937 10.52953125 -47.03171875 10.1840625 -46.2109375 9.828125 C-44 9 -44 9 -41.25 8.625 C-38.26898887 7.79694135 -37.39326275 6.0175686 -35.5859375 3.62890625 C-26.21048696 -6.00055896 -11.09653477 -6.16474154 0 0 Z " fill="#E4E1DE" transform="translate(75,13)"/>
<path d="M0 0 C0 0.99 0 1.98 0 3 C-0.94875 2.835 -1.8975 2.67 -2.875 2.5 C-12.60873311 1.1878066 -20.89574344 1.64932987 -29.1484375 7.53125 C-32.57397417 10.35644485 -32.57397417 10.35644485 -35 14 C-36.78515625 14.421875 -36.78515625 14.421875 -39.0625 14.75 C-45.27593837 16.03417645 -49.83765832 19.01671966 -53.57421875 24.171875 C-54.44636995 25.58131133 -55.28837467 27.01014262 -56.08984375 28.4609375 C-56.39019531 28.96882813 -56.69054687 29.47671875 -57 30 C-57.33 30 -57.66 30 -58 30 C-58 27.03 -58 24.06 -58 21 C-57.34 21 -56.68 21 -56 21 C-55.731875 20.401875 -55.46375 19.80375 -55.1875 19.1875 C-53.09443875 15.33186085 -50.61064132 13.60256467 -46.625 11.875 C-45.82835937 11.52953125 -45.03171875 11.1840625 -44.2109375 10.828125 C-42 10 -42 10 -39.25 9.625 C-36.26898887 8.79694135 -35.39326275 7.0175686 -33.5859375 4.62890625 C-24.68237942 -4.51588124 -10.92796211 -4.85687205 0 0 Z " fill="#E8E9E4" transform="translate(73,12)"/>
<path d="M0 0 C0.66 0.33 1.32 0.66 2 1 C-6.09719246 10.47543799 -6.09719246 10.47543799 -12.0625 11.0625 C-13.361875 11.041875 -14.66125 11.02125 -16 11 C-13 9 -13 9 -10.625 8.75 C-6.78498337 7.65285239 -5.39728557 5.09123665 -3 2 C-2.01 1.34 -1.02 0.68 0 0 Z " fill="#DCE6E9" transform="translate(44,13)"/>
</svg>
