<?xml version="1.0" encoding="UTF-8"?>
<svg version="1.1" xmlns="http://www.w3.org/2000/svg" width="120" height="93">
<path d="M0 0 C5.79489551 3.78244226 9.25801382 8.68205949 12 15 C12 15.66 12 16.32 12 17 C13.051875 17.0825 14.10375 17.165 15.1875 17.25 C20.02048765 18.20075167 22.41558826 19.66480493 25.1953125 23.76171875 C27.96402471 28.68925202 28.63366575 32.38753189 28 38 C26.1412701 43.46685265 22.89399404 47.0690254 18 50 C8.84823333 52.71107205 -1.02780856 52.30865536 -10.48144531 52.26074219 C-12.99568797 52.25001839 -15.50921638 52.26069486 -18.0234375 52.2734375 C-42.69338739 52.29821935 -42.69338739 52.29821935 -50.37890625 45.69921875 C-54.93898018 40.91938222 -57.11376978 35.6112883 -57 29 C-56.1819396 22.31707581 -53.5532841 17.29795569 -48.5 12.75 C-45.12701307 10.38890915 -42.59798101 9.14134097 -38.5625 8.1875 C-34.48237983 6.82745994 -32.84784942 5.15572503 -30 2 C-22.02462482 -4.94629451 -9.04527073 -5.16872613 0 0 Z " fill="#464851" transform="translate(70,20)"/>
<path d="M0 0 C6.54013723 4.54246886 6.54013723 4.54246886 7.69140625 8.19140625 C7.84416016 9.08666016 7.84416016 9.08666016 8 10 C7.24074219 9.50628906 6.48148438 9.01257812 5.69921875 8.50390625 C4.20841797 7.54291016 4.20841797 7.54291016 2.6875 6.5625 C1.70136719 5.92441406 0.71523437 5.28632813 -0.30078125 4.62890625 C-6.4289676 0.93070986 -14.29539215 0.93874743 -21.19921875 2.49609375 C-25.93866922 4.38122349 -30.16653453 7.74983784 -33.375 11.6875 C-35 13 -35 13 -38.6875 13.75 C-43.98220913 14.93202916 -47.48660379 17.96161355 -51 22 C-52.35418916 24.33699535 -53.15564366 26.41415872 -54 29 C-54.66 29 -55.32 29 -56 29 C-56.64492916 23.84056673 -55.23187164 20.97599079 -52.4296875 16.828125 C-48.71898077 12.08328689 -44.32977672 9.5506745 -38.5625 8.1875 C-34.48237983 6.82745994 -32.84784942 5.15572503 -30 2 C-22.0502049 -4.92401509 -9.01435543 -5.20356569 0 0 Z " fill="#585A5B" transform="translate(70,20)"/>
<path d="M0 0 C3.93774177 -0.36630156 5.56539771 -0.30233203 8.875 2 C9.926875 2.99 9.926875 2.99 11 4 C10.67 5.32 10.34 6.64 10 8 C10 7.34 10 6.68 10 6 C9.36191406 5.81824219 8.72382812 5.63648438 8.06640625 5.44921875 C7.24011719 5.19785156 6.41382812 4.94648437 5.5625 4.6875 C4.73878906 4.44386719 3.91507812 4.20023438 3.06640625 3.94921875 C2.04353516 3.47935547 2.04353516 3.47935547 1 3 C0.67 2.01 0.34 1.02 0 0 Z " fill="#56595A" transform="translate(83,38)"/>
</svg>
