<?xml version="1.0" encoding="UTF-8"?>
<svg version="1.1" xmlns="http://www.w3.org/2000/svg" width="120" height="53">
<path d="M0 0 C2.0737329 0.75588356 4.12729239 1.53768069 6.16796875 2.37890625 C8.15111944 3.16053499 8.15111944 3.16053499 11 3 C14.49331168 3.58221861 17.03385984 5.10496601 20 7 C19.3125 8.875 19.3125 8.875 18 11 C16.33333333 11.66666667 14.66666667 12.33333333 13 13 C12.71898437 13.63679688 12.43796875 14.27359375 12.1484375 14.9296875 C10.59806339 17.72457959 9.09862297 18.07496696 6.125 19.125 C2.43774225 20.44240715 2.43774225 20.44240715 -1.06640625 22.1640625 C-3.4721826 23.20413551 -4.5700623 22.96075295 -7.0625 22.25 C-7.73410156 22.06953125 -8.40570313 21.8890625 -9.09765625 21.703125 C-11 21 -11 21 -14 19 C-17.0484607 18.45127707 -20.04183275 18.03147265 -23.140625 17.9296875 C-29.74651891 17.58322453 -33.82589032 14.99984365 -39 11 C-37.66073876 6.98221628 -35.50865531 6.21976152 -32 4 C-31.34 3.34 -30.68 2.68 -30 2 C-26.4996507 1.91426194 -23.05585676 2.00534657 -19.56054688 2.16601562 C-12.44825744 2.34678372 -6.79349524 -1.94099864 0 0 Z " fill="#454851" transform="translate(80,24)"/>
<path d="M0 0 C0.78375 -0.04125 1.5675 -0.0825 2.375 -0.125 C5.52002354 0.02476303 6.68733464 0.94429746 9 3 C8.41894669 6.92210984 6.67044916 9.12515706 4 12 C-2.08641831 15.15061654 -9.0856219 17.85889024 -16 18 C-16.86882813 17.69835937 -17.73765625 17.39671875 -18.6328125 17.0859375 C-21.29659123 16.22685341 -23.53830596 15.70655721 -26.27734375 15.32421875 C-27.03853516 15.21787109 -27.79972656 15.11152344 -28.58398438 15.00195312 C-30.14765747 14.79303083 -31.71283015 14.59502943 -33.27929688 14.40820312 C-39.09850976 13.56704894 -42.44191094 11.72051744 -47 8 C-46.01910732 3.55099202 -44.39515492 1.84758478 -40.7109375 -0.8125 C-36.09702868 -2.83357821 -31.51039252 -2.2950621 -26.55859375 -2.07421875 C-23.52483685 -2.0109461 -21.41895526 -2.18576621 -18.5625 -3.0625 C-11.83254891 -4.83353976 -6.1201115 -3.06005575 0 0 Z " fill="#454851" transform="translate(53,11)"/>
</svg>
