<?xml version="1.0" encoding="UTF-8"?>
<svg version="1.1" xmlns="http://www.w3.org/2000/svg" width="428" height="254">
<path d="M0 0 C0.66 0 1.32 0 2 0 C4.28393108 4.2330172 6.56244505 8.46888671 8.8359375 12.70751953 C9.61048702 14.14972814 10.38652377 15.59113904 11.1640625 17.03173828 C12.27994335 19.09981848 13.39048444 21.17068697 14.5 23.2421875 C14.84998047 23.88807831 15.19996094 24.53396912 15.56054688 25.19943237 C18 29.77225659 18 29.77225659 18 32 C19.670625 31.43732422 19.670625 31.43732422 21.375 30.86328125 C29.2314255 28.22542057 37.09565925 25.61614813 45 23.125 C45.67546875 22.91012939 46.3509375 22.69525879 47.046875 22.47387695 C51.76133313 21 51.76133313 21 54 21 C53.4383932 29.00544961 50.86694976 36.40577478 48.4375 44 C48.00783271 45.36047801 47.57879082 46.72115371 47.15039062 48.08203125 C46.10746592 51.39033256 45.05608599 54.69587316 44 58 C44.86512207 58.26731934 45.73024414 58.53463867 46.62158203 58.81005859 C49.95634389 59.98462351 52.92768359 61.39496766 56.0546875 63.0390625 C57.16328125 63.61914062 58.271875 64.19921875 59.4140625 64.796875 C60.55617188 65.40015625 61.69828125 66.0034375 62.875 66.625 C64.0403125 67.23601562 65.205625 67.84703125 66.40625 68.4765625 C69.27294981 69.98040502 72.13742221 71.48833018 75 73 C75 74.32 75 75.64 75 77 C74.00742187 77.4846875 73.01484375 77.969375 71.9921875 78.46875 C62.79498119 82.994504 53.83754431 87.80794272 45 93 C46.97626996 101.52916511 49.41733795 109.87425441 52.01806641 118.23144531 C52.27378418 119.06385742 52.52950195 119.89626953 52.79296875 120.75390625 C53.0252417 121.49970947 53.25751465 122.2455127 53.49682617 123.01391602 C54 125 54 125 54 128 C46.35092616 127.39763544 39.31400895 125.17340876 32 122.9375 C30.74832031 122.56044922 29.49664062 122.18339844 28.20703125 121.79492188 C25.13624112 120.86899661 22.06735999 119.9372135 19 119 C13.17884431 129.25439694 7.49989956 139.56967276 2 150 C-2.10236433 148.63254522 -2.92252148 145.98041459 -4.79296875 142.33984375 C-5.14386063 141.67537735 -5.4947525 141.01091095 -5.85627747 140.3263092 C-6.97577882 138.20133946 -8.08172429 136.06963901 -9.1875 133.9375 C-9.94377966 132.49628172 -10.70093055 131.05552026 -11.45898438 129.61523438 C-13.3161436 126.08204586 -15.16117508 122.54276266 -17 119 C-24.92596639 121.1293199 -32.81243957 123.37754657 -40.6875 125.6875 C-41.78255859 126.00783203 -42.87761719 126.32816406 -44.00585938 126.65820312 C-46.67083489 127.43791212 -49.3355422 128.21852405 -52 129 C-53.30162316 125.09513052 -52.41261052 123.4023409 -51.1640625 119.50390625 C-50.96525482 118.87395248 -50.76644714 118.24399872 -50.56161499 117.59495544 C-49.92432042 115.58140562 -49.27503082 113.57197027 -48.625 111.5625 C-47.98475419 109.55583485 -47.34696065 107.54840552 -46.70980835 105.54075623 C-46.12908637 103.71541979 -45.54247177 101.89196119 -44.95556641 100.06860352 C-44.22870824 97.73444912 -43.5929289 95.37171559 -43 93 C-52.9 87.72 -62.8 82.44 -73 77 C-73 75.68 -73 74.36 -73 73 C-71.9941687 72.47829224 -71.9941687 72.47829224 -70.96801758 71.94604492 C-67.9153273 70.36149674 -64.86390429 68.77452311 -61.8125 67.1875 C-60.22985352 66.36668945 -60.22985352 66.36668945 -58.61523438 65.52929688 C-57.59365234 64.99755859 -56.57207031 64.46582031 -55.51953125 63.91796875 C-54.58214111 63.43094482 -53.64475098 62.9439209 -52.67895508 62.44213867 C-50.84809434 61.45654728 -49.04838856 60.41140343 -47.2800293 59.31762695 C-45 58 -45 58 -43 58 C-43.19634033 57.30028076 -43.39268066 56.60056152 -43.5949707 55.87963867 C-44.50122141 52.64903997 -45.40686369 49.41827099 -46.3125 46.1875 C-46.62123047 45.08728516 -46.92996094 43.98707031 -47.24804688 42.85351562 C-49.19387915 35.90996678 -51.11330824 28.9598546 -53 22 C-49.83974673 20.41987337 -47.06519206 22.04460169 -43.875 23.08984375 C-43.1722998 23.31321915 -42.46959961 23.53659454 -41.74560547 23.76673889 C-39.49478118 24.48338312 -37.24730688 25.20990801 -35 25.9375 C-32.75223527 26.65996153 -30.50383302 27.38031612 -28.25439453 28.09754944 C-26.85323795 28.54485888 -25.45313513 28.99548497 -24.05419922 29.44969177 C-20.59681982 30.60863309 -20.59681982 30.60863309 -17 31 C-16.66266846 30.34515625 -16.32533691 29.6903125 -15.9777832 29.015625 C-14.426215 26.0085823 -12.86939906 23.00428587 -11.3125 20 C-10.51682617 18.45505859 -10.51682617 18.45505859 -9.70507812 16.87890625 C-6.69982559 11.08964676 -3.69415847 5.38273178 0 0 Z " fill="#FCB747" transform="translate(225,68)"/>
<path d="M0 0 C4.34784582 3.58274266 6.93963925 7.11108813 9.43359375 12.15234375 C11.22271289 15.91833949 11.22271289 15.91833949 14.3046875 18.53125 C15.66304446 18.98061194 17.03504264 19.3909676 18.41796875 19.7578125 C23.22174496 21.18933781 26.32315615 24.8253261 28.74609375 29.02734375 C31.16972119 34.4346806 31.41082033 39.86998701 29.7109375 45.54296875 C27.48223201 50.59856042 24.06757183 54.4254285 19.37109375 57.33984375 C15.1555827 58.97394793 11.63618186 59.59496895 7.12548828 59.61450195 C5.91047638 59.62403397 4.69546448 59.63356598 3.44363403 59.64338684 C2.14352386 59.64247543 0.8434137 59.64156403 -0.49609375 59.640625 C-1.85840992 59.64451777 -3.2207249 59.64885363 -4.58303833 59.65361023 C-7.43251486 59.66105143 -10.28186745 59.66079679 -13.13134766 59.65551758 C-16.76487674 59.64972976 -20.39789493 59.66664694 -24.03133965 59.68986225 C-26.84366777 59.70466729 -29.65587482 59.70546209 -32.46823502 59.70235252 C-34.45336404 59.70310872 -36.43847441 59.71692746 -38.42355347 59.73103333 C-48.1268115 59.68154609 -56.36549142 58.24980774 -63.62890625 51.33984375 C-69.18499363 44.00351132 -70.58963891 37.50031795 -69.62890625 28.33984375 C-67.39865659 20.96126077 -63.02664827 15.56565859 -56.62890625 11.33984375 C-53.97682943 10.05784352 -51.46276103 9.22251983 -48.62890625 8.33984375 C-44.84629829 7.22572602 -44.84629829 7.22572602 -42.62890625 4.33984375 C-41.96890625 4.33984375 -41.30890625 4.33984375 -40.62890625 4.33984375 C-40.62890625 3.67984375 -40.62890625 3.01984375 -40.62890625 2.33984375 C-28.22001521 -7.01768064 -13.47159187 -8.50732027 0 0 Z " fill="#E4E1DE" transform="translate(353.62890625,79.66015625)"/>
<path d="M0 0 C6.59584909 3.8049524 12.49436186 8.98212744 14.9375 16.375 C16.97925104 20.54017212 19.0308695 21.0038174 23.21484375 22.609375 C27.72422736 24.49021192 30.65177748 27.24629264 33.3125 31.375 C35.79350619 38.03454293 36.03167151 42.87123925 33.50390625 49.45703125 C30.9473158 54.81890771 27.44510593 58.16774048 22.10375977 60.73095703 C16.44771718 62.53728437 10.44369972 62.13252089 4.5625 62.09375 C3.11335999 62.09644983 1.66422175 62.10033632 0.21508789 62.10534668 C-2.81088639 62.1112188 -5.83638593 62.10275369 -8.86230469 62.08398438 C-12.72240496 62.06119532 -16.58139248 62.07433086 -20.44145203 62.09827423 C-23.43054442 62.11279485 -26.41937716 62.10809784 -29.40847778 62.09776306 C-30.83090347 62.095113 -32.25335348 62.09830434 -33.67575073 62.10768127 C-41.71651563 62.14906835 -47.64874055 61.95210524 -54.5 57.5625 C-55.386875 57.005625 -56.27375 56.44875 -57.1875 55.875 C-62.76901936 50.29348064 -65.26734651 44.11742584 -65.62890625 36.26171875 C-65.26481015 28.63776703 -62.00305269 21.8468121 -56.5 16.5625 C-52.13303647 13.65839719 -47.75812295 11.50495544 -42.5 11 C-41.015 10.7834375 -41.015 10.7834375 -39.5 10.5625 C-38.81092795 9.24060669 -38.14720427 7.90538825 -37.5 6.5625 C-35.80078125 4.96484375 -35.80078125 4.96484375 -33.8125 3.5 C-33.16925781 3.01402344 -32.52601562 2.52804688 -31.86328125 2.02734375 C-22.11335679 -4.01599785 -10.42665258 -4.769498 0 0 Z " fill="#E4E1DE" transform="translate(126.5,131.4375)"/>
<path d="M0 0 C4.00559576 3.42319896 6.51710104 6.07666812 8.23046875 11.12890625 C7.57046875 11.12890625 6.91046875 11.12890625 6.23046875 11.12890625 C5.79734375 10.53078125 5.36421875 9.93265625 4.91796875 9.31640625 C3.32558092 6.96968823 3.32558092 6.96968823 0.66796875 5.62890625 C-1.76953125 4.12890625 -1.76953125 4.12890625 -2.76953125 2.06640625 C-3.66368499 -0.14545957 -3.66368499 -0.14545957 -6.39453125 -1.12109375 C-7.17828125 -1.36859375 -7.96203125 -1.61609375 -8.76953125 -1.87109375 C-8.76953125 -1.21109375 -8.76953125 -0.55109375 -8.76953125 0.12890625 C-12.76953125 -0.87109375 -12.76953125 -0.87109375 -14.58203125 -1.55859375 C-17.87984596 -2.02971014 -20.59944069 -0.80025822 -23.76953125 0.12890625 C-27.01953125 0.25390625 -27.01953125 0.25390625 -29.76953125 0.12890625 C-32.95443132 -0.14844385 -32.95443132 -0.14844385 -35.76953125 2.12890625 C-36.78482666 4.4556249 -37.78441323 6.78925095 -38.76953125 9.12890625 C-40.33203125 10.87890625 -40.33203125 10.87890625 -41.76953125 12.12890625 C-42.42953125 13.11890625 -43.08953125 14.10890625 -43.76953125 15.12890625 C-44.30578125 14.98453125 -44.84203125 14.84015625 -45.39453125 14.69140625 C-50.90561173 13.3358114 -50.90561173 13.3358114 -56.51953125 13.62890625 C-59.79698926 15.81387826 -59.84025206 18.4117895 -60.76953125 22.12890625 C-61.75953125 22.78890625 -62.74953125 23.44890625 -63.76953125 24.12890625 C-66.72604226 30.38306415 -67.40359037 36.26436011 -67.76953125 43.12890625 C-70.9222425 38.39983938 -70.41021653 33.6590318 -69.76953125 28.12890625 C-67.52866449 20.74967991 -63.17243953 15.35813349 -56.76953125 11.12890625 C-54.11745443 9.84690602 -51.60338603 9.01158233 -48.76953125 8.12890625 C-44.98692329 7.01478852 -44.98692329 7.01478852 -42.76953125 4.12890625 C-42.10953125 4.12890625 -41.44953125 4.12890625 -40.76953125 4.12890625 C-40.76953125 3.46890625 -40.76953125 2.80890625 -40.76953125 2.12890625 C-28.43306653 -7.17400157 -13.24242508 -8.94657492 0 0 Z " fill="#ECEBE6" transform="translate(353.76953125,79.87109375)"/>
<path d="M0 0 C6.63185605 3.83093592 12.7645486 9.06121239 15 16.625 C15.165 17.594375 15.33 18.56375 15.5 19.5625 C14 18.25 14 18.25 12.5 16.5625 C12.5 15.5725 12.5 14.5825 12.5 13.5625 C11.18 12.9025 9.86 12.2425 8.5 11.5625 C8.5 10.9025 8.5 10.2425 8.5 9.5625 C7.84 9.5625 7.18 9.5625 6.5 9.5625 C6.5 8.5725 6.5 7.5825 6.5 6.5625 C5.79875 6.43875 5.0975 6.315 4.375 6.1875 C1.5 5.5625 1.5 5.5625 -1.1875 4.5625 C-9.14641603 2.15980837 -18.88901849 1.10985026 -26.4375 5.125 C-27.118125 5.599375 -27.79875 6.07375 -28.5 6.5625 C-29.16 6.5625 -29.82 6.5625 -30.5 6.5625 C-30.5 7.2225 -30.5 7.8825 -30.5 8.5625 C-32.5364495 9.40850276 -34.57943487 10.2387825 -36.625 11.0625 C-37.76195313 11.5265625 -38.89890625 11.990625 -40.0703125 12.46875 C-43.4471645 13.54565041 -45.98614728 13.77610807 -49.5 13.5625 C-46.5 11.5625 -46.5 11.5625 -42.9375 11.1875 C-41.2359375 10.878125 -41.2359375 10.878125 -39.5 10.5625 C-38.79906602 9.24685804 -38.13615438 7.91065794 -37.5 6.5625 C-35.80078125 4.96484375 -35.80078125 4.96484375 -33.8125 3.5 C-33.16925781 3.01402344 -32.52601562 2.52804688 -31.86328125 2.02734375 C-22.11335679 -4.01599785 -10.42665258 -4.769498 0 0 Z " fill="#EAEEEC" transform="translate(126.5,131.4375)"/>
<path d="M0 0 C1.32 0.99 2.64 1.98 4 3 C3.01 3.495 3.01 3.495 2 4 C2 8.62 2 13.24 2 18 C-2.95 19.485 -2.95 19.485 -8 21 C-9.79577739 15.61266784 -7.05944132 10.11022862 -5 5 C-3.45402913 2.80332388 -2.16319277 1.62239458 0 0 Z " fill="#FCAC26" transform="translate(181,176)"/>
<path d="M0 0 C0.66 0 1.32 0 2 0 C3.33838733 2.45570175 4.67086232 4.91429916 6 7.375 C6.3815625 8.07367188 6.763125 8.77234375 7.15625 9.4921875 C10 14.7734375 10 14.7734375 10 17 C9.34 17 8.68 17 8 17 C6 14 6 14 6 10 C4.35 10.66 2.7 11.32 1 12 C1 11.34 1 10.68 1 10 C0.01 10 -0.98 10 -2 10 C-3.25664978 12.90600261 -4 14.79604584 -4 18 C-4.99 18 -5.98 18 -7 18 C-7.33 18.66 -7.66 19.32 -8 20 C-8.66 20 -9.32 20 -10 20 C-8.56347895 15.08558588 -6.45840385 10.99761642 -3.875 6.625 C-3.50246094 5.98433594 -3.12992188 5.34367187 -2.74609375 4.68359375 C-1.83565998 3.11951523 -0.91851809 1.55934466 0 0 Z " fill="#EEAC3E" transform="translate(225,68)"/>
<path d="M0 0 C6.63185605 3.83093592 12.7645486 9.06121239 15 16.625 C15.2475 18.0790625 15.2475 18.0790625 15.5 19.5625 C14 18.25 14 18.25 12.5 16.5625 C12.5 15.5725 12.5 14.5825 12.5 13.5625 C11.18 12.9025 9.86 12.2425 8.5 11.5625 C8.5 10.9025 8.5 10.2425 8.5 9.5625 C7.84 9.5625 7.18 9.5625 6.5 9.5625 C6.5 8.5725 6.5 7.5825 6.5 6.5625 C5.7575 6.43875 5.015 6.315 4.25 6.1875 C-0.13667611 5.19052816 -1.96660641 4.36259038 -4.5 0.5625 C-7.12968908 0.309761 -9.50240321 0.2338073 -12.125 0.3125 C-13.20890015 0.33111084 -13.20890015 0.33111084 -14.31469727 0.35009766 C-19.098183 0.45686467 -23.8019466 0.60371359 -28.5 1.5625 C-28.83 2.2225 -29.16 2.8825 -29.5 3.5625 C-30.49 3.2325 -31.48 2.9025 -32.5 2.5625 C-22.59844065 -4.1020111 -10.82857368 -4.9071258 0 0 Z " fill="#E6EEF3" transform="translate(126.5,131.4375)"/>
<path d="M0 0 C-0.57936825 6.33638191 -2.06662061 11.97068452 -4.0625 18 C-4.34416016 18.87011719 -4.62582031 19.74023438 -4.91601562 20.63671875 C-5.60432426 22.75997589 -6.29906661 24.88088417 -7 27 C-7.33 27 -7.66 27 -8 27 C-8.21192221 21.80790596 -7.5912689 17.873261 -6 13 C-5.34 13 -4.68 13 -4 13 C-4 10.36 -4 7.72 -4 5 C-4.62648438 5.16757813 -5.25296875 5.33515625 -5.8984375 5.5078125 C-6.71570313 5.71148437 -7.53296875 5.91515625 -8.375 6.125 C-9.18710937 6.33382812 -9.99921875 6.54265625 -10.8359375 6.7578125 C-11.55007813 6.83773437 -12.26421875 6.91765625 -13 7 C-13.66 6.34 -14.32 5.68 -15 5 C-13.3962669 4.35309078 -11.79199694 3.70751236 -10.1875 3.0625 C-8.84751953 2.52302734 -8.84751953 2.52302734 -7.48046875 1.97265625 C-2.4497992 0 -2.4497992 0 0 0 Z " fill="#E9AD43" transform="translate(279,89)"/>
<path d="M0 0 C0.99 0.33 1.98 0.66 3 1 C2.01 1.495 2.01 1.495 1 2 C1.33 2.99 1.66 3.98 2 5 C0.824375 5.37125 0.824375 5.37125 -0.375 5.75 C-3.46654032 7.22216206 -3.69320634 7.95081479 -5 11 C-6.3050581 12.68889872 -7.63360658 14.3603279 -9 16 C-10.32 15.67 -11.64 15.34 -13 15 C-9.53407891 8.46172396 -6.59158288 3.60671516 0 0 Z " fill="#EBECE9" transform="translate(75,145)"/>
<path d="M0 0 C1.32 0 2.64 0 4 0 C4 0.66 4 1.32 4 2 C8.29 2.33 12.58 2.66 17 3 C17.33 2.34 17.66 1.68 18 1 C18 1.66 18 2.32 18 3 C18.66 3 19.32 3 20 3 C20 5.64 20 8.28 20 11 C15.08558588 9.56347895 10.99761642 7.45840385 6.625 4.875 C5.98433594 4.50246094 5.34367188 4.12992188 4.68359375 3.74609375 C3.11951523 2.83565998 1.55934466 1.91851809 0 1 C0 0.67 0 0.34 0 0 Z " fill="#FAB13C" transform="translate(162,149)"/>
<path d="M0 0 C5.60476823 1.57804154 10.35050626 4.26416385 15.375 7.125 C16.20644531 7.59292969 17.03789062 8.06085938 17.89453125 8.54296875 C19.93234954 9.69070549 21.96735569 10.84313282 24 12 C23.67 12.99 23.34 13.98 23 15 C20 14 20 14 18 13 C17.01 12.67 16.02 12.34 15 12 C14.34 13.32 13.68 14.64 13 16 C11 14 11 14 10.6875 10.5625 C10.3756875 6.89364606 10.3756875 6.89364606 7.6875 5.125 C5.11966098 3.95700251 5.11966098 3.95700251 2.75 3.5 C2.1725 3.335 1.595 3.17 1 3 C0.67 2.01 0.34 1.02 0 0 Z " fill="#E8AE49" transform="translate(277,130)"/>
<path d="M0 0 C0.99 0.33 1.98 0.66 3 1 C2.34 1 1.68 1 1 1 C1 1.66 1 2.32 1 3 C2.65 3 4.3 3 6 3 C6.33 4.98 6.66 6.96 7 9 C8.65 9 10.3 9 12 9 C11.67 9.99 11.34 10.98 11 12 C9.68 12 8.36 12 7 12 C7 11.34 7 10.68 7 10 C6.05125 10.020625 5.1025 10.04125 4.125 10.0625 C1 10 1 10 -1 9 C-1.33 8.01 -1.66 7.02 -2 6 C-2.66 5.67 -3.32 5.34 -4 5 C-4 4.01 -4 3.02 -4 2 C-2.68 2 -1.36 2 0 2 C0 1.34 0 0.68 0 0 Z " fill="#FCAB23" transform="translate(159,139)"/>
<path d="M0 0 C7.92528667 2.04871356 13.48981768 5.03229246 17.9375 12.0625 C18.98292667 14.95279726 19.26831345 16.95911426 19 20 C15.50489593 18.25244797 15.0787177 14.23177991 13.875 10.6875 C13.58625 9.800625 13.2975 8.91375 13 8 C11.63875 7.7834375 11.63875 7.7834375 10.25 7.5625 C8.64125 7.2840625 8.64125 7.2840625 7 7 C5.8553125 6.814375 5.8553125 6.814375 4.6875 6.625 C4.130625 6.41875 3.57375 6.2125 3 6 C2.67 5.01 2.34 4.02 2 3 C1.34 2.67 0.68 2.34 0 2 C0 1.34 0 0.68 0 0 Z " fill="#E8ECEB" transform="translate(142,151)"/>
<path d="M0 0 C7.95515447 -0.74001437 16.15317968 1.40109036 22.76953125 5.87109375 C26.77512701 9.29429271 29.28663229 11.94776187 31 17 C30.34 17 29.68 17 29 17 C28.566875 16.401875 28.13375 15.80375 27.6875 15.1875 C26.09511217 12.84078198 26.09511217 12.84078198 23.4375 11.5 C21 10 21 10 20.11962891 7.99902344 C19.16957208 5.84461069 19.16957208 5.84461069 17.02880859 5.08691406 C15.8505249 4.80412598 15.8505249 4.80412598 14.6484375 4.515625 C13.79765625 4.30292969 12.946875 4.09023437 12.0703125 3.87109375 C11.18085938 3.66613281 10.29140625 3.46117188 9.375 3.25 C8.02921875 2.91935547 8.02921875 2.91935547 6.65625 2.58203125 C4.44062658 2.03991063 2.22244288 1.51331016 0 1 C0 0.67 0 0.34 0 0 Z " fill="#EAEEF4" transform="translate(331,74)"/>
<path d="M0 0 C3.00221784 4.50332676 4.31896025 8.57767579 4 14 C3.01 14.33 2.02 14.66 1 15 C1 14.01 1 13.02 1 12 C-0.32 12 -1.64 12 -3 12 C-3.33 10.35 -3.66 8.7 -4 7 C-3.34 6.67 -2.68 6.34 -2 6 C-1.27306096 4.02111039 -0.60183749 2.02045442 0 0 Z " fill="#FCAC25" transform="translate(273,181)"/>
<path d="M0 0 C0.73283203 -0.020625 1.46566406 -0.04125 2.22070312 -0.0625 C4.34765625 -0.078125 4.34765625 -0.078125 7.9375 0.25 C8.5975 1.24 9.2575 2.23 9.9375 3.25 C6.90797357 4.25984214 5.95319682 4.23783331 2.9375 3.75 C-2.48715969 3.04398992 -7.65531619 3.59305243 -13.0625 4.25 C-9.75032781 -0.71825828 -5.49608027 0.0388759 0 0 Z " fill="#EFEAE2" transform="translate(114.0625,130.75)"/>
<path d="M0 0 C-0.99 0.33 -1.98 0.66 -3 1 C-2.67 1.99 -2.34 2.98 -2 4 C-5.25082673 6.16721782 -6.29232153 6.27221018 -10.0625 6.25 C-10.94035156 6.25515625 -11.81820312 6.2603125 -12.72265625 6.265625 C-15 6 -15 6 -17 4 C-14.336752 2.98980248 -11.67031135 1.99114259 -9 1 C-7.906875 0.5875 -6.81375 0.175 -5.6875 -0.25 C-3 -1 -3 -1 0 0 Z " fill="#FCB337" transform="translate(258,98)"/>
<path d="M0 0 C0.33 0.66 0.66 1.32 1 2 C1.99 1.938125 2.98 1.87625 4 1.8125 C8.46888211 1.78508355 11.91304608 3.2791773 16 5 C15.67 5.99 15.34 6.98 15 8 C14.34 8 13.68 8 13 8 C13 7.34 13 6.68 13 6 C12.4225 6.185625 11.845 6.37125 11.25 6.5625 C8.76301821 7.04607979 7.41414122 6.62300419 5 6 C4.01 6.33 3.02 6.66 2 7 C2 6.01 2 5.02 2 4 C1.34 4 0.68 4 0 4 C-0.33 3.01 -0.66 2.02 -1 1 C-0.67 0.67 -0.34 0.34 0 0 Z " fill="#FBB238" transform="translate(195,97)"/>
<path d="M0 0 C2.625 -0.1875 2.625 -0.1875 5 0 C5.33 0.66 5.66 1.32 6 2 C3.94704566 5.07943151 3.34265205 5.79293121 0 7 C-3.25 7.125 -3.25 7.125 -6 7 C-6.33 5.68 -6.66 4.36 -7 3 C-6.21625 3.061875 -5.4325 3.12375 -4.625 3.1875 C-3.75875 3.125625 -2.8925 3.06375 -2 3 C-1.34 2.01 -0.68 1.02 0 0 Z " fill="#F7AD34" transform="translate(292,142)"/>
<path d="M0 0 C0.93423645 3.01031744 1.04449911 3.86650268 0 7 C0.66 7.33 1.32 7.66 2 8 C2 8.99 2 9.98 2 11 C3.65 11 5.3 11 7 11 C3.71536341 13.18975773 0.79303725 13.99806563 -3 15 C-4.28497537 11.14507389 -3.4052209 9.59653164 -2.0625 5.8125 C-1.68222656 4.72582031 -1.30195313 3.63914063 -0.91015625 2.51953125 C-0.60980469 1.68808594 -0.30945313 0.85664063 0 0 Z " fill="#E9AC47" transform="translate(176,182)"/>
<path d="M0 0 C1.20628008 2.33214148 2.1654738 4.49642139 3 7 C3.66 7 4.32 7 5 7 C5 8.32 5 9.64 5 11 C5.66 11 6.32 11 7 11 C6.625 12.9375 6.625 12.9375 6 15 C5.01 15.495 5.01 15.495 4 16 C3.67 14.02 3.34 12.04 3 10 C2.01 10.33 1.02 10.66 0 11 C0 9.68 0 8.36 0 7 C-0.66 7 -1.32 7 -2 7 C-1.34 4.69 -0.68 2.38 0 0 Z " fill="#FCAF2E" transform="translate(230,78)"/>
<path d="M0 0 C0.33 0.66 0.66 1.32 1 2 C2.89533342 2.46523063 2.89533342 2.46523063 5.0625 2.625 C6.361875 2.74875 7.66125 2.8725 9 3 C9.33 3.99 9.66 4.98 10 6 C11.87387216 6.80212628 11.87387216 6.80212628 14.0625 7.1875 C14.79597656 7.34605469 15.52945312 7.50460938 16.28515625 7.66796875 C16.85105469 7.77753906 17.41695313 7.88710937 18 8 C17.67 8.66 17.34 9.32 17 10 C9.4781027 9.10600401 4.66866428 7.03529397 -1 2 C-0.67 1.34 -0.34 0.68 0 0 Z " fill="#E4E5EC" transform="translate(291,129)"/>
<path d="M0 0 C0.66666667 1.33333333 1.33333333 2.66666667 2 4 C2.391875 4.70125 2.78375 5.4025 3.1875 6.125 C3.455625 6.74375 3.72375 7.3625 4 8 C3.67 8.66 3.34 9.32 3 10 C2.01 10 1.02 10 0 10 C-0.33 9.01 -0.66 8.02 -1 7 C-4.00847418 5.77479736 -4.00847418 5.77479736 -7 5 C-4 4 -4 4 -2 4 C-1.34 2.68 -0.68 1.36 0 0 Z " fill="#F1B752" transform="translate(210,95)"/>
<path d="M0 0 C1.13087014 3.39261042 0.86514295 4.16517757 -0.21484375 7.44921875 C-0.62573242 8.72055664 -0.62573242 8.72055664 -1.04492188 10.01757812 C-1.48674805 11.33918945 -1.48674805 11.33918945 -1.9375 12.6875 C-2.22818359 13.58017578 -2.51886719 14.47285156 -2.81835938 15.39257812 C-3.53769987 17.59776948 -4.26516672 19.79993258 -5 22 C-5.33 22 -5.66 22 -6 22 C-6.21192221 16.80790596 -5.5912689 12.873261 -4 8 C-3.34 8 -2.68 8 -2 8 C-2 6.02 -2 4.04 -2 2 C-1.34 2 -0.68 2 0 2 C0 1.34 0 0.68 0 0 Z " fill="#E5B35C" transform="translate(277,94)"/>
<path d="M0 0 C0.99 0.33 1.98 0.66 3 1 C4.66621616 1.03874921 6.33394172 1.0450286 8 1 C7.525625 1.598125 7.05125 2.19625 6.5625 2.8125 C4.83534256 5.00382924 4.83534256 5.00382924 4 8 C2.35 7.67 0.7 7.34 -1 7 C-1.04254356 5.00045254 -1.04080783 2.99958364 -1 1 C-0.67 0.67 -0.34 0.34 0 0 Z " fill="#FAB638" transform="translate(264,115)"/>
<path d="M0 0 C3.3 0.99 6.6 1.98 10 3 C10 3.33 10 3.66 10 4 C7.69 4.33 5.38 4.66 3 5 C2.67 6.32 2.34 7.64 2 9 C0.05276405 6.07914607 -0.55175352 4.40667322 -1 1 C-0.67 0.67 -0.34 0.34 0 0 Z " fill="#E8AD4C" transform="translate(173,89)"/>
<path d="M0 0 C0.33 0 0.66 0 1 0 C0.45019386 7.97218899 -2.07089073 12.49439853 -8 18 C-8.66 17.67 -9.32 17.34 -10 17 C-9.05125 16.154375 -8.1025 15.30875 -7.125 14.4375 C-3.9188676 11.253946 -2.98496794 8.43235572 -2 4 C-1.37530495 2.64649406 -0.7283669 1.30065517 0 0 Z " fill="#DCE5F3" transform="translate(383,118)"/>
<path d="M0 0 C2.7972908 2.06756277 3.02692273 3.14440371 3.6875 6.6875 C3.790625 7.780625 3.89375 8.87375 4 10 C3.67 9.34 3.34 8.68 3 8 C0.47266765 7.34444881 0.47266765 7.34444881 -2 7 C-2 5.02 -2 3.04 -2 1 C-1.34 0.67 -0.68 0.34 0 0 Z " fill="#E1E2EB" transform="translate(380,107)"/>
<path d="M0 0 C0.66 0.33 1.32 0.66 2 1 C1.67 1.66 1.34 2.32 1 3 C-0.32 3 -1.64 3 -3 3 C-3 3.99 -3 4.98 -3 6 C-2.01 6.33 -1.02 6.66 0 7 C0 7.66 0 8.32 0 9 C-1.98 8.34 -3.96 7.68 -6 7 C-6 5.68 -6 4.36 -6 3 C-4.03533587 1.93224776 -2.03144641 0.93446535 0 0 Z " fill="#E2AF51" transform="translate(158,138)"/>
<path d="M0 0 C6.14961761 1.68089548 10.3575305 3.59560586 15 8 C14.67 8.66 14.34 9.32 14 10 C13.34 10 12.68 10 12 10 C11.46375 9.236875 10.9275 8.47375 10.375 7.6875 C7.21066521 4.10680536 4.51714241 3.43042843 0 2 C0 1.34 0 0.68 0 0 Z " fill="#E5F1F5" transform="translate(365,97)"/>
<path d="M0 0 C0.93616694 2.52481387 1.17818983 3.59474972 0.07421875 6.10546875 C-0.38339844 6.79253906 -0.84101563 7.47960937 -1.3125 8.1875 C-1.76238281 8.88230469 -2.21226562 9.57710937 -2.67578125 10.29296875 C-4 12 -4 12 -6 13 C-5.57781184 11.3501725 -5.13675575 9.70516335 -4.6875 8.0625 C-4.44386719 7.14597656 -4.20023438 6.22945312 -3.94921875 5.28515625 C-3.47935547 4.15400391 -3.47935547 4.15400391 -3 3 C-2.01 2.67 -1.02 2.34 0 2 C0 1.34 0 0.68 0 0 Z " fill="#DEE3EC" transform="translate(160,175)"/>
<path d="M0 0 C1.41801823 5.25488784 0.73371349 9.79885954 -1 15 C-1.66 15 -2.32 15 -3 15 C-3.33 15.99 -3.66 16.98 -4 18 C-5.68550367 14.62899267 -3.68863036 11.27985368 -2.5625 7.875 C-2.19801758 6.74384766 -2.19801758 6.74384766 -1.82617188 5.58984375 C-1.22404181 3.72442121 -0.61286537 1.86192317 0 0 Z " fill="#E7B25C" transform="translate(182,162)"/>
<path d="M0 0 C-2.269616 1.14829977 -4.54060778 2.29371978 -6.8125 3.4375 C-7.45509766 3.76298828 -8.09769531 4.08847656 -8.75976562 4.42382812 C-11.48265466 5.79232676 -14.10449794 7.03483265 -17 8 C-17 7.34 -17 6.68 -17 6 C-14.91796875 4.52734375 -14.91796875 4.52734375 -12.1875 2.9375 C-11.29417969 2.41027344 -10.40085937 1.88304688 -9.48046875 1.33984375 C-5.84615147 -0.62325992 -3.91712256 -1.21565873 0 0 Z " fill="#E7F3F6" transform="translate(330,76)"/>
<path d="M0 0 C-0.33 2.64 -0.66 5.28 -1 8 C-5.875 3.375 -5.875 3.375 -7 0 C-3.86650268 -1.04449911 -3.01031744 -0.93423645 0 0 Z " fill="#E1E5E9" transform="translate(71,179)"/>
<path d="M0 0 C0.90105469 0.19464844 1.80210937 0.38929688 2.73046875 0.58984375 C3.41753906 0.74582031 4.10460937 0.90179688 4.8125 1.0625 C4.4825 2.0525 4.1525 3.0425 3.8125 4.0625 C2.4925 4.0625 1.1725 4.0625 -0.1875 4.0625 C-0.1875 3.4025 -0.1875 2.7425 -0.1875 2.0625 C-1.13625 2.10375 -2.085 2.145 -3.0625 2.1875 C-6.1875 2.0625 -6.1875 2.0625 -8.1875 0.0625 C-4.80475734 -1.06508089 -3.41971777 -0.75500262 0 0 Z " fill="#F6AE32" transform="translate(166.1875,146.9375)"/>
<path d="M0 0 C0.99 0.66 1.98 1.32 3 2 C3 2.66 3 3.32 3 4 C2.01 4 1.02 4 0 4 C-0.33 4.99 -0.66 5.98 -1 7 C-1.66 7 -2.32 7 -3 7 C-3.66 5.35 -4.32 3.7 -5 2 C-2.6875 0.875 -2.6875 0.875 0 0 Z " fill="#FBB132" transform="translate(257,182)"/>
<path d="M0 0 C0.66 0 1.32 0 2 0 C2.66 0.66 3.32 1.32 4 2 C4.66 1.34 5.32 0.68 6 0 C6.66 0.33 7.32 0.66 8 1 C7.67 1.99 7.34 2.98 7 4 C4.36 4.33 1.72 4.66 -1 5 C-0.67 3.35 -0.34 1.7 0 0 Z " fill="#FDB438" transform="translate(242,181)"/>
<path d="M0 0 C2.475 0.495 2.475 0.495 5 1 C5 2.65 5 4.3 5 6 C3.35 6.33 1.7 6.66 0 7 C0 4.69 0 2.38 0 0 Z " fill="#F8AE37" transform="translate(232,193)"/>
<path d="M0 0 C1.32 0.99 2.64 1.98 4 3 C3.01 3.495 3.01 3.495 2 4 C1.67 4.99 1.34 5.98 1 7 C0.34 6.67 -0.32 6.34 -1 6 C-1.33 6 -1.66 6 -2 6 C-2.99 5.67 -3.98 5.34 -5 5 C-3.35 3.35 -1.7 1.7 0 0 Z " fill="#F9B32F" transform="translate(181,176)"/>
<path d="M0 0 C-2.35277269 2.72426311 -4.62496331 3.8141763 -8 5 C-8 3.68 -8 2.36 -8 1 C-3.375 -1.125 -3.375 -1.125 0 0 Z " fill="#EFE9E0" transform="translate(303,93)"/>
<path d="M0 0 C1.65 0 3.3 0 5 0 C5 0.66 5 1.32 5 2 C5.99 2.33 6.98 2.66 8 3 C7.67 3.66 7.34 4.32 7 5 C6.01 5 5.02 5 4 5 C4 4.34 4 3.68 4 3 C3.34 3 2.68 3 2 3 C2 3.66 2 4.32 2 5 C1.01 4.67 0.02 4.34 -1 4 C-0.34 3.34 0.32 2.68 1 2 C0.67 1.34 0.34 0.68 0 0 Z " fill="#FDB032" transform="translate(273,131)"/>
<path d="M0 0 C0.99 0.66 1.98 1.32 3 2 C2.34 3.98 1.68 5.96 1 8 C0.01 8 -0.98 8 -2 8 C-2 6.35 -2 4.7 -2 3 C-1.34 3 -0.68 3 0 3 C0 2.01 0 1.02 0 0 Z " fill="#F9B335" transform="translate(213,92)"/>
<path d="M0 0 C2.97 0.495 2.97 0.495 6 1 C5.34 2.98 4.68 4.96 4 7 C3.01 6.67 2.02 6.34 1 6 C0.67 4.02 0.34 2.04 0 0 Z " fill="#E8AD45" transform="translate(223,211)"/>
<path d="M0 0 C1.485 0.99 1.485 0.99 3 2 C3 2.33 3 2.66 3 3 C3.66 3.33 4.32 3.66 5 4 C4.34 5.32 3.68 6.64 3 8 C2.01 8 1.02 8 0 8 C-1.125 2.25 -1.125 2.25 0 0 Z " fill="#FAB238" transform="translate(213,186)"/>
<path d="M0 0 C0.66 0 1.32 0 2 0 C2 1.32 2 2.64 2 4 C2.66 4.66 3.32 5.32 4 6 C3.34 7.32 2.68 8.64 2 10 C1.67 9.01 1.34 8.02 1 7 C0.34 7 -0.32 7 -1 7 C-0.67 4.69 -0.34 2.38 0 0 Z " fill="#FAAF34" transform="translate(218,195)"/>
<path d="M0 0 C1.32 0 2.64 0 4 0 C4 0.66 4 1.32 4 2 C5.65 2 7.3 2 9 2 C9 2.66 9 3.32 9 4 C9.66 4 10.32 4 11 4 C11 4.66 11 5.32 11 6 C6.95743617 4.77782954 3.50711041 3.37245704 0 1 C0 0.67 0 0.34 0 0 Z " fill="#E7AF59" transform="translate(162,149)"/>
<path d="M0 0 C2.50298434 2.93828597 3.46930939 5.17902761 4 9 C3.01 9.33 2.02 9.66 1 10 C-0.83691257 6.21812119 -1.15837626 4.05431692 0 0 Z " fill="#E3E5ED" transform="translate(362,91)"/>
<path d="M0 0 C2.74792483 3.40219265 6 7.48464588 6 12 C5.34 12 4.68 12 4 12 C2 9 2 9 2 5 C1.34 5 0.68 5 0 5 C0 3.35 0 1.7 0 0 Z " fill="#E4AD5A" transform="translate(229,73)"/>
<path d="M0 0 C1.27875 0.103125 2.5575 0.20625 3.875 0.3125 C4.95394531 0.39951172 4.95394531 0.39951172 6.0546875 0.48828125 C8 1 8 1 10 4 C7.25 4.25 7.25 4.25 4 4 C1.625 2 1.625 2 0 0 Z " fill="#EFE9E3" transform="translate(365,100)"/>
<path d="M0 0 C0.99 0.33 1.98 0.66 3 1 C3 2.32 3 3.64 3 5 C0.03 4.505 0.03 4.505 -3 4 C-2.67 3.01 -2.34 2.02 -2 1 C-1.34 0.67 -0.68 0.34 0 0 Z " fill="#FAB12F" transform="translate(193,184)"/>
<path d="M0 0 C0.66 0 1.32 0 2 0 C2 3.33333333 2 6.66666667 2 10 C1.34 9.67 0.68 9.34 0 9 C-0.44921875 7.1875 -0.44921875 7.1875 -0.6875 5 C-0.77386719 4.278125 -0.86023438 3.55625 -0.94921875 2.8125 C-0.96597656 2.214375 -0.98273438 1.61625 -1 1 C-0.67 0.67 -0.34 0.34 0 0 Z " fill="#F8B332" transform="translate(181,108)"/>
<path d="M0 0 C-0.66 0 -1.32 0 -2 0 C-2 0.99 -2 1.98 -2 3 C-2.66 3 -3.32 3 -4 3 C-4 3.66 -4 4.32 -4 5 C-4.66 4.67 -5.32 4.34 -6 4 C-6.625 1.9375 -6.625 1.9375 -7 0 C-3.98968256 -0.93423645 -3.13349732 -1.04449911 0 0 Z " fill="#F0F1ED" transform="translate(308,89)"/>
<path d="M0 0 C0.99 0 1.98 0 3 0 C3 1.98 3 3.96 3 6 C0.97954558 5.39816251 -1.02111039 4.72693904 -3 4 C-3.33 3.34 -3.66 2.68 -4 2 C-2.35 2 -0.7 2 1 2 C0.67 1.34 0.34 0.68 0 0 Z " fill="#F0B456" transform="translate(179,154)"/>
<path d="M0 0 C1.65 0 3.3 0 5 0 C4.67 0.99 4.34 1.98 4 3 C2.02 3.33 0.04 3.66 -2 4 C-1.34 2.68 -0.68 1.36 0 0 Z " fill="#FAB139" transform="translate(198,184)"/>
<path d="M0 0 C0.66 0 1.32 0 2 0 C1.67 2.31 1.34 4.62 1 7 C0.01 6.67 -0.98 6.34 -2 6 C-1.125 1.125 -1.125 1.125 0 0 Z " fill="#FBA925" transform="translate(225,71)"/>
<path d="M0 0 C1.65 0 3.3 0 5 0 C5 1.32 5 2.64 5 4 C4.01 4.33 3.02 4.66 2 5 C1.34 4.34 0.68 3.68 0 3 C0 2.01 0 1.02 0 0 Z " fill="#FBAC21" transform="translate(224,208)"/>
<path d="M0 0 C-1 3 -1 3 -3.9375 4.75 C-5.4534375 5.36875 -5.4534375 5.36875 -7 6 C-7.66 5.67 -8.32 5.34 -9 5 C-2.87096774 0 -2.87096774 0 0 0 Z " fill="#E2F0F6" transform="translate(301,90)"/>
<path d="M0 0 C1 2 2 4 3 6 C2.01 6 1.02 6 0 6 C-0.33 6.66 -0.66 7.32 -1 8 C-1.66 8 -2.32 8 -3 8 C-1.125 2.25 -1.125 2.25 0 0 Z " fill="#EEB152" transform="translate(218,80)"/>
<path d="M0 0 C1.32 0.33 2.64 0.66 4 1 C4.33 3.31 4.66 5.62 5 8 C2.20406217 6.60203108 2.04826223 4.86525011 1 2 C0.67 1.34 0.34 0.68 0 0 Z " fill="#DCE3EC" transform="translate(156,163)"/>
<path d="M0 0 C1.134375 0.020625 2.26875 0.04125 3.4375 0.0625 C1.05176621 1.95463369 -0.63425348 3.08641783 -3.5625 4.0625 C-3.8925 3.0725 -4.2225 2.0825 -4.5625 1.0625 C-3.5625 0.0625 -3.5625 0.0625 0 0 Z " fill="#ECB45A" transform="translate(275.5625,154.9375)"/>
</svg>
