<?xml version="1.0" encoding="UTF-8"?>
<svg version="1.1" xmlns="http://www.w3.org/2000/svg" width="380" height="352">
<path d="M0 0 C33.34727867 -0.85377069 65.01640697 12.28282573 90.53125 33.12109375 C91.28148437 33.71664062 92.03171875 34.3121875 92.8046875 34.92578125 C98.52184936 39.64865409 103.01297445 45.26877551 107.53125 51.12109375 C108.21316406 51.99894531 108.89507812 52.87679687 109.59765625 53.78125 C131.17965882 82.45870547 140.52225974 118.60046945 135.81323242 154.23486328 C130.37218605 187.9762919 111.88681856 219.59508732 84.53125 240.12109375 C83.03658203 241.24644531 83.03658203 241.24644531 81.51171875 242.39453125 C52.8192524 263.12669559 17.56435196 271.30867371 -17.5065918 266.40258789 C-44.28424273 261.70808619 -68.3942191 249.16365896 -88.46875 231.12109375 C-89.335 230.35152344 -90.20125 229.58195313 -91.09375 228.7890625 C-114.96448791 206.33373694 -129.40507259 171.57854609 -130.671875 139.04296875 C-131.11436421 115.43321026 -126.39222258 93.06009926 -115.46875 72.12109375 C-115.15534668 71.5163623 -114.84194336 70.91163086 -114.51904297 70.28857422 C-110.06809278 61.81887084 -104.98302146 54.16718606 -98.46875 47.12109375 C-97.87416992 46.47736816 -97.27958984 45.83364258 -96.66699219 45.17041016 C-87.15930462 35.0109671 -77.41823117 26.28413882 -65.46875 19.12109375 C-64.84790527 18.74662109 -64.22706055 18.37214844 -63.58740234 17.98632812 C-44.21834091 6.51666566 -22.38775951 1.09813377 0 0 Z " fill="#A7B0B5" transform="translate(191.46875,36.87890625)"/>
<path d="M0 0 C-0.33 0.66 -0.66 1.32 -1 2 C-2.69974976 2.06731323 -2.69974976 2.06731323 -4.43383789 2.13598633 C-8.71173794 2.30859104 -12.98883209 2.49697702 -17.26586914 2.68969727 C-19.10325529 2.77037865 -20.94082501 2.8470014 -22.77856445 2.91918945 C-34.17877682 3.37022105 -44.87173368 4.46891596 -56 7 C-57.99761249 7.34735491 -59.99699806 7.68520748 -62 8 C-62 8.66 -62 9.32 -62 10 C-64.58289592 10.81391255 -67.16628997 11.62617929 -69.75 12.4375 C-70.47960937 12.66759766 -71.20921875 12.89769531 -71.9609375 13.13476562 C-72.66992188 13.35712891 -73.37890625 13.57949219 -74.109375 13.80859375 C-74.75874023 14.01282959 -75.40810547 14.21706543 -76.07714844 14.42749023 C-78.03928688 15.01169727 -80.01049584 15.51810648 -82 16 C-82 16.66 -82 17.32 -82 18 C-82.67804688 18.23847656 -83.35609375 18.47695313 -84.0546875 18.72265625 C-87.66920355 20.29022488 -90.83108228 22.29125256 -94.125 24.4375 C-94.74503906 24.83259766 -95.36507812 25.22769531 -96.00390625 25.63476562 C-98.96912196 27.55099642 -101.53075669 29.49040958 -104 32 C-104.66 32 -105.32 32 -106 32 C-106 32.66 -106 33.32 -106 34 C-107.57421875 35.515625 -107.57421875 35.515625 -109.6875 37.25 C-112.33052691 39.48604754 -114.70442924 41.67645257 -116.875 44.375 C-119 47 -119 47 -121 48 C-121.433125 49.11375 -121.433125 49.11375 -121.875 50.25 C-123.13982814 53.34180211 -124.89845967 55.4239183 -127 58 C-127.33 58.99 -127.66 59.98 -128 61 C-129.485 61.495 -129.485 61.495 -131 62 C-132.48841297 64.33725047 -133.79318008 66.61099343 -135.0625 69.0625 C-135.5894043 70.02833008 -135.5894043 70.02833008 -136.12695312 71.01367188 C-138.5498058 75.60747382 -139.86251835 79.93688399 -141 85 C-141.70421853 86.92059599 -142.40994208 88.84081393 -143.14453125 90.75 C-144.15400569 93.40505605 -145.12348969 96.0691081 -146.0625 98.75 C-146.54396484 100.10351562 -146.54396484 100.10351562 -147.03515625 101.484375 C-149.84623431 111.72716954 -150.50180015 122.1886703 -151.125 132.75 C-151.21167281 134.14066044 -151.29890925 135.53128587 -151.38671875 136.921875 C-151.59666093 140.28094985 -151.80097562 143.64026364 -152 147 C-152.99 147 -153.98 147 -155 147 C-156.53671791 141.53271278 -157.35711128 136.51175319 -157.3125 130.8125 C-157.30758545 130.04494385 -157.3026709 129.2773877 -157.29760742 128.48657227 C-156.87914352 107.11057799 -151.86875778 86.91724194 -142 68 C-141.68659668 67.39526855 -141.37319336 66.79053711 -141.05029297 66.16748047 C-136.59934278 57.69777709 -131.51427146 50.04609231 -125 43 C-124.40541992 42.35627441 -123.81083984 41.71254883 -123.19824219 41.04931641 C-113.69055462 30.88987335 -103.94948117 22.16304507 -92 15 C-91.37915527 14.62552734 -90.75831055 14.25105469 -90.11865234 13.86523438 C-66.90983939 0.12180898 -25.66840536 -13.11940718 0 0 Z " fill="#EAEEF0" transform="translate(218,41)"/>
<path d="M0 0 C0.99 0.495 0.99 0.495 2 1 C2.84712488 35.16519789 2.84712488 35.16519789 -2 50 C-2.20898926 50.66418945 -2.41797852 51.32837891 -2.63330078 52.01269531 C-11.03060433 78.11667264 -27.04311482 101.52484741 -49 118 C-49.99644531 118.75023437 -50.99289062 119.50046875 -52.01953125 120.2734375 C-63.88899934 128.84989656 -77.07624893 135.44519901 -91 140 C-92.20011719 140.39316406 -93.40023437 140.78632813 -94.63671875 141.19140625 C-107.85201568 145.07185299 -121.35370157 144.39217836 -135 144 C-135 143.01 -135 142.02 -135 141 C-134.030625 140.89042969 -133.06125 140.78085937 -132.0625 140.66796875 C-110.26952857 138.13172961 -89.36540437 133.7947212 -70 123 C-68.21890511 122.02601114 -66.43546553 121.05651862 -64.65039062 120.08984375 C-62.96784828 119.1754588 -61.29229406 118.24824923 -59.6171875 117.3203125 C-57 116 -57 116 -55 116 C-54.79375 115.443125 -54.5875 114.88625 -54.375 114.3125 C-52.42316968 111.02987629 -50.05769006 109.29326754 -47 107 C-46.34 107 -45.68 107 -45 107 C-45 106.34 -45 105.68 -45 105 C-43.53125 103.58984375 -43.53125 103.58984375 -41.5 101.9375 C-34.76768599 96.18226519 -29.28638059 90.13713625 -25.2109375 82.24609375 C-23.94499342 79.89797167 -22.51813917 77.75493957 -21 75.5625 C-12.01126547 62.22882729 -7.69119544 47.65684227 -5.30419922 31.94091797 C-4.88442011 29.26255206 -4.37044377 26.60277049 -3.875 23.9375 C-2.93494178 18.39732084 -2.61642464 12.86332309 -2.42919922 7.25366211 C-2.21162906 2.21162906 -2.21162906 2.21162906 0 0 Z " fill="#E9EDEF" transform="translate(325,159)"/>
<path d="M0 0 C0.99 0.495 0.99 0.495 2 1 C-16.03824571 13.77709071 -41.41386458 18.38528908 -63 20 C-63 20.33 -63 20.66 -63 21 C-56.73 21.33 -50.46 21.66 -44 22 C-44 22.33 -44 22.66 -44 23 C-48.02014331 23.04970693 -52.04016578 23.08586387 -56.06054688 23.10986328 C-57.4261385 23.1198759 -58.79170894 23.13349005 -60.15722656 23.15087891 C-62.12815912 23.17533573 -64.09925284 23.1854572 -66.0703125 23.1953125 C-67.84559326 23.21102295 -67.84559326 23.21102295 -69.65673828 23.22705078 C-73.13971734 22.99051138 -75.81376998 22.42418861 -79 21 C-79.33 20.01 -79.66 19.02 -80 18 C-81.49985609 16.33289654 -81.49985609 16.33289654 -83 15 C-82.09870361 15.00523682 -81.19740723 15.01047363 -80.26879883 15.01586914 C-76.85993789 15.03311759 -73.45112468 15.04554903 -70.04223633 15.05493164 C-68.57901264 15.05989824 -67.11579375 15.06667378 -65.65258789 15.07543945 C-48.06877407 15.47271076 -48.06877407 15.47271076 -31 12 C-30.10925781 11.70996094 -29.21851563 11.41992188 -28.30078125 11.12109375 C-15.59096263 7.09094686 -15.59096263 7.09094686 -3.4375 1.6875 C-2.303125 1.130625 -1.16875 0.57375 0 0 Z " fill="#C1CACE" transform="translate(254,281)"/>
<path d="M0 0 C0.66 0.33 1.32 0.66 2 1 C2.68032583 3.52157464 3.19435969 5.93156765 3.625 8.5 C3.82283081 9.66474854 3.82283081 9.66474854 4.0246582 10.85302734 C5.67279 21.82423694 5.26205827 32.93979696 5 44 C4.67 44 4.34 44 4 44 C3.67 36.08 3.34 28.16 3 20 C2.34 20.33 1.68 20.66 1 21 C0.57905153 23.32612328 0.57905153 23.32612328 0.47265625 26.14453125 C0.40240234 27.21509766 0.33214844 28.28566406 0.25976562 29.38867188 C0.13073558 31.62817351 0.00307547 33.8677546 -0.12304688 36.10742188 C-0.62314099 43.6899299 -1.90809393 50.69442034 -4 58 C-4.33 58 -4.66 58 -5 58 C-4.90912109 57.03513672 -4.90912109 57.03513672 -4.81640625 56.05078125 C-4.53672231 53.03449752 -4.2681246 50.01733346 -4 47 C-3.91041016 46.02417969 -3.82082031 45.04835937 -3.72851562 44.04296875 C-3.03407715 35.90811807 -2.87949183 27.84880353 -2.9375 19.6875 C-2.94201172 18.45837891 -2.94652344 17.22925781 -2.95117188 15.96289062 C-2.96279711 12.97520644 -2.97913441 9.98763145 -3 7 C-2.34 7 -1.68 7 -1 7 C-0.67 4.69 -0.34 2.38 0 0 Z " fill="#BDC7CB" transform="translate(323,140)"/>
<path d="M0 0 C7.02952752 0.4535179 12.5849443 2.12059087 19 5 C18.38125 5.28875 17.7625 5.5775 17.125 5.875 C14.86674235 6.93720042 14.86674235 6.93720042 13 9 C11.12198863 8.52996514 9.24573822 8.05118908 7.3815918 7.52886963 C3.01303587 6.5587636 -1.38888318 6.75702918 -5.84375 6.8046875 C-6.85344849 6.8075174 -7.86314697 6.81034729 -8.90344238 6.81326294 C-12.10241967 6.8243847 -15.3011085 6.84947437 -18.5 6.875 C-20.67968343 6.88504015 -22.85937129 6.89416418 -25.0390625 6.90234375 C-30.35947205 6.92429775 -35.67971541 6.95769482 -41 7 C-41 6.67 -41 6.34 -41 6 C-36.28036868 4.8547028 -31.59203345 4.68433971 -26.76171875 4.46484375 C-25.88095169 4.42186661 -25.00018463 4.37888947 -24.09272766 4.33460999 C-21.29114164 4.19871477 -18.48934032 4.06803619 -15.6875 3.9375 C-13.78318655 3.84604763 -11.87888943 3.7542546 -9.97460938 3.66210938 C-5.31658619 3.43745886 -0.65836301 3.21748525 4 3 C2.68 2.01 1.36 1.02 0 0 Z " fill="#B7C0C5" transform="translate(213,39)"/>
<path d="M0 0 C0.33 0 0.66 0 1 0 C0.98952637 0.83023682 0.97905273 1.66047363 0.96826172 2.51586914 C0.5273446 22.37996246 0.5273446 22.37996246 2.5625 42.08984375 C3.06380056 45.42438765 3.06742418 48.6330048 3 52 C1.49439503 49.14589666 0.36783204 46.31875358 -0.625 43.25 C-0.88539062 42.45078125 -1.14578125 41.6515625 -1.4140625 40.828125 C-1.60742188 40.22484375 -1.80078125 39.6215625 -2 39 C-2.33 39.66 -2.66 40.32 -3 41 C-3.66 41 -4.32 41 -5 41 C-5.33 37.04 -5.66 33.08 -6 29 C-5.67 29 -5.34 29 -5 29 C-4.67 30.65 -4.34 32.3 -4 34 C-3.67 34 -3.34 34 -3 34 C-2.94465088 33.1121582 -2.88930176 32.22431641 -2.83227539 31.30957031 C-2.62461982 28.00696081 -2.4136469 24.70459768 -2.20043945 21.40234375 C-2.10894419 19.97469374 -2.01876131 18.54695897 -1.92993164 17.11914062 C-1.80181593 15.06356345 -1.66894054 13.00834008 -1.53515625 10.953125 C-1.456604 9.71723633 -1.37805176 8.48134766 -1.29711914 7.20800781 C-1.06188584 4.66818396 -0.72517183 2.43317729 0 0 Z " fill="#B9C1C6" transform="translate(68,154)"/>
<path d="M0 0 C8.58 0 17.16 0 26 0 C26 0.33 26 0.66 26 1 C22.37 1.33 18.74 1.66 15 2 C15 2.33 15 2.66 15 3 C21.27 3.33 27.54 3.66 34 4 C34 4.33 34 4.66 34 5 C29.97985669 5.04970693 25.95983422 5.08586387 21.93945312 5.10986328 C20.5738615 5.1198759 19.20829106 5.13349005 17.84277344 5.15087891 C15.87184088 5.17533573 13.90074716 5.1854572 11.9296875 5.1953125 C10.15440674 5.21102295 10.15440674 5.21102295 8.34326172 5.22705078 C4.91307389 4.99409659 2.19696189 4.23025564 -1 3 C-0.67 2.01 -0.34 1.02 0 0 Z " fill="#CAD3DA" transform="translate(176,299)"/>
<path d="M0 0 C0.33 0 0.66 0 1 0 C1.30671309 6.18305703 0.42121865 10.79520046 -1.75 16.5625 C-2.00265625 17.27857422 -2.2553125 17.99464844 -2.515625 18.73242188 C-4.24138313 23.47394234 -6.39030382 27.68265481 -9 32 C-10.60019088 28.00928005 -9.30230373 25.42095611 -7.75 21.5625 C-7.31171875 20.45003906 -6.8734375 19.33757812 -6.421875 18.19140625 C-5 15 -5 15 -3.40234375 12.421875 C-1.88368054 9.79911403 -1.32792629 7.6611132 -0.8125 4.6875 C-0.65394531 3.80449219 -0.49539063 2.92148438 -0.33203125 2.01171875 C-0.22246094 1.34785156 -0.11289062 0.68398437 0 0 Z " fill="#C3CBCE" transform="translate(317,198)"/>
<path d="M0 0 C0.33 0 0.66 0 1 0 C1.33 7.59 1.66 15.18 2 23 C1.34 22.01 0.68 21.02 0 20 C-0.33 20.66 -0.66 21.32 -1 22 C-1.66 22 -2.32 22 -3 22 C-3.33 18.04 -3.66 14.08 -4 10 C-3.67 10 -3.34 10 -3 10 C-2.67 11.65 -2.34 13.3 -2 15 C-1.67 15 -1.34 15 -1 15 C-0.67 10.05 -0.34 5.1 0 0 Z " fill="#C8D1D6" transform="translate(66,173)"/>
<path d="M0 0 C2.31 0.66 4.62 1.32 7 2 C6.67 2.66 6.34 3.32 6 4 C-11.325 4.495 -11.325 4.495 -29 5 C-29 4.67 -29 4.34 -29 4 C-22.66754866 3.11136591 -16.38656595 2.70617622 -10 2.4375 C-8.55173828 2.37272461 -8.55173828 2.37272461 -7.07421875 2.30664062 C-4.71625575 2.20158287 -2.35820584 2.09943086 0 2 C0 1.34 0 0.68 0 0 Z " fill="#D6DDE2" transform="translate(211,39)"/>
<path d="M0 0 C0.66 0.33 1.32 0.66 2 1 C-2.85807142 10.8318112 -10.42296888 18.24263741 -18 26 C-18.66 25.67 -19.32 25.34 -20 25 C-19.39671875 24.40832031 -18.7934375 23.81664062 -18.171875 23.20703125 C-10.82055973 16.47157115 -10.82055973 16.47157115 -6 8 C-5.34 8 -4.68 8 -4 8 C-3.566875 7.13375 -3.566875 7.13375 -3.125 6.25 C-2.08333333 4.16666667 -1.04166667 2.08333333 0 0 Z " fill="#C2CACE" transform="translate(300,238)"/>
<path d="M0 0 C5.28 0 10.56 0 16 0 C16 0.66 16 1.32 16 2 C16.66 2.33 17.32 2.66 18 3 C12.06 3 6.12 3 0 3 C0 2.01 0 1.02 0 0 Z " fill="#ECF5FA" transform="translate(190,300)"/>
<path d="M0 0 C0.33 0 0.66 0 1 0 C1 6.93 1 13.86 1 21 C0.01 21.33 -0.98 21.66 -2 22 C-2.33196721 4.66393443 -2.33196721 4.66393443 0 0 Z " fill="#E7F0F6" transform="translate(326,160)"/>
<path d="M0 0 C2.97 0.33 5.94 0.66 9 1 C9.33 1.99 9.66 2.98 10 4 C6.52334905 5.06888524 3.32862522 5.11475767 -0.296875 5.09765625 C-1.50214844 5.09443359 -2.70742187 5.09121094 -3.94921875 5.08789062 C-5.20347656 5.07951172 -6.45773438 5.07113281 -7.75 5.0625 C-9.01972656 5.05798828 -10.28945312 5.05347656 -11.59765625 5.04882812 C-14.73181836 5.03704556 -17.86588541 5.02059416 -21 5 C-21 4.67 -21 4.34 -21 4 C-8.625 3.505 -8.625 3.505 4 3 C2.68 2.01 1.36 1.02 0 0 Z " fill="#C1C9CD" transform="translate(213,39)"/>
<path d="M0 0 C1.39928064 4.65721842 0.71038996 8.8585201 0.1875 13.625 C0.10435547 14.49640625 0.02121094 15.3678125 -0.06445312 16.265625 C-0.15275391 17.09835938 -0.24105469 17.93109375 -0.33203125 18.7890625 C-0.45155151 19.92915771 -0.45155151 19.92915771 -0.57348633 21.09228516 C-1 23 -1 23 -3 25 C-2.89047884 21.20771856 -2.75976759 17.4164616 -2.625 13.625 C-2.5940625 12.54476562 -2.563125 11.46453125 -2.53125 10.3515625 C-2.49257813 9.3203125 -2.45390625 8.2890625 -2.4140625 7.2265625 C-2.3826416 6.27346191 -2.3512207 5.32036133 -2.31884766 4.33837891 C-2 2 -2 2 0 0 Z " fill="#DBE4E9" transform="translate(325,159)"/>
<path d="M0 0 C4.45827926 -0.0578304 8.9164628 -0.09353855 13.375 -0.125 C15.28152344 -0.15013672 15.28152344 -0.15013672 17.2265625 -0.17578125 C18.43828125 -0.18222656 19.65 -0.18867188 20.8984375 -0.1953125 C22.01911621 -0.20578613 23.13979492 -0.21625977 24.29443359 -0.22705078 C27 0 27 0 29 2 C24.73027701 2.25446319 20.45946347 2.47423855 16.1875 2.6875 C14.97255859 2.76033203 13.75761719 2.83316406 12.50585938 2.90820312 C11.34248047 2.96298828 10.17910156 3.01777344 8.98046875 3.07421875 C7.90692139 3.13182373 6.83337402 3.18942871 5.72729492 3.2487793 C3 3 3 3 1.1262207 1.49536133 C0.75456787 1.00189209 0.38291504 0.50842285 0 0 Z " fill="#B9C2C9" transform="translate(171,296)"/>
<path d="M0 0 C0.66 0 1.32 0 2 0 C2 0.66 2 1.32 2 2 C0.13671875 3.62109375 0.13671875 3.62109375 -2.3125 5.4375 C-5.60058044 7.87431511 -5.60058044 7.87431511 -8.59375 10.6484375 C-10.7219516 12.6938757 -13.21084275 13.19424346 -16 14 C-12.375 9.125 -12.375 9.125 -9 8 C-8.67 7.34 -8.34 6.68 -8 6 C-6.33720673 4.9935725 -4.67016516 3.99414593 -3 3 C-2.1646875 2.1646875 -2.1646875 2.1646875 -1.3125 1.3125 C-0.879375 0.879375 -0.44625 0.44625 0 0 Z " fill="#C1C9CC" transform="translate(278,264)"/>
<path d="M0 0 C0.66 0.33 1.32 0.66 2 1 C2 2.98 2 4.96 2 7 C1.01 7.33 0.02 7.66 -1 8 C-0.67 5.36 -0.34 2.72 0 0 Z " fill="#F1FAFD" transform="translate(325,174)"/>
</svg>
