<?xml version="1.0" encoding="UTF-8"?>
<svg version="1.1" xmlns="http://www.w3.org/2000/svg" width="120" height="82">
<path d="M0 0 C2.53796596 2.78544397 4.54093905 5.0648827 5.76953125 8.6640625 C7.217278 11.78814758 8.55485167 12.21853023 11.6953125 13.50390625 C16.50436721 15.70689808 18.93469611 17.69178193 21.8828125 22.06640625 C23.55055216 27.06962523 23.90241373 32.31253004 22.046875 37.32421875 C19.18003322 42.3844831 15.36107638 45.99748745 9.8828125 48.06640625 C6.82652577 48.43183184 3.94040154 48.38490511 0.8828125 48.06640625 C0.8415625 48.74703125 0.8003125 49.42765625 0.7578125 50.12890625 C-0.48731468 54.30897606 -2.7947381 57.25265724 -6.1171875 60.06640625 C-8.9921875 60.50390625 -8.9921875 60.50390625 -11.1171875 60.06640625 C-11.50888637 57.40285391 -11.52283279 55.67416252 -10.00390625 53.3984375 C-8.75329433 51.91531745 -7.43854236 50.48686273 -6.1171875 49.06640625 C-9.00156529 50.35940319 -10.98938171 51.72581988 -13.1171875 54.06640625 C-14.4371875 53.40640625 -15.7571875 52.74640625 -17.1171875 52.06640625 C-17.1171875 50.74640625 -17.1171875 49.42640625 -17.1171875 48.06640625 C-17.5090625 48.93265625 -17.9009375 49.79890625 -18.3046875 50.69140625 C-22.88603172 59.22218514 -22.88603172 59.22218514 -27.4296875 60.94140625 C-27.9865625 60.98265625 -28.5434375 61.02390625 -29.1171875 61.06640625 C-31.1171875 58.06640625 -31.1171875 58.06640625 -30.7421875 55.87890625 C-30.5359375 55.28078125 -30.3296875 54.68265625 -30.1171875 54.06640625 C-31.7671875 53.40640625 -33.4171875 52.74640625 -35.1171875 52.06640625 C-35.1171875 50.74640625 -35.1171875 49.42640625 -35.1171875 48.06640625 C-36.1071875 48.06640625 -37.0971875 48.06640625 -38.1171875 48.06640625 C-38.1584375 48.74703125 -38.1996875 49.42765625 -38.2421875 50.12890625 C-39.48731468 54.30897606 -41.7947381 57.25265724 -45.1171875 60.06640625 C-47.9921875 60.50390625 -47.9921875 60.50390625 -50.1171875 60.06640625 C-50.4471875 59.07640625 -50.7771875 58.08640625 -51.1171875 57.06640625 C-49.9375 55.05859375 -49.9375 55.05859375 -48.2421875 52.94140625 C-47.68789063 52.23757812 -47.13359375 51.53375 -46.5625 50.80859375 C-45.1171875 49.06640625 -45.1171875 49.06640625 -44.1171875 48.06640625 C-44.70886719 47.8240625 -45.30054687 47.58171875 -45.91015625 47.33203125 C-53.4391364 44.13866283 -58.84521786 40.94814593 -62.1171875 33.06640625 C-63.86656977 25.95225167 -62.77772309 19.61067872 -59.046875 13.23828125 C-55.24192766 8.24901255 -50.44103406 5.66740105 -44.4921875 4.12890625 C-40.45514396 2.85798514 -39.05061673 1.06967903 -36.1171875 -1.93359375 C-24.28929459 -9.84088156 -10.89641658 -9.95152437 0 0 Z M-26.1171875 48.06640625 C-26.7771875 49.38640625 -27.4371875 50.70640625 -28.1171875 52.06640625 C-26.7971875 50.74640625 -25.4771875 49.42640625 -24.1171875 48.06640625 C-24.7771875 48.06640625 -25.4371875 48.06640625 -26.1171875 48.06640625 Z " fill="#E4E1DF" transform="translate(81.1171875,13.93359375)"/>
<path d="M0 0 C15.51 0 31.02 0 47 0 C48 6 48 6 46.7421875 8.3359375 C46.12601563 9.00882813 45.50984375 9.68171875 44.875 10.375 C44.27429688 11.06335938 43.67359375 11.75171875 43.0546875 12.4609375 C40.52495884 14.35582931 39.08876082 14.30994486 36 14 C35.60830113 11.33644766 35.59435471 9.60775627 37.11328125 7.33203125 C38.36389317 5.8489112 39.67864514 4.42045648 41 3 C38.11562221 4.29299694 36.12780579 5.65941363 34 8 C32.68 7.34 31.36 6.68 30 6 C30 4.68 30 3.36 30 2 C29.608125 2.86625 29.21625 3.7325 28.8125 4.625 C24.23115578 13.15577889 24.23115578 13.15577889 19.6875 14.875 C19.130625 14.91625 18.57375 14.9575 18 15 C16 12 16 12 16.375 9.8125 C16.684375 8.9153125 16.684375 8.9153125 17 8 C15.35 7.34 13.7 6.68 12 6 C12 4.68 12 3.36 12 2 C11.01 2 10.02 2 9 2 C8.95875 2.680625 8.9175 3.36125 8.875 4.0625 C7.62987282 8.24256981 5.3224494 11.18625099 2 14 C-0.875 14.4375 -0.875 14.4375 -3 14 C-3.33 13.01 -3.66 12.02 -4 11 C-2.8203125 8.9921875 -2.8203125 8.9921875 -1.125 6.875 C-0.57070313 6.17117187 -0.01640625 5.46734375 0.5546875 4.7421875 C2 3 2 3 3 2 C2.01 1.34 1.02 0.68 0 0 Z M21 2 C20.34 3.32 19.68 4.64 19 6 C20.32 4.68 21.64 3.36 23 2 C22.34 2 21.68 2 21 2 Z " fill="#D1DBE6" transform="translate(34,60)"/>
<path d="M0 0 C2.625 0.375 2.625 0.375 5 1 C4.72014305 5.61763975 2.61399479 8.29036089 -0.3671875 11.6171875 C-2 13 -2 13 -4.875 13.4375 C-5.57625 13.293125 -6.2775 13.14875 -7 13 C-7.33 12.01 -7.66 11.02 -8 10 C-6.85546875 8.02734375 -6.85546875 8.02734375 -5.1875 5.9375 C-4.37345703 4.89916016 -4.37345703 4.89916016 -3.54296875 3.83984375 C-2 2 -2 2 0 0 Z " fill="#7DB6F3" transform="translate(38,61)"/>
<path d="M0 0 C1.65 0.33 3.3 0.66 5 1 C4.72014305 5.61763975 2.61399479 8.29036089 -0.3671875 11.6171875 C-2 13 -2 13 -4.875 13.4375 C-5.57625 13.293125 -6.2775 13.14875 -7 13 C-7.3077917 9.86162389 -7.27813784 8.40656372 -5.46875 5.76171875 C-4.8190625 5.07722656 -4.169375 4.39273438 -3.5 3.6875 C-2.8503125 2.99011719 -2.200625 2.29273438 -1.53125 1.57421875 C-1.0259375 1.05472656 -0.520625 0.53523438 0 0 Z " fill="#80B4F1" transform="translate(77,61)"/>
<path d="M0 0 C0.90685547 0.43892578 0.90685547 0.43892578 1.83203125 0.88671875 C2.16203125 1.87671875 2.49203125 2.86671875 2.83203125 3.88671875 C1.5390625 6.11328125 1.5390625 6.11328125 -0.35546875 8.51171875 C-0.96777344 9.30835937 -1.58007812 10.105 -2.2109375 10.92578125 C-4.26013703 12.979071 -5.33774074 13.52274264 -8.16796875 13.88671875 C-10.16796875 10.88671875 -10.16796875 10.88671875 -10 8.9375 C-8.99225094 6.45361148 -7.73229561 4.98319682 -5.85546875 3.07421875 C-5.26121094 2.44902344 -4.66695312 1.82382812 -4.0546875 1.1796875 C-2.16796875 -0.11328125 -2.16796875 -0.11328125 0 0 Z " fill="#85BCF5" transform="translate(60.16796875,61.11328125)"/>
<path d="M0 0 C1.23556641 0.01740234 1.23556641 0.01740234 2.49609375 0.03515625 C3.32238281 0.04417969 4.14867187 0.05320313 5 0.0625 C5.63808594 0.07410156 6.27617188 0.08570313 6.93359375 0.09765625 C5.24609375 3.09765625 5.24609375 3.09765625 2.93359375 6.09765625 C0.18359375 6.47265625 0.18359375 6.47265625 -2.06640625 6.09765625 C-2.44859392 4.44150968 -2.78035727 2.77308601 -3.06640625 1.09765625 C-2.06640625 0.09765625 -2.06640625 0.09765625 0 0 Z " fill="#84B8F3" transform="translate(49.06640625,60.90234375)"/>
<path d="M0 0 C2.97 0 5.94 0 9 0 C7.02 2.31 5.04 4.62 3 7 C1.68 6.34 0.36 5.68 -1 5 C-0.67 3.35 -0.34 1.7 0 0 Z " fill="#7FB6F4" transform="translate(65,61)"/>
<path d="M0 0 C0.61875 0.28875 1.2375 0.5775 1.875 0.875 C2.205 1.865 2.535 2.855 2.875 3.875 C1.885 5.36 1.885 5.36 0.875 6.875 C-2.095 6.38 -2.095 6.38 -5.125 5.875 C-5.125 2.875 -5.125 2.875 -3.875 1.125 C-2.125 -0.125 -2.125 -0.125 0 0 Z " fill="#638EC1" transform="translate(60.125,61.125)"/>
<path d="M0 0 C1.65 0.33 3.3 0.66 5 1 C4.67 2.65 4.34 4.3 4 6 C2.68 6.33 1.36 6.66 0 7 C-0.66 6.01 -1.32 5.02 -2 4 C-1.34 2.68 -0.68 1.36 0 0 Z " fill="#618CBE" transform="translate(77,61)"/>
<path d="M0 0 C1.65 0.33 3.3 0.66 5 1 C4.67 2.65 4.34 4.3 4 6 C0.25 7.125 0.25 7.125 -2 6 C-1.34 4.02 -0.68 2.04 0 0 Z " fill="#5F8ABD" transform="translate(38,61)"/>
<path d="M0 0 C0.33 0.66 0.66 1.32 1 2 C0.67 2.66 0.34 3.32 0 4 C1.65 4.33 3.3 4.66 5 5 C3.68 6.32 2.36 7.64 1 9 C0.01 8.34 -0.98 7.68 -2 7 C-2.3125 4.5 -2.3125 4.5 -2 2 C-1.34 1.34 -0.68 0.68 0 0 Z " fill="#74A7DF" transform="translate(36,63)"/>
<path d="M0 0 C2.31 0.66 4.62 1.32 7 2 C6.01 3.485 6.01 3.485 5 5 C3.35 4.67 1.7 4.34 0 4 C0 2.68 0 1.36 0 0 Z " fill="#76A7E3" transform="translate(53,66)"/>
<path d="M0 0 C0.66 0.33 1.32 0.66 2 1 C-0.97 3.97 -3.94 6.94 -7 10 C-7 6.04435836 -5.59478606 4.89133304 -3 2 C-2.01 1.34 -1.02 0.68 0 0 Z " fill="#DAE4E9" transform="translate(29,21)"/>
<path d="M0 0 C0.268125 0.61875 0.53625 1.2375 0.8125 1.875 C1.95556848 4.2995233 1.95556848 4.2995233 5 6 C3.02 6.99 3.02 6.99 1 8 C-0.5625 6.75 -0.5625 6.75 -2 5 C-1.74853421 2.86254078 -1.54074221 1.54074221 0 0 Z " fill="#77A5DA" transform="translate(75,63)"/>
<path d="M0 0 C2.31 0 4.62 0 7 0 C5.68 1.65 4.36 3.3 3 5 C2.34 4.67 1.68 4.34 1 4 C0.375 1.9375 0.375 1.9375 0 0 Z " fill="#79A9E5" transform="translate(67,61)"/>
<path d="M0 0 C2.31 0 4.62 0 7 0 C5.515 1.98 5.515 1.98 4 4 C2.68 3.34 1.36 2.68 0 2 C0 1.34 0 0.68 0 0 Z " fill="#77A7E4" transform="translate(49,61)"/>
</svg>
