<?xml version="1.0" encoding="UTF-8"?>
<svg version="1.1" xmlns="http://www.w3.org/2000/svg" width="245" height="214">
<path d="M0 0 C7.99502207 5.99959227 14.90785718 13.27993377 17.53515625 23.07421875 C18.13864669 25.10905228 18.13864669 25.10905228 19.34765625 26.76171875 C21.74843508 27.86114083 24.08114837 28.41170673 26.65234375 29.00390625 C33.97221382 31.06195667 40.20238449 36.48383129 44.34765625 42.76171875 C48.27705557 50.14282572 49.17834844 58.28744092 47.28515625 66.38671875 C44.72057498 74.6142668 39.36776865 80.85683672 32.34765625 85.76171875 C25.32873311 89.33274982 19.8393592 89.83314809 12.09765625 89.13671875 C7.2773084 89.05622178 5.13420371 89.13471644 1.32421875 92.171875 C-1.29676162 95.13958384 -1.29676162 95.13958384 -3.50390625 98.2578125 C-5.65234375 100.76171875 -5.65234375 100.76171875 -8.23828125 101.734375 C-10.65234375 101.76171875 -10.65234375 101.76171875 -13.65234375 99.76171875 C-14.10435219 96.29632068 -14.14632671 94.47356086 -12.12890625 91.56640625 C-11.64164062 90.97085938 -11.154375 90.3753125 -10.65234375 89.76171875 C-20.70740966 88.65702403 -20.70740966 88.65702403 -30.1640625 91.14453125 C-31.87948992 92.92549185 -33.27423655 94.71146724 -34.65234375 96.76171875 C-37.27734375 99.76171875 -37.27734375 99.76171875 -39.65234375 101.76171875 C-42.33984375 101.76171875 -42.33984375 101.76171875 -44.65234375 100.76171875 C-46.65234375 97.76171875 -46.65234375 97.76171875 -46.46484375 95.32421875 C-45.60452944 92.61091978 -44.4871191 90.91558546 -42.65234375 88.76171875 C-43.73890259 89.00293457 -43.73890259 89.00293457 -44.84741211 89.24902344 C-59.56514852 91.93918328 -76.62848885 90.8097692 -89.33203125 82.55859375 C-96.70247905 76.85083956 -102.89570386 69.09793447 -104.65234375 59.76171875 C-105.54036152 46.7034902 -104.29654709 36.14614842 -95.5625 25.76171875 C-88.76881974 18.64849933 -80.70181661 14.46895278 -70.96484375 13.01171875 C-66.23392046 12.07048794 -64.48576374 9.66110176 -61.57421875 5.98828125 C-45.88402343 -12.18938406 -19.26701712 -12.4374078 0 0 Z " fill="#464851" transform="translate(144.65234375,56.23828125)"/>
<path d="M0 0 C10.60749205 7.9600023 10.60749205 7.9600023 12.109375 13.55078125 C12.19316406 14.28425781 12.27695313 15.01773438 12.36328125 15.7734375 C10.36328125 14.3984375 10.36328125 14.3984375 8.36328125 12.7734375 C8.36328125 12.1134375 8.36328125 11.4534375 8.36328125 10.7734375 C7.78835937 10.50402344 7.2134375 10.23460938 6.62109375 9.95703125 C4.32066444 8.75109686 2.33937075 7.35942122 0.23828125 5.8359375 C-4.4790168 2.63909089 -9.13411743 1.09444196 -14.63671875 -0.2265625 C-15.260625 -0.40960938 -15.88453125 -0.59265625 -16.52734375 -0.78125 C-28.06522102 -3.21702409 -40.34371546 -0.76496238 -50.26171875 5.4609375 C-50.85210937 5.87730469 -51.4425 6.29367188 -52.05078125 6.72265625 C-53.63671875 7.7734375 -53.63671875 7.7734375 -56.63671875 8.7734375 C-56.63671875 9.4334375 -56.63671875 10.0934375 -56.63671875 10.7734375 C-59.01171875 13.3984375 -59.01171875 13.3984375 -61.63671875 15.7734375 C-62.29671875 15.7734375 -62.95671875 15.7734375 -63.63671875 15.7734375 C-63.96671875 17.0934375 -64.29671875 18.4134375 -64.63671875 19.7734375 C-65.5803125 19.93779297 -65.5803125 19.93779297 -66.54296875 20.10546875 C-75.00858039 21.67364681 -81.53221183 23.81680476 -88.63671875 28.7734375 C-90.12171875 29.2684375 -90.12171875 29.2684375 -91.63671875 29.7734375 C-91.63671875 30.4334375 -91.63671875 31.0934375 -91.63671875 31.7734375 C-92.29671875 31.7734375 -92.95671875 31.7734375 -93.63671875 31.7734375 C-93.88421875 32.4334375 -94.13171875 33.0934375 -94.38671875 33.7734375 C-95.38345498 36.16560444 -96.45377913 38.41126756 -97.63671875 40.7109375 C-100.79982582 47.01363412 -102.04720316 52.7923318 -102.63671875 59.7734375 C-103.29671875 59.7734375 -103.95671875 59.7734375 -104.63671875 59.7734375 C-105.23105024 46.61559879 -104.39684201 36.29569127 -95.546875 25.7734375 C-88.75319474 18.66021808 -80.68619161 14.48067153 -70.94921875 13.0234375 C-66.21829546 12.08220669 -64.47013874 9.67282051 -61.55859375 6 C-45.87276496 -12.17260652 -19.2676106 -12.42461305 0 0 Z " fill="#5A5D5D" transform="translate(144.63671875,56.2265625)"/>
<path d="M0 0 C3 0.5 3 0.5 4.875 3 C5.24625 3.825 5.6175 4.65 6 5.5 C3.12525291 10.05852754 -0.06185986 13.95453608 -3.75 17.875 C-4.25660156 18.42027344 -4.76320312 18.96554688 -5.28515625 19.52734375 C-6.5196935 20.85505363 -7.75931718 22.17803106 -9 23.5 C-12.20065992 22.78432449 -14.09328037 22.30990262 -16 19.5 C-15.68590724 14.84498424 -13.58842745 12.35630797 -10.625 8.875 C-9.83351562 7.93398437 -9.04203125 6.99296875 -8.2265625 6.0234375 C-3.4137931 0.56896552 -3.4137931 0.56896552 0 0 Z " fill="#6A92C6" transform="translate(157,147.5)"/>
<path d="M0 0 C3.18959781 -0.4071827 5.16000247 -0.51483719 7.9375 1.1875 C9 3 9 3 8.9375 5.1953125 C7.58454841 9.24289268 5.00471296 11.67010854 2.0625 14.6875 C1.51142578 15.26822266 0.96035156 15.84894531 0.39257812 16.44726562 C-1.71143878 18.65865642 -3.8416435 20.8416435 -6 23 C-8.93453261 22.63318342 -9.86437246 22.13562754 -12 20 C-12.4296875 17.23046875 -12.4296875 17.23046875 -12 14 C-9.8828125 11.11328125 -9.8828125 11.11328125 -7.125 8.3125 C-3.2937254 4.37504952 -3.2937254 4.37504952 0 0 Z " fill="#6F98CF" transform="translate(83,148)"/>
<path d="M0 0 C2.875 0.375 2.875 0.375 4.875 2.375 C5.29296875 4.65625 5.29296875 4.65625 4.875 7.375 C2.86328125 10.09375 2.86328125 10.09375 0.1875 12.875 C-0.68261719 13.7928125 -1.55273438 14.710625 -2.44921875 15.65625 C-4.99486619 18.24277645 -7.55191421 20.81582278 -10.125 23.375 C-12.5625 22.75 -12.5625 22.75 -15.125 21.375 C-16.046875 18.640625 -16.046875 18.640625 -16.125 15.375 C-14.39453125 12.5234375 -14.39453125 12.5234375 -11.9375 9.75 C-11.13957031 8.82960937 -10.34164062 7.90921875 -9.51953125 6.9609375 C-8.72933594 6.10757813 -7.93914062 5.25421875 -7.125 4.375 C-6.43019531 3.611875 -5.73539063 2.84875 -5.01953125 2.0625 C-3.125 0.375 -3.125 0.375 0 0 Z " fill="#567399" transform="translate(122.125,147.625)"/>
<path d="M0 0 C3.96 0 7.92 0 12 0 C11.01824173 3.92703307 10.29761476 5.23558986 7.75 8.1875 C7.16734375 8.88230469 6.5846875 9.57710937 5.984375 10.29296875 C3.62134049 12.32573663 2.09136747 12.79490928 -1 13 C-3.375 11.375 -3.375 11.375 -5 9 C-5 6.375 -5 6.375 -4 4 C-1.9375 2.6875 -1.9375 2.6875 0 2 C0 1.34 0 0.68 0 0 Z " fill="#78A4E0" transform="translate(103,145)"/>
<path d="M0 0 C0.66 0.33 1.32 0.66 2 1 C-0.32973395 6.0017511 -3.41472049 10.97791275 -8.6875 13.0625 C-11 13 -11 13 -14 11 C-14.70038398 7.06034012 -14.30993029 5.45989656 -12.0625 2.125 C-8.00398478 -0.6911126 -4.80734452 -0.66112793 0 0 Z " fill="#6B91C3" transform="translate(145,145)"/>
<path d="M0 0 C1.32 0.33 2.64 0.66 4 1 C4.33 2.98 4.66 4.96 5 7 C4.34 7 3.68 7 3 7 C2.9175 7.928125 2.835 8.85625 2.75 9.8125 C2 13 2 13 0.25 15 C-2 16 -2 16 -4.6875 15.5625 C-7 14 -7 14 -8 11.125 C-8 8 -8 8 -6.75 5.6875 C-5 4 -5 4 -2 3 C-1.34 2.01 -0.68 1.02 0 0 Z " fill="#739ED8" transform="translate(114,155)"/>
<path d="M0 0 C3.125 0.25 3.125 0.25 5.0625 1.4375 C6.125 3.25 6.125 3.25 5.9765625 5.53125 C4.87623717 9.04421527 3.08322142 10.89976611 0.5625 13.5625 C-0.67693359 14.88701172 -0.67693359 14.88701172 -1.94140625 16.23828125 C-2.89853516 17.23408203 -2.89853516 17.23408203 -3.875 18.25 C-4.205 17.26 -4.535 16.27 -4.875 15.25 C-4.215 15.25 -3.555 15.25 -2.875 15.25 C-2.545 12.94 -2.215 10.63 -1.875 8.25 C-4.515 8.58 -7.155 8.91 -9.875 9.25 C-8.89680976 7.93677212 -7.9174189 6.62443848 -6.9375 5.3125 C-6.39222656 4.58160156 -5.84695312 3.85070312 -5.28515625 3.09765625 C-3.12861819 0.27205376 -3.12861819 0.27205376 0 0 Z " fill="#5F81A9" transform="translate(85.875,147.75)"/>
<path d="M0 0 C1.546875 0.185625 1.546875 0.185625 3.125 0.375 C5 2.875 5 2.875 6.125 5.375 C3.3784186 9.64745996 0.48507505 13.56086075 -2.875 17.375 C-3.205 17.375 -3.535 17.375 -3.875 17.375 C-4 15 -4 15 -3.875 12.375 C-3.215 11.715 -2.555 11.055 -1.875 10.375 C-1.875 9.715 -1.875 9.055 -1.875 8.375 C-1.215 8.375 -0.555 8.375 0.125 8.375 C0.125 7.715 0.125 7.055 0.125 6.375 C-3.63019057 6.88707144 -6.54188525 7.5925082 -9.875 9.375 C-8.89680976 8.06177212 -7.9174189 6.74943848 -6.9375 5.4375 C-6.39222656 4.70660156 -5.84695312 3.97570312 -5.28515625 3.22265625 C-3.13796448 0.40929971 -3.13796448 0.40929971 0 0 Z " fill="#58759A" transform="translate(156.875,147.625)"/>
<path d="M0 0 C7.57379378 0.03162336 13.4544404 1.59786004 19 7 C20.25 9.703125 20.25 9.703125 21 12 C18.08183498 11.5330936 16.39186093 10.63034684 13.8125 9.0625 C9.76407771 6.64224754 5.608718 5.79424619 1 5 C0.67 3.35 0.34 1.7 0 0 Z " fill="#595D5E" transform="translate(164,85)"/>
<path d="M0 0 C1.32 0.33 2.64 0.66 4 1 C3.25 7.75 3.25 7.75 1 10 C-2.125 10.125 -2.125 10.125 -5 10 C-5.33 8.35 -5.66 6.7 -6 5 C-4.02 4.01 -2.04 3.02 0 2 C0 1.34 0 0.68 0 0 Z " fill="#79A6E3" transform="translate(147,158)"/>
<path d="M0 0 C3.96 0 7.92 0 12 0 C11.01824173 3.92703307 10.29761476 5.23558986 7.75 8.1875 C7.16734375 8.88230469 6.5846875 9.57710937 5.984375 10.29296875 C3.62477476 12.32278234 2.09162565 12.82319134 -1 13 C-1.66 12.34 -2.32 11.68 -3 11 C-1.35 11 0.3 11 2 11 C2 10.34 2 9.68 2 9 C2.99 9 3.98 9 5 9 C4.67 7.35 4.34 5.7 4 4 C5.32 4 6.64 4 8 4 C7.67 3.34 7.34 2.68 7 2 C4.67843403 1.59270772 2.3431213 1.25561323 0 1 C0 0.67 0 0.34 0 0 Z " fill="#6A91BB" transform="translate(103,145)"/>
<path d="M0 0 C1.134375 0.020625 2.26875 0.04125 3.4375 0.0625 C3.7675 0.7225 4.0975 1.3825 4.4375 2.0625 C2.88194444 6.61805556 2.88194444 6.61805556 1.4375 8.0625 C-0.22867115 8.10313832 -1.89638095 8.105221 -3.5625 8.0625 C-3.94313221 5.7364143 -4.27519945 3.40194736 -4.5625 1.0625 C-3.5625 0.0625 -3.5625 0.0625 0 0 Z " fill="#82B4F1" transform="translate(77.5625,160.9375)"/>
<path d="M0 0 C2.97 0.495 2.97 0.495 6 1 C6 2.32 6 3.64 6 5 C5.34 5 4.68 5 4 5 C4 6.65 4 8.3 4 10 C2.35 9.67 0.7 9.34 -1 9 C-1.80967438 6.08517222 -2.21845993 4.53886783 -1.0625 1.6875 C-0.711875 1.130625 -0.36125 0.57375 0 0 Z " fill="#7EAFEE" transform="translate(135,147)"/>
<path d="M0 0 C1 2 1 2 1 5 C1.33 5.66 1.66 6.32 2 7 C3.32 7 4.64 7 6 7 C6.33 6.01 6.66 5.02 7 4 C7.25 6.3125 7.25 6.3125 7 9 C5.3125 10.9375 5.3125 10.9375 3 12 C0.3125 11.5625 0.3125 11.5625 -2 10 C-3 7.125 -3 7.125 -3 4 C-1.5625 1.625 -1.5625 1.625 0 0 Z " fill="#7398C6" transform="translate(109,159)"/>
<path d="M0 0 C5.41139241 -0.36075949 5.41139241 -0.36075949 7.9375 1.1875 C9 3 9 3 8.9375 5.5 C7.83236473 8.44702738 6.64505618 9.37883653 4 11 C2.90341064 7.71023192 3.20046862 6.28696233 4 3 C2.35 3 0.7 3 -1 3 C-0.67 2.01 -0.34 1.02 0 0 Z " fill="#546E90" transform="translate(83,148)"/>
<path d="M0 0 C0.8353125 1.0209375 0.8353125 1.0209375 1.6875 2.0625 C0.0625 7.8125 0.0625 7.8125 -3.3125 10.0625 C-2.9825 8.0825 -2.6525 6.1025 -2.3125 4.0625 C-2.9725 3.7325 -3.6325 3.4025 -4.3125 3.0625 C-3.6525 3.0625 -2.9925 3.0625 -2.3125 3.0625 C-2.3125 2.4025 -2.3125 1.7425 -2.3125 1.0625 C-3.6325 1.0625 -4.9525 1.0625 -6.3125 1.0625 C-7.3025 2.5475 -7.3025 2.5475 -8.3125 4.0625 C-8.9725 3.7325 -9.6325 3.4025 -10.3125 3.0625 C-8.71883553 0.4623106 -7.73185667 -0.76545624 -4.875 -1.9375 C-2.3125 -1.9375 -2.3125 -1.9375 0 0 Z " fill="#628ABA" transform="translate(120.3125,154.9375)"/>
<path d="M0 0 C1.65 0 3.3 0 5 0 C5.33 1.65 5.66 3.3 6 5 C2.98968256 5.93423645 2.13349732 6.04449911 -1 5 C-0.67 3.35 -0.34 1.7 0 0 Z " fill="#7BB1F1" transform="translate(109,161)"/>
<path d="M0 0 C3.96 0 7.92 0 12 0 C11 4 11 4 8 6 C7.67 4.68 7.34 3.36 7 2 C4.69 1.67 2.38 1.34 0 1 C0 0.67 0 0.34 0 0 Z " fill="#6079A0" transform="translate(103,145)"/>
<path d="M0 0 C1.98 0 3.96 0 6 0 C7 2 7 2 6.1875 4.5625 C5 7 5 7 3 8 C2 5 2 5 2 3 C1.34 2.67 0.68 2.34 0 2 C0 1.34 0 0.68 0 0 Z " fill="#78A5E2" transform="translate(75,161)"/>
<path d="M0 0 C0.33 0.66 0.66 1.32 1 2 C0.67 2.99 0.34 3.98 0 5 C2.475 5.99 2.475 5.99 5 7 C4.67 7.66 4.34 8.32 4 9 C-0.875 8.125 -0.875 8.125 -2 7 C-2.04080783 5.00041636 -2.04254356 2.99954746 -2 1 C-1.34 0.67 -0.68 0.34 0 0 Z " fill="#7598C6" transform="translate(133,149)"/>
<path d="M0 0 C1.65 0.33 3.3 0.66 5 1 C4.67 2.32 4.34 3.64 4 5 C2.35 5 0.7 5 -1 5 C-0.67 3.35 -0.34 1.7 0 0 Z " fill="#82B4F4" transform="translate(101,151)"/>
<path d="M0 0 C0.66 0 1.32 0 2 0 C2.33 2.31 2.66 4.62 3 7 C4.32 7.33 5.64 7.66 7 8 C5.1875 8.6875 5.1875 8.6875 3 9 C1.25 7.9375 1.25 7.9375 0 6 C-0.1875 2.8125 -0.1875 2.8125 0 0 Z " fill="#6680A4" transform="translate(71,162)"/>
<path d="M0 0 C2.56564327 1.28282164 2.88473433 2.39771344 4 5 C4.36784131 6.3242287 4.71202981 7.65613912 5 9 C4.01 9.66 3.02 10.32 2 11 C1.87625 10.278125 1.7525 9.55625 1.625 8.8125 C1.0095069 6.04278106 0.11555626 3.6029646 -1 1 C-0.67 0.67 -0.34 0.34 0 0 Z " fill="#5F7CA8" transform="translate(119,150)"/>
<path d="M0 0 C0.66 1.32 1.32 2.64 2 4 C1.01 4.495 1.01 4.495 0 5 C-0.65213292 7.02463255 -0.65213292 7.02463255 -1 9 C-1.66 8.34 -2.32 7.68 -3 7 C-2.67028521 3.70285207 -2.3773161 2.3773161 0 0 Z " fill="#6A8DB6" transform="translate(101,147)"/>
<path d="M0 0 C2.97 0.495 2.97 0.495 6 1 C6 2.32 6 3.64 6 5 C4.68 5 3.36 5 2 5 C2 4.01 2 3.02 2 2 C1.34 2 0.68 2 0 2 C0 1.34 0 0.68 0 0 Z " fill="#74A7EC" transform="translate(135,147)"/>
<path d="M0 0 C0.99 0.33 1.98 0.66 3 1 C2.45773019 4.79588866 0.79872437 6.47211993 -2 9 C-2.125 6.625 -2.125 6.625 -2 4 C-1.34 3.34 -0.68 2.68 0 2 C0 1.34 0 0.68 0 0 Z " fill="#6482AF" transform="translate(155,156)"/>
<path d="M0 0 C1.55913346 3.11826692 0.66585225 5.67073874 0 9 C-0.99 9.495 -0.99 9.495 -2 10 C-2.6875 7.25 -2.6875 7.25 -3 4 C-1.5625 1.625 -1.5625 1.625 0 0 Z " fill="#6C89AF" transform="translate(109,159)"/>
<path d="M0 0 C0.33 0.99 0.66 1.98 1 3 C0.34 3.66 -0.32 4.32 -1 5 C-3.0625 4.75 -3.0625 4.75 -5 4 C-5.33 3.34 -5.66 2.68 -6 2 C-4.02 1.34 -2.04 0.68 0 0 Z " fill="#6380A0" transform="translate(149,166)"/>
<path d="M0 0 C1.45823212 -0.0270043 2.91660675 -0.04639787 4.375 -0.0625 C5.18710938 -0.07410156 5.99921875 -0.08570313 6.8359375 -0.09765625 C9 0 9 0 11 1 C10.34 2.32 9.68 3.64 9 5 C8.67 3.68 8.34 2.36 8 1 C5.36 1 2.72 1 0 1 C0 0.67 0 0.34 0 0 Z " fill="#607B9D" transform="translate(136,145)"/>
<path d="M0 0 C0.66 0.33 1.32 0.66 2 1 C1.6875 3.375 1.6875 3.375 1 6 C0.01 6.66 -0.98 7.32 -2 8 C-2 6.68 -2 5.36 -2 4 C-1.34 4 -0.68 4 0 4 C0 2.68 0 1.36 0 0 Z " fill="#698CB8" transform="translate(141,148)"/>
<path d="M0 0 C0.66 1.32 1.32 2.64 2 4 C1.01 4.66 0.02 5.32 -1 6 C-1.99 5.34 -2.98 4.68 -4 4 C-2.68 2.68 -1.36 1.36 0 0 Z " fill="#5B86BC" transform="translate(86,151)"/>
</svg>
