<?xml version="1.0" encoding="UTF-8"?>
<svg version="1.1" xmlns="http://www.w3.org/2000/svg" width="120" height="96">
<path d="M0 0 C3.56187543 3.91178259 8.05078125 9.85611197 8.05078125 15.328125 C9.06140625 15.39 10.07203125 15.451875 11.11328125 15.515625 C17.08412577 16.38586955 20.86139751 19.7631464 24.42578125 24.453125 C27.78466363 30.39576305 28.16738836 36.97486621 26.47265625 43.58203125 C23.95952261 49.41935529 19.44363905 53.14059393 14.05078125 56.328125 C7.45090979 58.26926367 -0.09601132 57.41367128 -6.94921875 57.328125 C-7.23796875 58.2975 -7.52671875 59.266875 -7.82421875 60.265625 C-8.94921875 63.328125 -8.94921875 63.328125 -10.94921875 64.328125 C-13.94921875 64.515625 -13.94921875 64.515625 -16.94921875 64.328125 C-18.94921875 62.328125 -18.94921875 62.328125 -19.94921875 57.328125 C-23.90921875 57.328125 -27.86921875 57.328125 -31.94921875 57.328125 C-32.60921875 58.978125 -33.26921875 60.628125 -33.94921875 62.328125 C-35.92921875 62.328125 -37.90921875 62.328125 -39.94921875 62.328125 C-40.60921875 60.678125 -41.26921875 59.028125 -41.94921875 57.328125 C-43.20734375 57.410625 -44.46546875 57.493125 -45.76171875 57.578125 C-54.80471728 57.5496879 -63.54349669 53.7009972 -69.94921875 47.328125 C-71.38671875 44.640625 -71.38671875 44.640625 -71.94921875 42.328125 C-72.44421875 40.843125 -72.44421875 40.843125 -72.94921875 39.328125 C-74.45319874 30.95875488 -73.77387329 23.97743408 -69.94921875 16.328125 C-69.28921875 16.328125 -68.62921875 16.328125 -67.94921875 16.328125 C-67.69269531 15.72097656 -67.43617187 15.11382813 -67.171875 14.48828125 C-64.81984521 10.33277815 -60.2022153 8.04462567 -55.73828125 6.625 C-54.63613281 6.32335937 -54.63613281 6.32335937 -53.51171875 6.015625 C-48.64704415 4.56373241 -45.83661019 1.70779943 -42.2109375 -1.734375 C-29.93170994 -12.25336786 -11.83610736 -10.15201193 0 0 Z " fill="#D0DBED" transform="translate(78.94921875,16.671875)"/>
<path d="M0 0 C2.97 0 5.94 0 9 0 C9.6875 2.3125 9.6875 2.3125 10 5 C8.9375 6.8125 8.9375 6.8125 7 8 C3.875 8.25 3.875 8.25 1 8 C0 7 0 7 -0.0625 3.4375 C-0.041875 2.303125 -0.02125 1.16875 0 0 Z " fill="#E1E9F7" transform="translate(61,73)"/>
<path d="M0 0 C2.5 0.25 2.5 0.25 4.5 2.25 C4.9375 4.6875 4.9375 4.6875 4.5 7.25 C2 9.0625 2 9.0625 -0.5 10.25 C-2.5 9.0625 -2.5 9.0625 -4.5 7.25 C-4.875 4.6875 -4.875 4.6875 -4.5 2.25 C-2.5 0.25 -2.5 0.25 0 0 Z " fill="#DEE5F3" transform="translate(53.5,75.75)"/>
<path d="M0 0 C1.2065625 0.0309375 1.2065625 0.0309375 2.4375 0.0625 C3.5625 3.8125 3.5625 3.8125 2.4375 6.0625 C0.4575 6.0625 -1.5225 6.0625 -3.5625 6.0625 C-3.605221 4.39638095 -3.60313832 2.72867115 -3.5625 1.0625 C-2.5625 0.0625 -2.5625 0.0625 0 0 Z " fill="#DDE5F3" transform="translate(42.5625,72.9375)"/>
<path d="M0 0 C1.65 0 3.3 0 5 0 C5 1.65 5 3.3 5 5 C4.01 5.33 3.02 5.66 2 6 C1.34 5.67 0.68 5.34 0 5 C0 3.35 0 1.7 0 0 Z " fill="#CAD3DF" transform="translate(74,75)"/>
<path d="M0 0 C1.65 0 3.3 0 5 0 C5 1.65 5 3.3 5 5 C4.01 5.495 4.01 5.495 3 6 C2.01 5.67 1.02 5.34 0 5 C0 3.35 0 1.7 0 0 Z " fill="#CED7E3" transform="translate(62,83)"/>
<path d="M0 0 C1.65 0 3.3 0 5 0 C4.67 1.65 4.34 3.3 4 5 C2.68 5 1.36 5 0 5 C0 3.35 0 1.7 0 0 Z " fill="#D6DEEB" transform="translate(33,78)"/>
</svg>
