<?xml version="1.0" encoding="UTF-8"?>
<svg version="1.1" xmlns="http://www.w3.org/2000/svg" width="120" height="107">
<path d="M0 0 C7.12493155 5.94897197 7.12493155 5.94897197 8 11 C9.73027536 9.75153512 11.45916957 8.50115598 13.1875 7.25 C14.15042969 6.55390625 15.11335938 5.8578125 16.10546875 5.140625 C19.02262569 3.04235388 19.02262569 3.04235388 21.67578125 0.671875 C22.44277344 0.12015625 23.20976563 -0.4315625 24 -1 C24.99 -0.67 25.98 -0.34 27 0 C25.92044741 1.73152958 24.83617488 3.46011684 23.75 5.1875 C23.14671875 6.15042969 22.5434375 7.11335938 21.921875 8.10546875 C20.08362455 10.87405327 18.11574051 13.43957951 16 16 C16.61488281 16.47308594 17.22976562 16.94617188 17.86328125 17.43359375 C23.37809183 21.94571149 27.21537023 25.70169765 28 33 C27.89982406 39.52256675 25.21757469 43.62314725 20.94921875 48.37109375 C16.90694562 51.74910557 12.82787586 52.27248765 7.6796875 52.44921875 C6.43469482 52.49353027 5.18970215 52.5378418 3.90698242 52.58349609 C2.5630241 52.61952604 1.21902779 52.65416221 -0.125 52.6875 C-1.14694962 52.71544647 -1.14694962 52.71544647 -2.18954468 52.74395752 C-12.06410081 53.00544925 -21.9360158 53.09495542 -31.8125 52.875 C-32.8948291 52.86557373 -33.9771582 52.85614746 -35.09228516 52.84643555 C-43.30174298 52.5716716 -50.42066523 50.7344186 -56.25390625 44.6484375 C-56.68574219 43.89820313 -57.11757813 43.14796875 -57.5625 42.375 C-58.01753906 41.61960938 -58.47257812 40.86421875 -58.94140625 40.0859375 C-61.83004504 34.39393339 -62.02411589 28.41205442 -60.19921875 22.33203125 C-57.32518901 15.80373689 -53.45569578 12.01768751 -47 9 C-45.59563754 8.618134 -44.17801889 8.28074473 -42.75 8 C-38.67943929 6.91451714 -37.8614605 5.90340437 -35.4765625 2.59375 C-26.61045503 -6.9760168 -10.22194081 -7.18763838 0 0 Z " fill="#474A52" transform="translate(75,30)"/>
<path d="M0 0 C0.99 0.33 1.98 0.66 3 1 C1.92044741 2.73152958 0.83617488 4.46011684 -0.25 6.1875 C-0.85328125 7.15042969 -1.4565625 8.11335938 -2.078125 9.10546875 C-3.91637545 11.87405327 -5.88425949 14.43957951 -8 17 C-7.38511719 17.47308594 -6.77023438 17.94617188 -6.13671875 18.43359375 C-0.62190817 22.94571149 3.21537023 26.70169765 4 34 C3.89982406 40.52256675 1.21757469 44.62314725 -3.05078125 49.37109375 C-7.59613464 53.16951532 -12.09671689 53.26721087 -17.8125 53.125 C-18.85180664 53.11146484 -18.85180664 53.11146484 -19.91210938 53.09765625 C-21.60822395 53.07426157 -23.30415871 53.03839641 -25 53 C-25.66 51.35 -26.32 49.7 -27 48 C-25.515 47.505 -25.515 47.505 -24 47 C-22.78130071 44.49552484 -22.78130071 44.49552484 -22 42 C-21.34 42 -20.68 42 -20 42 C-18.58101234 39.35122304 -17.68088981 36.91985181 -17 34 C-17.54269531 33.81824219 -18.08539063 33.63648438 -18.64453125 33.44921875 C-19.71767578 33.07216797 -19.71767578 33.07216797 -20.8125 32.6875 C-21.52019531 32.44386719 -22.22789063 32.20023438 -22.95703125 31.94921875 C-25.25577634 30.88115937 -26.50826807 30.05642541 -28 28 C-28.44921875 25.57421875 -28.44921875 25.57421875 -28 23 C-26.26953125 20.89453125 -26.26953125 20.89453125 -23.8125 18.8125 C-22.90757813 18.04164062 -22.00265625 17.27078125 -21.0703125 16.4765625 C-16.76030181 13.00003988 -12.40065971 9.5968977 -7.98046875 6.26171875 C-6.0368466 4.78680757 -4.13912131 3.24875564 -2.30078125 1.64453125 C-1.54152344 1.10183594 -0.78226563 0.55914063 0 0 Z " fill="#4C4E56" transform="translate(99,29)"/>
<path d="M0 0 C0.99 0.33 1.98 0.66 3 1 C-2.00870102 9.11207485 -6.93515553 16.50798076 -14 23 C-14.66 23 -15.32 23 -16 23 C-16 23.99 -16 24.98 -16 26 C-15.43410156 26.12117188 -14.86820313 26.24234375 -14.28515625 26.3671875 C-13.55167969 26.53476562 -12.81820312 26.70234375 -12.0625 26.875 C-10.96615234 27.11863281 -10.96615234 27.11863281 -9.84765625 27.3671875 C-8 28 -8 28 -7 30 C-6.61472745 33.53969158 -6.45577572 35.30334253 -8.6875 38.16015625 C-9.450625 38.78792969 -10.21375 39.41570312 -11 40.0625 C-11.81597656 40.73410156 -12.63195312 41.40570313 -13.47265625 42.09765625 C-22.64271047 49 -22.64271047 49 -26 49 C-26 48.34 -26 47.68 -26 47 C-25.34 47 -24.68 47 -24 47 C-23.34 45.35 -22.68 43.7 -22 42 C-21.34 42 -20.68 42 -20 42 C-18.58101234 39.35122304 -17.68088981 36.91985181 -17 34 C-17.54269531 33.81824219 -18.08539063 33.63648438 -18.64453125 33.44921875 C-19.71767578 33.07216797 -19.71767578 33.07216797 -20.8125 32.6875 C-21.52019531 32.44386719 -22.22789063 32.20023438 -22.95703125 31.94921875 C-25.25577634 30.88115937 -26.50826807 30.05642541 -28 28 C-28.44921875 25.57421875 -28.44921875 25.57421875 -28 23 C-26.26953125 20.89453125 -26.26953125 20.89453125 -23.8125 18.8125 C-22.90757813 18.04164062 -22.00265625 17.27078125 -21.0703125 16.4765625 C-16.76030181 13.00003988 -12.40065971 9.5968977 -7.98046875 6.26171875 C-6.0368466 4.78680757 -4.13912131 3.24875564 -2.30078125 1.64453125 C-1.54152344 1.10183594 -0.78226563 0.55914063 0 0 Z " fill="#F3DDAF" transform="translate(99,29)"/>
<path d="M0 0 C2.53301259 2.16562908 4.93390519 4.37864221 7 7 C7 7.66 7 8.32 7 9 C6.01 8.67 5.02 8.34 4 8 C4 7.34 4 6.68 4 6 C3.0409375 5.62875 3.0409375 5.62875 2.0625 5.25 C-1 4 -1 4 -2.984375 2.9765625 C-9.49410739 -0.27830369 -15.23947343 -1.3364269 -22.3515625 0.66015625 C-27.50640716 2.7061513 -31.13294958 5.71662312 -35.1640625 9.4609375 C-37.60502069 11.50718756 -39.93445332 12.21730723 -43 13 C-48.97910536 15.02862503 -52.85984764 17.51900679 -56 23 C-57.31318453 26.94942717 -58.23467646 30.9115611 -59 35 C-59.66 35 -60.32 35 -61 35 C-61.73875604 27.2841036 -60.68317181 21.3168364 -56 15 C-52.04559904 11.36134968 -48.02924801 9.03788619 -42.75 8 C-38.67943929 6.91451714 -37.8614605 5.90340437 -35.4765625 2.59375 C-26.62191307 -6.96364939 -10.20719615 -7.20507963 0 0 Z " fill="#5B5E5E" transform="translate(75,30)"/>
<path d="M0 0 C3.94190826 1.52849504 6.53369423 3.80679157 9.0625 7.1875 C9.0625 7.8475 9.0625 8.5075 9.0625 9.1875 C6.7615337 8.07962734 4.68576716 6.93320534 2.5625 5.5 C0.18451041 3.94369533 0.18451041 3.94369533 -2.25 4.5 C-3.0853125 4.8403125 -3.0853125 4.8403125 -3.9375 5.1875 C-3.9375 5.8475 -3.9375 6.5075 -3.9375 7.1875 C-3.2775 7.5175 -2.6175 7.8475 -1.9375 8.1875 C-1.9375 8.8475 -1.9375 9.5075 -1.9375 10.1875 C-3.9175 9.5275 -5.8975 8.8675 -7.9375 8.1875 C-7.9375 5.1875 -7.9375 5.1875 -5.8125 2.4375 C-2.9375 0.1875 -2.9375 0.1875 0 0 Z " fill="#595C5E" transform="translate(90.9375,46.8125)"/>
<path d="M0 0 C0.99 0.33 1.98 0.66 3 1 C1.68 3.31 0.36 5.62 -1 8 C-1.33 7.01 -1.66 6.02 -2 5 C-4.31 6.65 -6.62 8.3 -9 10 C-9.66 9.67 -10.32 9.34 -11 9 C-9.23977508 7.46690087 -7.46646537 5.94881299 -5.6875 4.4375 C-4.70136719 3.59058594 -3.71523437 2.74367188 -2.69921875 1.87109375 C-1.80847656 1.25363281 -0.91773437 0.63617187 0 0 Z " fill="#E5D7B5" transform="translate(99,29)"/>
<path d="M0 0 C2.50356732 3.75535098 1.9608592 4.86889414 1.125 9.1875 C0.92132812 10.27417969 0.71765625 11.36085938 0.5078125 12.48046875 C0.34023438 13.31191406 0.17265625 14.14335938 0 15 C-0.66 15 -1.32 15 -2 15 C-2.3690205 4.44191344 -2.3690205 4.44191344 0 0 Z " fill="#575A5C" transform="translate(16,50)"/>
<path d="M0 0 C0.33 0.66 0.66 1.32 1 2 C0.0625 4.625 0.0625 4.625 -1 7 C-0.34 7.33 0.32 7.66 1 8 C1 8.66 1 9.32 1 10 C-0.98 9.34 -2.96 8.68 -5 8 C-5 5 -5 5 -2.5 2.3125 C-1.675 1.549375 -0.85 0.78625 0 0 Z " fill="#817E7B" transform="translate(88,47)"/>
<path d="M0 0 C0.66 1.32 1.32 2.64 2 4 C-1.75 7 -1.75 7 -4 7 C-4 6.34 -4 5.68 -4 5 C-3.34 5 -2.68 5 -2 5 C-1.34 3.35 -0.68 1.7 0 0 Z " fill="#D3C5A7" transform="translate(77,71)"/>
</svg>
