<?xml version="1.0" encoding="UTF-8"?>
<svg version="1.1" xmlns="http://www.w3.org/2000/svg" width="607" height="411">
<path d="M0 0 C1.12112938 -0.00855011 1.12112938 -0.00855011 2.26490784 -0.01727295 C3.84057226 -0.0266588 5.41625575 -0.03323116 6.99194336 -0.03710938 C9.34200707 -0.04672404 11.69115966 -0.07777034 14.04101562 -0.109375 C27.75368082 -0.20559697 40.87101288 1.69497058 54.06640625 5.515625 C54.80955078 5.72872314 55.55269531 5.94182129 56.31835938 6.16137695 C83.06841008 14.05104285 112.13860381 30.27971412 128.94140625 53.203125 C128.94140625 53.863125 128.94140625 54.523125 128.94140625 55.203125 C129.93140625 55.533125 130.92140625 55.863125 131.94140625 56.203125 C134.87981221 59.66533376 137.37806879 63.45780415 139.94140625 67.203125 C140.534375 68.06550781 141.12734375 68.92789063 141.73828125 69.81640625 C151.06305537 83.91050292 158.49634537 99.89764469 162.94140625 116.203125 C166.64938227 117.16719876 170.33837777 118.08371342 174.09765625 118.828125 C192.51917524 122.47923687 207.14286118 129.75952959 221.94140625 141.203125 C222.6271875 141.72132813 223.31296875 142.23953125 224.01953125 142.7734375 C230.77182965 148.23566263 235.78817253 155.28199357 240.94140625 162.203125 C241.53179688 162.9765625 242.1221875 163.75 242.73046875 164.546875 C256.8322233 184.15359255 260.64972752 210.13511212 257.2109375 233.6328125 C253.93288424 253.38944166 247.04327031 273.24150235 231.94140625 287.203125 C231.379375 287.78835938 230.81734375 288.37359375 230.23828125 288.9765625 C220.9874357 298.55445814 209.99258834 305.63384085 197.94140625 311.203125 C197.28785156 311.53054688 196.63429688 311.85796875 195.9609375 312.1953125 C180.9919091 319.03072724 162.57995062 320.35694183 146.33930969 320.34356689 C145.1996641 320.34653802 144.06001851 320.34950914 142.88583821 320.3525703 C139.08184359 320.36121473 135.2778806 320.36276196 131.47387695 320.36425781 C128.73980527 320.36835482 126.00573684 320.37389426 123.27166748 320.37930298 C115.85154004 320.39284405 108.43141803 320.39890509 101.0112803 320.40331364 C96.36785726 320.40608459 91.72443628 320.41032359 87.08101463 320.41481781 C74.19685783 320.42700753 61.31270267 320.43730576 48.42854023 320.4406929 C47.60499192 320.44091247 46.78144362 320.44113203 45.9329393 320.44135825 C44.69482823 320.44168567 44.69482823 320.44168567 43.43170482 320.4420197 C41.75940152 320.44246315 40.08709822 320.44290971 38.41479492 320.44335938 C37.58529251 320.4435808 36.75579011 320.44380223 35.90115126 320.44403037 C22.48881847 320.44797037 9.07654028 320.46540128 -4.33577146 320.4887189 C-18.14265628 320.51252633 -31.94951383 320.52489909 -45.75641948 320.52606082 C-53.49349844 320.5269726 -61.23050634 320.53259788 -68.96756554 320.55088043 C-75.56203426 320.56640916 -82.15640999 320.57132787 -88.75089356 320.56314233 C-92.10560989 320.55927964 -95.45999006 320.56163433 -98.8147068 320.57419968 C-129.31536557 320.68164092 -170.60537395 318.84737467 -194.25341797 296.09106445 C-197.94152895 293.60889194 -201.0157757 293.73021276 -205.296875 293.8828125 C-206.09530319 293.89321564 -206.89373138 293.90361877 -207.71635437 293.91433716 C-210.26868783 293.94983174 -212.81938637 294.01193473 -215.37109375 294.078125 C-230.77006083 294.42128578 -245.34771208 294.07859693 -260.3125 289.88671875 C-267.18768845 288.17525648 -274.14043156 287.91906393 -281.18164062 287.59765625 C-286.85100446 287.30691964 -286.85100446 287.30691964 -289.05859375 286.203125 C-288.72859375 284.553125 -288.39859375 282.903125 -288.05859375 281.203125 C-275.01564271 280.87431111 -262.78493918 281.91734886 -250.16796875 285.51953125 C-241.25776916 287.47843191 -232.20231437 287.35762545 -223.12109375 287.328125 C-221.90357422 287.33199219 -220.68605469 287.33585937 -219.43164062 287.33984375 C-218.26826172 287.33855469 -217.10488281 287.33726562 -215.90625 287.3359375 C-214.32855835 287.33424561 -214.32855835 287.33424561 -212.71899414 287.33251953 C-209.95331323 287.31790235 -209.95331323 287.31790235 -207.05859375 286.203125 C-207.47109375 285.74164063 -207.88359375 285.28015625 -208.30859375 284.8046875 C-212.50256909 280.06774213 -216.47714938 275.20282257 -220.359375 270.20703125 C-221.90795745 268.11471143 -221.90795745 268.11471143 -224.05859375 267.203125 C-227.06865076 267.09367866 -230.05949246 267.04105242 -233.0703125 267.02734375 C-234.95183605 267.00704242 -236.83334664 266.98551074 -238.71484375 266.96289062 C-239.70097656 266.95169189 -240.68710938 266.94049316 -241.703125 266.92895508 C-257.82359364 266.72589719 -273.15602315 266.11441009 -288.94189453 262.62695312 C-293.59533536 261.6951915 -298.32258055 261.40682449 -303.05859375 261.203125 C-303.44078142 259.54697843 -303.77254477 257.87855476 -304.05859375 256.203125 C-302.46955197 254.61408322 -300.8481729 255.03526366 -298.6484375 255.01953125 C-293.13235711 255.07526899 -288.00721429 256.03396645 -282.62109375 257.140625 C-264.67385522 260.54645409 -246.27885761 260.47780234 -228.05859375 260.203125 C-228.61289063 259.09453125 -229.1671875 257.9859375 -229.73828125 256.84375 C-231.84505208 252.63020833 -233.95182292 248.41666667 -236.05859375 244.203125 C-236.42871582 243.52475586 -236.79883789 242.84638672 -237.18017578 242.14746094 C-238.05859375 240.203125 -238.05859375 240.203125 -238.05859375 237.203125 C-239.00734375 237.22632813 -239.95609375 237.24953125 -240.93359375 237.2734375 C-255.99727414 237.51652166 -271.16552168 236.51843452 -286.05859375 234.203125 C-286.05859375 232.553125 -286.05859375 230.903125 -286.05859375 229.203125 C-283.19482708 228.35291303 -280.99063648 228.14979687 -278.03125 228.5078125 C-277.2484668 228.59627441 -276.46568359 228.68473633 -275.65917969 228.77587891 C-274.82161133 228.87562012 -273.98404297 228.97536133 -273.12109375 229.078125 C-262.44749789 230.25813049 -251.78587194 230.79385133 -241.05859375 231.203125 C-241.37570313 230.0171875 -241.6928125 228.83125 -242.01953125 227.609375 C-242.92954929 223.96930286 -243.42786895 220.45375545 -243.68359375 216.703125 C-243.79574219 215.14078125 -243.79574219 215.14078125 -243.91015625 213.546875 C-243.95914063 212.7734375 -244.008125 212 -244.05859375 211.203125 C-244.81269531 211.44289063 -244.81269531 211.44289063 -245.58203125 211.6875 C-254.92931298 213.63362175 -265.26188162 212.78637288 -274.05859375 209.203125 C-274.77144531 208.91695312 -275.48429687 208.63078125 -276.21875 208.3359375 C-277.84563992 207.65671904 -279.4548294 206.93527829 -281.05859375 206.203125 C-281.05859375 205.543125 -281.05859375 204.883125 -281.05859375 204.203125 C-285.39120812 204.04838877 -289.06581899 204.07922321 -293.24609375 205.265625 C-296.82934356 206.146752 -298.60656173 206.28188501 -302.05859375 205.203125 C-302.38859375 203.883125 -302.71859375 202.563125 -303.05859375 201.203125 C-292.64195097 197.65994578 -283.50334843 195.45388612 -273.05859375 200.203125 C-272.05859375 201.203125 -271.05859375 202.203125 -270.05859375 203.203125 C-265.19688207 205.91165375 -260.13859343 205.4264473 -254.74609375 205.328125 C-249.95078125 205.26625 -249.95078125 205.26625 -245.05859375 205.203125 C-245.05859375 198.273125 -245.05859375 191.343125 -245.05859375 184.203125 C-245.71859375 184.533125 -246.37859375 184.863125 -247.05859375 185.203125 C-260.16287382 186.25215529 -260.16287382 186.25215529 -264.87109375 183.203125 C-271.34713119 179.21027403 -281.6942276 180.42842044 -288.94140625 181.71484375 C-293.40047977 182.41332018 -297.80276012 182.34760267 -302.30859375 182.328125 C-303.21867187 182.33199219 -304.12875 182.33585938 -305.06640625 182.33984375 C-306.36964844 182.33791016 -306.36964844 182.33791016 -307.69921875 182.3359375 C-308.48844727 182.33480957 -309.27767578 182.33368164 -310.09082031 182.33251953 C-312.05859375 182.203125 -312.05859375 182.203125 -314.05859375 181.203125 C-314.05859375 179.223125 -314.05859375 177.243125 -314.05859375 175.203125 C-313.40117187 175.29851562 -312.74375 175.39390625 -312.06640625 175.4921875 C-305.64272487 176.24074658 -299.74890663 176.08457932 -293.37109375 175.265625 C-287.19888828 174.49500034 -281.09350701 173.93193501 -274.87109375 173.828125 C-274.18893799 173.80242432 -273.50678223 173.77672363 -272.80395508 173.75024414 C-269.0838285 173.73507496 -266.56937036 174.28382784 -263.45703125 176.203125 C-259.82995831 178.33767827 -258.00917974 178.69589718 -253.87109375 178.578125 C-252.86691406 178.56523437 -251.86273438 178.55234375 -250.828125 178.5390625 C-248.0069689 178.19686303 -246.31819453 177.93044107 -244.05859375 176.203125 C-243.34900883 173.90542642 -243.34900883 173.90542642 -243.18359375 171.140625 C-241.53241565 158.98327828 -236.5113064 147.12631158 -231.05859375 136.203125 C-230.69378906 135.46191406 -230.32898438 134.72070312 -229.953125 133.95703125 C-219.87788095 114.66620561 -202.74810771 98.11516152 -184.05859375 87.203125 C-183.39859375 87.203125 -182.73859375 87.203125 -182.05859375 87.203125 C-181.78595703 86.24212891 -181.78595703 86.24212891 -181.5078125 85.26171875 C-180.72400328 82.56461111 -179.89679346 79.88378255 -179.05859375 77.203125 C-178.70796875 76.06875 -178.35734375 74.934375 -177.99609375 73.765625 C-174.60006336 66.17874859 -167.17519467 59.23886831 -160.05859375 55.203125 C-149.32369297 52.29931463 -138.67906155 53.2921922 -127.85546875 55.0390625 C-118.11032127 56.90698893 -118.11032127 56.90698893 -108.96875 54.3984375 C-106.92470035 52.08455851 -105.42848222 49.96219615 -104.05859375 47.203125 C-103.72859375 46.543125 -103.39859375 45.883125 -103.05859375 45.203125 C-104.82203125 45.0175 -104.82203125 45.0175 -106.62109375 44.828125 C-109.31392344 44.54466924 -111.62058006 44.03047282 -114.22460938 43.23046875 C-118.10507394 42.1906703 -121.84965698 41.67608664 -125.8359375 41.3515625 C-126.56494766 41.28780426 -127.29395782 41.22404602 -128.0450592 41.15835571 C-129.58354145 41.02566268 -131.1223261 40.89643456 -132.66137695 40.77050781 C-134.95949966 40.58114039 -137.25600438 40.37736799 -139.55273438 40.171875 C-163.10292119 37.86379977 -163.10292119 37.86379977 -184.17578125 46.99609375 C-186.05859375 48.203125 -186.05859375 48.203125 -188.05859375 48.203125 C-188.34734375 48.986875 -188.63609375 49.770625 -188.93359375 50.578125 C-190.05859375 53.203125 -190.05859375 53.203125 -192.05859375 55.203125 C-192.84321639 57.91207763 -193.54413656 60.58556417 -194.18359375 63.328125 C-194.36535156 64.08222656 -194.54710937 64.83632812 -194.734375 65.61328125 C-195.18214084 67.47504446 -195.62120097 69.33889753 -196.05859375 71.203125 C-197.71474032 71.58531267 -199.38316399 71.91707602 -201.05859375 72.203125 C-201.38859375 71.873125 -201.71859375 71.543125 -202.05859375 71.203125 C-201.57148578 63.5311745 -200.38576411 55.69388054 -196.05859375 49.203125 C-195.39859375 49.203125 -194.73859375 49.203125 -194.05859375 49.203125 C-193.97480469 48.61402344 -193.89101562 48.02492187 -193.8046875 47.41796875 C-191.83681279 41.57616267 -183.99259029 38.00950252 -178.80859375 35.328125 C-166.87633951 29.43998647 -151.31075082 32.19531838 -138.42504883 33.26513672 C-136.12732082 33.45261691 -133.82866584 33.61918455 -131.52929688 33.78515625 C-122.5711939 34.48659002 -114.25108791 35.9133851 -105.60717773 38.38964844 C-101.11660267 39.41906682 -96.85825489 40.31156681 -92.80078125 37.8125 C-92.18460938 37.19890625 -91.5684375 36.5853125 -90.93359375 35.953125 C-90.26714844 35.31761719 -89.60070312 34.68210938 -88.9140625 34.02734375 C-88.30175781 33.42535156 -87.68945312 32.82335937 -87.05859375 32.203125 C-82.44320913 28.203125 -82.44320913 28.203125 -79.05859375 28.203125 C-79.05859375 27.543125 -79.05859375 26.883125 -79.05859375 26.203125 C-75.93278129 23.89370121 -72.44304083 22.10478215 -69.05859375 20.203125 C-67.93453125 19.55601563 -66.81046875 18.90890625 -65.65234375 18.2421875 C-46.00923635 7.15974965 -22.61926996 0.13874735 0 0 Z M-129.24609375 63.203125 C-134.96999724 64.25695843 -140.39763573 64.21096996 -146.18359375 64.078125 C-154.40149074 63.95567415 -161.52351892 64.07945991 -167.91015625 69.88671875 C-171.2453723 73.56177909 -174.05859375 77.10493806 -174.05859375 82.203125 C-173.52492187 82.02136719 -172.99125 81.83960938 -172.44140625 81.65234375 C-157.50822293 76.61433208 -142.41143213 71.99805617 -126.59155273 71.15014648 C-122.89500426 70.85411899 -121.29305334 70.42798467 -118.578125 67.82421875 C-116.80782154 65.27550976 -116.80782154 65.27550976 -117.05859375 62.203125 C-121.32494457 62.00919996 -125.05726405 62.35941746 -129.24609375 63.203125 Z " fill="#E5E2DE" transform="translate(314.05859375,63.796875)"/>
<path d="M0 0 C2.29772801 0.18748019 4.59638299 0.35404783 6.89575195 0.52001953 C17.05434869 1.31485993 26.56760098 3.15573163 36.36645508 5.93798828 C36.36645508 6.59798828 36.36645508 7.25798828 36.36645508 7.93798828 C37.21240234 7.95986206 37.21240234 7.95986206 38.07543945 7.98217773 C40.67307454 8.05743682 43.26953151 8.15383312 45.86645508 8.25048828 C47.19676758 8.28432617 47.19676758 8.28432617 48.55395508 8.31884766 C55.23619699 8.58908538 60.35233996 9.93093072 66.36645508 12.93798828 C66.36645508 13.59798828 66.36645508 14.25798828 66.36645508 14.93798828 C66.92333008 15.18548828 67.48020508 15.43298828 68.05395508 15.68798828 C73.54406467 18.65561509 75.52249286 21.01096686 77.36645508 26.93798828 C78.35645508 27.26798828 79.34645508 27.59798828 80.36645508 27.93798828 C83.0656419 31.62912626 84.2051379 35.3616771 85.36645508 39.75048828 C86.43912116 43.69181691 87.51208527 47.52976627 89.05395508 51.31298828 C93.88494275 64.65571614 94.25011222 85.76153611 88.49145508 98.75048828 C87.46703098 100.82160657 86.42718552 102.88522755 85.36645508 104.93798828 C84.66480866 106.92598646 83.98686574 108.92315949 83.36645508 110.93798828 C82.70645508 110.93798828 82.04645508 110.93798828 81.36645508 110.93798828 C81.24141602 111.66115234 81.11637695 112.38431641 80.98754883 113.12939453 C80.37785488 115.88643823 79.49465254 118.26553489 78.42895508 120.87548828 C75.9727338 127.41350274 75.13334471 134.02589094 74.36645508 140.93798828 C73.70645508 140.93798828 73.04645508 140.93798828 72.36645508 140.93798828 C72.02614258 142.02080078 72.02614258 142.02080078 71.67895508 143.12548828 C68.42297357 150.10259152 60.82284329 155.10534729 54.36645508 158.93798828 C51.01879883 159.67236328 51.01879883 159.67236328 48.36645508 159.93798828 C48.36645508 160.59798828 48.36645508 161.25798828 48.36645508 161.93798828 C23.96502098 174.04832965 -8.70411238 171.23904406 -35.34436035 171.07531738 C-39.1132576 171.05444908 -42.88218406 171.0456383 -46.65112305 171.03564453 C-53.97867344 171.01452207 -61.30608464 170.98062549 -68.63354492 170.93798828 C-68.30354492 169.28798828 -67.97354492 167.63798828 -67.63354492 165.93798828 C-66.58596008 165.92252708 -66.58596008 165.92252708 -65.51721191 165.90675354 C-58.81407407 165.80724471 -52.11099077 165.70456677 -45.40795135 165.59864902 C-41.96494246 165.5443477 -38.52192517 165.49111713 -35.07885742 165.44067383 C-21.41918604 165.23976491 -7.76453707 165.0101794 5.88598633 164.45361328 C6.84899658 164.41494644 7.81200684 164.3762796 8.80419922 164.33644104 C25.33279094 163.60583556 43.56868057 160.88378239 56.24145508 149.31298828 C57.29333008 148.13736328 57.29333008 148.13736328 58.36645508 146.93798828 C59.27395508 146.21611328 60.18145508 145.49423828 61.11645508 144.75048828 C63.44132895 143.13489751 63.44132895 143.13489751 64.36645508 140.93798828 C65.02645508 140.93798828 65.68645508 140.93798828 66.36645508 140.93798828 C67.04207255 139.27492988 67.70578789 137.60704223 68.36645508 135.93798828 C68.86145508 134.72111328 69.35645508 133.50423828 69.86645508 132.25048828 C71.02364694 129.19710578 71.705895 126.28140122 72.24145508 123.06298828 C73.09241356 118.46641748 74.74169377 114.88839447 76.93286133 110.78564453 C78.67552141 107.32406633 80.12591256 103.78846908 81.55395508 100.18798828 C81.92858887 99.24886597 81.92858887 99.24886597 82.31079102 98.29077148 C83.01125336 96.51243845 83.68925855 94.7253105 84.36645508 92.93798828 C84.74930664 91.99697266 85.1321582 91.05595703 85.52661133 90.08642578 C86.6723423 85.79126688 86.66473531 81.73895412 86.61645508 77.31298828 C86.60630371 75.9756665 86.60630371 75.9756665 86.59594727 74.61132812 C86.49094749 67.88767997 85.94638729 61.49111619 84.36645508 54.93798828 C83.96426758 53.24802734 83.96426758 53.24802734 83.55395508 51.52392578 C81.43424168 43.41602204 78.35005754 36.29058025 74.36645508 28.93798828 C73.69445335 27.60733585 73.02557827 26.27506675 72.36645508 24.93798828 C71.70645508 24.93798828 71.04645508 24.93798828 70.36645508 24.93798828 C67.74145508 22.56298828 67.74145508 22.56298828 65.36645508 19.93798828 C65.36645508 19.27798828 65.36645508 18.61798828 65.36645508 17.93798828 C64.68583008 17.81423828 64.00520508 17.69048828 63.30395508 17.56298828 C60.36645508 16.93798828 60.36645508 16.93798828 57.42895508 15.93798828 C51.6147332 14.19891299 45.38807033 14.25535497 39.36645508 13.93798828 C38.91657227 14.71916016 38.46668945 15.50033203 38.00317383 16.30517578 C36.36645508 18.93798828 36.36645508 18.93798828 34.17895508 21.06298828 C32.01894403 22.86284401 32.01894403 22.86284401 32.36645508 25.93798828 C34.09895508 26.27830078 34.09895508 26.27830078 35.86645508 26.62548828 C43.01987003 28.42652538 48.01077514 32.02670836 52.36645508 37.93798828 C53.10895508 38.49486328 53.85145508 39.05173828 54.61645508 39.62548828 C55.19395508 40.05861328 55.77145508 40.49173828 56.36645508 40.93798828 C56.36645508 41.59798828 56.36645508 42.25798828 56.36645508 42.93798828 C57.29458008 43.30923828 57.29458008 43.30923828 58.24145508 43.68798828 C62.74475599 46.33698882 63.63608936 52.2382887 64.9309082 57.02441406 C65.52190161 59.34381277 66.07727104 61.66851732 66.61645508 64.00048828 C66.79176758 64.74363281 66.96708008 65.48677734 67.14770508 66.25244141 C68.30834177 71.57358623 68.51754325 76.49341793 68.36645508 81.93798828 C67.04645508 81.93798828 65.72645508 81.93798828 64.36645508 81.93798828 C62.52682004 75.92851381 61.16674955 70.05257227 60.36645508 63.81298828 C59.24805293 53.8286036 59.24805293 53.8286036 53.99145508 45.68798828 C53.12520508 45.11048828 52.25895508 44.53298828 51.36645508 43.93798828 C50.60333008 43.13361328 49.84020508 42.32923828 49.05395508 41.50048828 C42.2632176 35.02559906 34.17288029 31.23832062 24.74145508 30.75048828 C23.56583008 30.84330078 23.56583008 30.84330078 22.36645508 30.93798828 C22.36645508 30.27798828 22.36645508 29.61798828 22.36645508 28.93798828 C21.15473633 29.15455078 19.94301758 29.37111328 18.69458008 29.59423828 C9.63400159 31.12714582 0.94156506 32.14523342 -8.25854492 31.93798828 C-18.30477425 31.61513677 -18.30477425 31.61513677 -27.63354492 34.93798828 C-27.96354492 35.92798828 -28.29354492 36.91798828 -28.63354492 37.93798828 C-29.25229492 38.51548828 -29.87104492 39.09298828 -30.50854492 39.68798828 C-33.23325318 42.57297349 -34.21407828 45.24737502 -35.63354492 48.93798828 C-33.98354492 48.27798828 -32.33354492 47.61798828 -30.63354492 46.93798828 C-30.63354492 47.92798828 -30.63354492 48.91798828 -30.63354492 49.93798828 C-32.61354492 50.59798828 -34.59354492 51.25798828 -36.63354492 51.93798828 C-36.96354492 55.56798828 -37.29354492 59.19798828 -37.63354492 62.93798828 C-36.31354492 63.26798828 -34.99354492 63.59798828 -33.63354492 63.93798828 C-33.63354492 64.59798828 -33.63354492 65.25798828 -33.63354492 65.93798828 C-31.32354492 66.26798828 -29.01354492 66.59798828 -26.63354492 66.93798828 C-26.30354492 68.25798828 -25.97354492 69.57798828 -25.63354492 70.93798828 C-30.04192064 72.31868761 -33.36847451 71.48645334 -37.63354492 69.93798828 C-39.63354492 68.50048828 -39.63354492 68.50048828 -40.63354492 66.93798828 C-40.63354492 65.94798828 -40.63354492 64.95798828 -40.63354492 63.93798828 C-41.29354492 63.93798828 -41.95354492 63.93798828 -42.63354492 63.93798828 C-43.213807 51.99426042 -42.88016993 42.50999764 -34.7109375 33.10083008 C-26.51715523 24.07238113 -19.85258911 20.75345415 -7.63354492 19.93798828 C-1.49565761 20.00844872 4.51825446 20.79727402 10.56958008 21.77392578 C20.31472756 23.64185221 20.31472756 23.64185221 29.45629883 21.13330078 C31.50034848 18.81942179 32.9965666 16.69705943 34.36645508 13.93798828 C34.69645508 13.27798828 35.02645508 12.61798828 35.36645508 11.93798828 C34.19083008 11.81423828 33.01520508 11.69048828 31.80395508 11.56298828 C29.11112538 11.27953252 26.80446877 10.7653361 24.20043945 9.96533203 C20.31997489 8.92553358 16.57539184 8.41094992 12.58911133 8.08642578 C11.86010117 8.02266754 11.131091 7.9589093 10.37998962 7.89321899 C8.84150738 7.76052596 7.30272272 7.63129784 5.76367188 7.50537109 C3.46554917 7.31600367 1.16904444 7.11223128 -1.12768555 6.90673828 C-24.67787236 4.59866305 -24.67787236 4.59866305 -45.75073242 13.73095703 C-47.63354492 14.93798828 -47.63354492 14.93798828 -49.63354492 14.93798828 C-49.92229492 15.72173828 -50.21104492 16.50548828 -50.50854492 17.31298828 C-51.63354492 19.93798828 -51.63354492 19.93798828 -53.63354492 21.93798828 C-54.41816757 24.64694091 -55.11908773 27.32042745 -55.75854492 30.06298828 C-55.94030273 30.81708984 -56.12206055 31.57119141 -56.30932617 32.34814453 C-56.75709201 34.20990774 -57.19615214 36.07376081 -57.63354492 37.93798828 C-59.2896915 38.32017595 -60.95811517 38.6519393 -62.63354492 38.93798828 C-62.96354492 38.60798828 -63.29354492 38.27798828 -63.63354492 37.93798828 C-63.14643695 30.26603778 -61.96071528 22.42874382 -57.63354492 15.93798828 C-56.97354492 15.93798828 -56.31354492 15.93798828 -55.63354492 15.93798828 C-55.54975586 15.34888672 -55.4659668 14.75978516 -55.37963867 14.15283203 C-53.41176396 8.31102595 -45.56754147 4.7443658 -40.38354492 2.06298828 C-28.45129068 -3.82515025 -12.88570199 -1.06981834 0 0 Z " fill="#FAFBFA" transform="translate(175.633544921875,97.06201171875)"/>
<path d="M0 0 C1.19157715 0.00700928 1.19157715 0.00700928 2.40722656 0.01416016 C16.07374305 0.33361693 30.57030217 2.29729583 43.625 6.4375 C43.625 7.0975 43.625 7.7575 43.625 8.4375 C44.73875 8.52 45.8525 8.6025 47 8.6875 C58.2950938 10.14428772 67.03545276 16.23258406 74.625 24.4375 C75.49125 25.324375 76.3575 26.21125 77.25 27.125 C79.96113818 30.40201438 80.79820899 33.91460887 81.87890625 37.96875 C83.11246096 42.05045982 84.9942343 45.83132982 88.06567383 48.85644531 C94.77005836 55.65425246 97.21250676 64.68475599 99.4375 73.6875 C99.73591797 74.8321875 100.03433594 75.976875 100.34179688 77.15625 C105.8155924 98.40890984 105.37057037 117.78606975 94.17578125 137.109375 C92.29166281 139.9379256 90.15616609 142.39818581 87.86328125 144.8984375 C86.03787216 147.16724249 85.47115774 149.67338473 84.625 152.4375 C80.33887443 161.27652244 74.06219025 165.37000893 65.3125 169.375 C59.8972062 171.96110664 58.74315096 173.78909744 56.625 179.4375 C45.40322741 190.71195697 26.57545504 188.85310442 11.99752808 188.91940308 C-19.01166959 188.88335441 -19.01166959 188.88335441 -49.70411682 192.92079163 C-57.06038273 194.40809627 -64.15126918 194.76242491 -71.64453125 194.81640625 C-72.883134 194.83340073 -74.12173676 194.8503952 -75.39787292 194.86790466 C-79.32769774 194.92062358 -83.25751613 194.96110362 -87.1875 195 C-91.10671728 195.04426991 -95.02586321 195.09128961 -98.94499207 195.14280701 C-101.37259998 195.17416763 -103.80026907 195.20122767 -106.22798157 195.22303772 C-113.22269985 195.30693789 -120.15295106 195.64913019 -127.1254425 196.21786499 C-132.66527688 196.59229799 -138.2002872 196.54325316 -143.75 196.5 C-144.87921875 196.49548828 -146.0084375 196.49097656 -147.171875 196.48632812 C-149.90631014 196.47474154 -152.64062328 196.45843457 -155.375 196.4375 C-155.375 195.1175 -155.375 193.7975 -155.375 192.4375 C-131.52602735 190.94435827 -107.71077477 190.12294171 -83.81713867 189.77954102 C-65.21519211 190.29652817 -65.21519211 190.29652817 -47.375 186.4375 C-45.26611328 186.13452148 -45.26611328 186.13452148 -43.1953125 186.05859375 C-42.43089844 186.02443359 -41.66648437 185.99027344 -40.87890625 185.95507812 C-40.09386719 185.92865234 -39.30882812 185.90222656 -38.5 185.875 C-36.93998414 185.81420336 -35.38008081 185.75044096 -33.8203125 185.68359375 C-33.13469238 185.65966553 -32.44907227 185.6357373 -31.74267578 185.61108398 C-29.23544875 185.46062596 -29.23544875 185.46062596 -26.22387695 184.9375 C-21.58030221 184.33426238 -17.02483541 184.24557965 -12.34765625 184.19140625 C-10.40168806 184.15847666 -8.45572463 184.12526487 -6.50976562 184.09179688 C-3.47081652 184.04441686 -0.43188791 183.99992755 2.60717773 183.96069336 C5.55992567 183.92077521 8.51230353 183.86929613 11.46484375 183.81640625 C12.81363869 183.80378502 12.81363869 183.80378502 14.18968201 183.79090881 C19.65916212 183.68478606 24.36391922 182.94386568 29.625 181.4375 C30.94496659 181.12065817 32.26643952 180.80997435 33.58984375 180.5078125 C44.61958138 178.2457873 44.61958138 178.2457873 54.625 173.4375 C56.40879415 170.45397106 56.40879415 170.45397106 57.625 167.4375 C59.9365946 165.68629197 62.32030932 164.57354082 64.9609375 163.39453125 C73.09457995 159.62081426 77.50310211 155.78325013 80.6875 147.3125 C81.00074219 146.45140625 81.31398438 145.5903125 81.63671875 144.703125 C82.98984659 141.6010928 85.2402401 139.8222599 87.625 137.4375 C89.90031289 133.55712142 91.83661577 129.56313319 93.625 125.4375 C93.97280518 124.64182617 94.32061035 123.84615234 94.67895508 123.02636719 C97.56256995 115.89676931 98.29149655 109.59187592 98.1875 101.9375 C98.17432739 100.24052979 98.17432739 100.24052979 98.16088867 98.50927734 C97.91544612 88.26440399 96.02481379 79.06870732 92.625 69.4375 C92.24085938 68.31214844 91.85671875 67.18679687 91.4609375 66.02734375 C88.9714103 59.46481457 85.46839976 53.93728784 81.48046875 48.18359375 C78.67076233 44.02522825 76.57678747 39.70743758 74.640625 35.08984375 C72.788893 30.70978537 71.23824234 27.66360923 67.625 24.4375 C67.625 23.7775 67.625 23.1175 67.625 22.4375 C67.03162842 22.32196777 66.43825684 22.20643555 65.8269043 22.08740234 C63.49373162 21.39875552 62.26772681 20.5594448 60.39453125 19.0390625 C56.5822639 16.21463433 52.86678664 14.99183137 48.3125 13.8125 C46.79673053 13.39766295 45.2811044 12.98230174 43.765625 12.56640625 C43.04568359 12.37320801 42.32574219 12.18000977 41.58398438 11.98095703 C39.21283561 11.32315828 36.89293602 10.53870199 34.5625 9.75 C24.56947087 6.78910248 14.05016384 6.26406386 3.6875 6.1875 C2.91929932 6.17823486 2.15109863 6.16896973 1.35961914 6.15942383 C-10.500209 6.22470729 -18.68712263 9.69899182 -27.1875 18 C-36.89006217 28.23787595 -41.69378819 39.63634561 -45.39453125 53.078125 C-46.15928241 55.69838795 -47.00153896 58.12009686 -48.0625 60.625 C-52.03878292 70.80341988 -52.10113001 86.17631121 -48.375 96.4375 C-46.00347843 101.13864347 -43.16566686 104.78722821 -39.375 108.4375 C-39.375 109.0975 -39.375 109.7575 -39.375 110.4375 C-38.715 110.4375 -38.055 110.4375 -37.375 110.4375 C-37.375 111.0975 -37.375 111.7575 -37.375 112.4375 C-31.21515532 115.55923124 -24.98513404 118.4036126 -18.375 120.4375 C-18.375 121.7575 -18.375 123.0775 -18.375 124.4375 C-27.38006272 124.76273929 -34.68710125 121.37643231 -41.375 115.4375 C-51.9018495 104.40001974 -56.80248858 94.28340078 -56.74121094 78.99462891 C-56.54282423 71.92041101 -55.19622121 65.27792015 -53.375 58.4375 C-52.715 58.4375 -52.055 58.4375 -51.375 58.4375 C-51.27703125 57.86644531 -51.1790625 57.29539063 -51.078125 56.70703125 C-49.23903725 46.73473647 -46.84300918 37.05375689 -41.375 28.4375 C-40.44976545 26.79646795 -39.53337347 25.15042503 -38.625 23.5 C-38.19703125 22.72785156 -37.7690625 21.95570313 -37.328125 21.16015625 C-37.01359375 20.59167969 -36.6990625 20.02320313 -36.375 19.4375 C-35.715 19.4375 -35.055 19.4375 -34.375 19.4375 C-34.00375 18.56351563 -34.00375 18.56351563 -33.625 17.671875 C-32.18974554 15.10635764 -30.59836987 13.60025202 -28.375 11.6875 C-27.323125 10.76710937 -27.323125 10.76710937 -26.25 9.828125 C-24.375 8.4375 -24.375 8.4375 -22.375 8.4375 C-22.375 7.7775 -22.375 7.1175 -22.375 6.4375 C-14.89996804 2.51310822 -8.4957042 -0.11320183 0 0 Z " fill="#FCFBF9" transform="translate(322.375,159.5625)"/>
<path d="M0 0 C0.66 0.33 1.32 0.66 2 1 C1.71875 2.87890625 1.71875 2.87890625 1 5 C-0.53125 6.08984375 -0.53125 6.08984375 -2.5 6.9375 C-5.54325414 8.323751 -8.46812774 9.78234142 -11.375 11.4375 C-12.91642633 12.29210031 -14.45809626 13.14626135 -16 14 C-16.74765625 14.42539062 -17.4953125 14.85078125 -18.265625 15.2890625 C-24.59753096 18.70661439 -30.92997764 20.49487353 -37.875 22.203125 C-40.88036708 22.85170867 -40.88036708 22.85170867 -43 24 C-44.83400916 24.21145539 -46.66872676 24.41835484 -48.50634766 24.59570312 C-54.78854032 25.2027311 -60.60105811 26.01902155 -66.625 28 C-75.53058442 30.77912089 -84.70884614 31.16788804 -93.97558594 31.76635742 C-95.71756365 31.900929 -97.45881722 32.05043016 -99.19552612 32.24131775 C-105.37056579 32.91993983 -111.45406506 33.16002681 -117.6640625 33.16796875 C-119.17495453 33.174049 -119.17495453 33.174049 -120.71636963 33.18025208 C-124.01927856 33.18974573 -127.32207912 33.18963118 -130.625 33.1875 C-132.3611557 33.18858765 -132.3611557 33.18858765 -134.13238525 33.18969727 C-149.74550891 33.1886299 -165.28504231 32.8100395 -180.875 32 C-203.04584183 30.85354301 -225.18915462 30.87584643 -247.38289261 30.93052673 C-252.13082794 30.94207448 -256.8787683 30.95093644 -261.62670898 30.95996094 C-263.01453787 30.96261113 -263.01453787 30.96261113 -264.43040371 30.96531487 C-267.18927932 30.97050642 -269.94815518 30.97552626 -272.70703125 30.98046875 C-274.05434861 30.9829405 -274.05434861 30.9829405 -275.42888451 30.98546219 C-336.75204505 31.09220171 -336.75204505 31.09220171 -357.88330078 26.42382812 C-362.53674161 25.4920665 -367.2639868 25.20369949 -372 25 C-372.38218767 23.34385343 -372.71395102 21.67542976 -373 20 C-371.41095822 18.41095822 -369.78957915 18.83213866 -367.58984375 18.81640625 C-362.07408881 18.8721407 -356.94816386 19.8294745 -351.5625 20.9375 C-339.30045871 23.29103727 -327.14157647 23.7125837 -314.68115234 23.8581543 C-312 24 -312 24 -309.77837467 24.50243568 C-306.42729576 25.10256255 -303.27017468 25.11447759 -299.86485291 25.10287476 C-299.16854503 25.10187594 -298.47223716 25.10087712 -297.75482905 25.09984803 C-295.46012773 25.09532946 -293.16552396 25.08360497 -290.87084961 25.07177734 C-289.2476688 25.06702279 -287.6244867 25.0626931 -286.00130367 25.05876732 C-281.81068069 25.04737106 -277.62010696 25.02988718 -273.42951345 25.01065731 C-270.40900313 24.99740753 -267.38848814 24.98743974 -264.36796445 24.97781456 C-246.78919661 24.92160155 -229.21059695 24.81788882 -211.63206577 24.71247292 C-202.38195763 24.65714023 -193.13185936 24.60805204 -183.88167721 24.56685698 C-177.27426434 24.53688858 -170.66691525 24.49962616 -164.05957073 24.45720994 C-160.15431199 24.43233826 -156.24909735 24.41044192 -152.34378242 24.39665604 C-136.49026423 24.33845801 -120.81699186 24.00238644 -105.04697609 22.2143364 C-100.35751326 21.7233084 -95.65180088 21.5799758 -90.94140625 21.4375 C-88.88606647 21.36201293 -86.83072796 21.28649113 -84.77539062 21.2109375 C-81.65379369 21.10369487 -78.53212407 20.99899304 -75.41040039 20.89550781 C-52.87526335 20.13405936 -52.87526335 20.13405936 -31 15 C-30.23042969 14.78601563 -29.46085937 14.57203125 -28.66796875 14.3515625 C-24.57057659 13.16492423 -21.56315212 11.83513071 -18.25 9.125 C-13.84639301 5.54316145 -8.96812825 3.86354952 -3.66015625 1.98046875 C-1.11296037 1.25260524 -1.11296037 1.25260524 0 0 Z " fill="#FCFDFC" transform="translate(383,300)"/>
<path d="M0 0 C0.99 0 1.98 0 3 0 C4.82366161 4.82130538 2.55979311 8.29052566 0.59375 12.7578125 C-2.88737482 19.83951251 -6.87498457 26.89582048 -13 32 C-13.99 32.33 -14.98 32.66 -16 33 C-16 33.66 -16 34.32 -16 35 C-27.619646 43.29718153 -38.2759659 48.14741686 -52.58984375 48.16796875 C-53.41142471 48.17129715 -54.23300568 48.17462555 -55.07948303 48.17805481 C-56.81673629 48.18310213 -58.55399918 48.18546382 -60.29125977 48.18530273 C-62.8981209 48.1874673 -65.50454294 48.20558535 -68.11132812 48.22460938 C-77.12419313 48.2543525 -85.78041352 47.8918721 -94.69775391 46.47973633 C-98.27837557 45.95955878 -101.82610833 45.70510438 -105.4375 45.5 C-109.22063315 45.26594789 -112.72253314 44.95563404 -116.375 43.9375 C-120.9135011 42.76374972 -125.30716513 42.2855814 -129.92236328 43.51000977 C-132.35265728 44.08317076 -134.49663294 44.07932476 -136.9921875 44.02734375 C-138.42111328 44.00897461 -138.42111328 44.00897461 -139.87890625 43.99023438 C-141.86856484 43.95521431 -143.85815707 43.91618319 -145.84765625 43.87304688 C-150.94917213 43.81452746 -155.26952564 43.81728916 -160 46 C-160.99 46.99 -160.99 46.99 -162 48 C-163.485 47.505 -163.485 47.505 -165 47 C-165 47.66 -165 48.32 -165 49 C-178.68897681 49.69213928 -178.68897681 49.69213928 -182.8125 47 C-189.28853744 43.00714903 -199.63563385 44.22529544 -206.8828125 45.51171875 C-211.34188602 46.21019518 -215.74416637 46.14447767 -220.25 46.125 C-221.16007813 46.12886719 -222.07015625 46.13273437 -223.0078125 46.13671875 C-224.31105469 46.13478516 -224.31105469 46.13478516 -225.640625 46.1328125 C-226.42985352 46.13168457 -227.21908203 46.13055664 -228.03222656 46.12939453 C-230 46 -230 46 -232 45 C-232 43.02 -232 41.04 -232 39 C-231.01386719 39.14308594 -231.01386719 39.14308594 -230.0078125 39.2890625 C-223.58413112 40.03762158 -217.69031288 39.88145432 -211.3125 39.0625 C-205.14029453 38.29187534 -199.03491326 37.72881001 -192.8125 37.625 C-192.13034424 37.59929932 -191.44818848 37.57359863 -190.74536133 37.54711914 C-187.02526504 37.53195008 -184.49565017 38.08476838 -181.375 39.9921875 C-176.25325767 43.03914995 -171.79805877 42.75241984 -166 42 C-161.61467901 40.70019572 -157.59617314 38.81195538 -153.52734375 36.7421875 C-150.25569084 35.78142389 -149.06527 36.64438667 -146 38 C-142.97684925 38.27709419 -142.97684925 38.27709419 -139.875 38.1875 C-138.84117187 38.18105469 -137.80734375 38.17460937 -136.7421875 38.16796875 C-133.90833023 38.11257378 -133.90833023 38.11257378 -131 37 C-128.19777747 36.89970993 -125.42690777 36.85920825 -122.625 36.875 C-121.78066406 36.87693359 -120.93632813 36.87886719 -120.06640625 36.88085938 C-114.03177808 36.92085323 -108.02467957 37.16797218 -102 37.5 C-90.62381143 38.10503764 -79.27243393 38.16924058 -67.88232422 38.04150391 C-65.12851298 38.01206434 -62.37545335 37.9905966 -59.62158203 37.97802734 C-55.79236965 37.95833579 -51.96429051 37.91037504 -48.1355896 37.84539795 C-46.6459607 37.82371965 -45.15619038 37.81005666 -43.66641235 37.80499268 C-35.16199798 37.76721827 -27.90292985 37.50315258 -21 32 C-20.47003418 31.45061768 -19.94006836 30.90123535 -19.39404297 30.33520508 C-18 29 -18 29 -16 29 C-15.75121094 28.43925781 -15.50242188 27.87851563 -15.24609375 27.30078125 C-13.79592903 24.62320438 -12.02809646 22.51180867 -10.0625 20.1875 C-6.80157116 16.16725741 -4.71023256 12.86066097 -3 8 C-2.43946657 6.52008698 -1.87694298 5.04092633 -1.3125 3.5625 C-0.879375 2.386875 -0.44625 1.21125 0 0 Z " fill="#FCFCFB" transform="translate(232,200)"/>
<path d="M0 0 C10.42312408 -0.35332624 18.13852596 4.14554433 27 9 C27.99 9.495 27.99 9.495 29 10 C29 10.66 29 11.32 29 12 C29.66 12 30.32 12 31 12 C33.90319738 15.13678797 36.41165704 18.60192226 39 22 C39.64066406 22.79148438 40.28132812 23.58296875 40.94140625 24.3984375 C50.70493996 37.09314008 50.55315636 50.72673841 50 66 C49.01 66.495 49.01 66.495 48 67 C46.50620884 71.41045685 46.50620884 71.41045685 46 76 C45.01 76.33 44.02 76.66 43 77 C43 76.34 43 75.68 43 75 C42.43152344 75.25394531 41.86304688 75.50789063 41.27734375 75.76953125 C40.50519531 76.11371094 39.73304688 76.45789063 38.9375 76.8125 C37.80634766 77.31716797 37.80634766 77.31716797 36.65234375 77.83203125 C35.77707031 78.21746094 34.90179688 78.60289062 34 79 C32.94296875 79.50015625 31.8859375 80.0003125 30.796875 80.515625 C26.42387433 82.36769875 21.98288136 83.17239615 17.3125 83.9375 C16.31863281 84.1022583 15.32476562 84.2670166 14.30078125 84.43676758 C-14.17693873 88.83442951 -43.68061108 91.18841113 -72.48925781 91.18530273 C-74.73522027 91.18748564 -76.98068619 91.20573852 -79.2265625 91.22460938 C-87.14394657 91.25407081 -94.88123744 90.88623905 -102.75 89.99609375 C-113.5961472 88.77924282 -124.34808713 88.77412685 -135.25 88.875 C-137.18228692 88.88507076 -139.11457904 88.89418923 -141.046875 88.90234375 C-145.69804966 88.92398494 -150.34896394 88.95827804 -155 89 C-155 87.35 -155 85.7 -155 84 C-133.42925047 83.80002871 -111.92111199 83.62110755 -90.40063477 85.28857422 C-71.09974744 86.73992437 -52.16120233 85.79642086 -32.89892578 84.08349609 C-29.13810768 83.75115831 -25.37597847 83.439156 -21.61328125 83.12890625 C-10.08812357 82.14690913 1.35275079 80.97001925 12.7578125 79.015625 C13.66723602 78.86075623 14.57665955 78.70588745 15.51364136 78.54632568 C21.20664889 77.50622809 26.55851842 75.9586077 32 74 C33.35738281 73.54367187 33.35738281 73.54367187 34.7421875 73.078125 C38.79574031 71.50421805 40.64077104 70.55517203 43.0625 66.8125 C44.85660175 59.51648623 44.70996438 54.64701951 41 48 C41 46.68 41 45.36 41 44 C40.34 44 39.68 44 39 44 C38.731875 43.17757812 38.46375 42.35515625 38.1875 41.5078125 C35.31401908 33.32217277 31.67814351 27.49288816 26 21 C23.8480563 17.77208445 23.79913557 16.71599191 24 13 C22.6696875 12.62875 22.6696875 12.62875 21.3125 12.25 C18 11 18 11 15.75 9 C12.18113544 6.11144484 12.18113544 6.11144484 3 5 C2.67 12.26 2.34 19.52 2 27 C0.68 26.67 -0.64 26.34 -2 26 C-2.29211698 17.13911833 -1.44796872 8.73952546 0 0 Z " fill="#FCFBFA" transform="translate(325,210)"/>
<path d="M0 0 C0.93199219 0.01345459 1.86398437 0.02690918 2.82421875 0.04077148 C5.61407409 0.100247 8.39949215 0.19571949 11.1875 0.3125 C11.95755371 0.3444043 12.72760742 0.37630859 13.52099609 0.40917969 C26.76068798 1.11377098 37.76267146 5.88767146 47.1875 15.3125 C47.1875 15.9725 47.1875 16.6325 47.1875 17.3125 C47.8475 17.3125 48.5075 17.3125 49.1875 17.3125 C50.66436988 19.39138712 52.00145738 21.44533374 53.3125 23.625 C53.68503906 24.21990234 54.05757813 24.81480469 54.44140625 25.42773438 C57.1875 29.92911516 57.1875 29.92911516 57.1875 33.3125 C57.8475 33.3125 58.5075 33.3125 59.1875 33.3125 C59.1875 33.9725 59.1875 34.6325 59.1875 35.3125 C60.6725 35.8075 60.6725 35.8075 62.1875 36.3125 C62.5175 37.3025 62.8475 38.2925 63.1875 39.3125 C63.95707031 39.96605469 64.72664063 40.61960938 65.51953125 41.29296875 C69.50871772 45.13010425 70.43647012 50.44432632 71.875 55.625 C72.16955078 56.63240234 72.46410156 57.63980469 72.76757812 58.67773438 C73.60010588 61.54948741 74.40030755 64.42803161 75.1875 67.3125 C75.40083984 68.07224121 75.61417969 68.83198242 75.83398438 69.61474609 C76.90589775 73.59654444 77.41548866 77.19295341 77.3125 81.3125 C77.29445313 82.26125 77.27640625 83.21 77.2578125 84.1875 C77.23460937 84.88875 77.21140625 85.59 77.1875 86.3125 C75.5375 85.9825 73.8875 85.6525 72.1875 85.3125 C72.15011719 84.56226563 72.11273438 83.81203125 72.07421875 83.0390625 C71.6870439 77.01128149 70.91167843 71.62070691 69.0078125 65.890625 C68.0801976 62.97526387 67.3844479 60.04103522 66.6875 57.0625 C65.65091535 52.79550076 64.32215972 49.1752176 62.1875 45.3125 C62.1875 44.6525 62.1875 43.9925 62.1875 43.3125 C61.58679688 43.065 60.98609375 42.8175 60.3671875 42.5625 C57.82039108 41.10197159 56.87331044 39.78157866 55.3125 37.3125 C54.80203125 36.51199219 54.2915625 35.71148437 53.765625 34.88671875 C52.18435033 32.30736229 50.61736171 29.72036261 49.0625 27.125 C48.55847656 26.29097656 48.05445313 25.45695312 47.53515625 24.59765625 C46.46623795 22.78514261 45.46966221 20.92999758 44.5 19.0625 C40.88825753 14.7674549 36.19142029 12.71154263 31.1875 10.3125 C30.49527344 9.97992188 29.80304688 9.64734375 29.08984375 9.3046875 C22.32800966 6.24328569 16.03990208 6.13003794 8.75 6.125 C7.3568457 6.10663086 7.3568457 6.10663086 5.93554688 6.08789062 C-0.32065826 6.07453218 -5.3727027 6.28925346 -10.375 10.4375 C-13.27125501 13.85359565 -15.60766166 17.42115374 -17.8125 21.3125 C-18.15796875 21.87324219 -18.5034375 22.43398437 -18.859375 23.01171875 C-20.33518907 26.57423715 -20.78874113 30.26577586 -21.375 34.0625 C-21.50068359 34.8359375 -21.62636719 35.609375 -21.75585938 36.40625 C-25.52223929 54.9886329 -25.52223929 54.9886329 -20.8125 72.3125 C-13.73423276 76.24487069 -6.72235344 76.56140089 1.1875 76.6875 C2.07695312 76.72488281 2.96640625 76.76226562 3.8828125 76.80078125 C8.42509722 76.86179701 10.48948835 76.85286672 14.1796875 73.99609375 C15.63390218 72.0524255 17.00177885 70.04318297 18.3125 68 C18.93125 67.113125 19.55 66.22625 20.1875 65.3125 C21.1775 65.3125 22.1675 65.3125 23.1875 65.3125 C23.80278766 70.38862318 21.80408349 73.14232006 19.1875 77.3125 C18.5275 77.3125 17.8675 77.3125 17.1875 77.3125 C16.6925 78.7975 16.6925 78.7975 16.1875 80.3125 C8.85292288 84.78553779 -4.84648025 83.5110848 -12.97802734 81.87744141 C-17.40452369 80.59151256 -21.6777006 79.21294718 -24.109375 75.140625 C-24.34140625 74.53734375 -24.5734375 73.9340625 -24.8125 73.3125 C-25.4725 73.3125 -26.1325 73.3125 -26.8125 73.3125 C-30.11577567 63.73947389 -31.43325381 55.22738475 -31.27905273 45.13378906 C-31.2498153 43.0493317 -31.25855939 40.96739254 -31.27148438 38.8828125 C-31.25668823 29.54658558 -30.13427758 21.63488156 -25.8125 13.3125 C-25.1525 13.3125 -24.4925 13.3125 -23.8125 13.3125 C-23.68101562 12.41724609 -23.68101562 12.41724609 -23.546875 11.50390625 C-22.61237401 8.71531552 -21.4459422 7.93005794 -19.0625 6.25 C-18.38703125 5.76402344 -17.7115625 5.27804688 -17.015625 4.77734375 C-16.28859375 4.29394531 -15.5615625 3.81054688 -14.8125 3.3125 C-14.10222656 2.76335937 -13.39195312 2.21421875 -12.66015625 1.6484375 C-8.45900415 -0.32247336 -4.58264438 -0.09176811 0 0 Z " fill="#FCFBFA" transform="translate(324.8125,180.6875)"/>
<path d="M0 0 C2.31 0.66 4.62 1.32 7 2 C7 2.66 7 3.32 7 4 C7.73863281 3.97679687 8.47726563 3.95359375 9.23828125 3.9296875 C19.84902185 3.74093227 28.68609327 4.72797732 38 10 C38 10.66 38 11.32 38 12 C38.60328125 12.12117187 39.2065625 12.24234375 39.828125 12.3671875 C40.62734375 12.53476563 41.4265625 12.70234375 42.25 12.875 C43.43335938 13.11863281 43.43335938 13.11863281 44.640625 13.3671875 C45.80851562 13.68042969 45.80851562 13.68042969 47 14 C47.71671875 14.18820313 48.4334375 14.37640625 49.171875 14.5703125 C52.75932063 17.37587896 52.76282608 22.38244402 53.38818359 26.64746094 C55.49875924 43.99573036 55.49875924 43.99573036 52.265625 50.4765625 C49.99121386 52.94177994 47.65067273 54.95273245 45 57 C43.96734414 58.20186212 42.96335521 59.42940722 42 60.6875 C39.74836796 63.29172277 37.35874926 65.62655003 34.75 67.875 C34.08484375 68.44992188 33.4196875 69.02484375 32.734375 69.6171875 C14.57805004 78.79910041 -19.84565987 71.62877225 -38.73828125 67.91015625 C-43.82822337 66.94152878 -48.70451479 66.73250064 -53.875 66.8125 C-55.09703125 66.8134668 -55.09703125 66.8134668 -56.34375 66.81445312 C-60.387526 66.84408992 -64.0316918 67.17766997 -68 68 C-68.66 67.67 -69.32 67.34 -70 67 C-69.67 65.35 -69.34 63.7 -69 62 C-55.63336095 60.18757437 -40.78687151 59.94308372 -27.7734375 64.0078125 C-17.54514431 66.69723949 -6.61185637 66.18637587 3.90161133 66.18530273 C6.32585646 66.18751217 8.74966162 66.20580603 11.17382812 66.22460938 C12.73697764 66.22754042 14.30012927 66.22952715 15.86328125 66.23046875 C16.93380486 66.24124702 16.93380486 66.24124702 18.0259552 66.25224304 C23.4139709 66.22791836 28.51268412 65.74795754 33.01635742 62.58300781 C33.54076416 62.04514648 34.0651709 61.50728516 34.60546875 60.953125 C35.19650391 60.355 35.78753906 59.756875 36.39648438 59.140625 C36.98751953 58.51671875 37.57855469 57.8928125 38.1875 57.25 C38.79013672 56.6415625 39.39277344 56.033125 40.01367188 55.40625 C44.2389457 51.06502464 48.05521868 46.83434395 50 41 C49.34 41 48.68 41 48 41 C47.39535633 39.04181389 46.79131518 37.08344174 46.1875 35.125 C45.81496094 33.94292969 45.44242187 32.76085937 45.05859375 31.54296875 C44.41790962 29.39868642 43.83099054 27.2359153 43.34765625 25.05078125 C42.32006908 20.21024205 42.32006908 20.21024205 39.2109375 16.56640625 C37.16363256 15.51975036 35.1774693 14.73379918 33 14 C32.2464624 13.66822754 31.4929248 13.33645508 30.71655273 12.99462891 C27.84985776 11.94502746 25.44013654 11.60068623 22.40234375 11.3671875 C21.35369141 11.28339844 20.30503906 11.19960937 19.22460938 11.11328125 C18.13986328 11.03464844 17.05511719 10.95601562 15.9375 10.875 C14.30458008 10.74544922 14.30458008 10.74544922 12.63867188 10.61328125 C8.40778362 10.28522468 4.24581007 10 0 10 C-1.32 10 -2.64 10 -4 10 C-3.67 7.69 -3.34 5.38 -3 3 C-2.01 2.67 -1.02 2.34 0 2 C0 1.34 0 0.68 0 0 Z " fill="#FBFAF8" transform="translate(164,144)"/>
<path d="M0 0 C1 1 2 2 3 3 C7.55968152 5.41086609 11.84979643 5.29950939 16.875 5.25 C18.04095703 5.26160156 18.04095703 5.26160156 19.23046875 5.2734375 C24.18723411 5.2567761 28.32456694 4.67928991 33 3 C33.495 2.46375 33.99 1.9275 34.5 1.375 C36 0 36 0 39.6875 -0.1875 C41.3271875 -0.0946875 41.3271875 -0.0946875 43 0 C41 2 41 2 38 3 C39.65 3.33 41.3 3.66 43 4 C40.66714557 7.49928164 39.79204931 7.6329098 35.875 8.6875 C34.96492188 8.93886719 34.05484375 9.19023437 33.1171875 9.44921875 C32.41851562 9.63097656 31.71984375 9.81273437 31 10 C31.28168297 11.95979427 31.57566717 13.91782378 31.875 15.875 C32.11863281 17.51082031 32.11863281 17.51082031 32.3671875 19.1796875 C32.76256513 22.11932714 32.76256513 22.11932714 35 24 C34.67 26.64 34.34 29.28 34 32 C47.53 32 61.06 32 75 32 C75 32.99 75 33.98 75 35 C72.02931309 36.48534346 68.91907192 36.4003766 65.65234375 36.60546875 C64.90091095 36.65409561 64.14947815 36.70272247 63.37527466 36.75282288 C60.89646419 36.90697067 58.41725985 37.04948711 55.9375 37.1875 C55.0909787 37.23491333 54.2444574 37.28232666 53.37228394 37.33117676 C31.05094852 38.52464831 9.12566441 37.16445489 -13 34 C-13 32.35 -13 30.7 -13 29 C-10.13623333 28.14978803 -7.93204273 27.94667187 -4.97265625 28.3046875 C-4.18987305 28.39314941 -3.40708984 28.48161133 -2.60058594 28.57275391 C-1.76301758 28.67249512 -0.92544922 28.77223633 -0.0625 28.875 C10.61109586 30.05500549 21.27272181 30.59072633 32 31 C31.52433594 29.22109375 31.52433594 29.22109375 31.0390625 27.40625 C30.12904446 23.76617786 29.6307248 20.25063045 29.375 16.5 C29.30023438 15.4584375 29.22546875 14.416875 29.1484375 13.34375 C29.09945312 12.5703125 29.05046875 11.796875 29 11 C28.49726562 11.15984375 27.99453125 11.3196875 27.4765625 11.484375 C18.12928077 13.43049675 7.79671213 12.58324788 -1 9 C-1.71285156 8.71382813 -2.42570312 8.42765625 -3.16015625 8.1328125 C-4.78704617 7.45359404 -6.39623565 6.73215329 -8 6 C-8 5.34 -8 4.68 -8 4 C-12.33261437 3.84526377 -16.00722524 3.87609821 -20.1875 5.0625 C-23.77074981 5.943627 -25.54796798 6.07876001 -29 5 C-29.33 3.68 -29.66 2.36 -30 1 C-19.58335722 -2.54317922 -10.44475468 -4.74923888 0 0 Z " fill="#E3F7FD" transform="translate(41,264)"/>
<path d="M0 0 C4.32045533 0.63861934 8.37480851 1.64584823 12.5625 2.875 C31.54074856 7.92345628 50.38864398 8.44115191 69.93408203 8.40405273 C72.68152243 8.40813321 75.42894561 8.41663912 78.17637634 8.42485046 C84.81407535 8.44189396 91.45167911 8.44290865 98.08939429 8.43763756 C103.49580252 8.43356631 108.90218299 8.4350741 114.30858994 8.44038582 C115.08337636 8.44113424 115.85816278 8.44188266 116.65642758 8.44265376 C118.23135163 8.44418554 119.80627567 8.44572389 121.3811997 8.44726873 C136.09380112 8.46094226 150.80634911 8.45559316 165.51894926 8.44408352 C178.91423629 8.43416307 192.30938495 8.44708045 205.70465066 8.47101771 C219.52890184 8.49553133 233.35308893 8.50498629 247.17736137 8.49836498 C254.91051945 8.49489897 262.64357141 8.49692873 270.3767128 8.51461601 C276.96163341 8.52949288 283.54637322 8.52977555 290.13129087 8.5125451 C293.47665786 8.50415628 296.82144565 8.50383362 300.16683388 8.51719666 C316.88020571 8.57878314 332.83292899 7.31045811 349.29594219 4.35922581 C352.22517732 3.97008588 355.04843035 3.94048138 358 4 C355.6839164 6.3160836 354.68225536 6.44949898 351.52734375 7.03515625 C350.62693359 7.20466797 349.72652344 7.37417969 348.79882812 7.54882812 C347.85458984 7.71833984 346.91035156 7.88785156 345.9375 8.0625 C345.02033203 8.23587891 344.10316406 8.40925781 343.15820312 8.58789062 C333.51571551 10.37151165 324.19219887 11.14850796 314.39790344 11.14044189 C313.25825785 11.14341302 312.11861226 11.14638414 310.94443196 11.1494453 C307.14043734 11.15808973 303.33647435 11.15963696 299.5324707 11.16113281 C296.79839902 11.16522982 294.06433059 11.17076926 291.33026123 11.17617798 C283.91013379 11.18971905 276.49001178 11.19578009 269.06987405 11.20018864 C264.42645101 11.20295959 259.78303003 11.20719859 255.13960838 11.21169281 C242.25545158 11.22388253 229.37129642 11.23418076 216.48713398 11.2375679 C215.66358567 11.23778747 214.84003737 11.23800703 213.99153305 11.23823325 C212.75342198 11.23856067 212.75342198 11.23856067 211.49029857 11.2388947 C209.81799527 11.23933815 208.14569197 11.23978471 206.47338867 11.24023438 C205.64388626 11.2404558 204.81438386 11.24067723 203.95974501 11.24090537 C190.54741222 11.24484537 177.13513403 11.26227628 163.72282229 11.2855939 C149.91593747 11.30940133 136.10907992 11.32177409 122.30217427 11.32293582 C114.56509531 11.3238476 106.82808741 11.32947288 99.09102821 11.34775543 C92.49655949 11.36328416 85.90218376 11.36820287 79.30770019 11.36001733 C75.95298386 11.35615464 72.59860369 11.35850933 69.24388695 11.37107468 C45.8974941 11.45331439 21.66565902 10.63461586 0 1 C0 0.67 0 0.34 0 0 Z " fill="#D3E0EB" transform="translate(146,373)"/>
<path d="M0 0 C1.12112938 -0.00855011 1.12112938 -0.00855011 2.26490784 -0.01727295 C3.84057226 -0.0266588 5.41625575 -0.03323116 6.99194336 -0.03710938 C9.34200707 -0.04672404 11.69115966 -0.07777034 14.04101562 -0.109375 C27.75368082 -0.20559697 40.87101288 1.69497058 54.06640625 5.515625 C54.80955078 5.72872314 55.55269531 5.94182129 56.31835938 6.16137695 C83.06841008 14.05104285 112.13860381 30.27971412 128.94140625 53.203125 C128.94140625 53.863125 128.94140625 54.523125 128.94140625 55.203125 C129.93140625 55.533125 130.92140625 55.863125 131.94140625 56.203125 C134.87981221 59.66533376 137.37806879 63.45780415 139.94140625 67.203125 C140.534375 68.06550781 141.12734375 68.92789063 141.73828125 69.81640625 C150.29915126 82.75588637 158.10579865 97.9521658 161.91015625 113.046875 C162.25046875 114.0884375 162.59078125 115.13 162.94140625 116.203125 C165.94735046 117.73458878 165.94735046 117.73458878 168.94140625 118.203125 C167.95140625 118.863125 166.96140625 119.523125 165.94140625 120.203125 C163.38671875 119.609375 163.38671875 119.609375 160.94140625 118.203125 C159.68359375 116.171875 159.68359375 116.171875 158.81640625 113.703125 C158.4915625 112.80464844 158.16671875 111.90617187 157.83203125 110.98046875 C157.01159665 108.42200821 156.27919127 105.85568684 155.56640625 103.265625 C154.17688698 98.4511285 152.01598866 94.37294657 149.52734375 90.0390625 C147.95559537 87.22849767 146.60837951 84.37346331 145.25390625 81.453125 C140.19640423 71.23164724 132.89068459 61.90107135 125.0859375 53.62109375 C123.94140625 52.203125 123.94140625 52.203125 123.94140625 50.203125 C122.62140625 49.873125 121.30140625 49.543125 119.94140625 49.203125 C119.94140625 48.213125 119.94140625 47.223125 119.94140625 46.203125 C119.28140625 46.203125 118.62140625 46.203125 117.94140625 46.203125 C117.44640625 45.5225 116.95140625 44.841875 116.44140625 44.140625 C113.38227928 40.54615081 109.92273014 38.31812077 105.98828125 35.75390625 C104.97507812 34.98626953 104.97507812 34.98626953 103.94140625 34.203125 C103.94140625 33.543125 103.94140625 32.883125 103.94140625 32.203125 C102.95140625 31.873125 101.96140625 31.543125 100.94140625 31.203125 C100.94140625 30.543125 100.94140625 29.883125 100.94140625 29.203125 C99.82765625 29.0175 99.82765625 29.0175 98.69140625 28.828125 C96.1399914 28.24825799 94.21464895 27.46603761 91.94140625 26.203125 C91.94140625 25.543125 91.94140625 24.883125 91.94140625 24.203125 C90.29140625 23.873125 88.64140625 23.543125 86.94140625 23.203125 C86.94140625 22.543125 86.94140625 21.883125 86.94140625 21.203125 C85.76578125 20.9865625 85.76578125 20.9865625 84.56640625 20.765625 C81.94140625 20.203125 81.94140625 20.203125 79.94140625 19.203125 C79.94140625 18.543125 79.94140625 17.883125 79.94140625 17.203125 C79.07257813 17.08710937 78.20375 16.97109375 77.30859375 16.8515625 C73.94016489 16.20288594 71.2020449 15.20048674 68.06640625 13.828125 C67.02097656 13.38210937 65.97554687 12.93609375 64.8984375 12.4765625 C63.92261719 12.05632812 62.94679688 11.63609375 61.94140625 11.203125 C57.05863182 9.10685535 52.82644721 7.95647487 47.52734375 7.51953125 C42.25021544 6.87384032 37.0983134 5.47043294 31.94140625 4.203125 C31.94140625 3.543125 31.94140625 2.883125 31.94140625 2.203125 C27.31495721 2.15361575 22.68866307 2.11735384 18.06201172 2.09326172 C16.4887422 2.08321613 14.91549129 2.06957719 13.34228516 2.05224609 C11.07840373 2.02793404 8.81476959 2.01662753 6.55078125 2.0078125 C5.84959167 1.99748993 5.1484021 1.98716736 4.42596436 1.97653198 C0.71023257 1.97568201 -1.8670237 2.27465817 -5.05859375 4.203125 C-7.03125 4.328125 -7.03125 4.328125 -9.12109375 4.203125 C-16.02005179 4.04321538 -22.92796011 4.93257098 -29.05859375 8.203125 C-30.387203 8.55481568 -31.72017703 8.89082776 -33.05859375 9.203125 C-33.71859375 9.533125 -34.37859375 9.863125 -35.05859375 10.203125 C-35.88359375 10.326875 -36.70859375 10.450625 -37.55859375 10.578125 C-44.96311385 11.90036073 -52.73245161 13.98569691 -59.05859375 18.203125 C-59.71859375 19.193125 -60.37859375 20.183125 -61.05859375 21.203125 C-63.05859375 21.203125 -65.05859375 21.203125 -67.05859375 21.203125 C-69.28603162 22.62290409 -69.28603162 22.62290409 -71.05859375 24.203125 C-71.71859375 24.203125 -72.37859375 24.203125 -73.05859375 24.203125 C-73.24421875 24.780625 -73.42984375 25.358125 -73.62109375 25.953125 C-75.81921357 29.39366038 -78.37595446 30.45871692 -82.05859375 32.203125 C-83.04859375 31.873125 -84.03859375 31.543125 -85.05859375 31.203125 C-83.74609375 29.703125 -83.74609375 29.703125 -82.05859375 28.203125 C-81.06859375 28.203125 -80.07859375 28.203125 -79.05859375 28.203125 C-79.05859375 27.543125 -79.05859375 26.883125 -79.05859375 26.203125 C-75.93278129 23.89370121 -72.44304083 22.10478215 -69.05859375 20.203125 C-67.3725 19.23246094 -67.3725 19.23246094 -65.65234375 18.2421875 C-46.00923635 7.15974965 -22.61926996 0.13874735 0 0 Z " fill="#DEEFF4" transform="translate(314.05859375,63.796875)"/>
<path d="M0 0 C2.29772801 0.18748019 4.59638299 0.35404783 6.89575195 0.52001953 C17.05434869 1.31485993 26.56760098 3.15573163 36.36645508 5.93798828 C32.0014236 7.12518091 28.83372294 6.60807846 24.36645508 5.93798828 C24.36645508 6.92798828 24.36645508 7.91798828 24.36645508 8.93798828 C23.26881836 8.84710938 22.17118164 8.75623047 21.0402832 8.66259766 C16.88829387 8.32059356 12.73564354 7.98724946 8.58276367 7.65625 C6.80035188 7.51302906 5.01811622 7.36759521 3.23608398 7.21972656 C-22.55622018 4.33003601 -22.55622018 4.33003601 -45.75073242 13.73095703 C-47.63354492 14.93798828 -47.63354492 14.93798828 -49.63354492 14.93798828 C-49.92229492 15.72173828 -50.21104492 16.50548828 -50.50854492 17.31298828 C-51.63354492 19.93798828 -51.63354492 19.93798828 -53.63354492 21.93798828 C-54.41816757 24.64694091 -55.11908773 27.32042745 -55.75854492 30.06298828 C-55.94030273 30.81708984 -56.12206055 31.57119141 -56.30932617 32.34814453 C-56.75709201 34.20990774 -57.19615214 36.07376081 -57.63354492 37.93798828 C-59.2896915 38.32017595 -60.95811517 38.6519393 -62.63354492 38.93798828 C-62.96354492 38.60798828 -63.29354492 38.27798828 -63.63354492 37.93798828 C-63.14643695 30.26603778 -61.96071528 22.42874382 -57.63354492 15.93798828 C-56.97354492 15.93798828 -56.31354492 15.93798828 -55.63354492 15.93798828 C-55.54975586 15.34888672 -55.4659668 14.75978516 -55.37963867 14.15283203 C-53.41176396 8.31102595 -45.56754147 4.7443658 -40.38354492 2.06298828 C-28.45129068 -3.82515025 -12.88570199 -1.06981834 0 0 Z " fill="#EBF9FE" transform="translate(175.633544921875,97.06201171875)"/>
<path d="M0 0 C13.04295104 -0.32881389 25.27365457 0.71422386 37.890625 4.31640625 C46.75874948 6.26605673 55.71301854 6.097469 64.74761963 6.01831055 C80.5263579 5.88637762 96.23675654 6.25371701 112 7 C112.495 9.475 112.495 9.475 113 12 C112.44014404 11.99476318 111.88028809 11.98952637 111.3034668 11.98413086 C108.76482263 11.96333309 106.22619641 11.95033096 103.6875 11.9375 C102.80642578 11.92912109 101.92535156 11.92074219 101.01757812 11.91210938 C100.17001953 11.90888672 99.32246094 11.90566406 98.44921875 11.90234375 C97.27879028 11.89448853 97.27879028 11.89448853 96.0847168 11.88647461 C93.8038445 11.91862137 93.8038445 11.91862137 91 13 C88.31019778 13.10929675 85.64722622 13.16405809 82.95703125 13.16796875 C82.15577316 13.17129715 81.35451508 13.17462555 80.52897644 13.17805481 C78.82506889 13.18312218 77.1211514 13.18546319 75.41723633 13.18530273 C72.8671712 13.18745388 70.31756462 13.20551114 67.76757812 13.22460938 C54.12480711 13.27207449 40.95822193 12.38452371 27.74609375 8.68359375 C20.8709053 6.97213148 13.91816219 6.71593893 6.87695312 6.39453125 C1.20758929 6.10379464 1.20758929 6.10379464 -1 5 C-0.67 3.35 -0.34 1.7 0 0 Z " fill="#E2F6FC" transform="translate(26,345)"/>
<path d="M0 0 C1.02323364 -0.03855103 1.02323364 -0.03855103 2.06713867 -0.07788086 C6.74090225 -0.09693859 9.27521838 1.07163146 13.06030273 3.47998047 C16.06176481 5.01312245 18.94695003 4.75083048 22.25 4.625 C23.48621094 4.58890625 24.72242188 4.5528125 25.99609375 4.515625 C26.92550781 4.46921875 27.85492188 4.4228125 28.8125 4.375 C28.4825 5.035 28.1525 5.695 27.8125 6.375 C22.2025 6.375 16.5925 6.375 10.8125 6.375 C10.8125 6.705 10.8125 7.035 10.8125 7.375 C19.2275 8.86 19.2275 8.86 27.8125 10.375 C27.8125 10.705 27.8125 11.035 27.8125 11.375 C14.12352319 12.06713928 14.12352319 12.06713928 10 9.375 C3.52396256 5.38214903 -6.82313385 6.60029544 -14.0703125 7.88671875 C-18.52938602 8.58519518 -22.93166637 8.51947767 -27.4375 8.5 C-28.34757812 8.50386719 -29.25765625 8.50773438 -30.1953125 8.51171875 C-31.49855469 8.50978516 -31.49855469 8.50978516 -32.828125 8.5078125 C-33.61735352 8.50668457 -34.40658203 8.50555664 -35.21972656 8.50439453 C-37.1875 8.375 -37.1875 8.375 -39.1875 7.375 C-39.1875 5.395 -39.1875 3.415 -39.1875 1.375 C-38.53007813 1.47039062 -37.87265625 1.56578125 -37.1953125 1.6640625 C-30.77163112 2.41262158 -24.87781288 2.25645432 -18.5 1.4375 C-12.32779453 0.66687534 -6.22241326 0.10381001 0 0 Z " fill="#E4F6FD" transform="translate(39.1875,237.625)"/>
<path d="M0 0 C1.1859375 0.25523437 2.371875 0.51046875 3.59375 0.7734375 C6.5 1.625 6.5 1.625 8.5 3.625 C8.625 6.25 8.625 6.25 8.5 8.625 C7.84 8.955 7.18 9.285 6.5 9.625 C4.75188512 9.03236821 3.02583879 8.37422283 1.3125 7.6875 C-8.93309129 4.1414211 -19.02068455 5.1538654 -29.4921875 7.1796875 C-34.80892987 7.96684157 -40.13971857 7.78062107 -45.5 7.625 C-45.83 6.305 -46.16 4.985 -46.5 3.625 C-40.87481285 1.42467169 -35.20059713 0.75052576 -29.25 0 C-27.77080078 -0.20109375 -27.77080078 -0.20109375 -26.26171875 -0.40625 C-17.27681941 -1.56635558 -8.87525013 -1.98318642 0 0 Z " fill="#EAF9FD" transform="translate(52.5,209.375)"/>
<path d="M0 0 C0.66 0.33 1.32 0.66 2 1 C8.39533504 24.3811102 6.62658468 53.98960761 -5.31640625 75.35498047 C-14.49884919 90.98970789 -14.49884919 90.98970789 -21 97 C-21.56203125 97.58523438 -22.1240625 98.17046875 -22.703125 98.7734375 C-33.08744066 109.52487543 -46.00324198 117.75121574 -60 123 C-60.33 122.34 -60.66 121.68 -61 121 C-60.14341797 120.5978125 -60.14341797 120.5978125 -59.26953125 120.1875 C-52.90268387 117.11035913 -46.93719207 113.56413088 -40.98046875 109.76953125 C-38.35590652 108.21130492 -35.86402278 107.03231875 -33 106 C-33 105.01 -33 104.02 -33 103 C-31.36935236 101.94228261 -29.69719127 100.94726954 -28 100 C-27.443125 99.443125 -26.88625 98.88625 -26.3125 98.3125 C-25.879375 97.879375 -25.44625 97.44625 -25 97 C-24.34 97 -23.68 97 -23 97 C-23 95.68 -23 94.36 -23 93 C-21.4375 91.25 -21.4375 91.25 -19 89 C-9.9256246 80.36211355 -4.08008348 68.27249255 -2 56 C-1.34 55.01 -0.68 54.02 0 53 C2.54376258 44.99351723 2.30067591 36.61912598 2.25 28.3125 C2.25773438 27.03310547 2.26546875 25.75371094 2.2734375 24.43554688 C2.26049014 18.20462836 2.04785179 12.8855583 0 7 C-0.07403678 4.66784156 -0.09515886 2.33139212 0 0 Z " fill="#D7E8F3" transform="translate(567,254)"/>
<path d="M0 0 C1.95048745 0.05841726 3.90100873 0.11571577 5.8515625 0.171875 C10.56819671 0.31006084 15.28411776 0.46324319 20 0.625 C20 1.615 20 2.605 20 3.625 C16.73095314 5.25952343 13.09258812 4.99091609 9.4921875 5.16015625 C8.65156769 5.20313339 7.81094788 5.24611053 6.94485474 5.29039001 C4.25509451 5.42694073 1.56507385 5.55728872 -1.125 5.6875 C-2.94663509 5.77888908 -4.76825002 5.87068084 -6.58984375 5.96289062 C-11.05967522 6.1882701 -15.52975002 6.40808647 -20 6.625 C-20 5.635 -20 4.645 -20 3.625 C-25.94 3.625 -31.88 3.625 -38 3.625 C-38 2.965 -38 2.305 -38 1.625 C-25.22496415 -0.4866329 -12.90636505 -0.44687791 0 0 Z " fill="#FBFBFA" transform="translate(96,295.375)"/>
<path d="M0 0 C15.54518733 4.71537349 28.07305776 11.00369994 41 21 C41.68578125 21.51820313 42.3715625 22.03640625 43.078125 22.5703125 C49.8304234 28.03253763 54.84676628 35.07886857 60 42 C60.59039063 42.7734375 61.18078125 43.546875 61.7890625 44.34375 C66.74941492 51.24049668 69.76318474 59.19525315 73 67 C72.34 67.66 71.68 68.32 71 69 C70.18395001 67.0848421 69.37229368 65.16781166 68.5625 63.25 C68.11003906 62.18265625 67.65757812 61.1153125 67.19140625 60.015625 C66.26020447 57.6586159 65.5215928 55.47007165 65 53 C64.34 53 63.68 53 63 53 C63 52.34 63 51.68 63 51 C62.34 51 61.68 51 61 51 C60.67 50.05125 60.34 49.1025 60 48.125 C57.67030192 42.69997537 53.79034737 38.46084203 50 34 C49.36835937 33.22140625 48.73671875 32.4428125 48.0859375 31.640625 C41.39869641 23.65996691 33.15794343 17.8746783 24 13 C23.02160156 12.443125 22.04320312 11.88625 21.03515625 11.3125 C15.05888678 7.96523122 9.53053092 5.2165715 2.828125 3.703125 C2.22484375 3.47109375 1.6215625 3.2390625 1 3 C0.67 2.01 0.34 1.02 0 0 Z " fill="#E1F1F5" transform="translate(495,184)"/>
<path d="M0 0 C1 3 1 3 0.0625 5.1875 C-0.288125 5.785625 -0.63875 6.38375 -1 7 C-1.66 7 -2.32 7 -3 7 C-3 7.66 -3 8.32 -3 9 C-4.8984375 10.4375 -4.8984375 10.4375 -7.375 12 C-9.84952162 13.57112484 -11.92383041 14.92383041 -14 17 C-14.66 16.67 -15.32 16.34 -16 16 C-16.24234375 16.60328125 -16.4846875 17.2065625 -16.734375 17.828125 C-18.25375734 20.43546012 -19.65479665 21.24937221 -22.25 22.75 C-26.50872127 25.42025932 -29.01494818 28.25141031 -31.7109375 32.4609375 C-32.13632813 32.96882813 -32.56171875 33.47671875 -33 34 C-33.99 34 -34.98 34 -36 34 C-36.12375 34.8353125 -36.12375 34.8353125 -36.25 35.6875 C-37.23179767 38.71470947 -39.00697583 40.50871979 -41 43 C-42.28593785 45.18651322 -43.48962123 47.40897284 -44.6953125 49.640625 C-46.65452972 53.18364057 -48.81741416 56.59145106 -51 60 C-51.33 59.34 -51.66 58.68 -52 58 C-50.02938207 52.5260613 -47.22718207 47.81937269 -44 43 C-43.50371094 42.22269531 -43.00742188 41.44539063 -42.49609375 40.64453125 C-32.41313229 25.73438018 -18.51301153 13.05740774 -3 4 C-2.34 4 -1.68 4 -1 4 C-0.67 2.68 -0.34 1.36 0 0 Z " fill="#D8E9F2" transform="translate(133,147)"/>
<path d="M0 0 C5.59518696 0.0565772 10.82476404 1.01493932 16.29296875 2.12109375 C28.04478557 4.35251278 39.66384729 4.98993681 51.60546875 5.18359375 C51.60546875 5.51359375 51.60546875 5.84359375 51.60546875 6.18359375 C40.38546875 6.18359375 29.16546875 6.18359375 17.60546875 6.18359375 C17.60546875 6.84359375 17.60546875 7.50359375 17.60546875 8.18359375 C17.0228125 8.12300781 16.44015625 8.06242187 15.83984375 8 C9.10136918 7.31131942 2.35696359 6.72881756 -4.39453125 6.18359375 C-4.77671892 4.52744718 -5.10848227 2.85902351 -5.39453125 1.18359375 C-3.80774802 -0.40318948 -2.19746699 0.01575942 0 0 Z " fill="#E7F7FD" transform="translate(15.39453125,318.81640625)"/>
<path d="M0 0 C1.6396875 0.0928125 1.6396875 0.0928125 3.3125 0.1875 C1.3125 2.1875 1.3125 2.1875 -1.6875 3.1875 C0.7875 3.6825 0.7875 3.6825 3.3125 4.1875 C0.59023774 8.2708934 -1.82562382 8.42371328 -6.44775391 9.58056641 C-12.06721392 10.63331528 -17.67079861 10.76290171 -23.375 10.875 C-25.16067383 10.92624023 -25.16067383 10.92624023 -26.98242188 10.97851562 C-29.88402018 11.06008666 -32.7853508 11.12952748 -35.6875 11.1875 C-36.0175 9.5375 -36.3475 7.8875 -36.6875 6.1875 C-29.0975 6.5175 -21.5075 6.8475 -13.6875 7.1875 C-13.6875 6.5275 -13.6875 5.8675 -13.6875 5.1875 C-12.594375 4.919375 -11.50125 4.65125 -10.375 4.375 C-6.77460584 3.54895597 -6.77460584 3.54895597 -5.1875 1.5625 C-3.6875 0.1875 -3.6875 0.1875 0 0 Z " fill="#F9FDFD" transform="translate(80.6875,263.8125)"/>
<path d="M0 0 C1.29228516 0.0515625 2.58457031 0.103125 3.91601562 0.15625 C5.27084472 0.22111668 6.62566233 0.28622386 7.98046875 0.3515625 C9.35477551 0.40985759 10.72912478 0.46715962 12.10351562 0.5234375 C15.45888024 0.66471601 18.81347507 0.81611503 22.16796875 0.9765625 C22.66296875 3.4515625 22.66296875 3.4515625 23.16796875 5.9765625 C22.60811279 5.97132568 22.04825684 5.96608887 21.47143555 5.96069336 C18.93279138 5.93989559 16.39416516 5.92689346 13.85546875 5.9140625 C12.97439453 5.90568359 12.09332031 5.89730469 11.18554688 5.88867188 C10.33798828 5.88544922 9.49042969 5.88222656 8.6171875 5.87890625 C7.83690186 5.87366943 7.05661621 5.86843262 6.25268555 5.86303711 C3.97181325 5.89518387 3.97181325 5.89518387 1.16796875 6.9765625 C0.50796875 5.6565625 -0.15203125 4.3365625 -0.83203125 2.9765625 C-1.34765625 3.1415625 -1.86328125 3.3065625 -2.39453125 3.4765625 C-5.56567001 4.1270525 -8.60421459 4.0386359 -11.83203125 3.9765625 C-11.83203125 3.3165625 -11.83203125 2.6565625 -11.83203125 1.9765625 C-7.70621674 -0.01661747 -4.55144134 -0.20050402 0 0 Z " fill="#FBFBFB" transform="translate(115.83203125,351.0234375)"/>
<path d="M0 0 C0.66 0.99 1.32 1.98 2 3 C-2.73802847 10.61902746 -2.73802847 10.61902746 -7.3125 12 C-15.875 12 -15.875 12 -18.1796875 11.9375 C-20.02091115 11.79343572 -20.02091115 11.79343572 -21 13 C-23.3306218 13.35179197 -25.66435067 13.68330179 -28 14 C-28.66 14.165 -29.32 14.33 -30 14.5 C-32 15 -32 15 -35.3125 15.4375 C-39.04056605 15.91548102 -39.04056605 15.91548102 -42.6875 17.125 C-45.78945692 17.94438485 -47.0914153 18.16343388 -50 17 C-44.33454131 14.33801051 -38.7249204 12.79670404 -32.625 11.4375 C-31.66416504 11.21626465 -30.70333008 10.9950293 -29.71337891 10.76708984 C-22.93917916 9.26457975 -16.22529599 8.24764207 -9.27978516 8.07202148 C-7.07164273 7.99623831 -7.07164273 7.99623831 -4 7 C-2.15413431 4.75945467 -1.20545583 2.6862696 0 0 Z " fill="#D2E8F2" transform="translate(197,126)"/>
<path d="M0 0 C8.58 0 17.16 0 26 0 C26.66 3.96 27.32 7.92 28 12 C28.66 12.66 29.32 13.32 30 14 C29.42307692 20.57692308 29.42307692 20.57692308 28 22 C26.36527118 22.08700342 24.72685945 22.10701063 23.08984375 22.09765625 C22.10048828 22.09443359 21.11113281 22.09121094 20.09179688 22.08789062 C19.05087891 22.07951172 18.00996094 22.07113281 16.9375 22.0625 C15.89271484 22.05798828 14.84792969 22.05347656 13.77148438 22.04882812 C11.1809334 22.03699913 8.59049441 22.02051689 6 22 C6 21.67 6 21.34 6 21 C12.93 21 19.86 21 27 21 C26.34 18.36 25.68 15.72 25 13 C24.73733957 10.83924626 24.52306485 8.67161784 24.375 6.5 C24.30023438 5.4584375 24.22546875 4.416875 24.1484375 3.34375 C24.09945312 2.5703125 24.05046875 1.796875 24 1 C23.505 1.16113281 23.01 1.32226562 22.5 1.48828125 C19.00649086 2.2033589 15.54998419 2.18428443 12 2.1875 C11.2884375 2.19974609 10.576875 2.21199219 9.84375 2.22460938 C5.74513792 2.23607937 3.76649309 1.88324655 0 0 Z " fill="#D0ECF7" transform="translate(46,274)"/>
<path d="M0 0 C2.31 0 4.62 0 7 0 C8 3 8 3 6.8125 5.4375 C5.06043525 7.91455706 3.13826138 9.86173862 1 12 C0.67 12.99 0.34 13.98 0 15 C-1.45823212 15.0270043 -2.91660675 15.04639787 -4.375 15.0625 C-5.18710938 15.07410156 -5.99921875 15.08570312 -6.8359375 15.09765625 C-9 15 -9 15 -11 14 C-14.34155338 13.72300281 -17.68285874 13.55299296 -21.03125 13.37890625 C-24 13 -24 13 -26 11 C-25.40574219 11.07742432 -24.81148437 11.15484863 -24.19921875 11.23461914 C-12.65274287 13.07204557 -12.65274287 13.07204557 -1.859375 10.1328125 C0.62732254 7.25008535 2.30887102 4.38225796 4 1 C2.68 0.67 1.36 0.34 0 0 Z " fill="#DDEEF3" transform="translate(207,108)"/>
<path d="M0 0 C3.96 0.33 7.92 0.66 12 1 C11.01 2.98 10.02 4.96 9 7 C10.98 7 12.96 7 15 7 C15.24621094 7.61617188 15.49242187 8.23234375 15.74609375 8.8671875 C17.24797542 11.42178996 18.3769841 11.9650131 21.0625 13.125 C24.90277778 14.80555556 24.90277778 14.80555556 26 17 C20.38078262 15.63197064 15.76064347 13.48555392 10.75 10.625 C10.04359375 10.23828125 9.3371875 9.8515625 8.609375 9.453125 C5.00356144 7.41802568 2.06557243 5.7339194 0 2 C0 1.34 0 0.68 0 0 Z " fill="#DFE3E5" transform="translate(119,356)"/>
<path d="M0 0 C0 0.66 0 1.32 0 2 C2.475 2.495 2.475 2.495 5 3 C5 3.66 5 4.32 5 5 C1.37467934 4.86152362 -2.25015904 4.71297357 -5.875 4.5625 C-7.42380859 4.50352539 -7.42380859 4.50352539 -9.00390625 4.44335938 C-9.99003906 4.40146484 -10.97617187 4.35957031 -11.9921875 4.31640625 C-12.90339355 4.27974854 -13.81459961 4.24309082 -14.75341797 4.20532227 C-17 4 -17 4 -19 3 C-19 2.34 -19 1.68 -19 1 C-12.26718787 -0.700773 -6.86747109 -1.10765663 0 0 Z " fill="#F9FEFE" transform="translate(48,346)"/>
<path d="M0 0 C2.5 2.3125 2.5 2.3125 5 5 C5 5.99 5 6.98 5 8 C5.66 8 6.32 8 7 8 C7.18175781 8.54269531 7.36351563 9.08539063 7.55078125 9.64453125 C7.92783203 10.71767578 7.92783203 10.71767578 8.3125 11.8125 C8.67794922 12.87404297 8.67794922 12.87404297 9.05078125 13.95703125 C10.06918729 16.14890927 11.28965424 17.32798132 13 19 C13 19.66 13 20.32 13 21 C20.26 21 27.52 21 35 21 C35 21.33 35 21.66 35 22 C23.12 22 11.24 22 -1 22 C-1 21.67 -1 21.34 -1 21 C2.3 20.67 5.6 20.34 9 20 C8.43410156 18.89140625 7.86820313 17.7828125 7.28515625 16.640625 C6.54405825 15.17719097 5.80318456 13.71364333 5.0625 12.25 C4.68931641 11.52039063 4.31613281 10.79078125 3.93164062 10.0390625 C3.57392578 9.33007812 3.21621094 8.62109375 2.84765625 7.890625 C2.51773682 7.24125977 2.18781738 6.59189453 1.84790039 5.92285156 C0.98547884 3.96706921 0.45625821 2.08459306 0 0 Z " fill="#DAE8F0" transform="translate(77,304)"/>
<path d="M0 0 C4.32045533 0.63861934 8.37480851 1.64584823 12.5625 2.875 C19.9008565 4.94769437 27.29363313 6.03107515 34.85375977 6.96044922 C39.19186979 7.51052893 43.0159077 8.06581411 47 10 C44.46955998 11.26522001 43.23854946 10.92337904 40.44921875 10.546875 C39.52915039 10.4238501 38.60908203 10.3008252 37.66113281 10.17407227 C36.18918457 9.96415649 36.18918457 9.96415649 34.6875 9.75 C33.68944336 9.60941162 32.69138672 9.46882324 31.66308594 9.32397461 C20.60826292 7.71846147 10.26479234 5.5647045 0 1 C0 0.67 0 0.34 0 0 Z " fill="#D7E7F4" transform="translate(146,373)"/>
<path d="M0 0 C0.33 0 0.66 0 1 0 C1.45510807 6.67491831 -0.2327574 12.59374557 -2 19 C-3.65614657 19.38218767 -5.32457024 19.71395102 -7 20 C-7.33 19.67 -7.66 19.34 -8 19 C-7.83441026 13.17888361 -6.52509843 7.59202759 -5 2 C-3.95297814 5.7264085 -3.92557943 9.13013042 -4 13 C-1.51652173 6.64045603 -1.51652173 6.64045603 0 0 Z " fill="#DBF2FD" transform="translate(120,116)"/>
<path d="M0 0 C5.15171623 -0.09038099 9.91913204 0.15318867 15 1 C15 2.65 15 4.3 15 6 C9.47322267 6.19392201 5.24385089 5.7479503 0 4 C0 2.68 0 1.36 0 0 Z " fill="#FAF9F7" transform="translate(308,278)"/>
<path d="M0 0 C9.95662322 -0.67886067 18.52181404 1.30569333 28 4 C23.70272603 5.30660357 20.39784135 4.6596762 16 4 C16 4.99 16 5.98 16 7 C12.7 6.67 9.4 6.34 6 6 C6.99 5.01 7.98 4.02 9 3 C7.50256881 1.50256881 6.01175761 1.66797307 3.9375 1.4375 C2.638125 1.293125 1.33875 1.14875 0 1 C0 0.67 0 0.34 0 0 Z " fill="#DDF5FD" transform="translate(184,99)"/>
<path d="M0 0 C0 0.66 0 1.32 0 2 C-0.598125 2.556875 -1.19625 3.11375 -1.8125 3.6875 C-4.57705642 6.61003107 -5.56174818 9.26054527 -7 13 C-5.35 12.34 -3.7 11.68 -2 11 C-2 11.99 -2 12.98 -2 14 C-3.98 14.33 -5.96 14.66 -8 15 C-8.66 13.35 -9.32 11.7 -10 10 C-10.99 10.99 -11.98 11.98 -13 13 C-12.74337755 11.55989519 -12.46909179 10.1229313 -12.1875 8.6875 C-12.03667969 7.88699219 -11.88585937 7.08648437 -11.73046875 6.26171875 C-10.92427764 3.76554413 -9.97947998 2.67577894 -8 1 C-8.33 2.98 -8.66 4.96 -9 7 C-8.01 7 -7.02 7 -6 7 C-6.33 5.68 -6.66 4.36 -7 3 C-3.375 0 -3.375 0 0 0 Z " fill="#DAF6FE" transform="translate(147,133)"/>
<path d="M0 0 C1.65 0.33 3.3 0.66 5 1 C4.93999894 2.6260287 4.8512115 4.25101549 4.75 5.875 C4.70359375 6.77992188 4.6571875 7.68484375 4.609375 8.6171875 C4 11 4 11 1.953125 12.3203125 C1.30859375 12.54460937 0.6640625 12.76890625 0 13 C-2 11 -2 11 -2.01171875 8.90625 C-1.90472656 8.1121875 -1.79773438 7.318125 -1.6875 6.5 C-1.58824219 5.7059375 -1.48898438 4.911875 -1.38671875 4.09375 C-1 2 -1 2 0 0 Z " fill="#D7F2FE" transform="translate(114,139)"/>
<path d="M0 0 C0.33 0 0.66 0 1 0 C0.67 2.31 0.34 4.62 0 7 C-0.66 7 -1.32 7 -2 7 C-1.9071875 8.5778125 -1.9071875 8.5778125 -1.8125 10.1875 C-2 14 -2 14 -3.46875 16.28125 C-5.40515625 19.71935906 -5.50422636 22.39044401 -5.6875 26.3125 C-5.75324219 27.56675781 -5.81898437 28.82101563 -5.88671875 30.11328125 C-5.94279297 31.54220703 -5.94279297 31.54220703 -6 33 C-6.99 33 -7.98 33 -9 33 C-9.39497717 25.78069511 -8.16511285 20.4157751 -5.625 13.6875 C-5.14933594 12.36782227 -5.14933594 12.36782227 -4.6640625 11.02148438 C-3.28339275 7.23327174 -1.8565414 3.58352121 0 0 Z " fill="#D0E7F0" transform="translate(80,207)"/>
<path d="M0 0 C0.66 0.99 1.32 1.98 2 3 C-2.71953184 10.5892838 -2.71953184 10.5892838 -7.3125 12.0625 C-11.59742146 11.98987421 -15.76235103 11.62459679 -20 11 C-20 10.67 -20 10.34 -20 10 C-18.89140625 9.86464844 -17.7828125 9.72929687 -16.640625 9.58984375 C-15.17684154 9.37402952 -13.71331166 9.15649041 -12.25 8.9375 C-11.52039063 8.85306641 -10.79078125 8.76863281 -10.0390625 8.68164062 C-5.78470237 8.02046015 -5.78470237 8.02046015 -2.59179688 5.31689453 C-1.32882783 3.18544932 -1.32882783 3.18544932 0 0 Z " fill="#E2EDED" transform="translate(197,126)"/>
<path d="M0 0 C0 0.66 0 1.32 0 2 C-2.90548882 4.04169485 -4.40142046 5 -8 5 C-8.33 5.99 -8.66 6.98 -9 8 C-9.66 8.66 -10.32 9.32 -11 10 C-11.66 9.67 -12.32 9.34 -13 9 C-13.12375 9.61875 -13.2475 10.2375 -13.375 10.875 C-14 13 -14 13 -16 15 C-16.99 14.67 -17.98 14.34 -19 14 C-6.97709924 0 -6.97709924 0 0 0 Z " fill="#DCF5FD" transform="translate(158,119)"/>
<path d="M0 0 C5.94 0 11.88 0 18 0 C18.66 1.32 19.32 2.64 20 4 C14.11682907 4.86038468 9.60678837 5.4029093 4 3 C2.67088318 2.65023242 1.33917261 2.30903983 0 2 C0 1.34 0 0.68 0 0 Z " fill="#FAFEFD" transform="translate(59,351)"/>
<path d="M0 0 C1.65 0 3.3 0 5 0 C5.268125 0.763125 5.53625 1.52625 5.8125 2.3125 C7.36365741 5.82301414 9.3729848 7.46007025 12.25 9.9375 C12.8275 10.618125 13.405 11.29875 14 12 C13.75 14.25 13.75 14.25 13 16 C11.35 16 9.7 16 8 16 C8.99 15.34 9.98 14.68 11 14 C10.54109375 13.49210937 10.0821875 12.98421875 9.609375 12.4609375 C6.05320338 8.47145085 2.83291718 4.53266749 0 0 Z " fill="#D0E0EC" transform="translate(96,336)"/>
<path d="M0 0 C1.32 0.33 2.64 0.66 4 1 C4.93854006 8.03905044 5.10808032 14.90272572 5 22 C4.01 22 3.02 22 2 22 C2 15.07 2 8.14 2 1 C1.34 0.67 0.68 0.34 0 0 Z " fill="#D2E8EE" transform="translate(67,247)"/>
<path d="M0 0 C5.52677733 -0.19392201 9.75614911 0.2520497 15 2 C14.67 2.66 14.34 3.32 14 4 C8.72 4 3.44 4 -2 4 C-1.34 2.68 -0.68 1.36 0 0 Z " fill="#F9FEFE" transform="translate(21,263)"/>
<path d="M0 0 C6.93 0 13.86 0 21 0 C21 0.66 21 1.32 21 2 C23.31 2.33 25.62 2.66 28 3 C28.33 2.01 28.66 1.02 29 0 C29 1.65 29 3.3 29 5 C27 6 27 6 24.70703125 5.2578125 C23.75183594 4.88398438 22.79664062 4.51015625 21.8125 4.125 C14.52583792 1.5574034 7.66955501 1.20955068 0 1 C0 0.67 0 0.34 0 0 Z " fill="#CEEEFD" transform="translate(32,213)"/>
<path d="M0 0 C4.75379574 0.01421165 9.25070892 0.14858675 13.92578125 1.1328125 C13.92578125 1.4628125 13.92578125 1.7928125 13.92578125 2.1328125 C7.49078125 2.6278125 7.49078125 2.6278125 0.92578125 3.1328125 C1.91578125 4.6178125 1.91578125 4.6178125 2.92578125 6.1328125 C1.27578125 6.1328125 -0.37421875 6.1328125 -2.07421875 6.1328125 C-2.45640642 4.47666593 -2.78816977 2.80824226 -3.07421875 1.1328125 C-2.07421875 0.1328125 -2.07421875 0.1328125 0 0 Z " fill="#CEEFFB" transform="translate(13.07421875,318.8671875)"/>
<path d="M0 0 C2.5 2.3125 2.5 2.3125 5 5 C5 5.99 5 6.98 5 8 C5.66 8 6.32 8 7 8 C7.53229326 9.26607607 8.05044544 10.53810412 8.5625 11.8125 C8.85253906 12.52019531 9.14257812 13.22789062 9.44140625 13.95703125 C10 16 10 16 9 19 C5.26712744 13.88458205 0 6.466482 0 0 Z " fill="#C5DFF0" transform="translate(77,304)"/>
<path d="M0 0 C0.72767578 0.08314453 1.45535156 0.16628906 2.20507812 0.25195312 C4.04404005 0.48675069 5.86864877 0.82876464 7.6875 1.1875 C8.0175 1.8475 8.3475 2.5075 8.6875 3.1875 C0.83203364 3.50668373 -6.58190505 2.54459504 -14.3125 1.1875 C-14.3125 0.8575 -14.3125 0.5275 -14.3125 0.1875 C-9.2866614 -0.92847361 -5.03040076 -0.67285615 0 0 Z " fill="#D2EEFB" transform="translate(47.3125,326.8125)"/>
<path d="M0 0 C4.95 0.99 4.95 0.99 10 2 C9.67 2.99 9.34 3.98 9 5 C6.03 5 3.06 5 0 5 C0 3.35 0 1.7 0 0 Z " fill="#F6FEFE" transform="translate(0,240)"/>
<path d="M0 0 C4.29 0 8.58 0 13 0 C13 0.33 13 0.66 13 1 C9.7 1.33 6.4 1.66 3 2 C3 2.66 3 3.32 3 4 C3.66 4.33 4.32 4.66 5 5 C1.25 6.125 1.25 6.125 -1 5 C-0.67 3.35 -0.34 1.7 0 0 Z " fill="#DFFCFE" transform="translate(26,345)"/>
<path d="M0 0 C2.97 0.495 2.97 0.495 6 1 C6 1.66 6 2.32 6 3 C7.299375 3.12375 7.299375 3.12375 8.625 3.25 C12.47734858 4.10607746 14.848219 5.67368546 18 8 C17.01 8.495 17.01 8.495 16 9 C14.30419922 8.37915039 14.30419922 8.37915039 12.3046875 7.34765625 C11.58925781 6.98349609 10.87382812 6.61933594 10.13671875 6.24414062 C9.39035156 5.85419922 8.64398438 5.46425781 7.875 5.0625 C6.74384766 4.48338867 6.74384766 4.48338867 5.58984375 3.89257812 C3.72290903 2.93547868 1.86097372 1.96863894 0 1 C0 0.67 0 0.34 0 0 Z " fill="#CBE5F7" transform="translate(127,364)"/>
<path d="M0 0 C1.48892355 4.49937482 0.60628078 8.70167338 0.05859375 13.3203125 C0.03925781 14.20460937 0.01992187 15.08890625 0 16 C0.66 16.66 1.32 17.32 2 18 C0.35 17.67 -1.3 17.34 -3 17 C-2.48517081 11.147205 -1.54642808 5.6702363 0 0 Z " fill="#CFEFFD" transform="translate(115,118)"/>
<path d="M0 0 C1.07817935 3.22730196 0.94858069 4.98126331 -0.3125 8.125 C-0.57675781 8.80820313 -0.84101562 9.49140625 -1.11328125 10.1953125 C-2 12 -2 12 -4 14 C-4.63019694 5.96498906 -4.63019694 5.96498906 -2 1.9375 C-1.34 1.298125 -0.68 0.65875 0 0 Z " fill="#FCFDFC" transform="translate(119,117)"/>
<path d="M0 0 C0.99 0.33 1.98 0.66 3 1 C3.33333333 2.33333333 3.66666667 3.66666667 4 5 C4.99 5.33 5.98 5.66 7 6 C6.67 6.66 6.34 7.32 6 8 C5.01 7.67 4.02 7.34 3 7 C3 7.66 3 8.32 3 9 C2.34 9 1.68 9 1 9 C-1 6 -1 6 -0.625 2.8125 C-0.41875 1.884375 -0.2125 0.95625 0 0 Z " fill="#EEEDEA" transform="translate(320,231)"/>
<path d="M0 0 C-2 2 -2 2 -5 3 C-3.35 3.33 -1.7 3.66 0 4 C-0.66 4.66 -1.32 5.32 -2 6 C-3.9453125 5.7578125 -3.9453125 5.7578125 -6.125 5.125 C-7.21167969 4.81949219 -7.21167969 4.81949219 -8.3203125 4.5078125 C-8.87460938 4.34023438 -9.42890625 4.17265625 -10 4 C-9.67 3.01 -9.34 2.02 -9 1 C-6.04335481 -0.4783226 -3.25770263 -0.06032783 0 0 Z " fill="#F4F2ED" transform="translate(84,264)"/>
<path d="M0 0 C2.31 0 4.62 0 7 0 C7 0.66 7 1.32 7 2 C6.34 2 5.68 2 5 2 C4.773125 2.9075 4.54625 3.815 4.3125 4.75 C2.81872023 8.44888324 1.24599423 9.77905658 -2 12 C-2.66 11.67 -3.32 11.34 -4 11 C-3.50628906 10.44570312 -3.01257813 9.89140625 -2.50390625 9.3203125 C-1.86324219 8.59585938 -1.22257813 7.87140625 -0.5625 7.125 C0.07558594 6.40570313 0.71367187 5.68640625 1.37109375 4.9453125 C3.05014465 3.09249509 3.05014465 3.09249509 4 1 C2.68 0.67 1.36 0.34 0 0 Z " fill="#D1F0F8" transform="translate(207,108)"/>
<path d="M0 0 C0.66 0.33 1.32 0.66 2 1 C-0.21810411 4.38552733 -2.47622986 6.05265334 -6 8 C-6.33 8.33 -6.66 8.66 -7 9 C-9.67058851 9.14115161 -12.32432238 9.04247107 -15 9 C-15 8.67 -15 8.34 -15 8 C-14.01 7.979375 -13.02 7.95875 -12 7.9375 C-6.7869255 7.25521622 -3.5873215 3.56868606 0 0 Z " fill="#CEEAF7" transform="translate(227,96)"/>
<path d="M0 0 C7.3905476 -0.14715692 14.64424835 0.29223008 22 1 C22 1.33 22 1.66 22 2 C7.40318907 3.51708428 7.40318907 3.51708428 0 1 C0 0.67 0 0.34 0 0 Z " fill="#D0ECF9" transform="translate(160,97)"/>
<path d="M0 0 C3.26564448 2.6527376 4.26470079 5.80364271 5.6875 9.6875 C6.34298828 11.45673828 6.34298828 11.45673828 7.01171875 13.26171875 C7.33785156 14.16535156 7.66398438 15.06898438 8 16 C7.34 16.33 6.68 16.66 6 17 C5.18167278 15.10667466 4.37057732 13.21022267 3.5625 11.3125 C3.11003906 10.25675781 2.65757812 9.20101562 2.19140625 8.11328125 C1.14552545 5.38027471 0.46479252 2.87957663 0 0 Z " fill="#D7EEF8" transform="translate(560,236)"/>
<path d="M0 0 C0.33 0.99 0.66 1.98 1 3 C-3.29 3 -7.58 3 -12 3 C-8.6463584 -0.3536416 -4.57608788 0 0 0 Z " fill="#DDF5FB" transform="translate(115,354)"/>
<path d="M0 0 C0.99 0 1.98 0 3 0 C3 2.97 3 5.94 3 9 C2.01 8.67 1.02 8.34 0 8 C0 5.36 0 2.72 0 0 Z " fill="#F6FEFC" transform="translate(114,142)"/>
<path d="M0 0 C2.97 0.495 2.97 0.495 6 1 C6 2.98 6 4.96 6 7 C1.2 4.53846154 1.2 4.53846154 0.1875 1.8125 C0.125625 1.214375 0.06375 0.61625 0 0 Z " fill="#D3E4E9" transform="translate(119,356)"/>
<path d="M0 0 C1 3 1 3 0.3125 5.125 C-1.32014105 7.45734436 -2.27734748 7.48950265 -5 8 C-5.66 8.66 -6.32 9.32 -7 10 C-7.99 9.67 -8.98 9.34 -10 9 C-8.87926138 8.16094435 -7.75325453 7.32892169 -6.625 6.5 C-5.99851562 6.0359375 -5.37203125 5.571875 -4.7265625 5.09375 C-3 4 -3 4 -1 4 C-0.67 2.68 -0.34 1.36 0 0 Z " fill="#D2EEF9" transform="translate(133,147)"/>
<path d="M0 0 C0.66 1.32 1.32 2.64 2 4 C1.01 5.485 1.01 5.485 0 7 C-1.32 7 -2.64 7 -4 7 C-2.92598892 4.08482708 -2.22189824 2.22189824 0 0 Z " fill="#FDFCF8" transform="translate(164,147)"/>
<path d="M0 0 C0.66 0.99 1.32 1.98 2 3 C0.4375 6 0.4375 6 -2 9 C-5.75 9.375 -5.75 9.375 -9 9 C-9 8.67 -9 8.34 -9 8 C-8.071875 7.79375 -7.14375 7.5875 -6.1875 7.375 C-2.73995905 6.25553808 -2.73995905 6.25553808 -1.125 2.875 C-0.75375 1.92625 -0.3825 0.9775 0 0 Z " fill="#D8EEF7" transform="translate(197,126)"/>
<path d="M0 0 C0.99 0.33 1.98 0.66 3 1 C2.21718695 2.33855056 1.42348123 3.67073644 0.625 5 C0.18414062 5.7425 -0.25671875 6.485 -0.7109375 7.25 C-1.34902344 8.11625 -1.34902344 8.11625 -2 9 C-2.66 9 -3.32 9 -4 9 C-2.80100302 5.9168649 -1.52299523 2.93720508 0 0 Z " fill="#E5E9E7" transform="translate(199,127)"/>
<path d="M0 0 C0.33 0 0.66 0 1 0 C1 2.31 1 4.62 1 7 C-0.32 6.67 -1.64 6.34 -3 6 C-3 5.01 -3 4.02 -3 3 C-2.34 3 -1.68 3 -1 3 C-0.67 2.01 -0.34 1.02 0 0 Z " fill="#E5FAFD" transform="translate(117,128)"/>
<path d="M0 0 C-0.33 1.65 -0.66 3.3 -1 5 C-1.66 4.34 -2.32 3.68 -3 3 C-4.32 4.32 -5.64 5.64 -7 7 C-6.61402985 4.20171644 -6.19863427 3.1794116 -4.0625 1.25 C-2 0 -2 0 0 0 Z " fill="#ECFBFF" transform="translate(123,114)"/>
<path d="M0 0 C1.65 1.32 3.3 2.64 5 4 C4.67 5.32 4.34 6.64 4 8 C2.35 8 0.7 8 -1 8 C-0.01 7.34 0.98 6.68 2 6 C1.34 5.01 0.68 4.02 0 3 C0 2.01 0 1.02 0 0 Z " fill="#C4E2F5" transform="translate(105,344)"/>
<path d="M0 0 C0.66 0 1.32 0 2 0 C0.63016497 3.16115776 0.0109362 3.9927092 -3 6 C-3.99 5.67 -4.98 5.34 -6 5 C-4.6875 3.5 -4.6875 3.5 -3 2 C-2.01 2 -1.02 2 0 2 C0 1.34 0 0.68 0 0 Z " fill="#DCF0F8" transform="translate(235,90)"/>
<path d="M0 0 C0 0.66 0 1.32 0 2 C-1.65 2.33 -3.3 2.66 -5 3 C-2.25 0 -2.25 0 0 0 Z M-9 4 C-8.01 4.33 -7.02 4.66 -6 5 C-7.98 5.99 -7.98 5.99 -10 7 C-9.67 6.01 -9.34 5.02 -9 4 Z " fill="#E7E9E6" transform="translate(238,92)"/>
<path d="M0 0 C4.29425875 1.07356469 4.74740471 1.5084773 7 5 C6.67 5.66 6.34 6.32 6 7 C4.02 4.69 2.04 2.38 0 0 Z " fill="#E6F9FD" transform="translate(538,209)"/>
</svg>
